<svg xmlns="http://www.w3.org/2000/svg" viewBox="-32 -32 128 128" width="64" height="64">
    <path fill="#4eb383"
        d="m30.426 0.325 -28 12C0.675 13.075 -0.299 14.95 0.088 16.8s2.013 3.2 3.912 3.2v1A2.992 2.992 0 0 0 7 24h50a2.992 2.992 0 0 0 3 -3V20c1.901 0 3.538 -1.338 3.912 -3.2s-0.6 -3.738 -2.338 -4.475l-28 -12a4.048 4.048 0 0 0 -3.15 0M16 28H8v24.538c-0.075 0.037 -0.15 0.088 -0.226 0.138l-6 4c-1.462 0.974 -2.125 2.8 -1.613 4.488S2.237 64 4 64h56a3.995 3.995 0 0 0 2.213 -7.325l-6 -4c-0.075 -0.05 -0.15 -0.088 -0.226 -0.138L56 28h-8v24h-5v-24h-8v24h-6v-24h-8v24H16zM32 8a4 4 0 1 1 0 8 4 4 0 1 1 0 -8" />
</svg>