<svg xmlns="http://www.w3.org/2000/svg" viewBox="0 0 800 800"><defs><filter id="llleaves-blur-2" x="-100%" y="-100%" width="400%" height="400%"><feGaussianBlur in="SourceGraphic" stdDeviation="2"/></filter><filter id="llleaves-blur-3" x="-100%" y="-100%" width="400%" height="400%"><feGaussianBlur in="SourceGraphic" stdDeviation="4"/></filter><filter id="llleaves-blur-4" x="-100%" y="-100%" width="400%" height="400%"><feGaussianBlur in="SourceGraphic" stdDeviation="12"/></filter></defs><g fill="#5aaf76"><path d="M288 538H338C366 538 388 560 388 588H338C310 588 288 566 288 538Z" transform="matrix(0.21394,-0.50402,0.50402,0.21394,-18.0743,612.908)" opacity="0.84"/><path d="M161 183H211C239 183 261 205 261 233H211C183 233 161 211 161 183Z" transform="matrix(-0.00891,-0.51066,0.51066,-0.00891,106.663,317.603)" opacity="0.78"/><path d="M514 657H564C592 657 614 679 614 707H564C536 707 514 685 514 657Z" transform="matrix(-0.13461,-0.46944,0.46944,-0.13461,319.764,1038.565)" opacity="0.75"/><path d="M708 192H758C786 192 808 214 808 242H758C730 242 708 220 708 192Z" transform="matrix(-0.38021,-0.14595,0.14595,-0.38021,1014.525,410.133)" opacity="0.62"/><path d="M711 518H761C789 518 811 540 811 568H761C733 568 711 546 711 518Z" transform="matrix(-0.38021,-0.14595,0.14595,-0.38021,971.087,860.518)" opacity="0.62"/><path d="M584 77H634C662 77 684 99 684 127H634C606 127 584 105 584 77Z" transform="matrix(-0.37839,-0.01321,0.01321,-0.37839,872.554,148.974)" filter="url(#llleaves-blur-2)" opacity="0.58"/><path d="M567 274H617C645 274 667 296 667 324H617C589 324 567 302 567 274Z" transform="matrix(-0.27418,-0.36385,0.36385,-0.27418,677.378,605.474)" opacity="0.70"/><path d="M130 624H180C208 624 230 646 230 674H180C152 674 130 652 130 624Z" transform="matrix(-0.10264,-0.48288,0.48288,-0.10264,-114.916,802.533)" opacity="0.76"/><path d="M205 20H255C283 20 305 42 305 70H255C227 70 205 48 205 20Z" transform="matrix(0.2043,-0.50566,0.50566,0.2043,180.149,164.749)" opacity="0.84"/><path d="M641 141H691C719 141 741 163 741 191H691C663 191 641 169 641 141Z" transform="matrix(-0.38451,-0.10303,0.10303,-0.38451,939.596,301.023)" filter="url(#llleaves-blur-2)" opacity="0.61"/><path d="M487 494H537C565 494 587 516 587 544H537C509 544 487 522 487 494Z" transform="matrix(-0.08621,-0.48894,0.48894,-0.08621,329.537,826.304)" opacity="0.76"/><path d="M207 566H257C285 566 307 588 307 616H257C229 616 207 594 207 566Z" transform="matrix(0.11036,-0.51921,0.51921,0.11036,-78.2191,659.214)" opacity="0.82"/><path d="M-5 291H45C73 291 95 313 95 341H45C17 341 -5 319 -5 291Z" transform="matrix(-0.38415,-0.11745,0.11745,-0.38415,25.1737,442.677)" opacity="0.62"/><path d="M646 409H696C724 409 746 431 746 459H696C668 459 646 437 646 409Z" transform="matrix(-0.35415,-0.23888,0.23888,-0.35415,838.815,753.959)" opacity="0.66"/><path d="M164 278H214C242 278 264 300 264 328H214C186 328 164 306 164 278Z" transform="matrix(-0.00891,-0.51066,0.51066,-0.00891,61.1773,414.982)" opacity="0.78"/><path d="M-10 108H40C68 108 90 130 90 158H40C12 158 -10 136 -10 108Z" transform="matrix(-0.38202,-0.13154,0.13154,-0.38202,37.786,189.07)" opacity="0.62"/><path d="M462 14H512C540 14 562 36 562 64H512C484 64 462 42 462 14Z" transform="matrix(-0.33722,-0.27308,0.27308,-0.33722,674.008,191.968)" opacity="0.67"/><path d="M162 96H212C240 96 262 118 262 146H212C184 146 162 124 162 96Z" transform="matrix(0.0454,-0.51891,0.51891,0.0454,139.587,225.516)" opacity="0.80"/><path d="M272 379H322C350 379 372 401 372 429H322C294 429 272 407 272 379Z" transform="matrix(0.20455,-0.50628,0.50628,0.20455,51.5981,484.384)" opacity="0.84"/><path d="M500 91H550C578 91 600 113 600 141H550C522 141 500 119 500 91Z" transform="matrix(-0.34425,-0.25941,0.25941,-0.34425,709.246,298.609)" opacity="0.66"/><path d="M-11 565H39C67 565 89 587 89 615H39C11 615 -11 593 -11 565Z" transform="matrix(-0.38415,-0.11745,0.11745,-0.38415,-15.3116,821.229)" opacity="0.62"/><path d="M712 593H762C790 593 812 615 812 643H762C734 643 712 621 712 593Z" transform="matrix(-0.38021,-0.14595,0.14595,-0.38021,961.521,964.179)" opacity="0.62"/><path d="M475 267H525C553 267 575 289 575 317H525C497 317 475 295 475 267Z" transform="matrix(-0.04396,-0.50244,0.50244,-0.04396,401.366,568.616)" opacity="0.77"/><path d="M715 436H765C793 436 815 458 815 486H765C737 486 715 464 715 436Z" transform="matrix(-0.38021,-0.14595,0.14595,-0.38021,988.576,747.925)" opacity="0.62"/><path d="M110 11H160C188 11 210 33 210 61H160C132 61 110 39 110 11Z" transform="matrix(-0.06123,-0.49871,0.49871,-0.06123,151.844,117.998)" opacity="0.77"/><path d="M648 287H698C726 287 748 309 748 337H698C670 337 648 315 648 287Z" transform="matrix(-0.35415,-0.23888,0.23888,-0.35415,870.667,589.23)" opacity="0.66"/><path d="M358 397H408C436 397 458 419 458 447H408C380 447 358 425 358 397Z" transform="matrix(0.18598,-0.51099,0.51099,0.18598,116.482,551.997)" opacity="0.84"/><path d="M714 737H764C792 737 814 759 814 787H764C736 787 714 765 714 737Z" transform="matrix(-0.38021,-0.14595,0.14595,-0.38021,943.265,1163.221)" opacity="0.62"/><path d="M716 269H766C794 269 816 291 816 319H766C738 319 716 297 716 269Z" transform="matrix(-0.38021,-0.14595,0.14595,-0.38021,1014.329,517.576)" opacity="0.62"/><path d="M-11 476H39C67 476 89 498 89 526H39C11 526 -11 504 -11 476Z" transform="matrix(-0.38415,-0.11745,0.11745,-0.38415,-4.85885,698.04)" opacity="0.62"/><path d="M431 650H481C509 650 531 672 531 700H481C453 700 431 678 431 650Z" transform="matrix(0.07312,-0.52027,0.52027,0.07312,94.6477,875.894)" opacity="0.81"/><path d="M80 248H130C158 248 180 270 180 298H130C102 298 80 276 80 248Z" transform="matrix(-0.24541,-0.39274,0.39274,-0.24541,54.6855,391.053)" opacity="0.71"/><path d="M318 735H368C396 735 418 757 418 785H368C340 785 318 763 318 735Z" transform="matrix(0.21397,-0.50409,0.50409,0.21397,-93.8465,782.885)" opacity="0.84"/><path d="M188 363H238C266 363 288 385 288 413H238C210 413 188 391 188 363Z" transform="matrix(0.07305,-0.51978,0.51978,0.07305,18.9384,483.365)" opacity="0.81"/><path d="M401 735H451C479 735 501 757 501 785H451C423 785 401 763 401 735Z" transform="matrix(0.11044,-0.51957,0.51957,0.11044,6.31561,910.394)" opacity="0.82"/><path d="M254 293H304C332 293 354 315 354 343H304C276 343 254 321 254 293Z" transform="matrix(0.18592,-0.5108,0.5108,0.18592,85.0475,414.162)" opacity="0.84"/><path d="M377 13H427C455 13 477 35 477 63H427C399 63 377 41 377 13Z" transform="matrix(-0.06953,-0.49474,0.49474,-0.06953,437.89,251.895)" opacity="0.77"/><path d="M627 7H677C705 7 727 29 727 57H677C649 57 627 35 627 7Z" transform="matrix(-0.20653,0.22147,-0.22147,-0.20653,823.906,-111.329)" filter="url(#llleaves-blur-2)" opacity="0.46"/><path d="M399 243H449C477 243 499 265 499 293H449C421 293 399 271 399 243Z" transform="matrix(0.1478,-0.51546,0.51546,0.1478,244.494,459.828)" opacity="0.82"/><path d="M138 517H188C216 517 238 539 238 567H188C160 567 138 545 138 517Z" transform="matrix(-0.06125,-0.49881,0.49881,-0.06125,-70.8412,668.972)" opacity="0.77"/><path d="M567 514H617C645 514 667 536 667 564H617C589 564 567 542 567 514Z" transform="matrix(-0.27418,-0.36385,0.36385,-0.27418,590.054,911.277)" opacity="0.70"/><path d="M620 212H670C698 212 720 234 720 262H670C642 262 620 240 620 212Z" transform="matrix(-0.34167,-0.26694,0.26694,-0.34167,835.655,496.83)" opacity="0.67"/><path d="M255 119H305C333 119 355 141 355 169H305C277 169 255 147 255 119Z" transform="matrix(0.19527,-0.50869,0.50869,0.19527,172.192,271.032)" opacity="0.84"/><path d="M381 500H431C459 500 481 522 481 550H431C403 550 381 528 381 500Z" transform="matrix(0.16701,-0.51399,0.51399,0.16701,89.172,658.853)" opacity="0.83"/><path d="M288 17H338C366 17 388 39 388 67H338C310 67 288 45 288 17Z" transform="matrix(0.1761,-0.51142,0.51142,0.1761,257,207.463)" opacity="0.83"/><path d="M632 577H682C710 577 732 599 732 627H682C654 627 632 605 632 577Z" transform="matrix(-0.34167,-0.26694,0.26694,-0.34167,754.321,989.744)" opacity="0.67"/><path d="M57 645H107C135 645 157 667 157 695H107C79 695 57 673 57 645Z" transform="matrix(-0.29038,-0.34606,0.34606,-0.29038,-93.7871,901.579)" opacity="0.69"/><path d="M-5 381H45C73 381 95 403 95 431H45C17 431 -5 409 -5 381Z" transform="matrix(-0.38415,-0.11745,0.11745,-0.38415,14.6035,567.25)" opacity="0.62"/><path d="M63 449H113C141 449 163 471 163 499H113C85 499 63 477 63 449Z" transform="matrix(-0.29038,-0.34606,0.34606,-0.29038,-18.2179,650.742)" opacity="0.69"/><path d="M85 344H135C163 344 185 366 185 394H135C107 394 85 372 85 344Z" transform="matrix(-0.20028,-0.42951,0.42951,-0.20028,3.54856,500.889)" opacity="0.73"/><path d="M278 631H328C356 631 378 653 378 681H328C300 681 278 659 278 631Z" transform="matrix(0.20455,-0.50628,0.50628,0.20455,-71.2116,687.875)" opacity="0.84"/><path d="M332 87H382C410 87 432 109 432 137H382C354 137 332 115 332 87Z" transform="matrix(0.14782,-0.5155,0.5155,0.14782,267.798,292.365)" opacity="0.82"/><path d="M-6 200H44C72 200 94 222 94 250H44C16 250 -6 228 -6 200Z" transform="matrix(-0.38415,-0.11745,0.11745,-0.38415,34.4771,316.601)" opacity="0.62"/></g><g fill="none" stroke="#5aaf76" stroke-width="3"><path d="M454 171H504C532 171 554 193 554 221H504C476 221 454 199 454 171Z" transform="matrix(0,-0.51187,0.51187,0,403.673,453.984)" opacity="0.79"/><path d="M243 731H293C321 731 343 753 343 781H293C265 781 243 759 243 731Z" transform="matrix(0.16693,-0.51376,0.51376,0.16693,-144.313,780.332)" opacity="0.83"/><path d="M159 731H209C237 731 259 753 259 781H209C181 781 159 759 159 731Z" transform="matrix(-0.00891,-0.51066,0.51066,-0.00891,-175.197,869.467)" opacity="0.78"/><path d="M203 656H253C281 656 303 678 303 706H253C225 706 203 684 203 656Z" transform="matrix(0.11036,-0.51921,0.51921,0.11036,-128.507,737.204)" opacity="0.82"/><path d="M714 15H764C792 15 814 37 814 65H764C736 65 714 43 714 15Z" transform="matrix(-0.17694,0.2348,-0.2348,-0.17694,908.572,-132.312)" filter="url(#llleaves-blur-3)" opacity="0.45"/><path d="M719 109H769C797 109 819 131 819 159H769C741 159 719 137 719 109Z" transform="matrix(-0.3615,0.04439,-0.04439,-0.3615,1052.94,148.308)" filter="url(#llleaves-blur-2)" opacity="0.56"/><path d="M604 654H654C682 654 704 676 704 704H654C626 704 604 682 604 654Z" transform="matrix(-0.32216,-0.30042,0.30042,-0.32216,660.708,1094.225)" opacity="0.68"/><path d="M427 434H477C505 434 527 456 527 484H477C449 484 427 462 427 434Z" transform="matrix(0.07312,-0.52027,0.52027,0.07312,203.318,673.607)" opacity="0.81"/><path d="M78 158H128C156 158 178 180 178 208H128C100 208 78 186 78 158Z" transform="matrix(-0.24541,-0.39274,0.39274,-0.24541,87.5412,278.181)" opacity="0.71"/><path d="M418 91H468C496 91 518 113 518 141H468C440 141 418 119 418 91Z" transform="matrix(-0.13447,-0.46895,0.46895,-0.13447,476.533,351.066)" opacity="0.75"/><path d="M567 432H617C645 432 667 454 667 482H617C589 482 567 460 567 432Z" transform="matrix(-0.27418,-0.36385,0.36385,-0.27418,619.89,806.794)" opacity="0.70"/><path d="M342 310H392C420 310 442 332 442 360H392C364 360 342 338 342 310Z" transform="matrix(0.2046,-0.50641,0.50641,0.2046,142.148,464.971)" opacity="0.84"/><path d="M521 338H571C599 338 621 360 621 388H571C543 388 521 366 521 338Z" transform="matrix(-0.17205,-0.4482,0.4482,-0.17205,506.542,681.377)" opacity="0.74"/><path d="M640 489H690C718 489 740 511 740 539H690C662 539 640 517 640 489Z" transform="matrix(-0.35415,-0.23888,0.23888,-0.35415,811.58,860.857)" opacity="0.66"/><path d="M543 12H593C621 12 643 34 643 62H593C565 62 543 40 543 12Z" transform="matrix(-0.362,0.04445,-0.04445,-0.362,809.308,24.0365)" filter="url(#llleaves-blur-2)" opacity="0.56"/><path d="M603 351H653C681 351 703 373 703 401H653C625 401 603 379 603 351Z" transform="matrix(-0.32216,-0.30042,0.30042,-0.32216,750.414,693.309)" opacity="0.68"/><path d="M70 76H120C148 76 170 98 170 126H120C92 126 70 104 70 76Z" transform="matrix(-0.20038,-0.42971,0.42971,-0.20038,100.644,172.804)" opacity="0.73"/><path d="M450 567H500C528 567 550 589 550 617H500C472 617 450 595 450 567Z" transform="matrix(0,-0.51187,0.51187,0,196.972,847.936)" opacity="0.79"/><path d="M236 207H286C314 207 336 229 336 257H286C258 257 236 235 236 207Z" transform="matrix(0.16693,-0.51376,0.51376,0.16693,119.066,340.207)" opacity="0.83"/><path d="M301 458H351C379 458 401 480 401 508H351C323 508 301 486 301 458Z" transform="matrix(0.21415,-0.5045,0.5045,0.21415,32.1578,556.647)" opacity="0.84"/><path d="M-16 651H34C62 651 84 673 84 701H34C6 701 -16 679 -16 651Z" transform="matrix(-0.38415,-0.11745,0.11745,-0.38415,-32.3328,939.679)" opacity="0.62"/><path d="M363 583H413C441 583 463 605 463 633H413C385 633 363 611 363 583Z" transform="matrix(0.18598,-0.51099,0.51099,0.18598,25.5087,705.959)" opacity="0.84"/><path d="M0 16H50C78 16 100 38 100 66H50C22 66 0 44 0 16Z" transform="matrix(-0.37963,-0.14573,0.14573,-0.37963,63.0068,63.8513)" opacity="0.62"/><path d="M708 351H758C786 351 808 373 808 401H758C730 401 708 379 708 351Z" transform="matrix(-0.38021,-0.14595,0.14595,-0.38021,991.32,629.585)" opacity="0.62"/><path d="M559 734H609C637 734 659 756 659 784H609C581 784 559 762 559 734Z" transform="matrix(-0.24567,-0.39315,0.39315,-0.24567,460.209,1184.895)" opacity="0.71"/><path d="M428 340H478C506 340 528 362 528 390H478C450 390 428 368 428 340Z" transform="matrix(0.07312,-0.52027,0.52027,0.07312,253.151,587)" opacity="0.81"/><path d="M538 584H588C616 584 638 606 638 634H588C560 634 538 612 538 584Z" transform="matrix(-0.21419,-0.42038,0.42038,-0.21419,457.935,986.626)" opacity="0.72"/><path d="M526 210H576C604 210 626 232 626 260H576C548 260 526 238 526 210Z" transform="matrix(-0.17205,-0.4482,0.4482,-0.17205,569.773,533.596)" opacity="0.74"/><path d="M661 69H711C739 69 761 91 761 119H711C683 119 661 97 661 69Z" transform="matrix(-0.30578,0.14259,-0.14259,-0.30578,941.814,21.3631)" filter="url(#llleaves-blur-2)" opacity="0.52"/><path d="M215 465H265C293 465 315 487 315 515H265C237 515 215 493 215 465Z" transform="matrix(0.11036,-0.51921,0.51921,0.11036,-18.6613,573.514)" opacity="0.82"/><path d="M66 549H116C144 549 166 571 166 599H116C88 599 66 577 66 549Z" transform="matrix(-0.29038,-0.34606,0.34606,-0.29038,-48.9524,780.818)" opacity="0.69"/><path d="M479 734H529C557 734 579 756 579 784H529C501 784 479 762 479 734Z" transform="matrix(-0.04396,-0.50244,0.50244,-0.04396,170.903,1058.154)" opacity="0.77"/><path d="M-6 734H44C72 734 94 756 94 784H44C16 784 -6 762 -6 734Z" transform="matrix(-0.38415,-0.11745,0.11745,-0.38415,-28.2393,1055.738)" opacity="0.62"/><path d="M350 664H400C428 664 450 686 450 714H400C372 714 350 692 350 664Z" transform="matrix(0.2046,-0.50641,0.50641,0.2046,-30.7583,750.593)" opacity="0.84"/><path d="M556 148H606C634 148 656 170 656 198H606C578 198 556 176 556 148Z" transform="matrix(-0.29527,-0.33967,0.33967,-0.29527,726.172,429.923)" opacity="0.69"/><path d="M80 730H130C158 730 180 752 180 780H130C102 780 80 758 80 730Z" transform="matrix(-0.24541,-0.39274,0.39274,-0.24541,-134.615,991.341)" opacity="0.71"/><path d="M637 733H687C715 733 737 755 737 783H687C659 783 637 761 637 733Z" transform="matrix(-0.35415,-0.23888,0.23888,-0.35415,749.232,1190.553)" opacity="0.66"/><path d="M699 663H749C777 663 799 685 799 713H749C721 713 699 691 699 663Z" transform="matrix(-0.37579,-0.16731,0.16731,-0.37579,915.355,1071.859)" opacity="0.63"/><path d="M495 406H545C573 406 595 428 595 456H545C517 456 495 434 495 406Z" transform="matrix(-0.08621,-0.48894,0.48894,-0.08621,381.254,734.629)" opacity="0.76"/><path d="M313 220H363C391 220 413 242 413 270H363C335 270 313 248 313 220Z" transform="matrix(0.21415,-0.5045,0.5045,0.21415,161.66,375.669)" opacity="0.84"/><path d="M362 160H412C440 160 462 182 462 210H412C384 210 362 188 362 160Z" transform="matrix(0.18598,-0.51099,0.51099,0.18598,240.842,361.119)" opacity="0.84"/><path d="M136 424H186C214 424 236 446 236 474H186C158 474 136 452 136 424Z" transform="matrix(-0.06125,-0.49881,0.49881,-0.06125,-26.5742,569.278)" opacity="0.77"/></g></svg>
