<svg xmlns="http://www.w3.org/2000/svg" viewBox="-24 -32 128 128" width="80" height="64">
    <path fill="#4eb383"
        d="M42.225 0.675a4 4 0 0 0 -4.45 0L20.787 12H6C2.688 12 0 14.688 0 18v40c0 3.313 2.688 6 6 6h26v-12c0 -4.412 3.588 -8 8 -8s8 3.588 8 8v12h26c3.313 0 6 -2.688 6 -6v-40c0 -3.313 -2.688 -6 -6 -6H59.212zM12 24h4c1.1 0 2 0.9 2 2v8c0 1.1 -0.9 2 -2 2H12c-1.1 0 -2 -0.9 -2 -2v-8c0 -1.1 0.9 -2 2 -2m50 2c0 -1.1 0.9 -2 2 -2h4c1.1 0 2 0.9 2 2v8c0 1.1 -0.9 2 -2 2h-4c-1.1 0 -2 -0.9 -2 -2zM12 40h4c1.1 0 2 0.9 2 2V50c0 1.1 -0.9 2 -2 2H12c-1.1 0 -2 -0.9 -2 -2v-8c0 -1.1 0.9 -2 2 -2m50 2c0 -1.1 0.9 -2 2 -2h4c1.1 0 2 0.9 2 2V50c0 1.1 -0.9 2 -2 2h-4c-1.1 0 -2 -0.9 -2 -2zm-33 -20a11 11 0 1 1 22 0 11 11 0 1 1 -22 0m11 -6c-1.1 0 -2 0.9 -2 2v4c0 1.1 0.9 2 2 2h4c1.1 0 2 -0.9 2 -2s-0.9 -2 -2 -2h-2v-2c0 -1.1 -0.9 -2 -2 -2" />
</svg>