<svg xmlns="http://www.w3.org/2000/svg" viewBox="-24 -32 128 128" width="80" height="64">
  <path fill="#4eb383"
    d="m41.938 0.5 36 20c1.925 1.075 2.625 3.513 1.55 5.438s-3.513 2.625 -5.438 1.55L40 8.575 5.938 27.5c-1.925 1.075 -4.363 0.375 -5.438 -1.55s-0.375 -4.363 1.55 -5.438L38.063 0.5c1.212 -0.675 2.675 -0.675 3.887 0zM40 20a5 5 0 1 1 0 10 5 5 0 1 1 0 -10m-22 12a5 5 0 1 1 0 10 5 5 0 1 1 0 -10m39 5a5 5 0 1 1 10 0 5 5 0 1 1 -10 0M28.363 61.425 25 55.188V60c0 2.212 -1.787 4 -4 4H15c-2.212 0 -4 -1.787 -4 -4v-4.813l-3.362 6.238c-0.787 1.462 -2.6 2 -4.063 1.225s-2 -2.6 -1.225 -4.063l4.737 -8.787a11 11 0 0 1 9.688 -5.787h2.438c2.037 0 3.987 0.563 5.675 1.575l4.2 -7.788a11 11 0 0 1 9.688 -5.787h2.438c4.05 0 7.763 2.225 9.688 5.787l4.2 7.788a11 11 0 0 1 5.675 -1.575h2.438c4.05 0 7.763 2.225 9.688 5.787l4.737 8.787c0.787 1.462 0.237 3.275 -1.225 4.063s-3.275 0.237 -4.063 -1.225l-3.35 -6.238V60c0 2.212 -1.787 4 -4 4h-6c-2.212 0 -4 -1.787 -4 -4v-4.813l-3.362 6.238c-0.787 1.462 -2.6 2 -4.063 1.225s-2 -2.6 -1.225 -4.063l4.537 -8.438c-0.213 -0.213 -0.4 -0.45 -0.537 -0.725l-3.35 -6.238V50c0 2.212 -1.787 4 -4 4h-6c-2.212 0 -4 -1.787 -4 -4v-6.813l-3.362 6.238c-0.15 0.275 -0.325 0.512 -0.537 0.725l4.537 8.438c0.787 1.462 0.237 3.275 -1.225 4.063s-3.275 0.237 -4.063 -1.225z" />
</svg>