<svg width="512" height="512" viewBox="0 0 512 512" fill="none" xmlns="http://www.w3.org/2000/svg">
<g clip-path="url(#clip0_3_5)">
<g clip-path="url(#clip1_3_5)">
<g filter="url(#filter0_dddddd_3_5)">
<circle cx="256" cy="256" r="212" fill="white"/>
</g>
<path d="M142.261 376.267C129.5 363.4 118.946 349.088 111.01 332.886C103.289 317.122 98.0386 300.521 95.3405 283.1C93.6676 272.298 93.0031 261.434 93.3566 250.518C94.2987 221.43 101.572 194.128 116.096 168.951C130.769 143.517 150.638 123.323 175.763 108.528C193.68 97.9777 212.992 91.4044 233.382 88.0052C245.436 85.9957 257.618 85.9381 269.743 86.5239C294.104 87.701 317.092 94.3276 338.721 105.789C367.833 121.214 390.253 143.601 406.204 172.712C408.841 177.523 410.991 182.565 413.045 187.657C413.86 189.675 413.442 191.078 411.706 192.197C404.091 197.107 395.95 199.276 386.959 197.159C381.255 195.816 375.835 193.702 370.566 191.14C366.04 188.938 362.354 185.837 359.424 181.629C346.962 163.734 330.604 150.54 311.183 141.235C299.36 135.57 286.856 132.309 273.841 130.785C269.546 130.283 265.203 130.146 260.993 130.144C242.883 130.136 225.348 133.45 208.787 141.326C186.469 151.941 168.599 167.689 155.403 188.815C147.331 201.738 142.14 215.85 139.331 230.876C139.203 231.564 139.187 232.06 139.782 232.668C140.786 233.693 140.383 237.003 139.267 237.851C139.081 237.992 138.658 237.811 138.134 237.756C135.235 265.003 139.14 291.008 152.009 315.258C162.79 335.574 178.007 351.774 197.474 363.773C212.141 372.814 228.071 378.261 245.049 380.332C267.606 383.083 289.359 379.916 309.897 369.817C320.401 364.652 329.908 357.971 337.26 348.552C343.237 340.895 345.491 332.085 344.844 322.428C344.779 321.46 344.752 321.462 342.965 319.819C344.613 318.987 344.321 317.696 344.025 316.173C340.266 296.878 329.424 282.182 314.973 269.822C306.449 262.531 296.957 256.779 287.033 251.687C284.53 250.403 282.382 250.193 279.861 252.317C297.032 266.381 314.035 280.62 328.133 298.069C328.05 299.431 328.755 300.685 329.615 301.946C331.803 305.152 333.534 308.62 335.182 312.139C336.075 314.047 335.595 314.908 333.569 315.259C304.292 320.333 277.419 314.317 253.421 296.569C232.99 281.459 218.54 261.666 210.711 237.089C207.792 227.926 206.407 218.517 206.438 208.912C206.448 205.978 207.04 203.048 207.305 200.111C207.464 198.344 208.295 198.086 209.856 198.522C216.752 200.453 223.714 202.108 230.845 202.848C239.112 203.705 247.375 204.551 255.72 203.948C263.303 203.401 270.847 204.237 278.349 205.262C290.162 206.875 301.389 210.49 311.989 216.027C334.365 227.713 349.143 245.8 356.098 270.392C359.859 283.692 360.615 297.324 360.095 311.059C359.927 315.509 359.398 319.945 359.033 324.4C360.253 324.635 360.526 323.842 360.901 323.242C369.416 309.641 374.772 294.833 377.331 278.951C378.601 271.064 378.561 263.106 378.264 255.178C378.043 249.286 379.958 244.62 384.229 240.803C394.427 231.689 406.364 226.55 419.802 225.105C423.753 224.681 424.762 225.669 425.232 229.619C426.79 242.729 427.097 255.872 426.231 269.066C425.067 286.774 421.039 303.77 414.272 320.084C401.234 351.52 381.069 377.173 353.359 396.549C333.021 410.771 310.652 419.848 286.166 423.521C275.096 425.182 263.975 425.968 252.834 425.357C220.808 423.602 191.263 414.084 164.784 395.427C156.761 389.774 149.244 383.477 142.261 376.267Z" fill="#00B87A"/>
<path d="M361.1 316.621C363.305 317 361.516 318.519 361.904 319.48C360.786 318.84 360.387 317.964 361.1 316.621Z" fill="#00B87A"/>
</g>
</g>
<defs>
<filter id="filter0_dddddd_3_5" x="-36" y="-40" width="584" height="584" filterUnits="userSpaceOnUse" color-interpolation-filters="sRGB">
<feFlood flood-opacity="0" result="BackgroundImageFix"/>
<feColorMatrix in="SourceAlpha" type="matrix" values="0 0 0 0 0 0 0 0 0 0 0 0 0 0 0 0 0 0 127 0" result="hardAlpha"/>
<feOffset dy="-0.11069"/>
<feGaussianBlur stdDeviation="1.1069"/>
<feColorMatrix type="matrix" values="0 0 0 0 0 0 0 0 0 0 0 0 0 0 0 0 0 0 0.07 0"/>
<feBlend mode="normal" in2="BackgroundImageFix" result="effect1_dropShadow_3_5"/>
<feColorMatrix in="SourceAlpha" type="matrix" values="0 0 0 0 0 0 0 0 0 0 0 0 0 0 0 0 0 0 127 0" result="hardAlpha"/>
<feOffset dy="-0.266004"/>
<feGaussianBlur stdDeviation="2.66004"/>
<feColorMatrix type="matrix" values="0 0 0 0 0 0 0 0 0 0 0 0 0 0 0 0 0 0 0.0503198 0"/>
<feBlend mode="normal" in2="effect1_dropShadow_3_5" result="effect2_dropShadow_3_5"/>
<feColorMatrix in="SourceAlpha" type="matrix" values="0 0 0 0 0 0 0 0 0 0 0 0 0 0 0 0 0 0 127 0" result="hardAlpha"/>
<feOffset dy="-0.500862"/>
<feGaussianBlur stdDeviation="5.00862"/>
<feColorMatrix type="matrix" values="0 0 0 0 0 0 0 0 0 0 0 0 0 0 0 0 0 0 0.0417275 0"/>
<feBlend mode="normal" in2="effect2_dropShadow_3_5" result="effect3_dropShadow_3_5"/>
<feColorMatrix in="SourceAlpha" type="matrix" values="0 0 0 0 0 0 0 0 0 0 0 0 0 0 0 0 0 0 127 0" result="hardAlpha"/>
<feOffset dy="-0.893452"/>
<feGaussianBlur stdDeviation="8.93452"/>
<feColorMatrix type="matrix" values="0 0 0 0 0 0 0 0 0 0 0 0 0 0 0 0 0 0 0.035 0"/>
<feBlend mode="normal" in2="effect3_dropShadow_3_5" result="effect4_dropShadow_3_5"/>
<feColorMatrix in="SourceAlpha" type="matrix" values="0 0 0 0 0 0 0 0 0 0 0 0 0 0 0 0 0 0 127 0" result="hardAlpha"/>
<feOffset dy="-1.6711"/>
<feGaussianBlur stdDeviation="16.711"/>
<feColorMatrix type="matrix" values="0 0 0 0 0 0 0 0 0 0 0 0 0 0 0 0 0 0 0.0282725 0"/>
<feBlend mode="normal" in2="effect4_dropShadow_3_5" result="effect5_dropShadow_3_5"/>
<feColorMatrix in="SourceAlpha" type="matrix" values="0 0 0 0 0 0 0 0 0 0 0 0 0 0 0 0 0 0 127 0" result="hardAlpha"/>
<feOffset dy="-4"/>
<feGaussianBlur stdDeviation="40"/>
<feColorMatrix type="matrix" values="0 0 0 0 0 0 0 0 0 0 0 0 0 0 0 0 0 0 0.0196802 0"/>
<feBlend mode="normal" in2="effect5_dropShadow_3_5" result="effect6_dropShadow_3_5"/>
<feBlend mode="normal" in="SourceGraphic" in2="effect6_dropShadow_3_5" result="shape"/>
</filter>
<clipPath id="clip0_3_5">
<rect width="512" height="512" fill="white"/>
</clipPath>
<clipPath id="clip1_3_5">
<rect width="512" height="512" fill="white"/>
</clipPath>
</defs>
</svg>
