<svg width="192" height="192" viewBox="0 0 192 192" fill="none" xmlns="http://www.w3.org/2000/svg">
<g clip-path="url(#clip0_3_6)">
<g clip-path="url(#clip1_3_6)">
<g filter="url(#filter0_dddddd_3_6)">
<circle cx="96" cy="96" r="79.5" fill="white"/>
</g>
<path d="M53.3478 141.1C48.5623 136.275 44.6047 130.908 41.6288 124.832C38.7333 118.921 36.7645 112.695 35.7527 106.162C35.1253 102.112 34.8762 98.0377 35.0087 93.9444C35.362 83.0361 38.0896 72.7979 43.5362 63.3565C49.0383 53.8188 56.4891 46.2462 65.9111 40.698C72.6298 36.7416 79.872 34.2766 87.5183 33.0019C92.0386 32.2483 96.6067 32.2267 101.153 32.4464C110.289 32.8878 118.909 35.3728 127.02 39.6707C137.937 45.4553 146.345 53.8504 152.327 64.7669C153.315 66.5712 154.122 68.4617 154.892 70.3713C155.197 71.128 155.041 71.6541 154.39 72.0738C151.534 73.915 148.481 74.7286 145.11 73.9347C142.97 73.431 140.938 72.6382 138.962 71.6773C137.265 70.8519 135.883 69.6888 134.784 68.1107C130.111 61.4001 123.976 56.4524 116.694 52.9631C112.26 50.8387 107.571 49.6158 102.69 49.0445C101.08 48.856 99.4511 48.8046 97.8725 48.8039C91.0812 48.8009 84.5054 50.0436 78.2952 52.9972C69.9258 56.9777 63.2247 62.8834 58.276 70.8058C55.249 75.6518 53.3024 80.9438 52.2492 86.5784C52.201 86.8364 52.1949 87.0225 52.4181 87.2503C52.7947 87.6349 52.6435 88.8761 52.225 89.1943C52.1554 89.2471 51.9968 89.179 51.8003 89.1585C50.7129 99.3762 52.1777 109.128 57.0034 118.222C61.0463 125.84 66.7525 131.915 74.0527 136.415C79.5528 139.805 85.5266 141.848 91.8932 142.624C100.352 143.656 108.51 142.468 116.212 138.681C120.151 136.745 123.715 134.239 126.472 130.707C128.714 127.835 129.559 124.532 129.317 120.91C129.292 120.547 129.282 120.548 128.612 119.932C129.23 119.62 129.121 119.136 129.009 118.565C127.6 111.329 123.534 105.818 118.115 101.183C114.918 98.449 111.359 96.2922 107.637 94.3827C106.699 93.9012 105.893 93.8222 104.948 94.6187C111.387 99.8928 117.763 105.233 123.05 111.776C123.019 112.287 123.283 112.757 123.606 113.23C124.426 114.432 125.075 115.732 125.693 117.052C126.028 117.768 125.848 118.09 125.088 118.222C114.11 120.125 104.032 117.869 95.0331 111.214C87.3712 105.547 81.9527 98.1247 79.0167 88.9084C77.9222 85.4724 77.4028 81.944 77.4143 78.3421C77.4178 77.2417 77.64 76.1431 77.7393 75.0416C77.7989 74.3791 78.1107 74.2821 78.6958 74.4459C81.2819 75.1698 83.8928 75.7905 86.567 76.0678C89.6672 76.3893 92.7655 76.7066 95.895 76.4806C98.7385 76.2754 101.568 76.589 104.381 76.9732C108.811 77.5782 113.021 78.9338 116.996 81.0099C125.387 85.3925 130.929 92.1749 133.537 101.397C134.947 106.385 135.231 111.497 135.036 116.647C134.973 118.316 134.774 119.979 134.637 121.65C135.095 121.738 135.197 121.441 135.338 121.216C138.531 116.116 140.539 110.562 141.499 104.607C141.975 101.649 141.96 98.6646 141.849 95.6917C141.766 93.4821 142.484 91.7324 144.086 90.3009C147.91 86.8833 152.386 84.9561 157.426 84.4145C158.907 84.2552 159.286 84.6257 159.462 86.1069C160.046 91.0235 160.161 95.952 159.836 100.9C159.4 107.54 157.889 113.914 155.352 120.032C150.463 131.82 142.901 141.44 132.51 148.706C124.883 154.039 116.495 157.443 107.312 158.82C103.161 159.443 98.9908 159.738 94.8126 159.509C82.8031 158.851 71.7234 155.281 61.7941 148.285C58.7854 146.165 55.9664 143.804 53.3478 141.1Z" fill="#00B87A"/>
<path d="M135.413 118.733C136.239 118.875 135.569 119.445 135.714 119.805C135.295 119.565 135.145 119.237 135.413 118.733Z" fill="#00B87A"/>
</g>
</g>
<defs>
<filter id="filter0_dddddd_3_6" x="-13.5" y="-15" width="219" height="219" filterUnits="userSpaceOnUse" color-interpolation-filters="sRGB">
<feFlood flood-opacity="0" result="BackgroundImageFix"/>
<feColorMatrix in="SourceAlpha" type="matrix" values="0 0 0 0 0 0 0 0 0 0 0 0 0 0 0 0 0 0 127 0" result="hardAlpha"/>
<feOffset dy="-0.0415088"/>
<feGaussianBlur stdDeviation="0.415088"/>
<feColorMatrix type="matrix" values="0 0 0 0 0 0 0 0 0 0 0 0 0 0 0 0 0 0 0.07 0"/>
<feBlend mode="normal" in2="BackgroundImageFix" result="effect1_dropShadow_3_6"/>
<feColorMatrix in="SourceAlpha" type="matrix" values="0 0 0 0 0 0 0 0 0 0 0 0 0 0 0 0 0 0 127 0" result="hardAlpha"/>
<feOffset dy="-0.0997515"/>
<feGaussianBlur stdDeviation="0.997515"/>
<feColorMatrix type="matrix" values="0 0 0 0 0 0 0 0 0 0 0 0 0 0 0 0 0 0 0.0503198 0"/>
<feBlend mode="normal" in2="effect1_dropShadow_3_6" result="effect2_dropShadow_3_6"/>
<feColorMatrix in="SourceAlpha" type="matrix" values="0 0 0 0 0 0 0 0 0 0 0 0 0 0 0 0 0 0 127 0" result="hardAlpha"/>
<feOffset dy="-0.187823"/>
<feGaussianBlur stdDeviation="1.87823"/>
<feColorMatrix type="matrix" values="0 0 0 0 0 0 0 0 0 0 0 0 0 0 0 0 0 0 0.0417275 0"/>
<feBlend mode="normal" in2="effect2_dropShadow_3_6" result="effect3_dropShadow_3_6"/>
<feColorMatrix in="SourceAlpha" type="matrix" values="0 0 0 0 0 0 0 0 0 0 0 0 0 0 0 0 0 0 127 0" result="hardAlpha"/>
<feOffset dy="-0.335045"/>
<feGaussianBlur stdDeviation="3.35045"/>
<feColorMatrix type="matrix" values="0 0 0 0 0 0 0 0 0 0 0 0 0 0 0 0 0 0 0.035 0"/>
<feBlend mode="normal" in2="effect3_dropShadow_3_6" result="effect4_dropShadow_3_6"/>
<feColorMatrix in="SourceAlpha" type="matrix" values="0 0 0 0 0 0 0 0 0 0 0 0 0 0 0 0 0 0 127 0" result="hardAlpha"/>
<feOffset dy="-0.626664"/>
<feGaussianBlur stdDeviation="6.26664"/>
<feColorMatrix type="matrix" values="0 0 0 0 0 0 0 0 0 0 0 0 0 0 0 0 0 0 0.0282725 0"/>
<feBlend mode="normal" in2="effect4_dropShadow_3_6" result="effect5_dropShadow_3_6"/>
<feColorMatrix in="SourceAlpha" type="matrix" values="0 0 0 0 0 0 0 0 0 0 0 0 0 0 0 0 0 0 127 0" result="hardAlpha"/>
<feOffset dy="-1.5"/>
<feGaussianBlur stdDeviation="15"/>
<feColorMatrix type="matrix" values="0 0 0 0 0 0 0 0 0 0 0 0 0 0 0 0 0 0 0.0196802 0"/>
<feBlend mode="normal" in2="effect5_dropShadow_3_6" result="effect6_dropShadow_3_6"/>
<feBlend mode="normal" in="SourceGraphic" in2="effect6_dropShadow_3_6" result="shape"/>
</filter>
<clipPath id="clip0_3_6">
<rect width="192" height="192" fill="white"/>
</clipPath>
<clipPath id="clip1_3_6">
<rect width="192" height="192" fill="white"/>
</clipPath>
</defs>
</svg>
