<svg width="167" height="167" viewBox="0 0 167 167" fill="none" xmlns="http://www.w3.org/2000/svg">
<g clip-path="url(#clip0_3_11)">
<g clip-path="url(#clip1_3_11)">
<g filter="url(#filter0_dddddd_3_11)">
<circle cx="83.5" cy="83.5" r="69.1484" fill="white"/>
</g>
<path d="M46.4015 122.728C42.2391 118.531 38.7968 113.863 36.2084 108.578C33.6899 103.436 31.9774 98.0213 31.0974 92.3391C30.5517 88.8158 30.335 85.2723 30.4503 81.712C30.7576 72.2241 33.13 63.319 37.8674 55.1069C42.6531 46.8111 49.1337 40.2246 57.3289 35.3988C63.1728 31.9576 69.472 29.8135 76.1227 28.7048C80.0544 28.0494 84.0277 28.0306 87.9824 28.2217C95.9284 28.6056 103.426 30.767 110.481 34.5052C119.977 39.5367 127.289 46.8386 132.492 56.3337C133.352 57.9031 134.054 59.5474 134.724 61.2084C134.989 61.8666 134.853 62.3241 134.287 62.6892C131.803 64.2907 129.148 64.9984 126.215 64.3078C124.355 63.8697 122.587 63.1801 120.868 62.3443C119.392 61.6264 118.19 60.6147 117.234 59.2422C113.169 53.4053 107.834 49.1019 101.499 46.0669C97.6428 44.2191 93.5643 43.1555 89.3191 42.6585C87.9184 42.4945 86.5017 42.4498 85.1287 42.4492C79.2217 42.4466 73.5021 43.5275 68.1005 46.0965C60.8209 49.5588 54.9923 54.6955 50.688 61.5863C48.0551 65.8013 46.362 70.4043 45.446 75.3052C45.404 75.5296 45.3987 75.6915 45.5928 75.8896C45.9204 76.2241 45.7889 77.3037 45.4248 77.5804C45.3644 77.6264 45.2264 77.5671 45.0555 77.5493C44.1097 86.4366 45.3837 94.9186 49.5811 102.828C53.0976 109.455 58.0608 114.739 64.4104 118.653C69.1944 121.601 74.3904 123.378 79.9279 124.054C87.2854 124.951 94.3808 123.918 101.08 120.624C104.506 118.939 107.607 116.76 110.005 113.688C111.954 111.19 112.689 108.317 112.478 105.167C112.457 104.851 112.449 104.852 111.866 104.316C112.403 104.045 112.308 103.623 112.211 103.127C110.985 96.8332 107.449 92.0399 102.735 88.0084C99.9549 85.6301 96.8589 83.7542 93.622 82.0933C92.8057 81.6745 92.105 81.6058 91.2827 82.2985C96.8836 86.8859 102.429 91.5304 107.028 97.2218C107.001 97.6659 107.231 98.0749 107.511 98.4862C108.225 99.532 108.789 100.663 109.327 101.811C109.618 102.433 109.462 102.714 108.801 102.829C99.2516 104.484 90.4861 102.521 82.659 96.7326C75.9947 91.8038 71.2817 85.3481 68.7281 77.3318C67.7761 74.3432 67.3243 71.2742 67.3343 68.1413C67.3374 67.1842 67.5307 66.2287 67.617 65.2706C67.6689 64.6943 67.94 64.61 68.449 64.7524C70.6983 65.3821 72.9692 65.9219 75.2952 66.1631C77.9917 66.4428 80.6867 66.7187 83.4087 66.5222C85.882 66.3437 88.3428 66.6165 90.7897 66.9507C94.6426 67.4769 98.3045 68.656 101.762 70.4618C109.06 74.2737 113.881 80.1729 116.149 88.1942C117.376 92.5324 117.623 96.9788 117.453 101.459C117.398 102.91 117.226 104.357 117.106 105.81C117.504 105.887 117.593 105.628 117.716 105.432C120.493 100.996 122.24 96.1663 123.075 90.986C123.489 88.4136 123.476 85.8177 123.379 83.2318C123.307 81.31 123.932 79.7881 125.325 78.543C128.651 75.5704 132.544 73.8941 136.928 73.423C138.216 73.2845 138.545 73.6067 138.699 74.8951C139.207 79.1715 139.307 83.4583 139.024 87.7617C138.645 93.5375 137.331 99.0812 135.124 104.402C130.871 114.656 124.294 123.023 115.256 129.343C108.622 133.982 101.326 136.943 93.3392 138.141C89.7285 138.682 86.1013 138.939 82.4672 138.74C72.0214 138.167 62.3845 135.062 53.748 128.977C51.1311 127.133 48.6791 125.079 46.4015 122.728Z" fill="#00B87A"/>
<path d="M117.781 103.273C118.5 103.396 117.916 103.892 118.043 104.205C117.678 103.997 117.548 103.711 117.781 103.273Z" fill="#00B87A"/>
</g>
</g>
<defs>
<filter id="filter0_dddddd_3_11" x="-11.7422" y="-13.0469" width="190.484" height="190.484" filterUnits="userSpaceOnUse" color-interpolation-filters="sRGB">
<feFlood flood-opacity="0" result="BackgroundImageFix"/>
<feColorMatrix in="SourceAlpha" type="matrix" values="0 0 0 0 0 0 0 0 0 0 0 0 0 0 0 0 0 0 127 0" result="hardAlpha"/>
<feOffset dy="-0.036104"/>
<feGaussianBlur stdDeviation="0.361041"/>
<feColorMatrix type="matrix" values="0 0 0 0 0 0 0 0 0 0 0 0 0 0 0 0 0 0 0.07 0"/>
<feBlend mode="normal" in2="BackgroundImageFix" result="effect1_dropShadow_3_11"/>
<feColorMatrix in="SourceAlpha" type="matrix" values="0 0 0 0 0 0 0 0 0 0 0 0 0 0 0 0 0 0 127 0" result="hardAlpha"/>
<feOffset dy="-0.0867631"/>
<feGaussianBlur stdDeviation="0.867631"/>
<feColorMatrix type="matrix" values="0 0 0 0 0 0 0 0 0 0 0 0 0 0 0 0 0 0 0.0503198 0"/>
<feBlend mode="normal" in2="effect1_dropShadow_3_11" result="effect2_dropShadow_3_11"/>
<feColorMatrix in="SourceAlpha" type="matrix" values="0 0 0 0 0 0 0 0 0 0 0 0 0 0 0 0 0 0 127 0" result="hardAlpha"/>
<feOffset dy="-0.163367"/>
<feGaussianBlur stdDeviation="1.63367"/>
<feColorMatrix type="matrix" values="0 0 0 0 0 0 0 0 0 0 0 0 0 0 0 0 0 0 0.0417275 0"/>
<feBlend mode="normal" in2="effect2_dropShadow_3_11" result="effect3_dropShadow_3_11"/>
<feColorMatrix in="SourceAlpha" type="matrix" values="0 0 0 0 0 0 0 0 0 0 0 0 0 0 0 0 0 0 127 0" result="hardAlpha"/>
<feOffset dy="-0.291419"/>
<feGaussianBlur stdDeviation="2.91419"/>
<feColorMatrix type="matrix" values="0 0 0 0 0 0 0 0 0 0 0 0 0 0 0 0 0 0 0.035 0"/>
<feBlend mode="normal" in2="effect3_dropShadow_3_11" result="effect4_dropShadow_3_11"/>
<feColorMatrix in="SourceAlpha" type="matrix" values="0 0 0 0 0 0 0 0 0 0 0 0 0 0 0 0 0 0 127 0" result="hardAlpha"/>
<feOffset dy="-0.545067"/>
<feGaussianBlur stdDeviation="5.45067"/>
<feColorMatrix type="matrix" values="0 0 0 0 0 0 0 0 0 0 0 0 0 0 0 0 0 0 0.0282725 0"/>
<feBlend mode="normal" in2="effect4_dropShadow_3_11" result="effect5_dropShadow_3_11"/>
<feColorMatrix in="SourceAlpha" type="matrix" values="0 0 0 0 0 0 0 0 0 0 0 0 0 0 0 0 0 0 127 0" result="hardAlpha"/>
<feOffset dy="-1.30469"/>
<feGaussianBlur stdDeviation="13.0469"/>
<feColorMatrix type="matrix" values="0 0 0 0 0 0 0 0 0 0 0 0 0 0 0 0 0 0 0.0196802 0"/>
<feBlend mode="normal" in2="effect5_dropShadow_3_11" result="effect6_dropShadow_3_11"/>
<feBlend mode="normal" in="SourceGraphic" in2="effect6_dropShadow_3_11" result="shape"/>
</filter>
<clipPath id="clip0_3_11">
<rect width="167" height="167" fill="white"/>
</clipPath>
<clipPath id="clip1_3_11">
<rect width="167" height="167" fill="white"/>
</clipPath>
</defs>
</svg>
