<svg width="76" height="76" viewBox="0 0 76 76" fill="none" xmlns="http://www.w3.org/2000/svg">
<g clip-path="url(#clip0_3_23)">
<g clip-path="url(#clip1_3_23)">
<g filter="url(#filter0_dddddd_3_23)">
<circle cx="38" cy="38" r="31.4688" fill="white"/>
</g>
<path d="M21.1168 55.8521C19.2226 53.9422 17.656 51.8178 16.478 49.4127C15.3319 47.0728 14.5526 44.6085 14.1521 42.0226C13.9038 40.4192 13.8051 38.8066 13.8576 37.1863C13.9975 32.8685 15.0771 28.8159 17.2331 25.0786C19.411 21.3033 22.3603 18.3058 26.0898 16.1096C28.7493 14.5436 31.616 13.5678 34.6426 13.0633C36.4319 12.765 38.2401 12.7564 40.0399 12.8434C43.656 13.0181 47.0683 14.0017 50.2789 15.703C54.6002 17.9927 57.9281 21.3158 60.2959 25.6369C60.6873 26.3511 61.0064 27.0994 61.3114 27.8553C61.4323 28.1548 61.3703 28.3631 61.1126 28.5292C59.9822 29.258 58.7738 29.5801 57.4392 29.2658C56.5925 29.0664 55.7881 28.7526 55.006 28.3723C54.3341 28.0455 53.787 27.5851 53.352 26.9605C51.5022 24.3042 49.074 22.3458 46.1913 20.9646C44.4362 20.1237 42.5801 19.6396 40.6482 19.4134C40.0107 19.3388 39.366 19.3185 38.7412 19.3182C36.053 19.317 33.45 19.8089 30.9918 20.9781C27.679 22.5537 25.0264 24.8914 23.0676 28.0273C21.8694 29.9455 21.0989 32.0403 20.682 34.2706C20.6629 34.3728 20.6605 34.4464 20.7488 34.5366C20.8979 34.6888 20.838 35.1801 20.6724 35.3061C20.6448 35.327 20.582 35.3 20.5043 35.2919C20.0739 39.3364 20.6536 43.1965 22.5639 46.7962C24.1641 49.8118 26.4229 52.2164 29.3125 53.9976C31.4896 55.3395 33.8543 56.1482 36.3744 56.4555C39.7227 56.8639 42.9517 56.3937 46.0004 54.8947C47.5596 54.1281 48.9706 53.1364 50.062 51.7382C50.9493 50.6015 51.2838 49.2939 51.1878 47.8603C51.1782 47.7167 51.1742 47.717 50.9089 47.4731C51.1535 47.3496 51.1102 47.158 51.0662 46.932C50.5083 44.0678 48.8988 41.8864 46.7538 40.0517C45.4884 38.9694 44.0795 38.1157 42.6064 37.3598C42.2349 37.1692 41.916 37.138 41.5418 37.4532C44.0907 39.5409 46.6145 41.6546 48.7072 44.2446C48.6949 44.4468 48.7996 44.6329 48.9273 44.82C49.252 45.296 49.5089 45.8107 49.7535 46.3331C49.8861 46.6163 49.8148 46.7441 49.5141 46.7962C45.1684 47.5494 41.1793 46.6565 37.6172 44.022C34.5844 41.779 32.4396 38.841 31.2774 35.1929C30.8442 33.8328 30.6386 32.4362 30.6431 31.0104C30.6445 30.5749 30.7325 30.14 30.7718 29.704C30.7954 29.4417 30.9188 29.4033 31.1504 29.4682C32.1741 29.7547 33.2075 30.0004 34.2661 30.1102C35.4932 30.2374 36.7197 30.363 37.9584 30.2736C39.084 30.1923 40.2039 30.3165 41.3174 30.4686C43.0709 30.708 44.7374 31.2446 46.3108 32.0664C49.6323 33.8012 51.826 36.4859 52.8583 40.1363C53.4165 42.1105 53.5288 44.1341 53.4517 46.1728C53.4267 46.8333 53.3481 47.4918 53.294 48.1531C53.475 48.188 53.5155 48.0703 53.5713 47.9812C54.8352 45.9624 55.6302 43.7643 56.01 41.4068C56.1986 40.2361 56.1926 39.0547 56.1485 37.878C56.1157 37.0034 56.4 36.3107 57.034 35.7441C58.5478 34.3913 60.3196 33.6285 62.3144 33.4141C62.9007 33.351 63.0506 33.4977 63.1203 34.084C63.3517 36.0301 63.3972 37.981 63.2686 39.9395C63.0959 42.568 62.4979 45.0909 61.4935 47.5125C59.5582 52.1788 56.5649 55.9866 52.4518 58.8627C49.4328 60.9738 46.1124 62.3212 42.4777 62.8665C40.8345 63.113 39.1838 63.2296 37.53 63.139C32.7762 62.8784 28.3905 61.4655 24.4601 58.6962C23.2692 57.8571 22.1533 56.9223 21.1168 55.8521Z" fill="#00B87A"/>
<path d="M53.6008 46.9984C53.9281 47.0546 53.6626 47.2802 53.7202 47.4228C53.5542 47.3278 53.495 47.1978 53.6008 46.9984Z" fill="#00B87A"/>
</g>
</g>
<defs>
<filter id="filter0_dddddd_3_23" x="-5.34375" y="-5.9375" width="86.6875" height="86.6875" filterUnits="userSpaceOnUse" color-interpolation-filters="sRGB">
<feFlood flood-opacity="0" result="BackgroundImageFix"/>
<feColorMatrix in="SourceAlpha" type="matrix" values="0 0 0 0 0 0 0 0 0 0 0 0 0 0 0 0 0 0 127 0" result="hardAlpha"/>
<feOffset dy="-0.0164306"/>
<feGaussianBlur stdDeviation="0.164306"/>
<feColorMatrix type="matrix" values="0 0 0 0 0 0 0 0 0 0 0 0 0 0 0 0 0 0 0.07 0"/>
<feBlend mode="normal" in2="BackgroundImageFix" result="effect1_dropShadow_3_23"/>
<feColorMatrix in="SourceAlpha" type="matrix" values="0 0 0 0 0 0 0 0 0 0 0 0 0 0 0 0 0 0 127 0" result="hardAlpha"/>
<feOffset dy="-0.039485"/>
<feGaussianBlur stdDeviation="0.39485"/>
<feColorMatrix type="matrix" values="0 0 0 0 0 0 0 0 0 0 0 0 0 0 0 0 0 0 0.0503198 0"/>
<feBlend mode="normal" in2="effect1_dropShadow_3_23" result="effect2_dropShadow_3_23"/>
<feColorMatrix in="SourceAlpha" type="matrix" values="0 0 0 0 0 0 0 0 0 0 0 0 0 0 0 0 0 0 127 0" result="hardAlpha"/>
<feOffset dy="-0.0743467"/>
<feGaussianBlur stdDeviation="0.743467"/>
<feColorMatrix type="matrix" values="0 0 0 0 0 0 0 0 0 0 0 0 0 0 0 0 0 0 0.0417275 0"/>
<feBlend mode="normal" in2="effect2_dropShadow_3_23" result="effect3_dropShadow_3_23"/>
<feColorMatrix in="SourceAlpha" type="matrix" values="0 0 0 0 0 0 0 0 0 0 0 0 0 0 0 0 0 0 127 0" result="hardAlpha"/>
<feOffset dy="-0.132622"/>
<feGaussianBlur stdDeviation="1.32622"/>
<feColorMatrix type="matrix" values="0 0 0 0 0 0 0 0 0 0 0 0 0 0 0 0 0 0 0.035 0"/>
<feBlend mode="normal" in2="effect3_dropShadow_3_23" result="effect4_dropShadow_3_23"/>
<feColorMatrix in="SourceAlpha" type="matrix" values="0 0 0 0 0 0 0 0 0 0 0 0 0 0 0 0 0 0 127 0" result="hardAlpha"/>
<feOffset dy="-0.248055"/>
<feGaussianBlur stdDeviation="2.48055"/>
<feColorMatrix type="matrix" values="0 0 0 0 0 0 0 0 0 0 0 0 0 0 0 0 0 0 0.0282725 0"/>
<feBlend mode="normal" in2="effect4_dropShadow_3_23" result="effect5_dropShadow_3_23"/>
<feColorMatrix in="SourceAlpha" type="matrix" values="0 0 0 0 0 0 0 0 0 0 0 0 0 0 0 0 0 0 127 0" result="hardAlpha"/>
<feOffset dy="-0.59375"/>
<feGaussianBlur stdDeviation="5.9375"/>
<feColorMatrix type="matrix" values="0 0 0 0 0 0 0 0 0 0 0 0 0 0 0 0 0 0 0.0196802 0"/>
<feBlend mode="normal" in2="effect5_dropShadow_3_23" result="effect6_dropShadow_3_23"/>
<feBlend mode="normal" in="SourceGraphic" in2="effect6_dropShadow_3_23" result="shape"/>
</filter>
<clipPath id="clip0_3_23">
<rect width="76" height="76" fill="white"/>
</clipPath>
<clipPath id="clip1_3_23">
<rect width="76" height="76" fill="white"/>
</clipPath>
</defs>
</svg>
