<svg width="114" height="114" viewBox="0 0 114 114" fill="none" xmlns="http://www.w3.org/2000/svg">
<g clip-path="url(#clip0_3_22)">
<g clip-path="url(#clip1_3_22)">
<g filter="url(#filter0_dddddd_3_22)">
<circle cx="57" cy="57" r="47.2031" fill="white"/>
</g>
<path d="M31.6753 83.7781C28.8339 80.9133 26.484 77.7267 24.7171 74.1191C22.9979 70.6092 21.8289 66.9128 21.2282 63.0339C20.8557 60.6288 20.7077 58.2099 20.7864 55.7795C20.9962 49.3027 22.6157 43.2238 25.8496 37.6179C29.1165 31.9549 33.5404 27.4587 39.1347 24.1645C43.124 21.8154 47.424 20.3518 51.964 19.5949C54.6479 19.1475 57.3602 19.1347 60.0599 19.2651C65.484 19.5272 70.6024 21.0026 75.4184 23.5545C81.9004 26.9891 86.8922 31.9737 90.4439 38.4554C91.0309 39.5267 91.5097 40.6492 91.9671 41.783C92.1484 42.2323 92.0555 42.5446 91.669 42.7938C89.9733 43.8871 88.1607 44.3702 86.1588 43.8988C84.8887 43.5997 83.6821 43.1289 82.509 42.5584C81.5012 42.0683 80.6805 41.3777 80.028 40.4408C77.2533 36.4563 73.611 33.5187 69.2869 31.4469C66.6543 30.1855 63.8702 29.4594 60.9724 29.1202C60.0161 29.0082 59.0491 28.9777 58.1118 28.9773C54.0795 28.9756 50.1751 29.7134 46.4878 31.4671C41.5185 33.8306 37.5397 37.337 34.6014 42.0409C32.8041 44.9183 31.6483 48.0604 31.023 51.4059C30.9944 51.5592 30.9908 51.6696 31.1232 51.8049C31.3469 52.0332 31.2571 52.7702 31.0086 52.9591C30.9673 52.9905 30.8731 52.95 30.7565 52.9379C30.1108 59.0046 30.9805 64.7947 33.8458 70.1943C36.2462 74.7177 39.6343 78.3247 43.9688 80.9963C47.2345 83.0093 50.7815 84.2222 54.5616 84.6833C59.5841 85.2959 64.4277 84.5906 69.0006 82.3421C71.3394 81.1921 73.456 79.7046 75.093 77.6073C76.4239 75.9023 76.9257 73.9408 76.7817 71.7905C76.7673 71.575 76.7613 71.5755 76.3634 71.2096C76.7302 71.0244 76.6653 70.737 76.5993 70.398C75.7624 66.1017 73.3483 62.8297 70.1308 60.0776C68.2327 58.4541 66.1193 57.1735 63.9096 56.0398C63.3524 55.7539 62.8741 55.707 62.3128 56.1799C66.1361 59.3114 69.9218 62.4819 73.0608 66.367C73.0423 66.6702 73.1994 66.9494 73.3909 67.2301C73.878 67.944 74.2634 68.7161 74.6303 69.4997C74.8292 69.9245 74.7222 70.1162 74.2712 70.1943C67.7526 71.3241 61.769 69.9847 56.4259 66.033C51.8766 62.6685 48.6594 58.2616 46.9162 52.7894C46.2663 50.7493 45.9579 48.6542 45.9647 46.5157C45.9668 45.8623 46.0988 45.21 46.1577 44.556C46.1931 44.1626 46.3782 44.105 46.7257 44.2023C48.2611 44.6321 49.8113 45.0006 51.3991 45.1653C53.2399 45.3561 55.0795 45.5445 56.9377 45.4104C58.626 45.2885 60.3058 45.4747 61.9762 45.7029C64.6063 46.0621 67.1061 46.867 69.4662 48.0997C74.4484 50.7018 77.739 54.7288 79.2874 60.2044C80.1249 63.1658 80.2932 66.2011 80.1775 69.2593C80.14 70.25 80.0223 71.2377 79.941 72.2296C80.2126 72.282 80.2733 72.1055 80.357 71.9718C82.2529 68.9436 83.4453 65.6465 84.015 62.1102C84.2979 60.3542 84.2889 58.5821 84.2228 56.8169C84.1736 55.505 84.6 54.4661 85.5511 53.6162C87.8217 51.587 90.4794 50.4427 93.4716 50.1211C94.3512 50.0266 94.576 50.2465 94.6805 51.126C95.0276 54.0452 95.0959 56.9715 94.9029 59.9092C94.6439 63.852 93.7469 67.6363 92.2403 71.2687C89.3373 78.2682 84.8473 83.9799 78.6777 88.2941C74.1492 91.4606 69.1687 93.4818 63.7166 94.2997C61.2518 94.6694 58.7758 94.8444 56.295 94.7084C49.1643 94.3176 42.5858 92.1983 36.6902 88.0443C34.9039 86.7856 33.23 85.3835 31.6753 83.7781Z" fill="#00B87A"/>
<path d="M80.4012 70.4976C80.892 70.582 80.4939 70.9203 80.5802 71.1342C80.3313 70.9918 80.2425 70.7968 80.4012 70.4976Z" fill="#00B87A"/>
</g>
</g>
<defs>
<filter id="filter0_dddddd_3_22" x="-8.01562" y="-8.90625" width="130.031" height="130.031" filterUnits="userSpaceOnUse" color-interpolation-filters="sRGB">
<feFlood flood-opacity="0" result="BackgroundImageFix"/>
<feColorMatrix in="SourceAlpha" type="matrix" values="0 0 0 0 0 0 0 0 0 0 0 0 0 0 0 0 0 0 127 0" result="hardAlpha"/>
<feOffset dy="-0.0246459"/>
<feGaussianBlur stdDeviation="0.246459"/>
<feColorMatrix type="matrix" values="0 0 0 0 0 0 0 0 0 0 0 0 0 0 0 0 0 0 0.07 0"/>
<feBlend mode="normal" in2="BackgroundImageFix" result="effect1_dropShadow_3_22"/>
<feColorMatrix in="SourceAlpha" type="matrix" values="0 0 0 0 0 0 0 0 0 0 0 0 0 0 0 0 0 0 127 0" result="hardAlpha"/>
<feOffset dy="-0.0592275"/>
<feGaussianBlur stdDeviation="0.592275"/>
<feColorMatrix type="matrix" values="0 0 0 0 0 0 0 0 0 0 0 0 0 0 0 0 0 0 0.0503198 0"/>
<feBlend mode="normal" in2="effect1_dropShadow_3_22" result="effect2_dropShadow_3_22"/>
<feColorMatrix in="SourceAlpha" type="matrix" values="0 0 0 0 0 0 0 0 0 0 0 0 0 0 0 0 0 0 127 0" result="hardAlpha"/>
<feOffset dy="-0.11152"/>
<feGaussianBlur stdDeviation="1.1152"/>
<feColorMatrix type="matrix" values="0 0 0 0 0 0 0 0 0 0 0 0 0 0 0 0 0 0 0.0417275 0"/>
<feBlend mode="normal" in2="effect2_dropShadow_3_22" result="effect3_dropShadow_3_22"/>
<feColorMatrix in="SourceAlpha" type="matrix" values="0 0 0 0 0 0 0 0 0 0 0 0 0 0 0 0 0 0 127 0" result="hardAlpha"/>
<feOffset dy="-0.198933"/>
<feGaussianBlur stdDeviation="1.98933"/>
<feColorMatrix type="matrix" values="0 0 0 0 0 0 0 0 0 0 0 0 0 0 0 0 0 0 0.035 0"/>
<feBlend mode="normal" in2="effect3_dropShadow_3_22" result="effect4_dropShadow_3_22"/>
<feColorMatrix in="SourceAlpha" type="matrix" values="0 0 0 0 0 0 0 0 0 0 0 0 0 0 0 0 0 0 127 0" result="hardAlpha"/>
<feOffset dy="-0.372082"/>
<feGaussianBlur stdDeviation="3.72082"/>
<feColorMatrix type="matrix" values="0 0 0 0 0 0 0 0 0 0 0 0 0 0 0 0 0 0 0.0282725 0"/>
<feBlend mode="normal" in2="effect4_dropShadow_3_22" result="effect5_dropShadow_3_22"/>
<feColorMatrix in="SourceAlpha" type="matrix" values="0 0 0 0 0 0 0 0 0 0 0 0 0 0 0 0 0 0 127 0" result="hardAlpha"/>
<feOffset dy="-0.890625"/>
<feGaussianBlur stdDeviation="8.90625"/>
<feColorMatrix type="matrix" values="0 0 0 0 0 0 0 0 0 0 0 0 0 0 0 0 0 0 0.0196802 0"/>
<feBlend mode="normal" in2="effect5_dropShadow_3_22" result="effect6_dropShadow_3_22"/>
<feBlend mode="normal" in="SourceGraphic" in2="effect6_dropShadow_3_22" result="shape"/>
</filter>
<clipPath id="clip0_3_22">
<rect width="114" height="114" fill="white"/>
</clipPath>
<clipPath id="clip1_3_22">
<rect width="114" height="114" fill="white"/>
</clipPath>
</defs>
</svg>
