<svg width="120" height="120" viewBox="0 0 120 120" fill="none" xmlns="http://www.w3.org/2000/svg">
<g clip-path="url(#clip0_3_14)">
<g clip-path="url(#clip1_3_14)">
<g filter="url(#filter0_dddddd_3_14)">
<circle cx="60" cy="60" r="49.6875" fill="white"/>
</g>
<path d="M33.3424 88.1875C30.3514 85.1719 27.8779 81.8175 26.018 78.0201C24.2083 74.3255 22.9778 70.4345 22.3454 66.3515C21.9533 63.8198 21.7976 61.2735 21.8804 58.7152C22.1013 51.8976 23.806 45.4987 27.2101 39.5978C30.6489 33.6367 35.3057 28.9039 41.1944 25.4363C45.3936 22.9635 49.92 21.4229 54.6989 20.6262C57.5241 20.1552 60.3792 20.1417 63.2209 20.279C68.9306 20.5549 74.3183 22.108 79.3878 24.7942C86.2109 28.4096 91.4655 33.6565 95.2041 40.4793C95.822 41.607 96.326 42.7886 96.8075 43.9821C96.9983 44.455 96.9005 44.7838 96.4937 45.0461C94.7087 46.1969 92.8007 46.7054 90.6935 46.2092C89.3565 45.8944 88.0864 45.3989 86.8515 44.7983C85.7907 44.2824 84.9268 43.5555 84.24 42.5692C81.3193 38.3751 77.4853 35.2828 72.9336 33.1019C70.1624 31.7742 67.2318 31.0099 64.1814 30.6528C63.1749 30.535 62.1569 30.5029 61.1703 30.5024C56.9258 30.5006 52.8159 31.2773 48.9345 33.1233C43.7036 35.6111 39.5154 39.3022 36.4225 44.2536C34.5306 47.2824 33.314 50.5899 32.6558 54.1115C32.6256 54.2728 32.6218 54.3891 32.7613 54.5315C32.9967 54.7718 32.9022 55.5476 32.6406 55.7464C32.5971 55.7794 32.498 55.7369 32.3752 55.7241C31.6956 62.1101 32.611 68.205 35.6271 73.8887C38.1539 78.6503 41.7203 82.447 46.2829 85.2593C49.7205 87.3782 53.4541 88.655 57.4332 89.1403C62.72 89.7851 67.8186 89.0428 72.6322 86.6759C75.0941 85.4654 77.3221 83.8995 79.0453 81.6919C80.4462 79.8972 80.9744 77.8324 80.8228 75.5689C80.8076 75.3421 80.8013 75.3426 80.3825 74.9575C80.7686 74.7625 80.7003 74.46 80.6308 74.1031C79.7499 69.5808 77.2087 66.1365 73.8218 63.2396C71.8239 61.5306 69.5992 60.1826 67.2733 58.9892C66.6867 58.6883 66.1832 58.6389 65.5924 59.1367C69.6169 62.433 73.6019 65.7704 76.9061 69.86C76.8866 70.1791 77.052 70.473 77.2536 70.7685C77.7663 71.52 78.172 72.3327 78.5582 73.1576C78.7675 73.6048 78.655 73.8065 78.1802 73.8888C71.3185 75.078 65.02 73.6681 59.3956 69.5085C54.607 65.9668 51.2204 61.328 49.3855 55.5678C48.7013 53.4203 48.3767 51.215 48.3839 48.9638C48.3861 48.2761 48.525 47.5895 48.587 46.901C48.6243 46.4869 48.8192 46.4263 49.1849 46.5287C50.8012 46.9812 52.433 47.3691 54.1043 47.5424C56.042 47.7433 57.9784 47.9416 59.9344 47.8004C61.7116 47.6721 63.4798 47.8682 65.2381 48.1083C68.0066 48.4864 70.6379 49.3337 73.1223 50.6312C78.3668 53.3703 81.8305 57.6093 83.4604 63.3731C84.3419 66.4903 84.5192 69.6854 84.3974 72.9045C84.3579 73.9474 84.2339 74.987 84.1484 76.0312C84.4343 76.0864 84.4982 75.9005 84.5863 75.7598C86.582 72.5722 87.8372 69.1015 88.4369 65.3792C88.7346 63.5307 88.7252 61.6654 88.6555 59.8073C88.6038 58.4264 89.0527 57.3328 90.0537 56.4381C92.4438 54.3021 95.2414 53.0976 98.3911 52.7591C99.317 52.6595 99.5536 52.8911 99.6637 53.8168C100.029 56.8897 100.101 59.97 99.8978 63.0623C99.6251 67.2126 98.6809 71.1961 97.095 75.0197C94.0392 82.3875 89.313 88.3999 82.8186 92.9411C78.0518 96.2744 72.8091 98.4019 67.07 99.2628C64.4756 99.652 61.8692 99.8362 59.2579 99.6931C51.7519 99.2816 44.8271 97.0508 38.6213 92.6782C36.7409 91.3532 34.979 89.8773 33.3424 88.1875Z" fill="#00B87A"/>
<path d="M84.6328 74.2079C85.1495 74.2968 84.7304 74.653 84.8213 74.8781C84.5593 74.7282 84.4658 74.5229 84.6328 74.2079Z" fill="#00B87A"/>
</g>
</g>
<defs>
<filter id="filter0_dddddd_3_14" x="-8.4375" y="-9.375" width="136.875" height="136.875" filterUnits="userSpaceOnUse" color-interpolation-filters="sRGB">
<feFlood flood-opacity="0" result="BackgroundImageFix"/>
<feColorMatrix in="SourceAlpha" type="matrix" values="0 0 0 0 0 0 0 0 0 0 0 0 0 0 0 0 0 0 127 0" result="hardAlpha"/>
<feOffset dy="-0.025943"/>
<feGaussianBlur stdDeviation="0.25943"/>
<feColorMatrix type="matrix" values="0 0 0 0 0 0 0 0 0 0 0 0 0 0 0 0 0 0 0.07 0"/>
<feBlend mode="normal" in2="BackgroundImageFix" result="effect1_dropShadow_3_14"/>
<feColorMatrix in="SourceAlpha" type="matrix" values="0 0 0 0 0 0 0 0 0 0 0 0 0 0 0 0 0 0 127 0" result="hardAlpha"/>
<feOffset dy="-0.0623447"/>
<feGaussianBlur stdDeviation="0.623447"/>
<feColorMatrix type="matrix" values="0 0 0 0 0 0 0 0 0 0 0 0 0 0 0 0 0 0 0.0503198 0"/>
<feBlend mode="normal" in2="effect1_dropShadow_3_14" result="effect2_dropShadow_3_14"/>
<feColorMatrix in="SourceAlpha" type="matrix" values="0 0 0 0 0 0 0 0 0 0 0 0 0 0 0 0 0 0 127 0" result="hardAlpha"/>
<feOffset dy="-0.11739"/>
<feGaussianBlur stdDeviation="1.1739"/>
<feColorMatrix type="matrix" values="0 0 0 0 0 0 0 0 0 0 0 0 0 0 0 0 0 0 0.0417275 0"/>
<feBlend mode="normal" in2="effect2_dropShadow_3_14" result="effect3_dropShadow_3_14"/>
<feColorMatrix in="SourceAlpha" type="matrix" values="0 0 0 0 0 0 0 0 0 0 0 0 0 0 0 0 0 0 127 0" result="hardAlpha"/>
<feOffset dy="-0.209403"/>
<feGaussianBlur stdDeviation="2.09403"/>
<feColorMatrix type="matrix" values="0 0 0 0 0 0 0 0 0 0 0 0 0 0 0 0 0 0 0.035 0"/>
<feBlend mode="normal" in2="effect3_dropShadow_3_14" result="effect4_dropShadow_3_14"/>
<feColorMatrix in="SourceAlpha" type="matrix" values="0 0 0 0 0 0 0 0 0 0 0 0 0 0 0 0 0 0 127 0" result="hardAlpha"/>
<feOffset dy="-0.391665"/>
<feGaussianBlur stdDeviation="3.91665"/>
<feColorMatrix type="matrix" values="0 0 0 0 0 0 0 0 0 0 0 0 0 0 0 0 0 0 0.0282725 0"/>
<feBlend mode="normal" in2="effect4_dropShadow_3_14" result="effect5_dropShadow_3_14"/>
<feColorMatrix in="SourceAlpha" type="matrix" values="0 0 0 0 0 0 0 0 0 0 0 0 0 0 0 0 0 0 127 0" result="hardAlpha"/>
<feOffset dy="-0.9375"/>
<feGaussianBlur stdDeviation="9.375"/>
<feColorMatrix type="matrix" values="0 0 0 0 0 0 0 0 0 0 0 0 0 0 0 0 0 0 0.0196802 0"/>
<feBlend mode="normal" in2="effect5_dropShadow_3_14" result="effect6_dropShadow_3_14"/>
<feBlend mode="normal" in="SourceGraphic" in2="effect6_dropShadow_3_14" result="shape"/>
</filter>
<clipPath id="clip0_3_14">
<rect width="120" height="120" fill="white"/>
</clipPath>
<clipPath id="clip1_3_14">
<rect width="120" height="120" fill="white"/>
</clipPath>
</defs>
</svg>
