<svg width="60" height="60" viewBox="0 0 60 60" fill="none" xmlns="http://www.w3.org/2000/svg">
<g clip-path="url(#clip0_3_25)">
<g clip-path="url(#clip1_3_25)">
<g filter="url(#filter0_dddddd_3_25)">
<circle cx="30" cy="30" r="24.8438" fill="white"/>
</g>
<path d="M16.6712 44.0937C15.1757 42.5859 13.939 40.9088 13.009 39.0101C12.1042 37.1627 11.4889 35.2172 11.1727 33.1757C10.9767 31.9099 10.8988 30.6368 10.9402 29.3576C11.0506 25.9488 11.903 22.7493 13.6051 19.7989C15.3245 16.8184 17.6529 14.4519 20.5972 12.7181C22.6968 11.4817 24.96 10.7114 27.3495 10.3131C28.7621 10.0776 30.1896 10.0709 31.6105 10.1395C34.4653 10.2774 37.1592 11.054 39.6939 12.3971C43.1055 14.2048 45.7327 16.8282 47.6021 20.2397C47.911 20.8035 48.163 21.3943 48.4038 21.991C48.4992 22.2275 48.4503 22.3919 48.2468 22.523C47.3544 23.0984 46.4004 23.3527 45.3468 23.1046C44.6783 22.9472 44.0432 22.6994 43.4258 22.3991C42.8954 22.1412 42.4634 21.7777 42.12 21.2846C40.6596 19.1875 38.7427 17.6414 36.4668 16.551C35.0812 15.8871 33.6159 15.5049 32.0907 15.3264C31.5874 15.2675 31.0785 15.2514 30.5852 15.2512C28.4629 15.2503 26.4079 15.6386 24.4673 16.5616C21.8518 17.8055 19.7577 19.6511 18.2113 22.1268C17.2653 23.6412 16.657 25.2949 16.3279 27.0557C16.3128 27.1364 16.3109 27.1945 16.3807 27.2657C16.4984 27.3859 16.4511 27.7738 16.3203 27.8732C16.2986 27.8897 16.249 27.8684 16.1876 27.862C15.8478 31.0551 16.3055 34.1025 17.8136 36.9443C19.077 39.3251 20.8602 41.2235 23.1415 42.6296C24.8603 43.6891 26.7271 44.3275 28.7166 44.5701C31.36 44.8926 33.9093 44.5214 36.3161 43.3379C37.5471 42.7327 38.6611 41.9498 39.5227 40.846C40.2231 39.9486 40.4872 38.9162 40.4114 37.7845C40.4038 37.6711 40.4007 37.6713 40.1913 37.4787C40.3843 37.3813 40.3502 37.23 40.3154 37.0515C39.875 34.7904 38.6044 33.0682 36.9109 31.6198C35.9119 30.7653 34.7996 30.0913 33.6366 29.4946C33.3434 29.3441 33.0916 29.3194 32.7962 29.5683C34.8085 31.2165 36.801 32.8852 38.4531 34.93C38.4433 35.0895 38.526 35.2365 38.6268 35.3842C38.8831 35.76 39.086 36.1663 39.2791 36.5788C39.3838 36.8024 39.3275 36.9032 39.0901 36.9444C35.6593 37.539 32.51 36.834 29.6978 34.7542C27.3035 32.9834 25.6102 30.664 24.6927 27.7839C24.3507 26.7101 24.1884 25.6075 24.192 24.4819C24.1931 24.138 24.2625 23.7947 24.2935 23.4505C24.3122 23.2434 24.4096 23.2131 24.5925 23.2643C25.4006 23.4906 26.2165 23.6845 27.0522 23.7712C28.021 23.8716 28.9892 23.9708 29.9672 23.9002C30.8558 23.836 31.7399 23.9341 32.6191 24.0541C34.0033 24.2432 35.319 24.6668 36.5612 25.3156C39.1834 26.6852 40.9152 28.8046 41.7302 31.6865C42.171 33.2452 42.2596 34.8427 42.1987 36.4522C42.179 36.9737 42.117 37.4935 42.0742 38.0156C42.2172 38.0432 42.2491 37.9502 42.2932 37.8799C43.291 36.2861 43.9186 34.5507 44.2184 32.6896C44.3673 31.7653 44.3626 30.8327 44.3278 29.9036C44.3019 29.2132 44.5263 28.6664 45.0269 28.219C46.2219 27.151 47.6207 26.5488 49.1956 26.3795C49.6585 26.3298 49.7768 26.4455 49.8319 26.9084C50.0145 28.4448 50.0505 29.985 49.9489 31.5312C49.8126 33.6063 49.3405 35.598 48.5475 37.5098C47.0196 41.1938 44.6565 44.1999 41.4093 46.4705C39.0259 48.1372 36.4046 49.2009 33.535 49.6314C32.2378 49.826 30.9346 49.9181 29.629 49.8465C25.876 49.6408 22.4136 48.5254 19.3107 46.3391C18.3705 45.6766 17.4895 44.9386 16.6712 44.0937Z" fill="#00B87A"/>
<path d="M42.3164 37.104C42.5748 37.1484 42.3652 37.3265 42.4106 37.439C42.2796 37.3641 42.2329 37.2615 42.3164 37.104Z" fill="#00B87A"/>
</g>
</g>
<defs>
<filter id="filter0_dddddd_3_25" x="-4.21875" y="-4.6875" width="68.4375" height="68.4375" filterUnits="userSpaceOnUse" color-interpolation-filters="sRGB">
<feFlood flood-opacity="0" result="BackgroundImageFix"/>
<feColorMatrix in="SourceAlpha" type="matrix" values="0 0 0 0 0 0 0 0 0 0 0 0 0 0 0 0 0 0 127 0" result="hardAlpha"/>
<feOffset dy="-0.0129715"/>
<feGaussianBlur stdDeviation="0.129715"/>
<feColorMatrix type="matrix" values="0 0 0 0 0 0 0 0 0 0 0 0 0 0 0 0 0 0 0.07 0"/>
<feBlend mode="normal" in2="BackgroundImageFix" result="effect1_dropShadow_3_25"/>
<feColorMatrix in="SourceAlpha" type="matrix" values="0 0 0 0 0 0 0 0 0 0 0 0 0 0 0 0 0 0 127 0" result="hardAlpha"/>
<feOffset dy="-0.0311724"/>
<feGaussianBlur stdDeviation="0.311724"/>
<feColorMatrix type="matrix" values="0 0 0 0 0 0 0 0 0 0 0 0 0 0 0 0 0 0 0.0503198 0"/>
<feBlend mode="normal" in2="effect1_dropShadow_3_25" result="effect2_dropShadow_3_25"/>
<feColorMatrix in="SourceAlpha" type="matrix" values="0 0 0 0 0 0 0 0 0 0 0 0 0 0 0 0 0 0 127 0" result="hardAlpha"/>
<feOffset dy="-0.0586948"/>
<feGaussianBlur stdDeviation="0.586948"/>
<feColorMatrix type="matrix" values="0 0 0 0 0 0 0 0 0 0 0 0 0 0 0 0 0 0 0.0417275 0"/>
<feBlend mode="normal" in2="effect2_dropShadow_3_25" result="effect3_dropShadow_3_25"/>
<feColorMatrix in="SourceAlpha" type="matrix" values="0 0 0 0 0 0 0 0 0 0 0 0 0 0 0 0 0 0 127 0" result="hardAlpha"/>
<feOffset dy="-0.104701"/>
<feGaussianBlur stdDeviation="1.04701"/>
<feColorMatrix type="matrix" values="0 0 0 0 0 0 0 0 0 0 0 0 0 0 0 0 0 0 0.035 0"/>
<feBlend mode="normal" in2="effect3_dropShadow_3_25" result="effect4_dropShadow_3_25"/>
<feColorMatrix in="SourceAlpha" type="matrix" values="0 0 0 0 0 0 0 0 0 0 0 0 0 0 0 0 0 0 127 0" result="hardAlpha"/>
<feOffset dy="-0.195833"/>
<feGaussianBlur stdDeviation="1.95833"/>
<feColorMatrix type="matrix" values="0 0 0 0 0 0 0 0 0 0 0 0 0 0 0 0 0 0 0.0282725 0"/>
<feBlend mode="normal" in2="effect4_dropShadow_3_25" result="effect5_dropShadow_3_25"/>
<feColorMatrix in="SourceAlpha" type="matrix" values="0 0 0 0 0 0 0 0 0 0 0 0 0 0 0 0 0 0 127 0" result="hardAlpha"/>
<feOffset dy="-0.46875"/>
<feGaussianBlur stdDeviation="4.6875"/>
<feColorMatrix type="matrix" values="0 0 0 0 0 0 0 0 0 0 0 0 0 0 0 0 0 0 0.0196802 0"/>
<feBlend mode="normal" in2="effect5_dropShadow_3_25" result="effect6_dropShadow_3_25"/>
<feBlend mode="normal" in="SourceGraphic" in2="effect6_dropShadow_3_25" result="shape"/>
</filter>
<clipPath id="clip0_3_25">
<rect width="60" height="60" fill="white"/>
</clipPath>
<clipPath id="clip1_3_25">
<rect width="60" height="60" fill="white"/>
</clipPath>
</defs>
</svg>
