<svg width="72" height="72" viewBox="0 0 72 72" fill="none" xmlns="http://www.w3.org/2000/svg">
<g clip-path="url(#clip0_3_24)">
<g clip-path="url(#clip1_3_24)">
<g filter="url(#filter0_dddddd_3_24)">
<circle cx="36" cy="36" r="29.8125" fill="white"/>
</g>
<path d="M20.0054 52.9125C18.2108 51.1031 16.7267 49.0905 15.6108 46.8121C14.525 44.5953 13.7867 42.2607 13.4072 39.8109C13.172 38.2919 13.0785 36.7641 13.1283 35.2292C13.2607 31.1386 14.2836 27.2992 16.326 23.7587C18.3893 20.182 21.1834 17.3423 24.7166 15.2618C27.2362 13.7781 29.952 12.8538 32.8193 12.3757C34.5144 12.0931 36.2275 12.085 37.9325 12.1674C41.3583 12.333 44.591 13.2648 47.6326 14.8765C51.7265 17.0458 54.8793 20.1939 57.1224 24.2876C57.4932 24.9642 57.7956 25.6732 58.0845 26.3893C58.199 26.673 58.1403 26.8703 57.8962 27.0277C56.8252 27.7181 55.6804 28.0233 54.4161 27.7255C53.6139 27.5366 52.8518 27.2393 52.1109 26.879C51.4744 26.5695 50.9561 26.1333 50.544 25.5415C48.7915 23.025 46.4911 21.1697 43.7601 19.8612C42.0975 19.0645 40.3391 18.606 38.5088 18.3917C37.9049 18.321 37.2941 18.3017 36.7022 18.3015C34.1554 18.3004 31.6895 18.7664 29.3607 19.874C26.2222 21.3667 23.7092 23.5813 21.8535 26.5522C20.7183 28.3695 19.9884 30.3539 19.5934 32.4669C19.5754 32.5637 19.5731 32.6335 19.6568 32.7189C19.798 32.8631 19.7413 33.3285 19.5843 33.4479C19.5583 33.4677 19.4988 33.4421 19.4251 33.4344C19.0173 37.2661 19.5666 40.923 21.3763 44.3332C22.8923 47.1902 25.0322 49.4682 27.7697 51.1556C29.8323 52.4269 32.0725 53.193 34.4599 53.4842C37.632 53.8711 40.6911 53.4257 43.5793 52.0055C45.0564 51.2792 46.3932 50.3397 47.4272 49.0152C48.2677 47.9383 48.5846 46.6995 48.4937 45.3414C48.4846 45.2053 48.4808 45.2056 48.2295 44.9745C48.4612 44.8575 48.4202 44.676 48.3785 44.4619C47.8499 41.7485 46.3252 39.6819 44.2931 37.9438C43.0943 36.9184 41.7595 36.1096 40.3639 35.3935C40.012 35.213 39.7099 35.1834 39.3554 35.482C41.7701 37.4598 44.1611 39.4622 46.1437 41.916C46.132 42.1075 46.2312 42.2838 46.3521 42.4611C46.6597 42.912 46.9032 43.3996 47.1349 43.8946C47.2605 44.1629 47.193 44.2839 46.9081 44.3333C42.7911 45.0468 39.012 44.2009 35.6374 41.7051C32.7642 39.5801 30.7322 36.7968 29.6313 33.3407C29.2208 32.0522 29.026 30.729 29.0303 29.3783C29.0317 28.9657 29.115 28.5537 29.1522 28.1406C29.1746 27.8922 29.2915 27.8558 29.5109 27.9172C30.4807 28.1887 31.4598 28.4214 32.4626 28.5254C33.6252 28.646 34.787 28.765 35.9606 28.6803C37.0269 28.6033 38.0879 28.7209 39.1428 28.865C40.804 29.0918 42.3827 29.6002 43.8734 30.3787C47.02 32.0222 49.0983 34.5656 50.0762 38.0239C50.6051 39.8942 50.7115 41.8112 50.6384 43.7427C50.6147 44.3684 50.5403 44.9922 50.489 45.6187C50.6605 45.6518 50.6989 45.5403 50.7517 45.4559C51.9492 43.5433 52.7023 41.4609 53.0621 39.2275C53.2408 38.1184 53.2351 36.9992 53.1933 35.8844C53.1622 35.0558 53.4316 34.3997 54.0322 33.8629C55.4663 32.5813 57.1449 31.8586 59.0347 31.6554C59.5902 31.5957 59.7322 31.7346 59.7982 32.2901C60.0174 34.1338 60.0605 35.982 59.9386 37.8374C59.7751 40.3276 59.2085 42.7177 58.257 45.0118C56.4235 49.4325 53.5878 53.0399 49.6912 55.7647C46.8311 57.7646 43.6855 59.0411 40.242 59.5577C38.6853 59.7912 37.1215 59.9017 35.5547 59.8159C31.0511 59.569 26.8963 58.2305 23.1728 55.6069C22.0445 54.812 20.9874 53.9264 20.0054 52.9125Z" fill="#00B87A"/>
<path d="M50.7797 44.5248C51.0897 44.5781 50.8382 44.7918 50.8927 44.9268C50.7356 44.8369 50.6795 44.7138 50.7797 44.5248Z" fill="#00B87A"/>
</g>
</g>
<defs>
<filter id="filter0_dddddd_3_24" x="-5.0625" y="-5.625" width="82.125" height="82.125" filterUnits="userSpaceOnUse" color-interpolation-filters="sRGB">
<feFlood flood-opacity="0" result="BackgroundImageFix"/>
<feColorMatrix in="SourceAlpha" type="matrix" values="0 0 0 0 0 0 0 0 0 0 0 0 0 0 0 0 0 0 127 0" result="hardAlpha"/>
<feOffset dy="-0.0155658"/>
<feGaussianBlur stdDeviation="0.155658"/>
<feColorMatrix type="matrix" values="0 0 0 0 0 0 0 0 0 0 0 0 0 0 0 0 0 0 0.07 0"/>
<feBlend mode="normal" in2="BackgroundImageFix" result="effect1_dropShadow_3_24"/>
<feColorMatrix in="SourceAlpha" type="matrix" values="0 0 0 0 0 0 0 0 0 0 0 0 0 0 0 0 0 0 127 0" result="hardAlpha"/>
<feOffset dy="-0.0374068"/>
<feGaussianBlur stdDeviation="0.374068"/>
<feColorMatrix type="matrix" values="0 0 0 0 0 0 0 0 0 0 0 0 0 0 0 0 0 0 0.0503198 0"/>
<feBlend mode="normal" in2="effect1_dropShadow_3_24" result="effect2_dropShadow_3_24"/>
<feColorMatrix in="SourceAlpha" type="matrix" values="0 0 0 0 0 0 0 0 0 0 0 0 0 0 0 0 0 0 127 0" result="hardAlpha"/>
<feOffset dy="-0.0704337"/>
<feGaussianBlur stdDeviation="0.704337"/>
<feColorMatrix type="matrix" values="0 0 0 0 0 0 0 0 0 0 0 0 0 0 0 0 0 0 0.0417275 0"/>
<feBlend mode="normal" in2="effect2_dropShadow_3_24" result="effect3_dropShadow_3_24"/>
<feColorMatrix in="SourceAlpha" type="matrix" values="0 0 0 0 0 0 0 0 0 0 0 0 0 0 0 0 0 0 127 0" result="hardAlpha"/>
<feOffset dy="-0.125642"/>
<feGaussianBlur stdDeviation="1.25642"/>
<feColorMatrix type="matrix" values="0 0 0 0 0 0 0 0 0 0 0 0 0 0 0 0 0 0 0.035 0"/>
<feBlend mode="normal" in2="effect3_dropShadow_3_24" result="effect4_dropShadow_3_24"/>
<feColorMatrix in="SourceAlpha" type="matrix" values="0 0 0 0 0 0 0 0 0 0 0 0 0 0 0 0 0 0 127 0" result="hardAlpha"/>
<feOffset dy="-0.234999"/>
<feGaussianBlur stdDeviation="2.34999"/>
<feColorMatrix type="matrix" values="0 0 0 0 0 0 0 0 0 0 0 0 0 0 0 0 0 0 0.0282725 0"/>
<feBlend mode="normal" in2="effect4_dropShadow_3_24" result="effect5_dropShadow_3_24"/>
<feColorMatrix in="SourceAlpha" type="matrix" values="0 0 0 0 0 0 0 0 0 0 0 0 0 0 0 0 0 0 127 0" result="hardAlpha"/>
<feOffset dy="-0.5625"/>
<feGaussianBlur stdDeviation="5.625"/>
<feColorMatrix type="matrix" values="0 0 0 0 0 0 0 0 0 0 0 0 0 0 0 0 0 0 0.0196802 0"/>
<feBlend mode="normal" in2="effect5_dropShadow_3_24" result="effect6_dropShadow_3_24"/>
<feBlend mode="normal" in="SourceGraphic" in2="effect6_dropShadow_3_24" result="shape"/>
</filter>
<clipPath id="clip0_3_24">
<rect width="72" height="72" fill="white"/>
</clipPath>
<clipPath id="clip1_3_24">
<rect width="72" height="72" fill="white"/>
</clipPath>
</defs>
</svg>
