<svg width="152" height="152" viewBox="0 0 152 152" fill="none" xmlns="http://www.w3.org/2000/svg">
<g clip-path="url(#clip0_3_12)">
<g clip-path="url(#clip1_3_12)">
<g filter="url(#filter0_dddddd_3_12)">
<circle cx="76" cy="76" r="62.9375" fill="white"/>
</g>
<path d="M42.2337 111.704C38.4452 107.884 35.3121 103.636 32.9561 98.8255C30.6639 94.1456 29.1052 89.217 28.3042 84.0452C27.8076 80.8383 27.6103 77.6131 27.7152 74.3726C27.9949 65.7369 30.1542 57.6317 34.4661 50.1572C38.822 42.6065 44.7205 36.6116 52.1796 32.2193C57.4986 29.0871 63.232 27.1357 69.2853 26.1265C72.8639 25.5299 76.4803 25.5128 80.0798 25.6868C87.3121 26.0362 94.1366 28.0035 100.558 31.4059C109.2 35.9855 115.856 42.6316 120.592 51.2738C121.375 52.7022 122.013 54.1989 122.623 55.7106C122.865 56.3097 122.741 56.7261 122.225 57.0584C119.964 58.5161 117.548 59.1602 114.878 58.5317C113.185 58.1329 111.576 57.5052 110.012 56.7445C108.668 56.0911 107.574 55.1703 106.704 53.921C103.004 48.6084 98.148 44.6915 92.3826 41.9291C88.8724 40.2473 85.1603 39.2792 81.2965 38.8269C80.0215 38.6776 78.7321 38.637 77.4824 38.6364C72.106 38.6341 66.9001 39.6178 61.9837 41.9561C55.358 45.1074 50.0529 49.7827 46.1352 56.0546C43.7388 59.891 42.1977 64.0805 41.364 68.5412C41.3258 68.7455 41.321 68.8928 41.4976 69.0732C41.7958 69.3776 41.6761 70.3602 41.3448 70.6121C41.2897 70.654 41.1641 70.6 41.0086 70.5838C40.1477 78.6728 41.3073 86.393 45.1277 93.5923C48.3283 99.6236 52.8457 104.433 58.6251 107.995C62.9793 110.679 67.7086 112.296 72.7488 112.911C79.4454 113.728 85.9035 112.787 92.0008 109.789C95.1192 108.256 97.9413 106.273 100.124 103.476C101.899 101.203 102.568 98.5877 102.376 95.7206C102.356 95.4334 102.348 95.4339 101.818 94.9462C102.307 94.6992 102.22 94.3159 102.132 93.8639C101.017 88.1356 97.7977 83.7729 93.5077 80.1035C90.9769 77.9388 88.159 76.2313 85.2128 74.7197C84.4699 74.3385 83.8321 74.2759 83.0837 74.9065C88.1815 79.0818 93.2291 83.3091 97.4144 88.4893C97.3898 88.8935 97.5992 89.2658 97.8546 89.6401C98.504 90.592 99.0179 91.6214 99.507 92.6663C99.7722 93.2327 99.6296 93.4882 99.0283 93.5924C90.3368 95.0988 82.3586 93.3129 75.2345 88.044C69.1689 83.558 64.8792 77.6821 62.5549 70.3859C61.6884 67.6657 61.2772 64.8723 61.2863 62.0209C61.2891 61.1497 61.465 60.28 61.5436 59.4079C61.5908 58.8834 61.8376 58.8067 62.3009 58.9363C64.3482 59.5095 66.4151 60.0008 68.5322 60.2203C70.9865 60.4748 73.4394 60.726 75.9169 60.5472C78.168 60.3847 80.4078 60.633 82.6349 60.9371C86.1417 61.4161 89.4747 62.4893 92.6216 64.1329C99.2646 67.6024 103.652 72.9718 105.717 80.2726C106.833 84.2211 107.058 88.2682 106.903 92.3457C106.853 93.6667 106.696 94.9835 106.588 96.3062C106.95 96.376 107.031 96.1406 107.143 95.9624C109.671 91.9248 111.26 87.5286 112.02 82.8136C112.397 80.4722 112.385 78.1095 112.297 75.7559C112.231 74.0067 112.8 72.6215 114.068 71.4882C117.096 68.7826 120.639 67.2569 124.629 66.8281C125.802 66.7021 126.101 66.9953 126.241 68.168C126.703 72.0603 126.795 75.962 126.537 79.879C126.192 85.136 124.996 90.1817 122.987 95.025C119.116 104.358 113.13 111.973 104.904 117.725C98.8656 121.948 92.2249 124.642 84.9554 125.733C81.6691 126.226 78.3677 126.459 75.06 126.278C65.5524 125.757 56.7811 122.931 48.9203 117.392C46.5385 115.714 44.3067 113.845 42.2337 111.704Z" fill="#00B87A"/>
<path d="M107.202 93.9967C107.856 94.1093 107.325 94.5604 107.44 94.8455C107.108 94.6557 106.99 94.3957 107.202 93.9967Z" fill="#00B87A"/>
</g>
</g>
<defs>
<filter id="filter0_dddddd_3_12" x="-10.6875" y="-11.875" width="173.375" height="173.375" filterUnits="userSpaceOnUse" color-interpolation-filters="sRGB">
<feFlood flood-opacity="0" result="BackgroundImageFix"/>
<feColorMatrix in="SourceAlpha" type="matrix" values="0 0 0 0 0 0 0 0 0 0 0 0 0 0 0 0 0 0 127 0" result="hardAlpha"/>
<feOffset dy="-0.0328612"/>
<feGaussianBlur stdDeviation="0.328612"/>
<feColorMatrix type="matrix" values="0 0 0 0 0 0 0 0 0 0 0 0 0 0 0 0 0 0 0.07 0"/>
<feBlend mode="normal" in2="BackgroundImageFix" result="effect1_dropShadow_3_12"/>
<feColorMatrix in="SourceAlpha" type="matrix" values="0 0 0 0 0 0 0 0 0 0 0 0 0 0 0 0 0 0 127 0" result="hardAlpha"/>
<feOffset dy="-0.07897"/>
<feGaussianBlur stdDeviation="0.7897"/>
<feColorMatrix type="matrix" values="0 0 0 0 0 0 0 0 0 0 0 0 0 0 0 0 0 0 0.0503198 0"/>
<feBlend mode="normal" in2="effect1_dropShadow_3_12" result="effect2_dropShadow_3_12"/>
<feColorMatrix in="SourceAlpha" type="matrix" values="0 0 0 0 0 0 0 0 0 0 0 0 0 0 0 0 0 0 127 0" result="hardAlpha"/>
<feOffset dy="-0.148693"/>
<feGaussianBlur stdDeviation="1.48693"/>
<feColorMatrix type="matrix" values="0 0 0 0 0 0 0 0 0 0 0 0 0 0 0 0 0 0 0.0417275 0"/>
<feBlend mode="normal" in2="effect2_dropShadow_3_12" result="effect3_dropShadow_3_12"/>
<feColorMatrix in="SourceAlpha" type="matrix" values="0 0 0 0 0 0 0 0 0 0 0 0 0 0 0 0 0 0 127 0" result="hardAlpha"/>
<feOffset dy="-0.265244"/>
<feGaussianBlur stdDeviation="2.65244"/>
<feColorMatrix type="matrix" values="0 0 0 0 0 0 0 0 0 0 0 0 0 0 0 0 0 0 0.035 0"/>
<feBlend mode="normal" in2="effect3_dropShadow_3_12" result="effect4_dropShadow_3_12"/>
<feColorMatrix in="SourceAlpha" type="matrix" values="0 0 0 0 0 0 0 0 0 0 0 0 0 0 0 0 0 0 127 0" result="hardAlpha"/>
<feOffset dy="-0.496109"/>
<feGaussianBlur stdDeviation="4.96109"/>
<feColorMatrix type="matrix" values="0 0 0 0 0 0 0 0 0 0 0 0 0 0 0 0 0 0 0.0282725 0"/>
<feBlend mode="normal" in2="effect4_dropShadow_3_12" result="effect5_dropShadow_3_12"/>
<feColorMatrix in="SourceAlpha" type="matrix" values="0 0 0 0 0 0 0 0 0 0 0 0 0 0 0 0 0 0 127 0" result="hardAlpha"/>
<feOffset dy="-1.1875"/>
<feGaussianBlur stdDeviation="11.875"/>
<feColorMatrix type="matrix" values="0 0 0 0 0 0 0 0 0 0 0 0 0 0 0 0 0 0 0.0196802 0"/>
<feBlend mode="normal" in2="effect5_dropShadow_3_12" result="effect6_dropShadow_3_12"/>
<feBlend mode="normal" in="SourceGraphic" in2="effect6_dropShadow_3_12" result="shape"/>
</filter>
<clipPath id="clip0_3_12">
<rect width="152" height="152" fill="white"/>
</clipPath>
<clipPath id="clip1_3_12">
<rect width="152" height="152" fill="white"/>
</clipPath>
</defs>
</svg>
