<svg width="180" height="180" viewBox="0 0 180 180" fill="none" xmlns="http://www.w3.org/2000/svg">
<g clip-path="url(#clip0_3_10)">
<g clip-path="url(#clip1_3_10)">
<g filter="url(#filter0_dddddd_3_10)">
<circle cx="90" cy="90" r="74.5312" fill="white"/>
</g>
<path d="M50.0136 132.281C45.5272 127.758 41.8169 122.726 39.027 117.03C36.3125 111.488 34.4667 105.652 33.5182 99.5272C32.93 95.7296 32.6964 91.9103 32.8207 88.0729C33.1519 77.8464 35.709 68.2481 40.8152 59.3967C45.9734 50.4551 52.9585 43.3558 61.7916 38.1544C68.0905 34.4453 74.88 32.1343 82.0484 30.9393C86.2862 30.2328 90.5688 30.2126 94.8314 30.4185C103.396 30.8324 111.477 33.162 119.082 37.1913C129.316 42.6144 137.198 50.4848 142.806 60.719C143.733 62.4106 144.489 64.1829 145.211 65.9731C145.497 66.6825 145.351 67.1757 144.741 67.5692C142.063 69.2953 139.201 70.0581 136.04 69.3138C134.035 68.8416 132.13 68.0983 130.277 67.1975C128.686 66.4236 127.39 65.3332 126.36 63.8538C121.979 57.5626 116.228 52.9242 109.4 49.6529C105.244 47.6613 100.848 46.5149 96.2721 45.9792C94.7623 45.8025 93.2354 45.7543 91.7554 45.7536C85.3887 45.7509 79.2238 46.9159 73.4018 49.6849C65.5555 53.4166 59.2731 58.9532 54.6338 66.3804C51.7959 70.9236 49.971 75.8848 48.9837 81.1672C48.9384 81.4092 48.9328 81.5836 49.1419 81.7972C49.495 82.1577 49.3533 83.3213 48.9609 83.6196C48.8957 83.6692 48.747 83.6053 48.5628 83.5861C47.5434 93.1652 48.9166 102.307 53.4407 110.833C57.2309 117.975 62.5805 123.671 69.4244 127.889C74.5808 131.067 80.1812 132.982 86.1499 133.71C94.0801 134.678 101.728 133.564 108.948 130.014C112.641 128.198 115.983 125.849 118.568 122.538C120.669 119.846 121.462 116.749 121.234 113.353C121.211 113.013 121.202 113.014 120.574 112.436C121.153 112.144 121.05 111.69 120.946 111.155C119.625 104.371 115.813 99.2047 110.733 94.8594C107.736 92.2959 104.399 90.274 100.91 88.4838C100.03 88.0324 99.2749 87.9584 98.3886 88.705C104.425 93.6495 110.403 98.6555 115.359 104.79C115.33 105.269 115.578 105.71 115.88 106.153C116.649 107.28 117.258 108.499 117.837 109.736C118.151 110.407 117.982 110.71 117.27 110.833C106.978 112.617 97.53 110.502 89.0935 104.263C81.9105 98.9502 76.8306 91.9919 74.0782 83.3517C73.052 80.1304 72.5651 76.8225 72.5759 73.4458C72.5792 72.4141 72.7875 71.3842 72.8806 70.3515C72.9365 69.7304 73.2288 69.6395 73.7773 69.793C76.2018 70.4717 78.6495 71.0536 81.1565 71.3136C84.063 71.6149 86.9677 71.9124 89.9016 71.7006C92.5674 71.5082 95.2197 71.8022 97.8571 72.1624C102.01 72.7296 105.957 74.0005 109.683 75.9468C117.55 80.0555 122.746 86.4139 125.191 95.0596C126.513 99.7355 126.779 104.528 126.596 109.357C126.537 110.921 126.351 112.48 126.223 114.047C126.651 114.13 126.747 113.851 126.879 113.64C129.873 108.858 131.756 103.652 132.655 98.0688C133.102 95.2961 133.088 92.4981 132.983 89.711C132.906 87.6395 133.579 85.9991 135.081 84.6571C138.666 81.4531 142.862 79.6464 147.587 79.1386C148.976 78.9893 149.33 79.3366 149.496 80.7252C150.044 85.3345 150.151 89.955 149.847 94.5935C149.438 100.819 148.021 106.794 145.643 112.53C141.059 123.581 133.969 132.6 124.228 139.412C117.078 144.412 109.214 147.603 100.605 148.894C96.7134 149.478 92.8038 149.754 88.8868 149.54C77.6279 148.922 67.2407 145.576 57.932 139.017C55.1114 137.03 52.4685 134.816 50.0136 132.281Z" fill="#00B87A"/>
<path d="M126.949 111.312C127.724 111.445 127.096 111.979 127.232 112.317C126.839 112.092 126.699 111.784 126.949 111.312Z" fill="#00B87A"/>
</g>
</g>
<defs>
<filter id="filter0_dddddd_3_10" x="-12.6562" y="-14.0625" width="205.312" height="205.312" filterUnits="userSpaceOnUse" color-interpolation-filters="sRGB">
<feFlood flood-opacity="0" result="BackgroundImageFix"/>
<feColorMatrix in="SourceAlpha" type="matrix" values="0 0 0 0 0 0 0 0 0 0 0 0 0 0 0 0 0 0 127 0" result="hardAlpha"/>
<feOffset dy="-0.0389145"/>
<feGaussianBlur stdDeviation="0.389145"/>
<feColorMatrix type="matrix" values="0 0 0 0 0 0 0 0 0 0 0 0 0 0 0 0 0 0 0.07 0"/>
<feBlend mode="normal" in2="BackgroundImageFix" result="effect1_dropShadow_3_10"/>
<feColorMatrix in="SourceAlpha" type="matrix" values="0 0 0 0 0 0 0 0 0 0 0 0 0 0 0 0 0 0 127 0" result="hardAlpha"/>
<feOffset dy="-0.0935171"/>
<feGaussianBlur stdDeviation="0.935171"/>
<feColorMatrix type="matrix" values="0 0 0 0 0 0 0 0 0 0 0 0 0 0 0 0 0 0 0.0503198 0"/>
<feBlend mode="normal" in2="effect1_dropShadow_3_10" result="effect2_dropShadow_3_10"/>
<feColorMatrix in="SourceAlpha" type="matrix" values="0 0 0 0 0 0 0 0 0 0 0 0 0 0 0 0 0 0 127 0" result="hardAlpha"/>
<feOffset dy="-0.176084"/>
<feGaussianBlur stdDeviation="1.76084"/>
<feColorMatrix type="matrix" values="0 0 0 0 0 0 0 0 0 0 0 0 0 0 0 0 0 0 0.0417275 0"/>
<feBlend mode="normal" in2="effect2_dropShadow_3_10" result="effect3_dropShadow_3_10"/>
<feColorMatrix in="SourceAlpha" type="matrix" values="0 0 0 0 0 0 0 0 0 0 0 0 0 0 0 0 0 0 127 0" result="hardAlpha"/>
<feOffset dy="-0.314104"/>
<feGaussianBlur stdDeviation="3.14104"/>
<feColorMatrix type="matrix" values="0 0 0 0 0 0 0 0 0 0 0 0 0 0 0 0 0 0 0.035 0"/>
<feBlend mode="normal" in2="effect3_dropShadow_3_10" result="effect4_dropShadow_3_10"/>
<feColorMatrix in="SourceAlpha" type="matrix" values="0 0 0 0 0 0 0 0 0 0 0 0 0 0 0 0 0 0 127 0" result="hardAlpha"/>
<feOffset dy="-0.587498"/>
<feGaussianBlur stdDeviation="5.87498"/>
<feColorMatrix type="matrix" values="0 0 0 0 0 0 0 0 0 0 0 0 0 0 0 0 0 0 0.0282725 0"/>
<feBlend mode="normal" in2="effect4_dropShadow_3_10" result="effect5_dropShadow_3_10"/>
<feColorMatrix in="SourceAlpha" type="matrix" values="0 0 0 0 0 0 0 0 0 0 0 0 0 0 0 0 0 0 127 0" result="hardAlpha"/>
<feOffset dy="-1.40625"/>
<feGaussianBlur stdDeviation="14.0625"/>
<feColorMatrix type="matrix" values="0 0 0 0 0 0 0 0 0 0 0 0 0 0 0 0 0 0 0.0196802 0"/>
<feBlend mode="normal" in2="effect5_dropShadow_3_10" result="effect6_dropShadow_3_10"/>
<feBlend mode="normal" in="SourceGraphic" in2="effect6_dropShadow_3_10" result="shape"/>
</filter>
<clipPath id="clip0_3_10">
<rect width="180" height="180" fill="white"/>
</clipPath>
<clipPath id="clip1_3_10">
<rect width="180" height="180" fill="white"/>
</clipPath>
</defs>
</svg>
