<svg width="57" height="57" viewBox="0 0 57 57" fill="none" xmlns="http://www.w3.org/2000/svg">
<g clip-path="url(#clip0_3_26)">
<g clip-path="url(#clip1_3_26)">
<g filter="url(#filter0_dddddd_3_26)">
<circle cx="28.5" cy="28.5" r="23.6016" fill="white"/>
</g>
<path d="M15.8376 41.889C14.4169 40.4566 13.242 38.8633 12.3585 37.0596C11.4989 35.3046 10.9144 33.4564 10.6141 31.517C10.4278 30.3144 10.3538 29.1049 10.3932 27.8897C10.4981 24.6514 11.3078 21.6119 12.9248 18.809C14.5582 15.9775 16.7702 13.7293 19.5673 12.0822C21.562 10.9077 23.712 10.1759 25.982 9.79746C27.3239 9.57374 28.6801 9.56733 30.0299 9.63255C32.742 9.76359 35.3012 10.5013 37.7092 11.7772C40.9502 13.4946 43.4461 15.9868 45.2219 19.2277C45.5154 19.7633 45.7548 20.3246 45.9835 20.8915C46.0742 21.1161 46.0277 21.2723 45.8345 21.3969C44.9866 21.9435 44.0803 22.1851 43.0794 21.9494C42.4443 21.7998 41.841 21.5645 41.2544 21.2792C40.7506 21.0342 40.3402 20.6889 40.014 20.2204C38.6266 18.2282 36.8055 16.7593 34.6434 15.7234C33.3271 15.0928 31.9351 14.7297 30.4861 14.5601C30.008 14.5041 29.5245 14.4889 29.0559 14.4887C27.0397 14.4878 25.0875 14.8567 23.2439 15.7336C20.7592 16.9153 18.7698 18.6685 17.3007 21.0205C16.402 22.4591 15.8241 24.0302 15.5115 25.703C15.4971 25.7796 15.4953 25.8348 15.5616 25.9024C15.6734 26.0166 15.6285 26.3851 15.5043 26.4796C15.4836 26.4952 15.4365 26.475 15.3782 26.4689C15.0554 29.5023 15.4902 32.3974 16.9229 35.0971C18.1231 37.3589 19.8171 39.1623 21.9844 40.4982C23.6172 41.5046 25.3907 42.1111 27.2808 42.3416C29.792 42.6479 32.2138 42.2953 34.5003 41.171C35.6697 40.5961 36.728 39.8523 37.5465 38.8037C38.2119 37.9512 38.4628 36.9704 38.3908 35.8953C38.3836 35.7875 38.3806 35.7877 38.1817 35.6048C38.3651 35.5122 38.3326 35.3685 38.2996 35.199C37.8812 33.0509 36.6741 31.4148 35.0653 30.0388C34.1163 29.2271 33.0596 28.5868 31.9548 28.0199C31.6762 27.8769 31.437 27.8535 31.1564 28.0899C33.068 29.6557 34.9609 31.2409 36.5304 33.1835C36.5211 33.3351 36.5997 33.4747 36.6954 33.615C36.939 33.972 37.1317 34.358 37.3151 34.7499C37.4146 34.9623 37.3611 35.0581 37.1356 35.0972C33.8763 35.6621 30.8845 34.9924 28.2129 33.0165C25.9383 31.3342 24.3297 29.1308 23.4581 26.3947C23.1331 25.3746 22.9789 24.3271 22.9823 23.2578C22.9834 22.9312 23.0494 22.605 23.0788 22.278C23.0965 22.0813 23.1891 22.0525 23.3628 22.1011C24.1305 22.3161 24.9056 22.5003 25.6995 22.5826C26.6199 22.6781 27.5397 22.7723 28.4688 22.7052C29.313 22.6443 30.1529 22.7374 30.9881 22.8514C32.3031 23.031 33.553 23.4335 34.7331 24.0498C37.2242 25.3509 38.8694 27.3644 39.6437 30.1022C40.0624 31.5829 40.1466 33.1006 40.0887 34.6296C40.07 35.125 40.0111 35.6188 39.9704 36.1148C40.1063 36.141 40.1366 36.0527 40.1785 35.9859C41.1264 34.4718 41.7226 32.8232 42.0075 31.0551C42.1489 30.1771 42.1444 29.2911 42.1114 28.4085C42.0868 27.7525 42.3 27.2331 42.7755 26.8081C43.9108 25.7935 45.2397 25.2214 46.7358 25.0606C47.1755 25.0133 47.2879 25.1233 47.3402 25.563C47.5138 27.0226 47.5479 28.4858 47.4514 29.9546C47.3219 31.926 46.8734 33.8181 46.1201 35.6344C44.6686 39.1341 42.4236 41.9899 39.3388 44.147C37.0746 45.7303 34.5843 46.7409 31.8582 47.1498C30.6259 47.3347 29.3879 47.4222 28.1475 47.3542C24.5821 47.1588 21.2929 46.0991 18.3451 44.0221C17.4519 43.3928 16.615 42.6917 15.8376 41.889Z" fill="#00B87A"/>
<path d="M40.2006 35.2488C40.446 35.291 40.247 35.4602 40.2901 35.5671C40.1657 35.4959 40.1213 35.3984 40.2006 35.2488Z" fill="#00B87A"/>
</g>
</g>
<defs>
<filter id="filter0_dddddd_3_26" x="-4.00781" y="-4.45312" width="65.0156" height="65.0156" filterUnits="userSpaceOnUse" color-interpolation-filters="sRGB">
<feFlood flood-opacity="0" result="BackgroundImageFix"/>
<feColorMatrix in="SourceAlpha" type="matrix" values="0 0 0 0 0 0 0 0 0 0 0 0 0 0 0 0 0 0 127 0" result="hardAlpha"/>
<feOffset dy="-0.0123229"/>
<feGaussianBlur stdDeviation="0.123229"/>
<feColorMatrix type="matrix" values="0 0 0 0 0 0 0 0 0 0 0 0 0 0 0 0 0 0 0.07 0"/>
<feBlend mode="normal" in2="BackgroundImageFix" result="effect1_dropShadow_3_26"/>
<feColorMatrix in="SourceAlpha" type="matrix" values="0 0 0 0 0 0 0 0 0 0 0 0 0 0 0 0 0 0 127 0" result="hardAlpha"/>
<feOffset dy="-0.0296137"/>
<feGaussianBlur stdDeviation="0.296137"/>
<feColorMatrix type="matrix" values="0 0 0 0 0 0 0 0 0 0 0 0 0 0 0 0 0 0 0.0503198 0"/>
<feBlend mode="normal" in2="effect1_dropShadow_3_26" result="effect2_dropShadow_3_26"/>
<feColorMatrix in="SourceAlpha" type="matrix" values="0 0 0 0 0 0 0 0 0 0 0 0 0 0 0 0 0 0 127 0" result="hardAlpha"/>
<feOffset dy="-0.05576"/>
<feGaussianBlur stdDeviation="0.5576"/>
<feColorMatrix type="matrix" values="0 0 0 0 0 0 0 0 0 0 0 0 0 0 0 0 0 0 0.0417275 0"/>
<feBlend mode="normal" in2="effect2_dropShadow_3_26" result="effect3_dropShadow_3_26"/>
<feColorMatrix in="SourceAlpha" type="matrix" values="0 0 0 0 0 0 0 0 0 0 0 0 0 0 0 0 0 0 127 0" result="hardAlpha"/>
<feOffset dy="-0.0994664"/>
<feGaussianBlur stdDeviation="0.994664"/>
<feColorMatrix type="matrix" values="0 0 0 0 0 0 0 0 0 0 0 0 0 0 0 0 0 0 0.035 0"/>
<feBlend mode="normal" in2="effect3_dropShadow_3_26" result="effect4_dropShadow_3_26"/>
<feColorMatrix in="SourceAlpha" type="matrix" values="0 0 0 0 0 0 0 0 0 0 0 0 0 0 0 0 0 0 127 0" result="hardAlpha"/>
<feOffset dy="-0.186041"/>
<feGaussianBlur stdDeviation="1.86041"/>
<feColorMatrix type="matrix" values="0 0 0 0 0 0 0 0 0 0 0 0 0 0 0 0 0 0 0.0282725 0"/>
<feBlend mode="normal" in2="effect4_dropShadow_3_26" result="effect5_dropShadow_3_26"/>
<feColorMatrix in="SourceAlpha" type="matrix" values="0 0 0 0 0 0 0 0 0 0 0 0 0 0 0 0 0 0 127 0" result="hardAlpha"/>
<feOffset dy="-0.445312"/>
<feGaussianBlur stdDeviation="4.45312"/>
<feColorMatrix type="matrix" values="0 0 0 0 0 0 0 0 0 0 0 0 0 0 0 0 0 0 0.0196802 0"/>
<feBlend mode="normal" in2="effect5_dropShadow_3_26" result="effect6_dropShadow_3_26"/>
<feBlend mode="normal" in="SourceGraphic" in2="effect6_dropShadow_3_26" result="shape"/>
</filter>
<clipPath id="clip0_3_26">
<rect width="57" height="57" fill="white"/>
</clipPath>
<clipPath id="clip1_3_26">
<rect width="57" height="57" fill="white"/>
</clipPath>
</defs>
</svg>
