<svg width="32" height="52" viewBox="0 0 32 52" fill="none" xmlns="http://www.w3.org/2000/svg">
<g clip-path="url(#clip0_3_20)">
<g filter="url(#filter0_dddddd_3_20)">
<circle cx="16" cy="16" r="13.25" fill="white"/>
</g>
<path d="M8.89131 23.5167C8.09372 22.7125 7.43412 21.818 6.93813 20.8054C6.45556 19.8201 6.12741 18.7825 5.95879 17.6937C5.85423 17.0186 5.8127 16.3396 5.83479 15.6574C5.89367 13.8394 6.34826 12.133 7.25603 10.5594C8.17305 8.96981 9.41485 7.70772 10.9852 6.78302C12.105 6.12362 13.312 5.71279 14.5864 5.50034C15.3398 5.37474 16.1011 5.37115 16.8589 5.40776C18.3815 5.48133 19.8182 5.89549 21.1701 6.6118C22.9896 7.57591 24.3908 8.97509 25.3878 10.7945C25.5525 11.0952 25.6869 11.4103 25.8153 11.7286C25.8662 11.8547 25.8401 11.9424 25.7316 12.0123C25.2557 12.3192 24.7469 12.4548 24.1849 12.3225C23.8284 12.2385 23.4897 12.1064 23.1604 11.9462C22.8775 11.8087 22.6471 11.6148 22.464 11.3518C21.6851 10.2334 20.6627 9.40876 19.449 8.8272C18.71 8.47314 17.9285 8.26933 17.115 8.1741C16.8466 8.14268 16.5752 8.13411 16.3121 8.134C15.1802 8.1335 14.0842 8.34062 13.0492 8.83289C11.6543 9.49631 10.5374 10.4806 9.71267 11.801C9.20816 12.6087 8.88374 13.4907 8.70821 14.4298C8.70017 14.4728 8.69916 14.5038 8.73635 14.5417C8.79912 14.6058 8.77392 14.8127 8.70416 14.8657C8.69258 14.8745 8.66613 14.8632 8.63339 14.8598C8.45216 16.5627 8.69628 18.188 9.50058 19.7037C10.1744 20.9734 11.1254 21.9859 12.3421 22.7358C13.2588 23.3009 14.2544 23.6413 15.3155 23.7708C16.7254 23.9427 18.085 23.7448 19.3686 23.1136C20.0251 22.7908 20.6192 22.3732 21.0787 21.7845C21.4523 21.3059 21.5932 20.7553 21.5528 20.1517C21.5487 20.0913 21.547 20.0914 21.4353 19.9887C21.5383 19.9367 21.5201 19.856 21.5016 19.7608C21.2667 18.5549 20.589 17.6364 19.6858 16.8639C19.153 16.4082 18.5598 16.0487 17.9395 15.7305C17.7831 15.6502 17.6489 15.6371 17.4913 15.7698C18.5645 16.6488 19.6272 17.5388 20.5083 18.6293C20.5031 18.7144 20.5472 18.7928 20.601 18.8716C20.7377 19.072 20.8459 19.2887 20.9488 19.5087C21.0047 19.628 20.9747 19.6817 20.8481 19.7037C19.0183 20.0208 17.3387 19.6448 15.8388 18.5356C14.5619 17.5912 13.6588 16.3541 13.1695 14.8181C12.987 14.2454 12.9005 13.6573 12.9024 13.057C12.903 12.8736 12.94 12.6905 12.9565 12.507C12.9665 12.3965 13.0184 12.3804 13.116 12.4077C13.547 12.5283 13.9821 12.6318 14.4278 12.678C14.9445 12.7316 15.4609 12.7844 15.9825 12.7468C16.4564 12.7126 16.928 12.7649 17.3968 12.8289C18.1351 12.9297 18.8368 13.1557 19.4993 13.5017C20.8978 14.2321 21.8215 15.3625 22.2561 16.8995C22.4912 17.7308 22.5384 18.5828 22.506 19.4412C22.4954 19.7193 22.4624 19.9966 22.4396 20.275C22.5158 20.2897 22.5329 20.2402 22.5563 20.2026C23.0885 19.3526 23.4233 18.4271 23.5832 17.4345C23.6626 16.9415 23.66 16.4441 23.6415 15.9486C23.6277 15.5804 23.7474 15.2888 24.0143 15.0502C24.6517 14.4806 25.3977 14.1594 26.2376 14.0691C26.4845 14.0426 26.5476 14.1043 26.577 14.3512C26.6744 15.1706 26.6936 15.992 26.6394 16.8166C26.5667 17.9234 26.3149 18.9856 25.892 20.0053C25.0771 21.97 23.8168 23.5733 22.085 24.7843C20.8138 25.6732 19.4158 26.2405 17.8853 26.4701C17.1935 26.5739 16.4985 26.623 15.8021 26.5848C13.8005 26.4751 11.9539 25.8802 10.299 24.7142C9.79758 24.3609 9.32773 23.9673 8.89131 23.5167Z" fill="#00B87A"/>
<path d="M22.5688 19.7888C22.7065 19.8125 22.5948 19.9074 22.619 19.9675C22.5491 19.9275 22.5242 19.8727 22.5688 19.7888Z" fill="#00B87A"/>
</g>
<defs>
<filter id="filter0_dddddd_3_20" x="-2.25" y="-2.5" width="36.5" height="36.5" filterUnits="userSpaceOnUse" color-interpolation-filters="sRGB">
<feFlood flood-opacity="0" result="BackgroundImageFix"/>
<feColorMatrix in="SourceAlpha" type="matrix" values="0 0 0 0 0 0 0 0 0 0 0 0 0 0 0 0 0 0 127 0" result="hardAlpha"/>
<feOffset dy="-0.00691814"/>
<feGaussianBlur stdDeviation="0.0691814"/>
<feColorMatrix type="matrix" values="0 0 0 0 0 0 0 0 0 0 0 0 0 0 0 0 0 0 0.07 0"/>
<feBlend mode="normal" in2="BackgroundImageFix" result="effect1_dropShadow_3_20"/>
<feColorMatrix in="SourceAlpha" type="matrix" values="0 0 0 0 0 0 0 0 0 0 0 0 0 0 0 0 0 0 127 0" result="hardAlpha"/>
<feOffset dy="-0.0166253"/>
<feGaussianBlur stdDeviation="0.166253"/>
<feColorMatrix type="matrix" values="0 0 0 0 0 0 0 0 0 0 0 0 0 0 0 0 0 0 0.0503198 0"/>
<feBlend mode="normal" in2="effect1_dropShadow_3_20" result="effect2_dropShadow_3_20"/>
<feColorMatrix in="SourceAlpha" type="matrix" values="0 0 0 0 0 0 0 0 0 0 0 0 0 0 0 0 0 0 127 0" result="hardAlpha"/>
<feOffset dy="-0.0313039"/>
<feGaussianBlur stdDeviation="0.313039"/>
<feColorMatrix type="matrix" values="0 0 0 0 0 0 0 0 0 0 0 0 0 0 0 0 0 0 0.0417275 0"/>
<feBlend mode="normal" in2="effect2_dropShadow_3_20" result="effect3_dropShadow_3_20"/>
<feColorMatrix in="SourceAlpha" type="matrix" values="0 0 0 0 0 0 0 0 0 0 0 0 0 0 0 0 0 0 127 0" result="hardAlpha"/>
<feOffset dy="-0.0558408"/>
<feGaussianBlur stdDeviation="0.558408"/>
<feColorMatrix type="matrix" values="0 0 0 0 0 0 0 0 0 0 0 0 0 0 0 0 0 0 0.035 0"/>
<feBlend mode="normal" in2="effect3_dropShadow_3_20" result="effect4_dropShadow_3_20"/>
<feColorMatrix in="SourceAlpha" type="matrix" values="0 0 0 0 0 0 0 0 0 0 0 0 0 0 0 0 0 0 127 0" result="hardAlpha"/>
<feOffset dy="-0.104444"/>
<feGaussianBlur stdDeviation="1.04444"/>
<feColorMatrix type="matrix" values="0 0 0 0 0 0 0 0 0 0 0 0 0 0 0 0 0 0 0.0282725 0"/>
<feBlend mode="normal" in2="effect4_dropShadow_3_20" result="effect5_dropShadow_3_20"/>
<feColorMatrix in="SourceAlpha" type="matrix" values="0 0 0 0 0 0 0 0 0 0 0 0 0 0 0 0 0 0 127 0" result="hardAlpha"/>
<feOffset dy="-0.25"/>
<feGaussianBlur stdDeviation="2.5"/>
<feColorMatrix type="matrix" values="0 0 0 0 0 0 0 0 0 0 0 0 0 0 0 0 0 0 0.0196802 0"/>
<feBlend mode="normal" in2="effect5_dropShadow_3_20" result="effect6_dropShadow_3_20"/>
<feBlend mode="normal" in="SourceGraphic" in2="effect6_dropShadow_3_20" result="shape"/>
</filter>
<clipPath id="clip0_3_20">
<rect width="32" height="32" fill="white"/>
</clipPath>
</defs>
</svg>
