<svg width="96" height="116" viewBox="0 0 96 116" fill="none" xmlns="http://www.w3.org/2000/svg">
<g clip-path="url(#clip0_3_17)">
<g filter="url(#filter0_dddddd_3_17)">
<circle cx="48" cy="48" r="39.75" fill="white"/>
</g>
<path d="M26.6739 70.55C24.2812 68.1375 22.3024 65.454 20.8144 62.4161C19.3667 59.4604 18.3822 56.3476 17.8764 53.0812C17.5627 51.0558 17.4381 49.0188 17.5044 46.9722C17.681 41.5181 19.0448 36.399 21.7681 31.6782C24.5191 26.9094 28.2445 23.1231 32.9555 20.349C36.3149 18.3708 39.936 17.1383 43.7591 16.501C46.0193 16.1242 48.3033 16.1134 50.5767 16.2232C55.1445 16.4439 59.4547 17.6864 63.5102 19.8353C68.9687 22.7277 73.1724 26.9252 76.1633 32.3835C76.6576 33.2856 77.0608 34.2309 77.446 35.1857C77.5987 35.564 77.5204 35.827 77.1949 36.0369C75.767 36.9575 74.2406 37.3643 72.5548 36.9674C71.4852 36.7155 70.4692 36.3191 69.4812 35.8386C68.6326 35.4259 67.9414 34.8444 67.392 34.0554C65.0554 30.7 61.9882 28.2262 58.3469 26.4815C56.13 25.4194 53.7855 24.8079 51.3451 24.5222C50.5399 24.428 49.7256 24.4023 48.9362 24.4019C45.5406 24.4005 42.2527 25.0218 39.1476 26.4986C34.9629 28.4889 31.6123 31.4417 29.138 35.4029C27.6245 37.8259 26.6512 40.4719 26.1246 43.2892C26.1005 43.4182 26.0975 43.5112 26.209 43.6252C26.3974 43.8174 26.3218 44.438 26.1125 44.5971C26.0777 44.6235 25.9984 44.5895 25.9002 44.5792C25.3565 49.6881 26.0888 54.564 28.5017 59.1109C30.5231 62.9202 33.3763 65.9576 37.0264 68.2074C39.7764 69.9025 42.7633 70.924 45.9466 71.3122C50.176 71.8281 54.2549 71.2342 58.1058 69.3407C60.0753 68.3723 61.8577 67.1196 63.2362 65.3535C64.357 63.9177 64.7795 62.2659 64.6583 60.4551C64.6461 60.2737 64.6411 60.2741 64.306 59.966C64.6149 59.81 64.5603 59.568 64.5047 59.2825C63.8 55.6646 61.767 52.9092 59.0575 50.5916C57.4591 49.2245 55.6794 48.1461 53.8186 47.1914C53.3494 46.9506 52.9466 46.9111 52.4739 47.3093C55.6936 49.9464 58.8815 52.6163 61.5249 55.888C61.5093 56.1433 61.6416 56.3784 61.8029 56.6148C62.213 57.216 62.5376 57.8661 62.8465 58.5261C63.014 58.8838 62.924 59.0452 62.5442 59.111C57.0548 60.0624 52.016 58.9345 47.5165 55.6068C43.6856 52.7735 40.9763 49.0624 39.5084 44.4542C38.9611 42.7362 38.7014 40.972 38.7071 39.1711C38.7089 38.6209 38.82 38.0716 38.8696 37.5208C38.8995 37.1895 39.0553 37.141 39.3479 37.2229C40.641 37.5849 41.9464 37.8952 43.2835 38.0339C44.8336 38.1946 46.3828 38.3533 47.9475 38.2403C49.3693 38.1377 50.7839 38.2945 52.1905 38.4866C54.4053 38.7891 56.5104 39.4669 58.4979 40.505C62.6934 42.6963 65.4644 46.0874 66.7683 50.6985C67.4736 53.1923 67.6153 55.7483 67.5179 58.3236C67.4863 59.1579 67.3872 59.9896 67.3187 60.8249C67.5474 60.8691 67.5986 60.7204 67.669 60.6078C69.2656 58.0578 70.2697 55.2812 70.7495 52.3033C70.9877 50.8246 70.9801 49.3323 70.9244 47.8458C70.883 46.7411 71.2421 45.8662 72.043 45.1505C73.9551 43.4417 76.1932 42.4781 78.7129 42.2072C79.4536 42.1276 79.6429 42.3128 79.731 43.0535C80.0232 45.5118 80.0807 47.976 79.9182 50.4499C79.7001 53.7701 78.9447 56.9569 77.676 60.0158C75.2314 65.91 71.4504 70.7199 66.2549 74.3529C62.4414 77.0195 58.2473 78.7215 53.656 79.4102C51.5805 79.7216 49.4954 79.869 47.4063 79.7545C41.4015 79.4253 35.8617 77.6407 30.897 74.1425C29.3927 73.0826 27.9832 71.9018 26.6739 70.55Z" fill="#00B87A"/>
<path d="M67.7063 59.3663C68.1196 59.4374 67.7843 59.7223 67.857 59.9024C67.6474 59.7825 67.5726 59.6183 67.7063 59.3663Z" fill="#00B87A"/>
</g>
<defs>
<filter id="filter0_dddddd_3_17" x="-6.75" y="-7.5" width="109.5" height="109.5" filterUnits="userSpaceOnUse" color-interpolation-filters="sRGB">
<feFlood flood-opacity="0" result="BackgroundImageFix"/>
<feColorMatrix in="SourceAlpha" type="matrix" values="0 0 0 0 0 0 0 0 0 0 0 0 0 0 0 0 0 0 127 0" result="hardAlpha"/>
<feOffset dy="-0.0207544"/>
<feGaussianBlur stdDeviation="0.207544"/>
<feColorMatrix type="matrix" values="0 0 0 0 0 0 0 0 0 0 0 0 0 0 0 0 0 0 0.07 0"/>
<feBlend mode="normal" in2="BackgroundImageFix" result="effect1_dropShadow_3_17"/>
<feColorMatrix in="SourceAlpha" type="matrix" values="0 0 0 0 0 0 0 0 0 0 0 0 0 0 0 0 0 0 127 0" result="hardAlpha"/>
<feOffset dy="-0.0498758"/>
<feGaussianBlur stdDeviation="0.498758"/>
<feColorMatrix type="matrix" values="0 0 0 0 0 0 0 0 0 0 0 0 0 0 0 0 0 0 0.0503198 0"/>
<feBlend mode="normal" in2="effect1_dropShadow_3_17" result="effect2_dropShadow_3_17"/>
<feColorMatrix in="SourceAlpha" type="matrix" values="0 0 0 0 0 0 0 0 0 0 0 0 0 0 0 0 0 0 127 0" result="hardAlpha"/>
<feOffset dy="-0.0939116"/>
<feGaussianBlur stdDeviation="0.939116"/>
<feColorMatrix type="matrix" values="0 0 0 0 0 0 0 0 0 0 0 0 0 0 0 0 0 0 0.0417275 0"/>
<feBlend mode="normal" in2="effect2_dropShadow_3_17" result="effect3_dropShadow_3_17"/>
<feColorMatrix in="SourceAlpha" type="matrix" values="0 0 0 0 0 0 0 0 0 0 0 0 0 0 0 0 0 0 127 0" result="hardAlpha"/>
<feOffset dy="-0.167522"/>
<feGaussianBlur stdDeviation="1.67522"/>
<feColorMatrix type="matrix" values="0 0 0 0 0 0 0 0 0 0 0 0 0 0 0 0 0 0 0.035 0"/>
<feBlend mode="normal" in2="effect3_dropShadow_3_17" result="effect4_dropShadow_3_17"/>
<feColorMatrix in="SourceAlpha" type="matrix" values="0 0 0 0 0 0 0 0 0 0 0 0 0 0 0 0 0 0 127 0" result="hardAlpha"/>
<feOffset dy="-0.313332"/>
<feGaussianBlur stdDeviation="3.13332"/>
<feColorMatrix type="matrix" values="0 0 0 0 0 0 0 0 0 0 0 0 0 0 0 0 0 0 0.0282725 0"/>
<feBlend mode="normal" in2="effect4_dropShadow_3_17" result="effect5_dropShadow_3_17"/>
<feColorMatrix in="SourceAlpha" type="matrix" values="0 0 0 0 0 0 0 0 0 0 0 0 0 0 0 0 0 0 127 0" result="hardAlpha"/>
<feOffset dy="-0.75"/>
<feGaussianBlur stdDeviation="7.5"/>
<feColorMatrix type="matrix" values="0 0 0 0 0 0 0 0 0 0 0 0 0 0 0 0 0 0 0.0196802 0"/>
<feBlend mode="normal" in2="effect5_dropShadow_3_17" result="effect6_dropShadow_3_17"/>
<feBlend mode="normal" in="SourceGraphic" in2="effect6_dropShadow_3_17" result="shape"/>
</filter>
<clipPath id="clip0_3_17">
<rect width="96" height="96" fill="white"/>
</clipPath>
</defs>
</svg>
