<svg width="128" height="148" viewBox="0 0 128 148" fill="none" xmlns="http://www.w3.org/2000/svg">
<g clip-path="url(#clip0_3_16)">
<g filter="url(#filter0_dddddd_3_16)">
<circle cx="64" cy="64" r="53" fill="white"/>
</g>
<path d="M35.5652 94.0666C32.3749 90.85 29.7365 87.272 27.7525 83.2215C25.8222 79.2805 24.5097 75.1301 23.8351 70.7749C23.4169 68.0744 23.2508 65.3585 23.3392 62.6296C23.5747 55.3574 25.3931 48.532 29.0241 42.2377C32.6922 35.8792 37.6594 30.8308 43.9407 27.132C48.4199 24.4944 53.248 22.8511 58.3455 22.0013C61.3591 21.4989 64.4045 21.4845 67.4356 21.631C73.5259 21.9253 79.2729 23.5819 84.6803 26.4471C91.9583 30.3036 97.5632 35.9003 101.551 43.178C102.21 44.3809 102.748 45.6412 103.261 46.9142C103.465 47.4187 103.361 47.7694 102.927 48.0492C101.023 49.2767 98.9874 49.8191 96.7397 49.2898C95.3137 48.954 93.9589 48.4255 92.6416 47.7849C91.5101 47.2346 90.5886 46.4592 89.856 45.4072C86.7406 40.9334 82.651 37.635 77.7959 35.3087C74.84 33.8925 71.714 33.0772 68.4602 32.6963C67.3865 32.5707 66.3007 32.5364 65.2483 32.5359C60.7208 32.534 56.3369 33.3624 52.1968 35.3315C46.6172 37.9852 42.1498 41.9223 38.8507 47.2039C36.8327 50.4346 35.535 53.9626 34.8328 57.7189C34.8007 57.891 34.7966 58.015 34.9454 58.1669C35.1965 58.4233 35.0957 59.2507 34.8166 59.4629C34.7703 59.4981 34.6645 59.4527 34.5336 59.439C33.8086 66.2508 34.7851 72.752 38.0023 78.8146C40.6975 83.8936 44.5017 87.9435 49.3685 90.9433C53.0352 93.2034 57.0178 94.5653 61.2621 95.083C66.9014 95.7708 72.3398 94.979 77.4744 92.4543C80.1004 91.1631 82.4769 89.4929 84.315 87.1381C85.8093 85.2237 86.3727 83.0213 86.211 80.6069C86.1948 80.365 86.1881 80.3654 85.7413 79.9547C86.1532 79.7467 86.0803 79.424 86.0062 79.0433C85.0666 74.2195 82.356 70.5456 78.7433 67.4556C76.6121 65.6327 74.2392 64.1948 71.7582 62.9218C71.1325 62.6008 70.5955 62.5482 69.9652 63.0791C74.2581 66.5952 78.5087 70.1551 82.0332 74.5173C82.0124 74.8577 82.1888 75.1712 82.4039 75.4864C82.9507 76.288 83.3835 77.1549 83.7954 78.0348C84.0187 78.5118 83.8987 78.7269 83.3923 78.8147C76.0731 80.0832 69.3546 78.5793 63.3554 74.1424C58.2475 70.3646 54.6351 65.4165 52.6778 59.2723C51.9481 56.9816 51.6019 54.6293 51.6095 52.2281C51.6119 51.4945 51.76 50.7621 51.8262 50.0278C51.866 49.5861 52.0738 49.5214 52.4639 49.6306C54.1879 50.1132 55.9285 50.527 57.7113 50.7119C59.7781 50.9262 61.8437 51.1377 63.93 50.9871C65.8257 50.8503 67.7118 51.0594 69.5873 51.3155C72.5404 51.7188 75.3472 52.6226 77.9972 54.0066C83.5912 56.9284 87.2858 61.4499 89.0245 67.598C89.9648 70.923 90.1538 74.3311 90.0239 77.7648C89.9818 78.8772 89.8495 79.9861 89.7583 81.0999C90.0632 81.1588 90.1314 80.9605 90.2254 80.8104C92.3541 77.4104 93.693 73.7083 94.3327 69.7378C94.6503 67.7661 94.6402 65.7764 94.5659 63.7945C94.5107 62.3214 94.9895 61.1549 96.0574 60.2006C98.6068 57.9222 101.591 56.6374 104.951 56.2763C105.938 56.1702 106.191 56.4171 106.308 57.4046C106.698 60.6824 106.774 63.968 106.558 67.2665C106.267 71.6935 105.26 75.9425 103.568 80.021C100.309 87.88 95.2672 94.2932 88.3399 99.1372C83.2553 102.693 77.6631 104.962 71.5414 105.88C68.774 106.296 65.9938 106.492 63.2084 106.339C55.2021 105.9 47.8156 103.521 41.1961 98.8567C39.1903 97.4435 37.3109 95.8691 35.5652 94.0666Z" fill="#00B87A"/>
<path d="M90.275 79.1552C90.8262 79.2499 90.3791 79.6298 90.476 79.8699C90.1966 79.7101 90.0969 79.4911 90.275 79.1552Z" fill="#00B87A"/>
</g>
<defs>
<filter id="filter0_dddddd_3_16" x="-9" y="-10" width="146" height="146" filterUnits="userSpaceOnUse" color-interpolation-filters="sRGB">
<feFlood flood-opacity="0" result="BackgroundImageFix"/>
<feColorMatrix in="SourceAlpha" type="matrix" values="0 0 0 0 0 0 0 0 0 0 0 0 0 0 0 0 0 0 127 0" result="hardAlpha"/>
<feOffset dy="-0.0276726"/>
<feGaussianBlur stdDeviation="0.276726"/>
<feColorMatrix type="matrix" values="0 0 0 0 0 0 0 0 0 0 0 0 0 0 0 0 0 0 0.07 0"/>
<feBlend mode="normal" in2="BackgroundImageFix" result="effect1_dropShadow_3_16"/>
<feColorMatrix in="SourceAlpha" type="matrix" values="0 0 0 0 0 0 0 0 0 0 0 0 0 0 0 0 0 0 127 0" result="hardAlpha"/>
<feOffset dy="-0.066501"/>
<feGaussianBlur stdDeviation="0.66501"/>
<feColorMatrix type="matrix" values="0 0 0 0 0 0 0 0 0 0 0 0 0 0 0 0 0 0 0.0503198 0"/>
<feBlend mode="normal" in2="effect1_dropShadow_3_16" result="effect2_dropShadow_3_16"/>
<feColorMatrix in="SourceAlpha" type="matrix" values="0 0 0 0 0 0 0 0 0 0 0 0 0 0 0 0 0 0 127 0" result="hardAlpha"/>
<feOffset dy="-0.125216"/>
<feGaussianBlur stdDeviation="1.25216"/>
<feColorMatrix type="matrix" values="0 0 0 0 0 0 0 0 0 0 0 0 0 0 0 0 0 0 0.0417275 0"/>
<feBlend mode="normal" in2="effect2_dropShadow_3_16" result="effect3_dropShadow_3_16"/>
<feColorMatrix in="SourceAlpha" type="matrix" values="0 0 0 0 0 0 0 0 0 0 0 0 0 0 0 0 0 0 127 0" result="hardAlpha"/>
<feOffset dy="-0.223363"/>
<feGaussianBlur stdDeviation="2.23363"/>
<feColorMatrix type="matrix" values="0 0 0 0 0 0 0 0 0 0 0 0 0 0 0 0 0 0 0.035 0"/>
<feBlend mode="normal" in2="effect3_dropShadow_3_16" result="effect4_dropShadow_3_16"/>
<feColorMatrix in="SourceAlpha" type="matrix" values="0 0 0 0 0 0 0 0 0 0 0 0 0 0 0 0 0 0 127 0" result="hardAlpha"/>
<feOffset dy="-0.417776"/>
<feGaussianBlur stdDeviation="4.17776"/>
<feColorMatrix type="matrix" values="0 0 0 0 0 0 0 0 0 0 0 0 0 0 0 0 0 0 0.0282725 0"/>
<feBlend mode="normal" in2="effect4_dropShadow_3_16" result="effect5_dropShadow_3_16"/>
<feColorMatrix in="SourceAlpha" type="matrix" values="0 0 0 0 0 0 0 0 0 0 0 0 0 0 0 0 0 0 127 0" result="hardAlpha"/>
<feOffset dy="-1"/>
<feGaussianBlur stdDeviation="10"/>
<feColorMatrix type="matrix" values="0 0 0 0 0 0 0 0 0 0 0 0 0 0 0 0 0 0 0.0196802 0"/>
<feBlend mode="normal" in2="effect5_dropShadow_3_16" result="effect6_dropShadow_3_16"/>
<feBlend mode="normal" in="SourceGraphic" in2="effect6_dropShadow_3_16" result="shape"/>
</filter>
<clipPath id="clip0_3_16">
<rect width="128" height="128" fill="white"/>
</clipPath>
</defs>
</svg>
