<svg width="196" height="216" viewBox="0 0 196 216" fill="none" xmlns="http://www.w3.org/2000/svg">
<g clip-path="url(#clip0_3_15)">
<g filter="url(#filter0_dddddd_3_15)">
<circle cx="98" cy="98" r="81.1562" fill="white"/>
</g>
<path d="M54.4592 144.04C49.574 139.114 45.534 133.635 42.496 127.433C39.5403 121.398 37.5304 115.043 36.4976 108.374C35.8571 104.239 35.6028 100.08 35.7381 95.9016C36.0987 84.7661 38.8831 74.3146 44.4432 64.6764C50.0599 54.94 57.666 47.2097 67.2842 41.5459C74.143 37.5071 81.536 34.9907 89.3416 33.6895C93.956 32.9202 98.6193 32.8982 103.261 33.1224C112.587 33.573 121.387 36.1098 129.667 40.4972C140.811 46.4023 149.394 54.9723 155.5 66.1163C156.509 67.9582 157.332 69.888 158.119 71.8374C158.431 72.6099 158.271 73.1469 157.606 73.5753C154.691 75.4549 151.575 76.2855 148.133 75.475C145.949 74.9608 143.875 74.1515 141.857 73.1706C140.125 72.328 138.714 71.1407 137.592 69.5297C132.821 62.6793 126.559 57.6285 119.125 54.0665C114.599 51.8979 109.812 50.6495 104.83 50.0663C103.186 49.8738 101.523 49.8213 99.9115 49.8206C92.9788 49.8176 86.2659 51.0862 79.9264 54.1013C71.3826 58.1648 64.5419 64.1935 59.4901 72.2809C56.4 77.2279 54.4129 82.6302 53.3378 88.3821C53.2885 88.6456 53.2823 88.8355 53.5101 89.0681C53.8946 89.4606 53.7403 90.7277 53.313 91.0525C53.242 91.1064 53.0801 91.0369 52.8795 91.016C51.7695 101.447 53.2647 111.401 58.191 120.685C62.3181 128.462 68.1432 134.663 75.5955 139.257C81.2102 142.718 87.3085 144.803 93.8076 145.596C102.443 146.649 110.77 145.437 118.633 141.571C122.654 139.593 126.293 137.036 129.107 133.43C131.396 130.499 132.258 127.126 132.011 123.429C131.986 123.059 131.976 123.06 131.291 122.431C131.922 122.112 131.811 121.618 131.697 121.035C130.258 113.649 126.108 108.023 120.576 103.291C117.312 100.5 113.679 98.2983 109.88 96.349C108.922 95.8575 108.099 95.7769 107.134 96.5899C113.708 101.974 120.216 107.425 125.613 114.105C125.582 114.626 125.852 115.106 126.181 115.589C127.018 116.816 127.681 118.143 128.312 119.491C128.654 120.221 128.47 120.551 127.694 120.685C116.487 122.627 106.199 120.325 97.0129 113.53C89.1914 107.746 83.66 100.169 80.6629 90.7607C79.5456 87.2531 79.0154 83.6512 79.0271 79.9743C79.0307 78.851 79.2576 77.7295 79.3588 76.605C79.4198 75.9286 79.738 75.8297 80.3353 75.9969C82.9753 76.7359 85.6405 77.3695 88.3705 77.6526C91.5352 77.9807 94.6981 78.3046 97.8928 78.074C100.796 77.8645 103.684 78.1846 106.556 78.5769C111.078 79.1944 115.375 80.5783 119.433 82.6977C127.999 87.1715 133.656 94.0952 136.319 103.509C137.759 108.601 138.048 113.819 137.849 119.077C137.785 120.781 137.582 122.479 137.442 124.184C137.909 124.274 138.014 123.971 138.158 123.741C141.417 118.535 143.467 112.866 144.447 106.786C144.933 103.767 144.918 100.72 144.804 97.6853C144.719 95.4297 145.453 93.6435 147.088 92.1822C150.992 88.6934 155.561 86.726 160.706 86.1731C162.218 86.0106 162.604 86.3887 162.784 87.9008C163.381 92.9198 163.498 97.951 163.166 103.002C162.721 109.781 161.179 116.287 158.589 122.532C153.597 134.566 145.878 144.386 135.27 151.804C127.485 157.248 118.922 160.723 109.548 162.129C105.31 162.765 101.053 163.066 96.7879 162.832C84.5281 162.16 73.2177 158.516 63.0815 151.374C60.0101 149.21 57.1323 146.8 54.4592 144.04Z" fill="#00B87A"/>
<path d="M138.234 121.206C139.078 121.351 138.393 121.933 138.541 122.301C138.114 122.056 137.961 121.721 138.234 121.206Z" fill="#00B87A"/>
</g>
<defs>
<filter id="filter0_dddddd_3_15" x="-13.7812" y="-15.3125" width="223.562" height="223.562" filterUnits="userSpaceOnUse" color-interpolation-filters="sRGB">
<feFlood flood-opacity="0" result="BackgroundImageFix"/>
<feColorMatrix in="SourceAlpha" type="matrix" values="0 0 0 0 0 0 0 0 0 0 0 0 0 0 0 0 0 0 127 0" result="hardAlpha"/>
<feOffset dy="-0.0423736"/>
<feGaussianBlur stdDeviation="0.423736"/>
<feColorMatrix type="matrix" values="0 0 0 0 0 0 0 0 0 0 0 0 0 0 0 0 0 0 0.07 0"/>
<feBlend mode="normal" in2="BackgroundImageFix" result="effect1_dropShadow_3_15"/>
<feColorMatrix in="SourceAlpha" type="matrix" values="0 0 0 0 0 0 0 0 0 0 0 0 0 0 0 0 0 0 127 0" result="hardAlpha"/>
<feOffset dy="-0.10183"/>
<feGaussianBlur stdDeviation="1.0183"/>
<feColorMatrix type="matrix" values="0 0 0 0 0 0 0 0 0 0 0 0 0 0 0 0 0 0 0.0503198 0"/>
<feBlend mode="normal" in2="effect1_dropShadow_3_15" result="effect2_dropShadow_3_15"/>
<feColorMatrix in="SourceAlpha" type="matrix" values="0 0 0 0 0 0 0 0 0 0 0 0 0 0 0 0 0 0 127 0" result="hardAlpha"/>
<feOffset dy="-0.191736"/>
<feGaussianBlur stdDeviation="1.91736"/>
<feColorMatrix type="matrix" values="0 0 0 0 0 0 0 0 0 0 0 0 0 0 0 0 0 0 0.0417275 0"/>
<feBlend mode="normal" in2="effect2_dropShadow_3_15" result="effect3_dropShadow_3_15"/>
<feColorMatrix in="SourceAlpha" type="matrix" values="0 0 0 0 0 0 0 0 0 0 0 0 0 0 0 0 0 0 127 0" result="hardAlpha"/>
<feOffset dy="-0.342025"/>
<feGaussianBlur stdDeviation="3.42025"/>
<feColorMatrix type="matrix" values="0 0 0 0 0 0 0 0 0 0 0 0 0 0 0 0 0 0 0.035 0"/>
<feBlend mode="normal" in2="effect3_dropShadow_3_15" result="effect4_dropShadow_3_15"/>
<feColorMatrix in="SourceAlpha" type="matrix" values="0 0 0 0 0 0 0 0 0 0 0 0 0 0 0 0 0 0 127 0" result="hardAlpha"/>
<feOffset dy="-0.63972"/>
<feGaussianBlur stdDeviation="6.3972"/>
<feColorMatrix type="matrix" values="0 0 0 0 0 0 0 0 0 0 0 0 0 0 0 0 0 0 0.0282725 0"/>
<feBlend mode="normal" in2="effect4_dropShadow_3_15" result="effect5_dropShadow_3_15"/>
<feColorMatrix in="SourceAlpha" type="matrix" values="0 0 0 0 0 0 0 0 0 0 0 0 0 0 0 0 0 0 127 0" result="hardAlpha"/>
<feOffset dy="-1.53125"/>
<feGaussianBlur stdDeviation="15.3125"/>
<feColorMatrix type="matrix" values="0 0 0 0 0 0 0 0 0 0 0 0 0 0 0 0 0 0 0.0196802 0"/>
<feBlend mode="normal" in2="effect5_dropShadow_3_15" result="effect6_dropShadow_3_15"/>
<feBlend mode="normal" in="SourceGraphic" in2="effect6_dropShadow_3_15" result="shape"/>
</filter>
<clipPath id="clip0_3_15">
<rect width="196" height="196" fill="white"/>
</clipPath>
</defs>
</svg>
