<svg width="16" height="36" viewBox="0 0 16 36" fill="none" xmlns="http://www.w3.org/2000/svg">
<g clip-path="url(#clip0_3_21)">
<g filter="url(#filter0_dddddd_3_21)">
<circle cx="8" cy="8" r="6.625" fill="white"/>
</g>
<path d="M4.44566 11.7583C4.04686 11.3563 3.71706 10.909 3.46907 10.4027C3.22778 9.91007 3.06371 9.39127 2.9794 8.84687C2.92712 8.50931 2.90635 8.16981 2.9174 7.82871C2.94684 6.91969 3.17414 6.0665 3.62802 5.27971C4.08653 4.48491 4.70743 3.85386 5.49259 3.39151C6.05249 3.06181 6.65601 2.8564 7.29319 2.75017C7.66989 2.68737 8.05056 2.68557 8.42946 2.70388C9.19075 2.74066 9.90912 2.94774 10.585 3.3059C11.4948 3.78795 12.1954 4.48754 12.6939 5.39725C12.7763 5.54761 12.8435 5.70515 12.9077 5.86429C12.9331 5.92734 12.9201 5.97118 12.8658 6.00616C12.6278 6.15959 12.3734 6.2274 12.0925 6.16124C11.9142 6.11926 11.7449 6.05319 11.5802 5.97312C11.4388 5.90433 11.3236 5.80741 11.232 5.67591C10.8426 5.11668 10.3314 4.70438 9.72449 4.4136C9.355 4.23657 8.96425 4.13466 8.55753 4.08705C8.42332 4.07134 8.2876 4.06706 8.15604 4.067C7.59011 4.06675 7.04212 4.17031 6.52461 4.41644C5.82716 4.74816 5.26873 5.2403 4.85634 5.90049C4.60409 6.30433 4.44187 6.74533 4.35411 7.21488C4.35009 7.23638 4.34958 7.25189 4.36818 7.27087C4.39956 7.30292 4.38696 7.40635 4.35208 7.43287C4.34629 7.43727 4.33307 7.43159 4.3167 7.42988C4.22608 8.28136 4.34814 9.094 4.75029 9.85183C5.0872 10.4867 5.56271 10.9929 6.17106 11.3679C6.62941 11.6504 7.12723 11.8207 7.65777 11.8854C8.36268 11.9714 9.04248 11.8724 9.6843 11.5568C10.0125 11.3954 10.3096 11.1866 10.5394 10.8923C10.7262 10.653 10.7966 10.3777 10.7764 10.0759C10.7744 10.0456 10.7735 10.0457 10.7177 9.99434C10.7692 9.96835 10.76 9.928 10.7508 9.88042C10.6333 9.27744 10.2945 8.81821 9.84292 8.43195C9.57652 8.20409 9.2799 8.02436 8.96977 7.86524C8.89157 7.82511 8.82444 7.81853 8.74565 7.8849C9.28226 8.32441 9.81359 8.76939 10.2542 9.31467C10.2516 9.35722 10.2736 9.39641 10.3005 9.43581C10.3688 9.53601 10.4229 9.64437 10.4744 9.75435C10.5023 9.81398 10.4873 9.84087 10.424 9.85185C9.50914 10.0104 8.66933 9.82242 7.91943 9.2678C7.28094 8.79559 6.82939 8.17707 6.58473 7.40905C6.49352 7.12271 6.45024 6.82867 6.4512 6.52852C6.45149 6.43682 6.47001 6.34527 6.47828 6.25348C6.48325 6.19827 6.50923 6.19018 6.55799 6.20384C6.7735 6.26416 6.99107 6.31588 7.21392 6.33899C7.47227 6.36578 7.73047 6.39222 7.99125 6.3734C8.22822 6.35629 8.46398 6.38243 8.69842 6.41445C9.06756 6.46486 9.4184 6.57783 9.74965 6.75084C10.4489 7.11605 10.9107 7.68125 11.1281 8.44975C11.2456 8.86539 11.2692 9.2914 11.253 9.7206C11.2477 9.85966 11.2312 9.99828 11.2198 10.1375C11.2579 10.1449 11.2664 10.1201 11.2782 10.1013C11.5443 9.6763 11.7116 9.21354 11.7916 8.71723C11.8313 8.47077 11.83 8.22206 11.8207 7.97432C11.8138 7.79019 11.8737 7.64438 12.0072 7.52509C12.3259 7.24029 12.6989 7.07969 13.1188 7.03455C13.2423 7.02128 13.2738 7.05215 13.2885 7.17559C13.3372 7.5853 13.3468 7.99601 13.3197 8.40832C13.2834 8.96169 13.1575 9.49282 12.946 10.0026C12.5386 10.985 11.9084 11.7867 11.0425 12.3922C10.4069 12.8366 9.70789 13.1203 8.94268 13.2351C8.59675 13.2869 8.24923 13.3115 7.90106 13.2924C6.90026 13.2376 5.97696 12.9401 5.14951 12.3571C4.89879 12.1804 4.66387 11.9837 4.44566 11.7583Z" fill="#00B87A"/>
<path d="M11.2844 9.89441C11.3533 9.90626 11.2974 9.95374 11.3095 9.98376C11.2746 9.96378 11.2621 9.9364 11.2844 9.89441Z" fill="#00B87A"/>
</g>
<defs>
<filter id="filter0_dddddd_3_21" x="-1.125" y="-1.25" width="18.25" height="18.25" filterUnits="userSpaceOnUse" color-interpolation-filters="sRGB">
<feFlood flood-opacity="0" result="BackgroundImageFix"/>
<feColorMatrix in="SourceAlpha" type="matrix" values="0 0 0 0 0 0 0 0 0 0 0 0 0 0 0 0 0 0 127 0" result="hardAlpha"/>
<feOffset dy="-0.00345907"/>
<feGaussianBlur stdDeviation="0.0345907"/>
<feColorMatrix type="matrix" values="0 0 0 0 0 0 0 0 0 0 0 0 0 0 0 0 0 0 0.07 0"/>
<feBlend mode="normal" in2="BackgroundImageFix" result="effect1_dropShadow_3_21"/>
<feColorMatrix in="SourceAlpha" type="matrix" values="0 0 0 0 0 0 0 0 0 0 0 0 0 0 0 0 0 0 127 0" result="hardAlpha"/>
<feOffset dy="-0.00831263"/>
<feGaussianBlur stdDeviation="0.0831263"/>
<feColorMatrix type="matrix" values="0 0 0 0 0 0 0 0 0 0 0 0 0 0 0 0 0 0 0.0503198 0"/>
<feBlend mode="normal" in2="effect1_dropShadow_3_21" result="effect2_dropShadow_3_21"/>
<feColorMatrix in="SourceAlpha" type="matrix" values="0 0 0 0 0 0 0 0 0 0 0 0 0 0 0 0 0 0 127 0" result="hardAlpha"/>
<feOffset dy="-0.0156519"/>
<feGaussianBlur stdDeviation="0.156519"/>
<feColorMatrix type="matrix" values="0 0 0 0 0 0 0 0 0 0 0 0 0 0 0 0 0 0 0.0417275 0"/>
<feBlend mode="normal" in2="effect2_dropShadow_3_21" result="effect3_dropShadow_3_21"/>
<feColorMatrix in="SourceAlpha" type="matrix" values="0 0 0 0 0 0 0 0 0 0 0 0 0 0 0 0 0 0 127 0" result="hardAlpha"/>
<feOffset dy="-0.0279204"/>
<feGaussianBlur stdDeviation="0.279204"/>
<feColorMatrix type="matrix" values="0 0 0 0 0 0 0 0 0 0 0 0 0 0 0 0 0 0 0.035 0"/>
<feBlend mode="normal" in2="effect3_dropShadow_3_21" result="effect4_dropShadow_3_21"/>
<feColorMatrix in="SourceAlpha" type="matrix" values="0 0 0 0 0 0 0 0 0 0 0 0 0 0 0 0 0 0 127 0" result="hardAlpha"/>
<feOffset dy="-0.052222"/>
<feGaussianBlur stdDeviation="0.52222"/>
<feColorMatrix type="matrix" values="0 0 0 0 0 0 0 0 0 0 0 0 0 0 0 0 0 0 0.0282725 0"/>
<feBlend mode="normal" in2="effect4_dropShadow_3_21" result="effect5_dropShadow_3_21"/>
<feColorMatrix in="SourceAlpha" type="matrix" values="0 0 0 0 0 0 0 0 0 0 0 0 0 0 0 0 0 0 127 0" result="hardAlpha"/>
<feOffset dy="-0.125"/>
<feGaussianBlur stdDeviation="1.25"/>
<feColorMatrix type="matrix" values="0 0 0 0 0 0 0 0 0 0 0 0 0 0 0 0 0 0 0.0196802 0"/>
<feBlend mode="normal" in2="effect5_dropShadow_3_21" result="effect6_dropShadow_3_21"/>
<feBlend mode="normal" in="SourceGraphic" in2="effect6_dropShadow_3_21" result="shape"/>
</filter>
<clipPath id="clip0_3_21">
<rect width="16" height="16" fill="white"/>
</clipPath>
</defs>
</svg>
