<svg width="144" height="144" viewBox="0 0 144 144" fill="none" xmlns="http://www.w3.org/2000/svg">
<g clip-path="url(#clip0_3_3)">
<g clip-path="url(#clip1_3_3)">
<g filter="url(#filter0_dddddd_3_3)">
<circle cx="72" cy="72" r="59.625" fill="white"/>
</g>
<path d="M40.0109 105.825C36.4217 102.206 33.4535 98.181 31.2216 93.6242C29.05 89.1906 27.5734 84.5214 26.8145 79.6218C26.344 76.5837 26.1571 73.5282 26.2566 70.4583C26.5215 62.2771 28.5672 54.5985 32.6521 47.5174C36.7787 40.3641 42.3668 34.6847 49.4333 30.5235C54.4724 27.5562 59.904 25.7075 65.6387 24.7515C69.0289 24.1863 72.455 24.1701 75.8651 24.3348C82.7167 24.6659 89.182 26.5296 95.2653 29.753C103.453 34.0915 109.759 40.3878 114.245 48.5752C114.986 49.9284 115.591 51.3463 116.169 52.7785C116.398 53.346 116.281 53.7406 115.792 54.0553C113.65 55.4363 111.361 56.0465 108.832 55.4511C107.228 55.0733 105.704 54.4787 104.222 53.758C102.949 53.1389 101.912 52.2666 101.088 51.0831C97.5831 46.0501 92.9824 42.3393 87.5204 39.7223C84.195 38.129 80.6782 37.2119 77.0177 36.7834C75.8099 36.642 74.5883 36.6034 73.4044 36.6029C68.3109 36.6007 63.379 37.5327 58.7214 39.7479C52.4444 42.7333 47.4185 47.1626 43.707 53.1043C41.4367 56.7389 39.9768 60.7079 39.1869 64.9338C39.1508 65.1273 39.1462 65.2669 39.3136 65.4378C39.596 65.7262 39.4827 66.6571 39.1687 66.8957C39.1166 66.9353 38.9976 66.8842 38.8503 66.8689C38.0347 74.5322 39.1333 81.846 42.7526 88.6664C45.7847 94.3803 50.0644 98.9364 55.5395 102.311C59.6646 104.854 64.145 106.386 68.9199 106.968C75.2641 107.742 81.3823 106.851 87.1587 104.011C90.1129 102.558 92.7865 100.679 94.8544 98.0303C96.5355 95.8766 97.1693 93.3989 96.9874 90.6827C96.9692 90.4106 96.9616 90.4111 96.459 89.949C96.9224 89.715 96.8404 89.3519 96.757 88.9237C95.6999 83.4969 92.6505 79.3638 88.5862 75.8875C86.1887 73.8368 83.5191 72.2192 80.7279 70.7871C80.0241 70.4259 79.4199 70.3667 78.7109 70.964C83.5403 74.9196 88.3223 78.9244 92.2874 83.8319C92.264 84.2149 92.4624 84.5676 92.7043 84.9222C93.3195 85.824 93.8064 86.7992 94.2698 87.7891C94.5211 88.3257 94.386 88.5678 93.8163 88.6665C85.5822 90.0936 78.024 88.4017 71.2748 83.4102C65.5284 79.1602 61.4645 73.5936 59.2626 66.6813C58.4416 64.1043 58.0521 61.458 58.0607 58.7566C58.0634 57.9313 58.23 57.1074 58.3045 56.2812C58.3492 55.7843 58.583 55.7116 59.0219 55.8344C60.9614 56.3774 62.9196 56.8429 64.9252 57.0509C67.2504 57.292 69.5742 57.5299 71.9213 57.3605C74.0539 57.2065 76.1758 57.4418 78.2857 57.7299C81.608 58.1837 84.7656 59.2004 87.7468 60.7575C94.0401 64.0444 98.1966 69.1312 100.153 76.0477C101.21 79.7884 101.423 83.6225 101.277 87.4854C101.23 88.7369 101.081 89.9844 100.978 91.2374C101.321 91.3036 101.398 91.0806 101.504 90.9117C103.898 87.0867 105.405 82.9218 106.124 78.455C106.482 76.2369 106.47 73.9985 106.387 71.7688C106.325 70.1116 106.863 68.7993 108.065 67.7257C110.933 65.1625 114.29 63.7171 118.069 63.3109C119.18 63.1914 119.464 63.4693 119.596 64.5802C120.035 68.2676 120.121 71.964 119.877 75.6748C119.55 80.6551 118.417 85.4353 116.514 90.0237C112.847 98.865 107.176 106.08 99.3824 111.529C93.6622 115.529 87.371 118.082 80.4841 119.115C77.3707 119.582 74.2431 119.803 71.1095 119.632C62.1023 119.138 53.7926 116.461 46.3456 111.214C44.0891 109.624 41.9748 107.853 40.0109 105.825Z" fill="#00B87A"/>
<path d="M101.559 89.0495C102.179 89.1561 101.677 89.5835 101.786 89.8537C101.471 89.6738 101.359 89.4275 101.559 89.0495Z" fill="#00B87A"/>
</g>
</g>
<defs>
<filter id="filter0_dddddd_3_3" x="-10.125" y="-11.25" width="164.25" height="164.25" filterUnits="userSpaceOnUse" color-interpolation-filters="sRGB">
<feFlood flood-opacity="0" result="BackgroundImageFix"/>
<feColorMatrix in="SourceAlpha" type="matrix" values="0 0 0 0 0 0 0 0 0 0 0 0 0 0 0 0 0 0 127 0" result="hardAlpha"/>
<feOffset dy="-0.0311316"/>
<feGaussianBlur stdDeviation="0.311316"/>
<feColorMatrix type="matrix" values="0 0 0 0 0 0 0 0 0 0 0 0 0 0 0 0 0 0 0.07 0"/>
<feBlend mode="normal" in2="BackgroundImageFix" result="effect1_dropShadow_3_3"/>
<feColorMatrix in="SourceAlpha" type="matrix" values="0 0 0 0 0 0 0 0 0 0 0 0 0 0 0 0 0 0 127 0" result="hardAlpha"/>
<feOffset dy="-0.0748136"/>
<feGaussianBlur stdDeviation="0.748137"/>
<feColorMatrix type="matrix" values="0 0 0 0 0 0 0 0 0 0 0 0 0 0 0 0 0 0 0.0503198 0"/>
<feBlend mode="normal" in2="effect1_dropShadow_3_3" result="effect2_dropShadow_3_3"/>
<feColorMatrix in="SourceAlpha" type="matrix" values="0 0 0 0 0 0 0 0 0 0 0 0 0 0 0 0 0 0 127 0" result="hardAlpha"/>
<feOffset dy="-0.140867"/>
<feGaussianBlur stdDeviation="1.40867"/>
<feColorMatrix type="matrix" values="0 0 0 0 0 0 0 0 0 0 0 0 0 0 0 0 0 0 0.0417275 0"/>
<feBlend mode="normal" in2="effect2_dropShadow_3_3" result="effect3_dropShadow_3_3"/>
<feColorMatrix in="SourceAlpha" type="matrix" values="0 0 0 0 0 0 0 0 0 0 0 0 0 0 0 0 0 0 127 0" result="hardAlpha"/>
<feOffset dy="-0.251283"/>
<feGaussianBlur stdDeviation="2.51283"/>
<feColorMatrix type="matrix" values="0 0 0 0 0 0 0 0 0 0 0 0 0 0 0 0 0 0 0.035 0"/>
<feBlend mode="normal" in2="effect3_dropShadow_3_3" result="effect4_dropShadow_3_3"/>
<feColorMatrix in="SourceAlpha" type="matrix" values="0 0 0 0 0 0 0 0 0 0 0 0 0 0 0 0 0 0 127 0" result="hardAlpha"/>
<feOffset dy="-0.469998"/>
<feGaussianBlur stdDeviation="4.69998"/>
<feColorMatrix type="matrix" values="0 0 0 0 0 0 0 0 0 0 0 0 0 0 0 0 0 0 0.0282725 0"/>
<feBlend mode="normal" in2="effect4_dropShadow_3_3" result="effect5_dropShadow_3_3"/>
<feColorMatrix in="SourceAlpha" type="matrix" values="0 0 0 0 0 0 0 0 0 0 0 0 0 0 0 0 0 0 127 0" result="hardAlpha"/>
<feOffset dy="-1.125"/>
<feGaussianBlur stdDeviation="11.25"/>
<feColorMatrix type="matrix" values="0 0 0 0 0 0 0 0 0 0 0 0 0 0 0 0 0 0 0.0196802 0"/>
<feBlend mode="normal" in2="effect5_dropShadow_3_3" result="effect6_dropShadow_3_3"/>
<feBlend mode="normal" in="SourceGraphic" in2="effect6_dropShadow_3_3" result="shape"/>
</filter>
<clipPath id="clip0_3_3">
<rect width="144" height="144" fill="white"/>
</clipPath>
<clipPath id="clip1_3_3">
<rect width="144" height="144" fill="white"/>
</clipPath>
</defs>
</svg>
