<svg width="310" height="310" viewBox="0 0 310 310" fill="none" xmlns="http://www.w3.org/2000/svg">
<g clip-path="url(#clip0_3_1)">
<g clip-path="url(#clip1_3_1)">
<g filter="url(#filter0_dddddd_3_1)">
<circle cx="155" cy="155" r="128.359" fill="white"/>
</g>
<path d="M86.1345 227.818C78.4079 220.027 72.018 211.362 67.2131 201.552C62.5382 192.008 59.3593 181.956 57.7257 171.408C56.7128 164.868 56.3105 158.29 56.5245 151.681C57.0949 134.069 61.4988 117.538 70.2928 102.294C79.1764 86.8949 91.2064 74.6684 106.419 65.7104C117.267 59.3224 128.96 55.3425 141.306 53.2844C148.604 52.0677 155.98 52.0328 163.321 52.3875C178.071 53.1002 191.989 57.1124 205.085 64.0516C222.712 73.3915 236.286 86.946 245.944 104.572C247.54 107.485 248.842 110.537 250.086 113.62C250.579 114.842 250.326 115.692 249.275 116.369C244.664 119.342 239.735 120.656 234.292 119.374C230.838 118.561 227.557 117.28 224.366 115.729C221.626 114.396 219.394 112.518 217.62 109.971C210.075 99.1356 200.17 91.1472 188.412 85.5134C181.253 82.0834 173.682 80.1089 165.802 79.1865C163.202 78.8821 160.572 78.7991 158.023 78.798C147.058 78.7932 136.441 80.7996 126.414 85.5684C112.901 91.9953 102.082 101.531 94.0915 114.322C89.2041 122.146 86.0612 130.691 84.3608 139.788C84.2829 140.205 84.2731 140.505 84.6334 140.873C85.2415 141.494 84.9974 143.498 84.3216 144.012C84.2093 144.097 83.9532 143.987 83.636 143.954C81.8803 160.451 84.2452 176.196 92.0368 190.879C98.5643 203.18 107.777 212.988 119.564 220.253C128.445 225.727 138.09 229.025 148.369 230.279C162.027 231.945 175.198 230.027 187.633 223.913C193.993 220.786 199.749 216.741 204.2 211.037C207.819 206.401 209.184 201.067 208.792 195.22C208.753 194.634 208.737 194.635 207.655 193.64C208.652 193.137 208.476 192.355 208.296 191.433C206.021 179.75 199.456 170.853 190.706 163.369C185.545 158.954 179.798 155.472 173.789 152.389C172.274 151.611 170.973 151.484 169.447 152.77C179.844 161.285 190.138 169.907 198.674 180.472C198.624 181.296 199.051 182.055 199.572 182.819C200.896 184.76 201.944 186.859 202.942 188.99C203.483 190.146 203.192 190.667 201.966 190.879C184.239 193.952 167.968 190.309 153.439 179.564C141.068 170.414 132.319 158.431 127.579 143.55C125.812 138.002 124.973 132.305 124.992 126.49C124.998 124.713 125.356 122.939 125.517 121.161C125.613 120.091 126.116 119.935 127.061 120.199C131.236 121.368 135.452 122.37 139.77 122.818C144.775 123.337 149.778 123.849 154.83 123.484C159.422 123.153 163.99 123.659 168.532 124.28C175.684 125.257 182.481 127.445 188.899 130.797C202.448 137.873 211.395 148.824 215.606 163.714C217.883 171.767 218.341 180.021 218.027 188.337C217.925 191.031 217.604 193.716 217.383 196.414C218.122 196.556 218.287 196.076 218.515 195.713C223.67 187.478 226.913 178.512 228.462 168.896C229.231 164.121 229.207 159.302 229.027 154.502C228.893 150.935 230.053 148.11 232.639 145.798C238.813 140.28 246.04 137.169 254.177 136.294C256.569 136.037 257.18 136.635 257.465 139.027C258.408 146.965 258.594 154.923 258.069 162.911C257.365 173.633 254.926 183.923 250.829 193.801C242.935 212.834 230.725 228.366 213.948 240.098C201.634 248.709 188.09 254.205 173.264 256.429C166.562 257.434 159.829 257.91 153.083 257.54C133.692 256.478 115.803 250.715 99.7717 239.419C94.914 235.996 90.3624 232.183 86.1345 227.818Z" fill="#00B87A"/>
<path d="M218.635 191.704C219.97 191.933 218.887 192.853 219.122 193.435C218.445 193.048 218.203 192.517 218.635 191.704Z" fill="#00B87A"/>
</g>
</g>
<defs>
<filter id="filter0_dddddd_3_1" x="-21.7969" y="-24.2188" width="353.594" height="353.594" filterUnits="userSpaceOnUse" color-interpolation-filters="sRGB">
<feFlood flood-opacity="0" result="BackgroundImageFix"/>
<feColorMatrix in="SourceAlpha" type="matrix" values="0 0 0 0 0 0 0 0 0 0 0 0 0 0 0 0 0 0 127 0" result="hardAlpha"/>
<feOffset dy="-0.0670195"/>
<feGaussianBlur stdDeviation="0.670195"/>
<feColorMatrix type="matrix" values="0 0 0 0 0 0 0 0 0 0 0 0 0 0 0 0 0 0 0.07 0"/>
<feBlend mode="normal" in2="BackgroundImageFix" result="effect1_dropShadow_3_1"/>
<feColorMatrix in="SourceAlpha" type="matrix" values="0 0 0 0 0 0 0 0 0 0 0 0 0 0 0 0 0 0 127 0" result="hardAlpha"/>
<feOffset dy="-0.161057"/>
<feGaussianBlur stdDeviation="1.61057"/>
<feColorMatrix type="matrix" values="0 0 0 0 0 0 0 0 0 0 0 0 0 0 0 0 0 0 0.0503198 0"/>
<feBlend mode="normal" in2="effect1_dropShadow_3_1" result="effect2_dropShadow_3_1"/>
<feColorMatrix in="SourceAlpha" type="matrix" values="0 0 0 0 0 0 0 0 0 0 0 0 0 0 0 0 0 0 127 0" result="hardAlpha"/>
<feOffset dy="-0.303256"/>
<feGaussianBlur stdDeviation="3.03256"/>
<feColorMatrix type="matrix" values="0 0 0 0 0 0 0 0 0 0 0 0 0 0 0 0 0 0 0.0417275 0"/>
<feBlend mode="normal" in2="effect2_dropShadow_3_1" result="effect3_dropShadow_3_1"/>
<feColorMatrix in="SourceAlpha" type="matrix" values="0 0 0 0 0 0 0 0 0 0 0 0 0 0 0 0 0 0 127 0" result="hardAlpha"/>
<feOffset dy="-0.540957"/>
<feGaussianBlur stdDeviation="5.40957"/>
<feColorMatrix type="matrix" values="0 0 0 0 0 0 0 0 0 0 0 0 0 0 0 0 0 0 0.035 0"/>
<feBlend mode="normal" in2="effect3_dropShadow_3_1" result="effect4_dropShadow_3_1"/>
<feColorMatrix in="SourceAlpha" type="matrix" values="0 0 0 0 0 0 0 0 0 0 0 0 0 0 0 0 0 0 127 0" result="hardAlpha"/>
<feOffset dy="-1.0118"/>
<feGaussianBlur stdDeviation="10.118"/>
<feColorMatrix type="matrix" values="0 0 0 0 0 0 0 0 0 0 0 0 0 0 0 0 0 0 0.0282725 0"/>
<feBlend mode="normal" in2="effect4_dropShadow_3_1" result="effect5_dropShadow_3_1"/>
<feColorMatrix in="SourceAlpha" type="matrix" values="0 0 0 0 0 0 0 0 0 0 0 0 0 0 0 0 0 0 127 0" result="hardAlpha"/>
<feOffset dy="-2.42188"/>
<feGaussianBlur stdDeviation="24.2188"/>
<feColorMatrix type="matrix" values="0 0 0 0 0 0 0 0 0 0 0 0 0 0 0 0 0 0 0.0196802 0"/>
<feBlend mode="normal" in2="effect5_dropShadow_3_1" result="effect6_dropShadow_3_1"/>
<feBlend mode="normal" in="SourceGraphic" in2="effect6_dropShadow_3_1" result="shape"/>
</filter>
<clipPath id="clip0_3_1">
<rect width="310" height="310" fill="white"/>
</clipPath>
<clipPath id="clip1_3_1">
<rect width="310" height="310" fill="white"/>
</clipPath>
</defs>
</svg>
