<svg width="150" height="150" viewBox="0 0 150 150" fill="none" xmlns="http://www.w3.org/2000/svg">
<g clip-path="url(#clip0_3_2)">
<g clip-path="url(#clip1_3_2)">
<g filter="url(#filter0_dddddd_3_2)">
<circle cx="75" cy="75" r="62.1094" fill="white"/>
</g>
<path d="M41.678 110.234C37.9393 106.465 34.8474 102.272 32.5225 97.5252C30.2604 92.9069 28.7222 88.0431 27.9318 82.9394C27.4417 79.7747 27.247 76.5919 27.3506 73.3941C27.6266 64.872 29.7575 56.8734 34.0126 49.4972C38.3111 42.0459 44.1321 36.1298 51.493 31.7953C56.742 28.7044 62.4 26.7786 68.3736 25.7828C71.9051 25.194 75.474 25.1772 79.0261 25.3488C86.1632 25.6936 92.8979 27.635 99.2347 30.9927C107.764 35.512 114.332 42.0706 119.005 50.5992C119.778 52.0088 120.407 53.4857 121.009 54.9776C121.248 55.5688 121.126 55.9798 120.617 56.3077C118.386 57.7461 116.001 58.3818 113.367 57.7615C111.696 57.368 110.108 56.7486 108.564 55.9979C107.238 55.353 106.158 54.4444 105.3 53.2115C101.649 47.9688 96.8566 44.1035 91.167 41.3774C87.7031 39.7178 84.0398 38.7624 80.2268 38.316C78.9686 38.1687 77.6962 38.1286 76.4629 38.128C71.1572 38.1257 66.0198 39.0966 61.1681 41.4041C54.6296 44.5139 49.3943 49.1277 45.5281 55.317C43.1632 59.103 41.6425 63.2374 40.8197 67.6394C40.782 67.841 40.7773 67.9863 40.9516 68.1643C41.2459 68.4648 41.1277 69.4344 40.8007 69.683C40.7464 69.7243 40.6225 69.6711 40.469 69.6551C39.6195 77.6377 40.7638 85.2562 44.5339 92.3609C47.6924 98.3128 52.1504 103.059 57.8537 106.574C62.1506 109.223 66.8177 110.819 71.7916 111.425C78.4001 112.231 84.7732 111.303 90.7903 108.345C93.8676 106.832 96.6526 104.874 98.8066 102.115C100.558 99.8715 101.218 97.2905 101.029 94.4612C101.01 94.1777 101.002 94.1782 100.478 93.6969C100.961 93.4532 100.875 93.0749 100.789 92.6289C99.6874 86.976 96.5109 82.6706 92.2773 79.0495C89.7798 76.9133 86.999 75.2283 84.0916 73.7365C83.3584 73.3603 82.7291 73.2986 81.9905 73.9209C87.0212 78.0413 92.0024 82.213 96.1327 87.3249C96.1083 87.7239 96.315 88.0913 96.567 88.4606C97.2078 89.4 97.715 90.4159 98.1977 91.447C98.4594 92.006 98.3187 92.2581 97.7253 92.361C89.1481 93.8475 81.275 92.0851 74.2446 86.8856C68.2587 82.4585 64.0255 76.66 61.7318 69.4597C60.8767 66.7753 60.4709 64.0187 60.4799 61.2048C60.4827 60.3451 60.6563 59.4868 60.7338 58.6263C60.7804 58.1087 61.024 58.0329 61.4811 58.1609C63.5015 58.7264 65.5412 59.2113 67.6304 59.428C70.0525 59.6791 72.4731 59.927 74.918 59.7505C77.1395 59.5902 79.3498 59.8352 81.5476 60.1353C85.0083 60.608 88.2974 61.6671 91.4029 63.289C97.9585 66.7129 102.288 72.0116 104.326 79.2164C105.427 83.1129 105.649 87.1068 105.497 91.1306C105.447 92.4342 105.292 93.7338 105.185 95.039C105.543 95.108 105.623 94.8756 105.733 94.6997C108.227 90.7153 109.796 86.3769 110.546 81.724C110.918 79.4134 110.906 77.0817 110.819 74.7591C110.755 73.0329 111.316 71.6659 112.567 70.5476C115.555 67.8776 119.052 66.372 122.989 65.9488C124.146 65.8244 124.442 66.1138 124.58 67.271C125.036 71.1121 125.126 74.9625 124.872 78.8279C124.531 84.0158 123.351 88.9951 121.369 93.7746C117.549 102.984 111.641 110.5 103.523 116.176C97.5648 120.343 91.0114 123.002 83.8376 124.079C80.5945 124.565 77.3365 124.795 74.0724 124.616C64.6899 124.102 56.0339 121.314 48.2766 115.848C45.9261 114.192 43.7237 112.347 41.678 110.234Z" fill="#00B87A"/>
<path d="M105.791 92.7599C106.437 92.871 105.913 93.3162 106.027 93.5976C105.699 93.4102 105.582 93.1536 105.791 92.7599Z" fill="#00B87A"/>
</g>
</g>
<defs>
<filter id="filter0_dddddd_3_2" x="-10.5469" y="-11.7188" width="171.094" height="171.094" filterUnits="userSpaceOnUse" color-interpolation-filters="sRGB">
<feFlood flood-opacity="0" result="BackgroundImageFix"/>
<feColorMatrix in="SourceAlpha" type="matrix" values="0 0 0 0 0 0 0 0 0 0 0 0 0 0 0 0 0 0 127 0" result="hardAlpha"/>
<feOffset dy="-0.0324288"/>
<feGaussianBlur stdDeviation="0.324288"/>
<feColorMatrix type="matrix" values="0 0 0 0 0 0 0 0 0 0 0 0 0 0 0 0 0 0 0.07 0"/>
<feBlend mode="normal" in2="BackgroundImageFix" result="effect1_dropShadow_3_2"/>
<feColorMatrix in="SourceAlpha" type="matrix" values="0 0 0 0 0 0 0 0 0 0 0 0 0 0 0 0 0 0 127 0" result="hardAlpha"/>
<feOffset dy="-0.0779309"/>
<feGaussianBlur stdDeviation="0.779309"/>
<feColorMatrix type="matrix" values="0 0 0 0 0 0 0 0 0 0 0 0 0 0 0 0 0 0 0.0503198 0"/>
<feBlend mode="normal" in2="effect1_dropShadow_3_2" result="effect2_dropShadow_3_2"/>
<feColorMatrix in="SourceAlpha" type="matrix" values="0 0 0 0 0 0 0 0 0 0 0 0 0 0 0 0 0 0 127 0" result="hardAlpha"/>
<feOffset dy="-0.146737"/>
<feGaussianBlur stdDeviation="1.46737"/>
<feColorMatrix type="matrix" values="0 0 0 0 0 0 0 0 0 0 0 0 0 0 0 0 0 0 0.0417275 0"/>
<feBlend mode="normal" in2="effect2_dropShadow_3_2" result="effect3_dropShadow_3_2"/>
<feColorMatrix in="SourceAlpha" type="matrix" values="0 0 0 0 0 0 0 0 0 0 0 0 0 0 0 0 0 0 127 0" result="hardAlpha"/>
<feOffset dy="-0.261754"/>
<feGaussianBlur stdDeviation="2.61754"/>
<feColorMatrix type="matrix" values="0 0 0 0 0 0 0 0 0 0 0 0 0 0 0 0 0 0 0.035 0"/>
<feBlend mode="normal" in2="effect3_dropShadow_3_2" result="effect4_dropShadow_3_2"/>
<feColorMatrix in="SourceAlpha" type="matrix" values="0 0 0 0 0 0 0 0 0 0 0 0 0 0 0 0 0 0 127 0" result="hardAlpha"/>
<feOffset dy="-0.489581"/>
<feGaussianBlur stdDeviation="4.89581"/>
<feColorMatrix type="matrix" values="0 0 0 0 0 0 0 0 0 0 0 0 0 0 0 0 0 0 0.0282725 0"/>
<feBlend mode="normal" in2="effect4_dropShadow_3_2" result="effect5_dropShadow_3_2"/>
<feColorMatrix in="SourceAlpha" type="matrix" values="0 0 0 0 0 0 0 0 0 0 0 0 0 0 0 0 0 0 127 0" result="hardAlpha"/>
<feOffset dy="-1.17188"/>
<feGaussianBlur stdDeviation="11.7188"/>
<feColorMatrix type="matrix" values="0 0 0 0 0 0 0 0 0 0 0 0 0 0 0 0 0 0 0.0196802 0"/>
<feBlend mode="normal" in2="effect5_dropShadow_3_2" result="effect6_dropShadow_3_2"/>
<feBlend mode="normal" in="SourceGraphic" in2="effect6_dropShadow_3_2" result="shape"/>
</filter>
<clipPath id="clip0_3_2">
<rect width="150" height="150" fill="white"/>
</clipPath>
<clipPath id="clip1_3_2">
<rect width="150" height="150" fill="white"/>
</clipPath>
</defs>
</svg>
