<svg width="310" height="150" viewBox="0 0 310 150" fill="none" xmlns="http://www.w3.org/2000/svg">
<g clip-path="url(#clip0_3_0)">
<g filter="url(#filter0_dddddd_3_0)">
<circle cx="155" cy="75" r="38.9219" fill="white"/>
</g>
<path d="M134.118 97.0802C131.775 94.718 129.838 92.0904 128.381 89.1158C126.963 86.2216 125.999 83.1737 125.504 79.9753C125.197 77.9921 125.075 75.9976 125.14 73.9936C125.313 68.6531 126.648 63.6407 129.315 59.0183C132.008 54.3488 135.656 50.6414 140.269 47.9251C143.558 45.9881 147.104 44.7813 150.847 44.1572C153.061 43.7883 155.297 43.7777 157.523 43.8852C161.996 44.1014 166.216 45.3179 170.187 47.4221C175.532 50.2542 179.648 54.3643 182.577 59.7088C183.061 60.5922 183.455 61.5177 183.833 62.4526C183.982 62.8231 183.905 63.0807 183.587 63.2861C182.189 64.1876 180.694 64.5859 179.043 64.1972C177.996 63.9506 177.001 63.5625 176.034 63.092C175.203 62.6879 174.526 62.1185 173.988 61.3459C171.7 58.0605 168.697 55.6382 165.131 53.9299C162.961 52.8898 160.665 52.2911 158.275 52.0114C157.487 51.9191 156.69 51.8939 155.917 51.8936C152.592 51.8921 149.372 52.5005 146.332 53.9466C142.235 55.8954 138.954 58.7867 136.531 62.6653C135.049 65.0379 134.096 67.6287 133.58 70.3873C133.557 70.5137 133.554 70.6048 133.663 70.7163C133.847 70.9046 133.773 71.5122 133.568 71.668C133.534 71.6939 133.457 71.6605 133.361 71.6505C132.828 76.6529 133.545 81.4272 135.908 85.8795C137.887 89.6094 140.681 92.5835 144.255 94.7865C146.948 96.4462 149.872 97.4464 152.989 97.8266C157.131 98.3317 161.125 97.7502 164.895 95.8961C166.824 94.9479 168.569 93.7213 169.919 91.992C171.016 90.5861 171.43 88.9687 171.311 87.1957C171.299 87.018 171.294 87.0184 170.966 86.7167C171.269 86.564 171.215 86.327 171.161 86.0474C170.471 82.5049 168.48 79.8069 165.827 77.5377C164.262 76.199 162.519 75.1431 160.697 74.2082C160.238 73.9725 159.844 73.9338 159.381 74.3237C162.533 76.9059 165.655 79.5201 168.243 82.7236C168.228 82.9736 168.357 83.2039 168.515 83.4353C168.917 84.024 169.235 84.6606 169.537 85.3068C169.701 85.6571 169.613 85.8151 169.241 85.8795C163.866 86.8111 158.932 85.7067 154.527 82.4483C150.775 79.674 148.123 76.0402 146.685 71.5281C146.149 69.8459 145.895 68.1184 145.901 66.355C145.902 65.8163 146.011 65.2784 146.06 64.7391C146.089 64.4148 146.242 64.3673 146.528 64.4475C147.794 64.8019 149.073 65.1058 150.382 65.2415C151.9 65.3989 153.416 65.5543 154.949 65.4437C156.341 65.3432 157.726 65.4967 159.103 65.6848C161.272 65.981 163.333 66.6447 165.279 67.6611C169.387 69.8068 172.101 73.1273 173.377 77.6423C174.068 80.0841 174.207 82.5869 174.111 85.1085C174.08 85.9255 173.983 86.7398 173.916 87.5578C174.14 87.601 174.19 87.4554 174.259 87.3452C175.823 84.8482 176.806 82.1295 177.276 79.2137C177.509 77.7657 177.501 76.3046 177.447 74.8491C177.406 73.7673 177.758 72.9107 178.542 72.2098C180.414 70.5366 182.606 69.5931 185.073 69.3279C185.798 69.25 185.984 69.4313 186.07 70.1565C186.356 72.5636 186.412 74.9765 186.253 77.3988C186.04 80.6499 185.3 83.7703 184.058 86.7654C181.664 92.5369 177.962 97.2466 172.875 100.804C169.141 103.415 165.034 105.081 160.538 105.756C158.506 106.061 156.464 106.205 154.419 106.093C148.539 105.771 143.115 104.023 138.253 100.598C136.78 99.56 135.4 98.4039 134.118 97.0802Z" fill="#00B87A"/>
<path d="M174.296 86.1296C174.7 86.1992 174.372 86.4781 174.443 86.6545C174.238 86.5371 174.165 86.3763 174.296 86.1296Z" fill="#00B87A"/>
</g>
<defs>
<filter id="filter0_dddddd_3_0" x="101.391" y="20.6562" width="107.219" height="107.219" filterUnits="userSpaceOnUse" color-interpolation-filters="sRGB">
<feFlood flood-opacity="0" result="BackgroundImageFix"/>
<feColorMatrix in="SourceAlpha" type="matrix" values="0 0 0 0 0 0 0 0 0 0 0 0 0 0 0 0 0 0 127 0" result="hardAlpha"/>
<feOffset dy="-0.020322"/>
<feGaussianBlur stdDeviation="0.20322"/>
<feColorMatrix type="matrix" values="0 0 0 0 0 0 0 0 0 0 0 0 0 0 0 0 0 0 0.07 0"/>
<feBlend mode="normal" in2="BackgroundImageFix" result="effect1_dropShadow_3_0"/>
<feColorMatrix in="SourceAlpha" type="matrix" values="0 0 0 0 0 0 0 0 0 0 0 0 0 0 0 0 0 0 127 0" result="hardAlpha"/>
<feOffset dy="-0.0488367"/>
<feGaussianBlur stdDeviation="0.488367"/>
<feColorMatrix type="matrix" values="0 0 0 0 0 0 0 0 0 0 0 0 0 0 0 0 0 0 0.0503198 0"/>
<feBlend mode="normal" in2="effect1_dropShadow_3_0" result="effect2_dropShadow_3_0"/>
<feColorMatrix in="SourceAlpha" type="matrix" values="0 0 0 0 0 0 0 0 0 0 0 0 0 0 0 0 0 0 127 0" result="hardAlpha"/>
<feOffset dy="-0.0919551"/>
<feGaussianBlur stdDeviation="0.919551"/>
<feColorMatrix type="matrix" values="0 0 0 0 0 0 0 0 0 0 0 0 0 0 0 0 0 0 0.0417275 0"/>
<feBlend mode="normal" in2="effect2_dropShadow_3_0" result="effect3_dropShadow_3_0"/>
<feColorMatrix in="SourceAlpha" type="matrix" values="0 0 0 0 0 0 0 0 0 0 0 0 0 0 0 0 0 0 127 0" result="hardAlpha"/>
<feOffset dy="-0.164032"/>
<feGaussianBlur stdDeviation="1.64032"/>
<feColorMatrix type="matrix" values="0 0 0 0 0 0 0 0 0 0 0 0 0 0 0 0 0 0 0.035 0"/>
<feBlend mode="normal" in2="effect3_dropShadow_3_0" result="effect4_dropShadow_3_0"/>
<feColorMatrix in="SourceAlpha" type="matrix" values="0 0 0 0 0 0 0 0 0 0 0 0 0 0 0 0 0 0 127 0" result="hardAlpha"/>
<feOffset dy="-0.306804"/>
<feGaussianBlur stdDeviation="3.06804"/>
<feColorMatrix type="matrix" values="0 0 0 0 0 0 0 0 0 0 0 0 0 0 0 0 0 0 0.0282725 0"/>
<feBlend mode="normal" in2="effect4_dropShadow_3_0" result="effect5_dropShadow_3_0"/>
<feColorMatrix in="SourceAlpha" type="matrix" values="0 0 0 0 0 0 0 0 0 0 0 0 0 0 0 0 0 0 127 0" result="hardAlpha"/>
<feOffset dy="-0.734375"/>
<feGaussianBlur stdDeviation="7.34375"/>
<feColorMatrix type="matrix" values="0 0 0 0 0 0 0 0 0 0 0 0 0 0 0 0 0 0 0.0196802 0"/>
<feBlend mode="normal" in2="effect5_dropShadow_3_0" result="effect6_dropShadow_3_0"/>
<feBlend mode="normal" in="SourceGraphic" in2="effect6_dropShadow_3_0" result="shape"/>
</filter>
<clipPath id="clip0_3_0">
<rect width="94" height="94" fill="white" transform="translate(108 28)"/>
</clipPath>
</defs>
</svg>
