<svg width="70" height="70" viewBox="0 0 70 70" fill="none" xmlns="http://www.w3.org/2000/svg">
<g clip-path="url(#clip0_3_4)">
<g clip-path="url(#clip1_3_4)">
<g filter="url(#filter0_dddddd_3_4)">
<circle cx="35" cy="35" r="28.9844" fill="white"/>
</g>
<path d="M19.4498 51.4427C17.705 49.6836 16.2622 47.7269 15.1772 45.5117C14.1216 43.3565 13.4037 41.0868 13.0349 38.705C12.8061 37.2282 12.7153 35.7429 12.7636 34.2506C12.8924 30.2736 13.8869 26.5409 15.8726 23.0987C17.8786 19.6214 20.595 16.8606 24.0301 14.8378C26.4797 13.3954 29.12 12.4967 31.9077 12.032C33.5558 11.7572 35.2212 11.7493 36.8789 11.8294C40.2095 11.9904 43.3524 12.8963 46.3096 14.4633C50.2897 16.5723 53.3549 19.633 55.5357 23.6129C55.8962 24.2708 56.1902 24.96 56.4711 25.6562C56.5824 25.9321 56.5253 26.1239 56.288 26.2769C55.2468 26.9482 54.1338 27.2448 52.9046 26.9554C52.1247 26.7717 51.3838 26.4827 50.6634 26.1324C50.0446 25.8314 49.5407 25.4074 49.14 24.8321C47.4363 22.3855 45.1998 20.5816 42.5446 19.3095C40.9281 18.535 39.2186 18.0891 37.4392 17.8808C36.852 17.8121 36.2582 17.7933 35.6827 17.7931C33.2067 17.792 30.8093 18.2451 28.5452 19.3219C25.4938 20.7731 23.0507 22.9263 21.2465 25.8146C20.1429 27.5814 19.4332 29.5108 19.0492 31.565C19.0316 31.6591 19.0294 31.727 19.1108 31.81C19.2481 31.9502 19.193 32.4027 19.0404 32.5187C19.015 32.538 18.9572 32.5132 18.8856 32.5057C18.4891 36.2309 19.0231 39.7862 20.7825 43.1017C22.2565 45.8793 24.3369 48.0941 26.9984 49.7346C29.0037 50.9706 31.1816 51.7154 33.5028 51.9985C36.5867 52.3747 39.5609 51.9416 42.3688 50.5609C43.8049 49.8548 45.1046 48.9414 46.1098 47.6536C46.927 46.6067 47.2351 45.4023 47.1467 44.0819C47.1378 43.9496 47.1342 43.9498 46.8898 43.7252C47.1151 43.6115 47.0752 43.435 47.0347 43.2268C46.5208 40.5888 45.0384 38.5796 43.0628 36.8898C41.8973 35.8929 40.5996 35.1065 39.2428 34.4104C38.9006 34.2348 38.6069 34.206 38.2623 34.4964C40.6099 36.4193 42.9345 38.366 44.8619 40.7516C44.8506 40.9378 44.947 41.1093 45.0646 41.2816C45.3637 41.72 45.6004 42.1941 45.8256 42.6753C45.9478 42.9361 45.8821 43.0538 45.6052 43.1018C41.6025 43.7955 37.9283 42.9731 34.6475 40.5466C31.8541 38.4806 29.8786 35.7746 28.8082 32.4145C28.4092 31.1618 28.2198 29.8754 28.224 28.5622C28.2253 28.1611 28.3063 27.7605 28.3425 27.3589C28.3642 27.1174 28.4779 27.082 28.6912 27.1417C29.6341 27.4057 30.5859 27.632 31.5609 27.7331C32.6912 27.8503 33.8208 27.9659 34.9618 27.8836C35.9985 27.8087 37.0299 27.9231 38.0556 28.0632C39.6706 28.2837 41.2055 28.778 42.6547 29.5349C45.714 31.1327 47.7345 33.6054 48.6853 36.9676C49.1995 38.786 49.3029 40.6498 49.2318 42.5276C49.2088 43.136 49.1365 43.7424 49.0866 44.3515C49.2534 44.3837 49.2906 44.2753 49.342 44.1932C50.5062 42.3338 51.2384 40.3092 51.5882 38.1379C51.7619 37.0596 51.7564 35.9715 51.7158 34.8876C51.6856 34.082 51.9474 33.4441 52.5314 32.9222C53.9256 31.6762 55.5575 30.9736 57.3949 30.7761C57.9349 30.7181 58.073 30.8531 58.1372 31.3932C58.3503 33.1857 58.3922 34.9825 58.2737 36.7864C58.1147 39.2074 57.5639 41.5311 56.6388 43.7615C54.8562 48.0594 52.0993 51.5666 48.3109 54.2157C45.5303 56.16 42.472 57.4011 39.1242 57.9033C37.6108 58.1304 36.0904 58.2378 34.5671 58.1543C30.1887 57.9143 26.1492 56.613 22.5291 54.0623C21.4322 53.2894 20.4044 52.4284 19.4498 51.4427Z" fill="#00B87A"/>
<path d="M49.3692 43.288C49.6706 43.3398 49.4261 43.5476 49.4791 43.6789C49.3263 43.5914 49.2717 43.4717 49.3692 43.288Z" fill="#00B87A"/>
</g>
</g>
<defs>
<filter id="filter0_dddddd_3_4" x="-4.92188" y="-5.46875" width="79.8438" height="79.8438" filterUnits="userSpaceOnUse" color-interpolation-filters="sRGB">
<feFlood flood-opacity="0" result="BackgroundImageFix"/>
<feColorMatrix in="SourceAlpha" type="matrix" values="0 0 0 0 0 0 0 0 0 0 0 0 0 0 0 0 0 0 127 0" result="hardAlpha"/>
<feOffset dy="-0.0151334"/>
<feGaussianBlur stdDeviation="0.151334"/>
<feColorMatrix type="matrix" values="0 0 0 0 0 0 0 0 0 0 0 0 0 0 0 0 0 0 0.07 0"/>
<feBlend mode="normal" in2="BackgroundImageFix" result="effect1_dropShadow_3_4"/>
<feColorMatrix in="SourceAlpha" type="matrix" values="0 0 0 0 0 0 0 0 0 0 0 0 0 0 0 0 0 0 127 0" result="hardAlpha"/>
<feOffset dy="-0.0363677"/>
<feGaussianBlur stdDeviation="0.363677"/>
<feColorMatrix type="matrix" values="0 0 0 0 0 0 0 0 0 0 0 0 0 0 0 0 0 0 0.0503198 0"/>
<feBlend mode="normal" in2="effect1_dropShadow_3_4" result="effect2_dropShadow_3_4"/>
<feColorMatrix in="SourceAlpha" type="matrix" values="0 0 0 0 0 0 0 0 0 0 0 0 0 0 0 0 0 0 127 0" result="hardAlpha"/>
<feOffset dy="-0.0684772"/>
<feGaussianBlur stdDeviation="0.684772"/>
<feColorMatrix type="matrix" values="0 0 0 0 0 0 0 0 0 0 0 0 0 0 0 0 0 0 0.0417275 0"/>
<feBlend mode="normal" in2="effect2_dropShadow_3_4" result="effect3_dropShadow_3_4"/>
<feColorMatrix in="SourceAlpha" type="matrix" values="0 0 0 0 0 0 0 0 0 0 0 0 0 0 0 0 0 0 127 0" result="hardAlpha"/>
<feOffset dy="-0.122152"/>
<feGaussianBlur stdDeviation="1.22152"/>
<feColorMatrix type="matrix" values="0 0 0 0 0 0 0 0 0 0 0 0 0 0 0 0 0 0 0.035 0"/>
<feBlend mode="normal" in2="effect3_dropShadow_3_4" result="effect4_dropShadow_3_4"/>
<feColorMatrix in="SourceAlpha" type="matrix" values="0 0 0 0 0 0 0 0 0 0 0 0 0 0 0 0 0 0 127 0" result="hardAlpha"/>
<feOffset dy="-0.228471"/>
<feGaussianBlur stdDeviation="2.28471"/>
<feColorMatrix type="matrix" values="0 0 0 0 0 0 0 0 0 0 0 0 0 0 0 0 0 0 0.0282725 0"/>
<feBlend mode="normal" in2="effect4_dropShadow_3_4" result="effect5_dropShadow_3_4"/>
<feColorMatrix in="SourceAlpha" type="matrix" values="0 0 0 0 0 0 0 0 0 0 0 0 0 0 0 0 0 0 127 0" result="hardAlpha"/>
<feOffset dy="-0.546875"/>
<feGaussianBlur stdDeviation="5.46875"/>
<feColorMatrix type="matrix" values="0 0 0 0 0 0 0 0 0 0 0 0 0 0 0 0 0 0 0.0196802 0"/>
<feBlend mode="normal" in2="effect5_dropShadow_3_4" result="effect6_dropShadow_3_4"/>
<feBlend mode="normal" in="SourceGraphic" in2="effect6_dropShadow_3_4" result="shape"/>
</filter>
<clipPath id="clip0_3_4">
<rect width="70" height="70" fill="white"/>
</clipPath>
<clipPath id="clip1_3_4">
<rect width="70" height="70" fill="white"/>
</clipPath>
</defs>
</svg>
