<svg xmlns="http://www.w3.org/2000/svg" width="100%" viewBox="0 0 736 784" height="150" xmlns:v="https://vecta.io/nano"><style><![CDATA[.B{fill:#098243}.C{fill:#097f3f}.D{fill:#138a45}.E{fill:#02793e}.F{fill:#060404}.G{fill:#0e0a09}.H{fill:#2f874a}.I{fill:#83c15e}.J{fill:#058c51}.K{fill:#018344}.L{fill:#120d0f}.M{fill:#181413}.N{fill:#050304}.O{fill:#038948}.P{fill:#039050}.Q{fill:#038c4b}.R{fill:#070405}.S{fill:#050203}.T{fill:#098446}.U{fill:#028746}]]></style><path fill="#fff" d="M737 258l-.469 111.533c-6.626.486-12.783.511-18.94.524-5.559.011-6.38.876-6.494 6.697l-.503 24.406.755 60.849c.109 5.349 1.073 10.68 1.651 16.462l.115 7.981c-.707 6.804-1.201 13.166-2.085 19.473-.18 1.287-1.829 2.368-2.88 3.64l-10.107-36.995-9.178-37.251c-3.073-11.524-6.585-22.93-9.94-34.639a2.1 2.1 0 0 0-.894-.737c-.019.04.057-.006.02-.415l-4.034-15.903c-3.839-14.886-.06-12.625-17.409-12.53-2.164-.025-3.9.025-6.058.003-2.133-.036-3.844.002-5.969-.035-1.452 1.001-3.248 1.99-3.384 3.17-.369 3.2-.033 6.482-.056 10.158l-.01 6.086-.102 71.737.065 72.012c-.127.421-.172.591-.527 1.041-.402 11.054-.533 21.828-.546 32.601-.002 1.717.529 3.436.894 5.56.856 1.129 1.613 2.452 2.413 2.478 5.648.189 11.329.388 16.944-.08 1.365-.114 3.399-2.587 3.616-4.18.688-5.052.88-10.201.876-15.312l-.324-82.323c-.026-3.353-.932-6.699-1.436-10.382-.061-.774-.116-1.213-.098-2.017.021-1.103-.031-1.841-.01-3.044.035-4.603.105-8.747-.081-12.879-.108-2.391.652-3.431 3.114-2.783.027.146.31.237.32.431.167.44.391.546.678.604-.003.093.18.123.185.403.293.708.581 1.136.99 1.934l8.827 27.122c.195 1.384.226 2.38.479 3.317l9.656 35.439 17.425 59.431c.554 1.82 3.224 4.143 5.018 4.239 7.458.396 14.956.028 22.856.009 1.823.101 3.23.133 4.637.165l-.469 40.531-83.46.429c-3.629-.008-6.11.667-6.106 5.064l.006 145.985c-.003 3.601 1.639 5.024 5.141 5.014l75.492-.11L737 773v11.997l-736 .001.329-412.64c1.868-1.763 3.555-2.801 4.924-4.16l33.188-33.181c2.407-2.436 4.417-5.263 6.957-7.961 2.807-2.374 5.265-4.697 8.048-7.151 3.044-1.38 5.763-2.63 8.518-3.438.087 2.807.138 5.171.116 7.999l-.087 58.646-.04 177.452c-.003 3.26-.509 6.523-.834 9.779-.364 3.656.93 5.722 4.92 5.638 4.33-.09 8.671-.173 12.994.034 4.54.217 6.025-1.737 6.048-6.198l.767-58.829.782-49.376-.679-141.388-.015-62.425c-3.312 2.42-6.091 3.97-8.274 6.124l-40.678 40.612-32.348 32.473c-.538.239-.688.508-1.033.933L1 339V1.057h736l-.41 220.445a21.2 21.2 0 0 1-6.988-.089c-4.614-2.738-9.091-5.142-13.637-7.787-.35-.412-.63-.583-1.063-1.067l-23.998-15.179-99.466-62.474-46.773-29.643-106.299-66.885c-17.579-10.937-35.561-21.223-53.315-31.881-2.789-1.674-4.944-1.282-7.554.543l-43.4 29.941-58.831 40.474c-3.76 2.604-5.722 6.106-4.977 11.075.912 6.081 1.261 12.247 1.812 18.38.416 4.635 1.896 5.328 5.95 2.572l18.634-12.846 82.077-56.85c1.53-1.051 4.12-.56 6.364-.479l91.628 58.189 88.679 55.804 97.137 60.668 27.426 16.981c.011.079.169.062.302.35 3.636 2.125 7.139 3.963 10.665 5.759.022-.041-.06.003.064.308 1.054.78 1.984 1.255 2.938 1.689.024-.04-.058.006.078.322 2.068 1.419 4.001 2.522 5.942 3.626.009.001.014.018.085.257s.444.571.444.571.494-.072.714.024.693.166.825.461c1.058.773 1.984 1.25 2.928 1.706.019-.022-.031.008.046.254.366.399.656.553.952.724.005.017.041.02.192.328 2.358 1.457 4.566 2.606 6.795 3.72.022-.035-.056-.006.021.248.374.422.672.589.99.73.021-.026-.022.029.099.314.711.443 1.299.601 1.907.727.019-.033-.056-.018.018.236a2.62 2.62 0 0 0 .981.711c.009-.021-.025.012.058.26.367.437.651.626 1.08 1.16 3.056 1.085 5.968 1.824 8.879 2.564M293.516 554.871c.176-.281.352-.561.485-.871 0 0 .027.045.538-.102.19-.29.38-.58 1.042-.938 0 0 .418-.231.879-.195.297-.161.459-.41.553-.743 0 0 .009-.065.492-.171a1.04 1.04 0 0 0 .504-.839s.015-.012.505-.145c.176-.279.352-.558.487-.866 0 0 .027.043.54-.089.182-.292.364-.584.474-.896 0 0 .019.072.535-.083.182-.298.365-.596.473-.908 0 0 .014.075.528-.09.183-.299.365-.597.469-.915 0 0 .038.072.666-.188 9.856-10.41 18.954-21.467 24.154-34.955 3.352-8.696 5.371-17.906 8.147-27.609.03-.74.06-1.479.788-2.672l1.2-17.141c.186-3.523-1.747-5.436-5.123-4.325-8.362 2.752-16.597 5.89-25.369 8.904 0 0-.456.171-1.165.049-1.101.379-2.203.758-4.008 1.017-1.445.625-2.891 1.249-5.177 1.922-3.73.724-7.46 1.448-11.9 2.013-1.455-1.303-2.911-2.606-4.236-4.583l-1.523-2.808c-.111-.169-.222-.338-.132-.872-.038-.345-.23-.505-.814-.977-.099-.155-.198-.309-.133-1.11l-2.798-4.308s-.178-.18-.038-.781c-.617-.682-1.234-1.364-1.924-2.24 0 0-.152-.142-.015-.9l-5.721-16.166c-2.41-3.712-4.82-7.425-7.193-11.641-.267-.171-.535-.343-.755-.589 0 0-.085.025-.158-.485-.282-.173-.565-.346-.798-.567 0 0-.052.053-.104-.644l-20.044-19.638c-2.625-2.465-4.814-1.272-5.907 1.972-.526 1.56-1.119 3.121-1.415 4.73-.985 5.346-3.907 7.823-10.113 6.47-2.255-1.557-4.431-3.249-6.791-4.625-1.572-.916-4.2-2.417-4.964-1.834-1.691 1.291-2.522 3.721-3.668 5.708-.378.655-.648 1.373-1.668 2.36-1.813 6.871-2.127 13.652.868 20.346 1.736 3.881.105 6.718-4.402 7.064-7.906.607-15.843.823-24.633 1.143-1.796-.173-3.623-.195-5.384-.547-5.223-1.043-6.462.193-5.228 5.256 3.114 12.779 9.927 23.445 18.972 32.739 10.464 10.752 23.336 17.747 37.529 21.998 8.731 2.615 17.862 3.546 27.411-.681.221-.122.443-.244 1.005-.272.231-.126.348-.32 1.072-.645 1.827-.965 3.655-1.93 6.137-3.12 3.659-3.375 7.397-6.671 10.902-10.198.636-.64.7-2.39.307-3.325-.266-.634-1.813-1.076-2.75-1.016-2.742.176-5.465.647-9.096.848-3.664.053-7.329.105-11.601-.028-.211-.018-.422-.035-1.105-.596-2.342-.7-5.831-.667-6.827-2.227-4.341-6.797-11.599-6.881-18.041-8.918-.47-.149-1.071-.068-1.436-.334-4.025-2.923-9.34-4.497-11.538-10.728 3.246.336 5.717.432 8.126.871 8.481 1.544 16.907 3.423 25.421 4.739 4.758.736 8.917 1.703 11.496 6.374.72 1.303 2.839 2.568 4.335 2.59l31.883.029c4.119-1.065 8.238-2.131 13.188-3.062 1.693.048 3.386.096 5.252.776.11.189.219.379.237.9.123.224.312.337.622 1.053-.031.476-.062.953-.782 1.777-3.074 7.29-5.46 14.973-9.362 21.788-8.541 14.917-20.992 25.963-36.778 32.864-6.502 2.843-13.43 4.71-21.094 7.033-6.898-.313-14.009.32-20.644-1.167-9.366-2.1-18.38-5.77-27.558-9.404-.591-.185-1.182-.37-1.786-.473 0 0 .08-.019-.088-.532-.305-.164-.61-.328-.943-.425 0 0 .058-.044-.128-.559-.325-.088-.651-.176-1.325-.417 0 0-.377-.056-.668-.665-1.269-.825-2.538-1.649-3.856-2.392 0 0 .091-.029-.079-.541-.302-.169-.605-.338-.94-.435 0 0 .071-.037-.063-.56-.304-.164-.608-.329-.937-.426 0 0 .043-.059-.178-.638l-2.822-2.371s-.008-.016-.119-.522c-.292-.156-.583-.313-.886-.493 0 0-.025-.009-.25-.571-.565-.198-1.13-.396-1.805-1.263-8.07-8.422-14.119-18.08-17.766-29.189-1.424-4.338-2.748-8.708-3.95-13.681-.096-.411-.192-.823-.042-1.946-.039-1.955.035-3.92-.135-5.864-.994-11.329-.496-22.516 2.942-33.462 0 0 .008-.004.613-.437l1.406-6.552s.049.083.659-.225c.46-1.25.921-2.5 1.322-3.789 0 0 .045.055.645-.257.473-1.235.946-2.47 1.355-3.735 0 0 .035.063.501-.133.099-.293.198-.586.492-1.293 0 0 .037-.457.509-.682a20.06 20.06 0 0 1 .487-1.318s.046-.449.64-.727c.486-.934.972-1.869 1.385-2.843 0 0 .029.077.526-.105.097-.306.195-.612.462-1.322 0 0 .038-.436.542-.646.184-.303.369-.605.478-.917 0 0 .015.074.522-.096.175-.298.349-.596.458-.92 0 0 .036.061.525-.115.097-.301.195-.601.473-1.293 0 0 .057-.427.568-.628.186-.304.373-.608.477-.924 0 0 .019.081.524-.101.177-.299.355-.598.454-.919 0 0 .028.077.532-.093.177-.296.355-.592.457-.919 0 0 .034.074.542-.082.175-.295.35-.591.453-.922 0 0 .038.071.544-.084.172-.295.344-.589.451-.921 0 0 .04.064.535-.096.169-.29.337-.581.461-.908 0 0 .038.044.527-.111.174-.283.347-.567.473-.889 0 0 .039.047.543-.09.176-.289.352-.578.455-.9 0 0 .058.056.712-.104 1.486-1.62 2.971-3.24 5.077-5.146 12.533-9.563 26.724-14.377 42.441-14.828 10.38-.298 20.698.008 31.093 3.793 1.971.674 4.254.921 5.863 2.092 9.207 6.703 19.571 11.969 26.808 21.191 0 0 .01.015.129.522.287.18.574.361.928 1.018a2.06 2.06 0 0 0 .069.965c.285.167.571.334.88.486 0 0-.016.021.142.501a13.14 13.14 0 0 1 .852.523s.032.01.145.503c.278.174.557.349.956 1.2l2.003 2.8c2.563 3.727 5.598 4.818 9.821 2.395 5.254-3.016 10.799-5.526 16.037-8.567 2.827-1.64 4.414-4.134 1.862-7.849a.96.96 0 0 0-.816-.507s.032-.035-.077-.549c-.291-.175-.582-.351-.899-.442 0 0 .049-.073-.036-.776l-20.969-23.247s.019-.048-.229-.657c-1.25-.813-2.499-1.627-3.892-2.899-.189-.294-.458-.448-1.069-1.071-1.258-.812-2.515-1.624-3.822-2.368 0 0 .078-.033-.085-.535-.294-.17-.588-.34-.919-.453 0 0 .044-.054-.2-.652-.916-.475-1.833-.95-2.805-1.354 0 0 .071-.055-.173-.652-.922-.47-1.844-.94-2.833-1.356 0 0 .073-.042-.091-.533-.3-.089-.599-.179-1.339-.435 0 0-.468-.055-.644-.556-.298-.166-.595-.331-.92-.464 0 0 .029-.036-.21-.605-.587-.155-1.174-.311-1.787-.396 0 0 .056-.049-.243-.661-1.236-.468-2.472-.936-3.763-1.345 0 0 .072-.037-.098-.531-.302-.088-.604-.175-1.341-.431 0 0-.462-.059-.791-.707l-8.763-3.32s.034-.053-.319-.727c-12.129-3.932-24.563-6.176-37.298-5.089-8.94.763-18.014 1.689-26.641 3.993-15.644 4.177-29.585 11.843-41.335 23.901-.296.183-.447.448-1.084 1.079l-8.749 9.808c-.902 1.327-1.805 2.654-3.28 4.2-.765.93-1.529 1.86-2.917 3.07-2.982 5.329-6.329 10.489-8.881 16.017-9.556 20.697-14.349 42.183-11.661 65.239 2.239 19.208 7.76 36.96 19.21 52.663 24.184 33.165 56.384 50.241 97.825 47.506 11.836-.781 23.436-4.013 34.828-9.699 1.772-.969 3.543-1.939 6.021-2.999 2.129-1.311 4.257-2.621 6.865-3.988 0 0 .42-.238.881-.224a1.13 1.13 0 0 0 .533-.743s.011-.012.637-.198c1.153-.928 2.307-1.856 3.943-2.849 0 0 .422-.243.876-.223.282-.162.451-.403.549-.72 0 0 .008-.04.507-.147m132.01-77.984c.165-.284.33-.568.482-.883 0 0 .031.013.624-.227.493-.903.987-1.805 1.393-2.759 0 0 .048.089.68-.181 8.846-9.544 11.12-21.617 13.406-34.53-.06-5.264.354-10.587-.296-15.777-.904-7.229-2.604-14.359-3.847-22.158-.312-.494-.624-.989-.966-1.941 0 0-.151-.434-.037-1.187-.329-.894-.6-1.815-.996-2.678-3.744-8.168-7.898-15.993-16.975-19.62 0 0 .09-.002-.073-.519a25.46 25.46 0 0 1-1.347-.441s-.432-.045-.713-.622c-.61-.149-1.221-.299-1.856-.368 0 0 .058-.061-.352-.734l-9.495-1.242c-1.757-.312-3.511-.88-5.27-.895l-34.489-.093c-7.198-.008-7.341.148-7.34 7.277l-.04 150.452c-.027 13.803-.567 27.604-.792 41.407-.089 5.454 1.128 6.649 6.615 6.783 4.163.102 8.33.087 12.495.078 6.04-.014 6.493-.432 6.418-6.647l-.775-56.855c-.087-6.494-.127-12.989.099-20.181 1.428-3.88 4.875-3.213 8.541-3.362.441.016.881.031 1.666.639 1.568 1.748 3.136 3.496 4.774 6.058l3.899 13.745 16.013 62.129c.822 3.211 2.847 4.484 6.028 4.429 4.99-.087 9.982-.087 15.721.017.756-.048 1.512-.096 3.046-.019 3.726-1.767 2.458-4.428 1.215-7.544 0 0-.151-.447-.011-1.133-.316-.793-.632-1.587-.993-2.858 0 0-.155-.454-.023-1.074-.309-.489-.617-.978-.955-2.211-.402-1.39-.804-2.78-1.074-4.781-.304-.479-.608-.959-.957-1.926 0 0-.155-.464-.016-1.086-.309-.49-.617-.979-.97-1.935 0 0-.16-.441-.03-1.243l-7.051-26.71-10.956-35.991s-.196-.441-.095-1.107c.355-1.791.71-3.581 1.165-5.379 0 0-.002-.1.418-.227.298-.179.393-.435.533-1.177 0 0 .071-.476.584-.658.194-.297.388-.595 1.031-.936 0 0 .412-.186.92-.13.176-.277.352-.555.495-.871 0 0 .038.031.526-.116m38.134 219.816c.055-.904.111-1.808.327-3.286.013-.879.027-1.758.791-3.114.621-2.049 1.242-4.098 2.396-6.217.601.324 1.202.649 2.01 1.635 1.001 1.762 2.001 3.523 3.042 5.959.887 1.452 1.774 2.904 2.775 5.093l9.956 21.417 24.088 55.456c.582 1.326 2.3 3.246 3.185 3.096 1.405-.239 2.971-1.765 3.723-3.151 1.594-2.94 2.657-6.163 4.026-9.23l14.045-31.295 18.706-40.342c.44-1.206.879-2.413 1.964-3.914 1.757-1.266 3.514-2.532 5.313-3.148.4.719.8 1.437 1.094 2.423 0 0 .063.28-.076.676.048.411.097.821-.015 2.007.318 1.441.635 2.883.972 4.97.064.423.129.845.066 1.941.076.447.151.893.105 1.835.273.189.546.378.839 1.441l2.547 18.908c1.039 6.739 2.4 13.429 3.432 20.17 1.456 9.516 2.542 19.096 4.279 28.558.311 1.694 2.889 4.024 4.617 4.207 5.094.54 10.295.318 15.438.062 3.232-.161 5.158-2.285 4.573-5.54l-7.616-40.646-6.354-38.028c-1.408-7.926-3.219-15.78-4.885-24.416-.061-.744-.121-1.488-.055-3.052-.878-4.441-1.888-8.86-2.608-13.326l-5.445-34.716c-.268-1.631-1.342-3.129-2.043-4.688-1.456.869-3.062 1.569-4.314 2.67-.781.687-1.062 1.966-1.512 3.004l-22.445 51.723c-6.463 14.722-13.089 29.372-20.166 44.215-.096.312-.192.625-.593 1.618l-6.227 10.74c-3.048-3.842-5.274-6.649-7.611-10.244-3.003-7.594-5.782-15.287-9.06-22.762L479 649.217l-14.978-34.754c-.331-1.067-.467-2.255-1.04-3.17-.752-1.199-1.849-2.181-2.798-3.256-.736 1.114-1.794 2.134-2.147 3.358-1.101 3.827-1.935 7.732-3.032 12.415-.678 4.393-1.356 8.786-2.67 13.553-.056 1.213-.112 2.425-.423 4.285-.213.4-.426.801-.879 1.932l-2.653 14.696-4.493 23.392-.863 3.825c.048.169.095.338-.161 1.246-.319 2.075-.637 4.151-1.594 6.515-.034.916-.068 1.831-.255 3.376-.014.431-.029.863-.677 1.612-.056.92-.113 1.839-.41 3.379-.25.792-.5 1.584-.914 3.118.051.754.102 1.508-.171 3.005-.206.253-.543.48-.6.763l-8.162 41.415-3.032 16.766c-.588 3.855.601 6.47 5.256 6.257 3.647-.167 7.338-.25 10.959.123 4.952.511 7.202-2.114 8.323-6.323.584-2.193.974-4.442 1.361-6.682l10.021-57.898c.028-1.717.055-3.434.692-5.464m2.74-325.623c-.281.184-.437.443-1.161 1.188-.333 1.939-.97 3.881-.953 5.817l.742 78.849-.058 20.882c.057 1.396.114 2.792.058 4.981.037 1.065.075 2.13-.058 4.119l.048 17.018-.622 44.627.615 17.971s.113.45-.052 1.292c.321 2.114.643 4.227 1.371 7.042 3.692.381 7.381 1.065 11.076 1.092l49.989.072c3.063.004 5.75-.173 4.672-4.526-.352-1.423-.166-2.979-.077-5.405.004-5.55.141-11.106-.073-16.648-.059-1.517-1.173-2.994-2.298-5.213-11.46-.003-22.923-.172-34.378.075-4.614.099-6.448-1.214-6.373-6.123l-.007-48.352c-.052-3.962 1.071-5.223 5.075-5.079 9.117.327 18.25.197 27.376.247 5.515.03 6.63-1.067 6.592-6.58l-.027-19.197c-.764-6.152-5.366-3.899-9.797-4.2l-20.875.982c-1.075.052-2.15.104-4 0-3.243-.659-4.389-2.467-4.342-5.917l.124-43.904c.009-1.737.649-3.471 1.515-5.239.166-.049.331-.098 1.172.023.464-.004.927-.008 2.067.433l32.937-.582c1.401-.048 3.917-1.792 3.929-2.773.101-8.702-.247-17.41-.822-26.86-1.521-.396-3.041-1.13-4.565-1.137l-54.323-.048c-1.353.004-2.704.602-4.497 1.073m110.564 47.059c-.059-1.7-.118-3.399-.04-5.78-.048-.458-.095-.917.029-2.238.017-1.831-.524-3.935.204-5.417.758-1.544 2.722-3.506 4.189-3.531 11.13-.193 22.268.136 33.401.032 1.402-.013 3.997-1.595 3.998-2.451.008-8.96-.401-17.92-1.065-27.597-1.36-.365-2.718-1.042-4.079-1.047l-55.091-.016c-1.194.003-2.387.549-4.322 1.192-.388 1.696-1.114 3.391-1.116 5.087l-.131 193.563c-.006 4.473 1.552 6.178 6.094 6.141l57.415.042c4.877.066 6.324-1.635 5.532-6.955-.049-2.043-.097-4.085.003-7.043l-.021-11.94c.513-4.404-1.25-6.39-5.867-6.186-11.694.516-23.399.801-35.555 1.025 0 0-.48-.029-.907-.686-.88-1.851-2.504-3.693-2.524-5.554-.196-17.601-.119-35.206.619-53.241 1.592-.227 3.184-.637 4.778-.65l27.881-.025c3.944.054 5.785-1.299 5.647-5.481-.209-6.3-.16-12.614-.001-18.917.102-4.068-1.651-5.578-5.646-5.52l-32.374.032s-.072.003-.233-.816c-.266-1.765-.719-3.524-.763-5.294-.157-6.269-.174-12.542-.09-19.727-.044-3.388-.089-6.776.037-10.999M245.926 206.979c3.485.007 7.071.506 10.414-.18 1.758-.361 4.135-2.626 4.408-4.324.649-4.045.144-8.266.236-12.413.078-3.518-1.474-5.142-5.027-5.081-4.977.085-9.957.014-15.322-.646-.602-2.448-1.204-4.897-1.666-8.272l-.021-61.702c-1.882-3.529-1.894-3.533-4.694-1.345-4.696 3.775-9.565 7.36-13.996 11.423-1.621 1.486-3.086 4.094-3.115 6.211l-.134 46.165c-.163 4.107.2 8.593-6.94 8.188-4.155-.003-8.379-.44-12.434.196-1.725.271-4.166 2.627-4.421 4.316-.638 4.225-.636 8.674-.007 12.902.254 1.704 2.623 4.034 4.364 4.376 3.347.658 6.932.103 11.249.209 7.576.223 7.966.551 8.203 7.934l.044 93.602c.295.196.591.391.95 1.379l16.153 1.739c3.344.313 4.755-1.29 4.746-4.717l.067-94.696c-.194-4.256 2.558-5.229 6.942-5.264M85.99 747.091l-.018-11.957c-.055-2.044-.109-4.089-.003-7.059l-.038-24.982c-.055-2.774.934-4.122 3.595-4.066l40.783.93c7.44.132 14.884.024 22.694.024v4.761l-.087 61.959c-.045 4.847 1.797 6.579 6.444 6.323 3.985-.219 7.998-.157 11.988.015 3.965.171 5.904-1.39 5.676-5.487-.129-2.325-.033-4.662-.02-6.994l.824-139.759c.023-3.425-1.439-4.909-4.744-4.715-4.776.28-9.552.87-14.324.833-4.307-.034-5.848 1.7-5.813 5.918l.086 47.968c.004 1.22.478 2.438.708 3.725 0 0-.073-.004-.726.634-1.723.63-3.443 1.795-5.17 1.808-18.475.134-36.954-.065-55.427.188-4.92.068-6.616-1.356-6.516-6.389.276-13.976.034-27.962.068-41.945.034-14.096 1.401-12.867-12.723-12.783-11.671.069-11.671.059-11.118 12.882l.002 58.826-.008 80.02c-.237 4.237 1.842 5.788 6.795 5.221l12.862-.01c6.117-.841 3.888-5.452 4.21-9.903l.002-15.985m234.555-132.815c-3.096-.337-6.209-1.066-9.285-.932-7.104.31-14.189 1.039-22.124 1.658-15.727 1.658-28.642 9.515-40.01 19.621-22.15 19.691-30.221 45.057-25.88 73.898 2.851 18.94 11.775 34.781 26.984 47.621 21.204 17.901 45.307 22.902 71.503 18.493 19.508-3.283 35.458-14.512 47.571-29.801 13.959-17.619 19.876-38.038 16.803-60.863-2.323-17.254-9.435-32.072-21.267-44.461-11.999-12.565-26.231-21.702-44.296-25.234M157.291 206.214c-10.201 1.667-20.048 3.725-26.415 13.332-9.262 13.976-7.222 29.438 3.268 37.9 4.725 3.812 10.52 6.273 15.688 9.568 5.04 3.213 10.207 6.346 14.749 10.188 3.877 3.279 3.496 9.067.02 12.852-5.789 6.304-12.036 5.727-18.447-1.632-8.803-10.106-6.102-8.403-17.384-3.361-1.632.729-3.305 1.507-4.697 2.597-2.454 1.921-4.124 4.324-2.015 7.488 11.311 16.964 30.057 27.457 51.457 14.935 12.93-7.565 18.517-18.778 17.469-33.515-.824-11.577-8.922-17.463-17.915-22.54l-21.616-11.939c-4.749-2.778-5.775-6.847-3.056-10.023 3.108-3.631 8.974-4.128 12.259-1.039 7.206 6.774 7.199 6.764 15.852 1.107 1.476-.965 3.182-1.625 4.527-2.735 2.468-2.037 3.766-4.502 1.365-7.491-6.357-7.915-13.767-14.161-25.109-15.692z"/><path fill="#050405" d="M737 772.531c-3.132.438-6.264.378-9.396.381l-75.492.11c-3.502.01-5.144-1.413-5.141-5.014l-.006-145.985c-.004-4.397 2.476-5.072 6.106-5.064l83.46.038c.469 7.023.469 14.044.002 21.586-17.874.623-35.281.725-52.649.403-.576-7.829-2.472-9.657-9.69-10.01-1.625-.079-3.236-.468-4.85-.734-6.517-1.074-10.339 2.125-10.341 8.67-.002 6.035-.248 12.086.138 18.097.132 2.047 1.859 3.992 2.858 6.401.001 1.808.001 3.199-.353 4.596-.995.376-2.152.689-2.198 1.123-.574 5.309-1.377 10.64-1.317 15.957.049 4.399.809 8.878 1.913 13.151 1.054 4.082 3.306 4.491 6.518 1.647 4.339-3.841 3.404-8.97 3.297-13.92-.066-3.06.144-6.126.691-9.124l58.568.065v23.677h-58.004v51.743l35.474.026L737 751v21.531z"/><path fill="#078f4f" d="M737 575.531c-1.407.436-2.814.404-4.905.07-6.34-1.247-2.77-6.54-5.053-9.519-10.443 3.511-14.211-3.87-17.141-11.517l-19.75-53.601c-2.92-7.981-5.632-16.044-8.805-23.922-.677-1.68-2.943-2.721-4.477-4.056l-8.779-26.98c-.417-1.076-.699-1.508-.982-1.941 0 0-.183-.031-.246-.284-.193-.464-.379-.592-.622-.638 0 0-.283-.091-.325-.582-1.134-4.526-2.872-7.504-7.82-7.946-1.492-.133-2.881-3.042-4.031-4.86-.913-1.443-1.39-3.162-2.062-5.199l-.993-17.513c-.557-6.848-1.564-13.667-1.918-20.522-.213-4.112.965-8.006 5.596-9.476 4.965-1.576 9.928.965 11.509 6.418l9.849 35.744c1.225 4.265 3.479 8.241 4.644 12.517l8.615 33.547c1.159 4.284 2.805 8.631 8.787 7.696l10.059 36.597c1.052-1.273 2.7-2.354 2.88-3.64.884-6.308 1.378-12.67 2.446-19.413 1.188 2.554 2.102 5.478 2.649 8.47.64 3.498.45 9.912 1.506 10.1 5.12.915 6.38 4.704 8.397 8.179.144.248.871.157 1.973.317v-5.525V453.1l.113-75.436c.045-4.728-1.433-6.364-5.911-5.676-.651.1-1.33.013-1.996.014-7.195.003-7.202.003-7.203 7.11l-.011 98.917c-.571-5.34-1.535-10.671-1.645-16.02l-.755-60.849c-.05-8.134.343-16.27.503-24.406.115-5.821.935-6.686 6.494-6.697l18.94-.057.469 205.532z"/><path fill="#fefefe" d="M683.845 639.41l52.688-.358.467 111.479c-10.137.244-20.274-.081-30.412-.179l-35.474-.026v-51.743h58.004v-23.677c-19.253 0-38.681 0-58.577-.445-.544-1.453-.62-2.461-.621-3.864.025-1.462-.026-2.53 0-4.063l1.296-25.797c4.444-.586 8.536-.957 12.629-1.328z"/><path d="M737 257.531c-2.911-.271-5.823-1.01-8.972-2.337-.516-.78-.793-.973-1.071-1.166 0 0 .034-.034.039-.274.004-.414.004-.588.16-1.115 1.563-4.327 1.094-7-3.428-9.067-5.208-2.38-10.223-5.541-14.668-9.165-14.783-12.053-30.611-22.528-46.904-32.368l-22.686-14.133-27.359-17.804-38.123-23.145c-5.188-3.188-10.132-6.772-15.264-10.055l-25.13-15.878-38.65-25.029c-7.234-4.618-14.716-8.846-21.96-13.449l-28.179-18.372c-2.75-1.82-5.346-3.881-7.951-5.91-5.047-3.931-9.845-8.22-15.123-11.807-6.991-4.751-14.342-8.97-21.539-13.418l.556-1.666c1.463.423 2.993.693 4.374 1.302 2.471 1.09 4.845 2.397 7.272 3.589 1.473.724 3.154 1.161 4.425 2.137 9.821 7.544 19.7 14.928 32.126 17.781.888.204 1.575 1.178 2.426 1.672l18.14 10.446c4.738 2.686 9.67 5.056 14.259 7.971 8.385 5.326 16.422 11.21 24.896 16.384 10.561 6.449 21.529 12.233 32.107 18.656 6.875 4.175 13.211 9.237 20.076 13.431 7.734 4.725 16.028 8.551 23.662 13.42l55.669 36.285c10.992 7.05 22.241 13.707 33.478 20.366l35.182 20.401c2.987 1.725 5.046.827 6.216-2.346.28.171.56.342 1.082 1.056 2.439 3.253 4.635 5.962 6.765 8.59l6.837-.771 6.851.222c.41 11.719.41 23.407.41 35.563z" class="P"/><path d="M4.954 337.873c-.004-.355.145-.625 1.078-.851 3.26-.398 6.675.18 8.394-1.263 10.23-8.587 20.557-17.073 27.056-29.295 3.348-6.297 10.417-8.468 16.372-11.167l-13.102 13.439c-2.467 2.465-2.683 5.61-.236 7.423 2.685 1.99 6.361 2.641 9.606 3.876-2.459 2.323-4.918 4.646-7.979 6.721-4.747-1.906-8.101-.152-10.897 2.586-8.259 8.086-16.189 16.517-24.625 24.41C8.04 356.169 4.241 357.287 1 359c0-5.688 0-11.376.396-17.535 1.45-1.512 2.504-2.552 3.558-3.592z" class="G"/><path d="M1 359.463c3.241-2.176 7.04-3.294 9.622-5.711 8.435-7.894 16.365-16.324 24.625-24.41 2.796-2.738 6.15-4.491 10.55-2.535-1.938 2.947-3.949 5.774-6.355 8.21L6.253 368.198c-1.369 1.358-3.056 2.397-4.924 3.693C1 367.975 1 363.951 1 359.463zm3.606-21.521c-.705.971-1.759 2.011-3.21 3.055C1 340.556 1 340.111 1 339.333c1.086-.663 2.171-.992 3.606-1.391z" fill="#080607"/><path fill="#038c4a" d="M150.949 477.042c.096.411.192.823-.114 1.726-1.225 1.852-2.827 3.267-2.735 4.563.366 5.147.317 10.629 2.158 15.302 3.702 9.398 9.779 17.523 17.408 24.186 1.576 1.377 4.826.837 7.563 1.192.43-.003.602-.017.774-.032a3.06 3.06 0 0 0 .002.393c1.012 1.109 2.03 1.841 3.048 2.574 0 0-.043.059.06.269.391.387.679.563.967.739 0 0-.071.037.038.249.406.386.703.56 1 .734 0 0-.091.029-.041.357 1.399 1.11 2.748 1.891 4.098 2.673 0 0 .377.056.693.334.556.528.85.653 1.196.654 0 0-.058.044.053.255.408.383.704.555 1 .727 0 0-.08.019.045.241.641.444 1.157.665 1.673.887 9.165 2.999 18.179 6.668 27.545 8.768 6.635 1.488 13.745.854 21.555 1.166 3.206.255 5.573.238 7.779.824 4.785 1.27 7.902-2.564 11.762-3.443 7.334-1.67 13.408-5.175 19.142-9.544 3.681-2.805 6.757-6.407 10.444-9.202 11.695-8.865 18.657-20.462 20.783-34.941.354-2.413.86-5.239-2.899-5.724.031-.476.062-.953.025-1.923-.149-.677-.28-.809-.463-.891-.109-.189-.219-.379-.365-1.277.26-3.101.555-5.493.854-8.184l.027-1.491s.456-.171 1.136-.186c4.994-.851 9.479-1.198 13.584-2.632 7.038-2.458 11.629.274 12.332 7.72.254 2.686 1.309 5.297 1.998 7.942-.03.74-.06 1.479-.509 2.63-1.701 1.843-3.37 3.088-4.178 4.751-1.345 2.77-1.823 5.969-3.227 8.699-2.888 5.611-6.175 11.015-9.243 16.535-1.966 3.537-3.964 7.066-5.718 10.709l-10.143 21.72s-.038-.072-.242.039c-.396.397-.587.683-.779.969 0 0-.014-.075-.22.031-.398.39-.59.674-.783.957 0 0-.019-.072-.221.033-.397.378-.591.65-.785.923 0 0-.027-.043-.234.065-.496.296-.683.558-.77.891 0 0-.015.012-.238.11-.498.28-.678.53-.765.848 0 0-.009.065-.233.131-.469.202-.658.394-.79.642 0 0-.418.231-.896.361-.677.405-.876.68-1.075.956 0 0-.027-.045-.233.06-.496.287-.687.543-.779.873 0 0-.008.04-.221.106-.461.199-.653.389-.79.634 0 0-.422.243-1.06.266-1.736 1.019-2.833 2.016-3.931 3.012 0 0-.011.012-.215.085-.458.209-.653.403-.791.656 0 0-.42.238-1.025.287-2.725 1.376-4.845 2.703-6.965 4.031-1.772.969-3.543 1.939-6.08 2.927l-26.983 6.596c-5.571 1.194-11.355 2.277-16.994 2.065-9.09-.342-18.278-.896-26.881-4.616-4.57-1.976-9.632-3.035-13.848-5.553-5.009-2.991-9.286-7.185-13.987-10.716-12.604-9.468-24.379-19.833-31.76-34.003-3.603-6.916-6.547-14.421-8.28-22.004-2.172-9.503-2.904-19.347-4.038-29.069-.593-5.088-1.537-10.335-.902-15.33 2.073-16.298 5.814-32.219 13.062-47.14 1.767-3.637 3.127-7.473 4.983-11.368 1.1-1.714 1.892-3.278 2.792-5.101.373-.754.637-1.249 1.255-1.78 2.436-3.721 4.519-7.405 6.602-11.089.007-.348.158-.613 1.081-.842 2.962-1.099 5.428-1.935 7.603-3.252 4.035-2.444 7.73-5.49 11.884-7.686 4.004-2.116 8.386-3.531 12.64-5.154 8.168-3.117 16.652-5.705 24.874-8.228 9.388-2.881 20.29-1.27 30.503-.846 5.865.243 11.666 2.004 17.496 3.082 0 0-.034.053.026.388 3.051 1.434 6.041 2.534 9.032 3.633a1.88 1.88 0 0 0 .81.331c.575.493.846.62 1.162.654 0 0-.072.037-.001.376 1.377.765 2.684 1.192 3.991 1.618 0 0-.056.049.108.279.73.398 1.296.567 1.862.735 0 0-.029.036-.029.28 0 .417 0 .59-.033 1.107-1.555 4.446 2.259 5.673 4.196 7.647 7.632 7.78 15.544 15.286 23.27 22.976 4.392 4.372 5.825 9.565 3.49 15.479-1.091 2.761-2.498 5.133-6.245 3.656-3.631-1.43-7.315-2.745-11.04-3.902-.733-.228-1.76.495-2.903.786l-.753.03s.016-.021-.064-.221c-.224-.466-.432-.666-.705-.797 0 0-.163-.454-.292-.925-.392-.666-.656-.86-.92-1.055 0 0-.01-.015-.005-.427-.796-14.228-17.7-26.045-33.043-23.513-10.027-3.143-20.344-3.449-30.725-3.151-15.717.451-29.908 5.264-43.083 15.077-2.124 1.852-3.607 3.454-5.089 5.057 0 0-.058-.056-.259.051-.387.381-.573.656-.758.931 0 0-.039-.047-.25.062-.391.384-.571.659-.751.934 0 0-.038-.044-.25.071-.39.394-.567.674-.744.954 0 0-.04-.064-.246.051-.387.397-.569.68-.75.962 0 0-.038-.071-.243.042-.389.397-.572.681-.756.964 0 0-.034-.074-.24.039-.389.401-.573.688-.756.976 0 0-.028-.077-.234.034a5.25 5.25 0 0 0-.753.99c0 0-.019-.081-.231.028-.4.411-.588.713-.776 1.015 0 0-.057.427-.338.754-.506.554-.64.826-.681 1.143 0 0-.036-.061-.243.055-.391.402-.575.688-.759.975 0 0-.015-.074-.224.041-.397.414-.585.714-.773 1.013 0 0-.038.436-.317.77-.506.568-.64.846-.68 1.169 0 0-.029-.077-.355-.023-.769 1.058-1.211 2.063-1.654 3.067 0 0-.046.449-.329.796-.503.588-.634.871-.675 1.196 0 0-.037.457-.321.796-.502.567-.632.837-.675 1.149 0 0-.035-.063-.371-.001-.764 1.37-1.192 2.678-1.619 3.986 0 0-.045-.055-.385.013-.758 1.388-1.174 2.709-1.591 4.029 0 0-.049-.083-.398-.01-.786 2.353-1.224 4.633-1.661 6.913 0 0-.008.004-.401.012-1.465 2.083-3.23 4.076-3.487 6.247-1.001 8.451-1.103 17.024-2.408 25.417-.612 3.937.247 6.307 3.235 8.363z"/><path d="M714.901 212.559c-1.016 3.486-3.076 4.383-6.062 2.658l-35.182-20.401-33.478-20.366-55.669-36.285c-7.634-4.869-15.927-8.696-23.662-13.42-6.865-4.194-13.201-9.256-20.076-13.431-10.578-6.423-21.545-12.207-32.107-18.656-8.474-5.174-16.51-11.059-24.896-16.384-4.589-2.915-9.521-5.285-14.259-7.971l-18.14-10.446c-.851-.494-1.537-1.468-2.426-1.672-12.426-2.852-22.305-10.237-32.126-17.781-1.272-.977-2.952-1.414-4.425-2.137-2.427-1.192-4.801-2.499-7.272-3.589-1.381-.609-2.911-.879-4.374-1.302l-.556 1.666c7.197 4.448 14.548 8.667 21.539 13.418 5.278 3.587 10.076 7.876 15.123 11.807 2.605 2.029 5.201 4.09 7.951 5.91l28.179 18.372c7.244 4.603 14.727 8.831 21.96 13.449l38.65 25.029 25.13 15.878c5.132 3.283 10.075 6.867 15.264 10.055l38.123 23.145c9.236 5.748 18.198 11.933 27.359 17.804l22.686 14.133c16.293 9.841 32.12 20.316 46.904 32.368 4.445 3.624 9.461 6.785 14.668 9.165 4.522 2.067 4.99 4.74 3.159 9.072-.603.375-.781.39-.959.406 0 0 .075-.015-.094-.251-.739-.405-1.309-.574-1.879-.742 0 0 .043-.056-.076-.266a5.24 5.24 0 0 0-.968-.748c0 0 .078-.029.025-.35-2.341-1.438-4.628-2.555-6.915-3.672 0 0-.036-.003-.141-.245-.312-.52-.587-.688-.929-.745 0 0 .049-.031-.009-.363-1.046-.77-2.033-1.208-3.02-1.647 0 0-.474-.069-.814-.347-.55-.497-.806-.622-1.108-.653 0 0-.005-.016-.041-.382-2.041-1.436-4.046-2.508-6.051-3.579 0 0 .082-.047.023-.365-1.048-.757-2.037-1.196-3.027-1.635 0 0 .082-.043.046-.363-2.109-5.132-6.118-6.066-10.784-5.687 0 0-.158.017-.16-.427-1.196-2.091-2.078-4.173-3.646-5.303-4.095-2.951-8.508-5.457-12.76-8.196-2.353-1.516-4.578-3.232-6.958-4.701l-22.983-14.023-9.595-5.836c-5.951-3.51-13.141-5.858-17.615-10.716-6.541-7.102-15.262-10.333-22.75-15.579-5.719-4.007-12.463-6.717-17.964-11.312-.621-.519-1.474-.76-2.218-1.132-8.904-4.451-17.465-9.378-25.163-15.822-5.219-4.369-10.843-8.32-16.613-11.937-2.642-1.656-6.058-2.098-9.15-3.001-.903-.264-1.896-.218-3.154-.345l.875-2.697c-6.95-4.446-13.648-8.483-20.059-12.932-3.491-2.423-6.989-3.646-11.224-4.471-3.455-.673-6.185-4.777-9.399-7.139-1.128-.829-2.977-.689-4.086-1.532-6.618-5.034-12.965-10.434-19.696-15.308-6.939-5.025-14.218-9.581-21.338-14.358L413.68 50.239c-8.764-5.759-17.239-12.341-28.703-11.238-2.096.227-4.686-.264-6.216.787l-82.077 56.85-18.634 12.846c-4.054 2.756-5.534 2.062-5.95-2.572-.551-6.133-.9-12.299-1.812-18.38-.745-4.969 1.216-8.471 4.977-11.075l58.831-40.474 43.4-29.941c2.609-1.826 4.765-2.217 7.554-.543l53.315 31.881 106.299 66.885 46.773 29.643 99.466 62.474 23.998 15.179z" class="Q"/><path d="M321.009 614.977c17.601 2.831 31.833 11.968 43.832 24.533 11.831 12.389 18.944 27.207 21.267 44.461 3.073 22.825-2.844 43.244-16.803 60.863-12.113 15.289-28.063 26.518-47.571 29.801-26.197 4.409-50.3-.592-71.503-18.493-15.209-12.84-24.133-28.681-26.984-47.621-4.341-28.841 3.73-54.207 25.88-73.898 11.368-10.106 24.284-17.963 40.621-19.299 1.786.773 2.956 1.598 4.136 1.614 7.999.107 16.002.115 23.999-.055 1.055-.022 2.085-1.241 3.126-1.906m23.002 37.507c-18.507-20.938-55.78-20.019-75.03-3.989-35.781 29.796-25.308 79.253 7.972 97.585 13.765 7.583 27.81 10.2 43.118 5.081 21.101-7.056 34.98-21.094 40.227-42.539 5.178-21.161.784-40.3-16.287-56.138m-2.014 96.02l-5.526 7.004 1.062 1.504c1.803-.332 3.746-.342 5.388-1.049 11.707-5.042 19.066-14.787 25.577-25.031 1.879-2.957 1.205-7.537 1.851-12.531l-28.352 30.103m-83.004-8.009l-18.278-19.63c-2.84 10.822 15.644 33.938 32.116 38.172-1.239-3.348-1.601-6.312-3.207-8.237-2.989-3.583-6.704-6.561-10.631-10.305m109.838-67.833l3.85 5.303 1.366-.338c.296-2.016 1.292-4.25.749-6.007-1.385-4.481-2.658-9.367-5.437-12.961-4.497-5.818-9.876-11.065-15.444-15.906-3.429-2.981-7.902-4.762-11.906-7.082l-1.063 1.33c.501.898.841 1.949 1.528 2.669 5.322 5.575 11.096 10.772 15.959 16.717 3.893 4.76 6.705 10.404 10.398 16.275z" class="R"/><path fill="#080607" d="M57.997 294.998c-6.097 2.999-13.166 5.17-16.515 11.467-6.498 12.222-16.826 20.708-27.056 29.295-1.719 1.443-5.134.865-8.16 1.208l31.719-32.431 40.678-40.612c2.182-2.154 4.962-3.704 8.274-6.124l.015 62.425.679 141.388c.037 16.458-.528 32.917-.782 49.376l-.767 58.829c-.023 4.462-1.508 6.416-6.048 6.198-4.322-.207-8.664-.124-12.994-.034-3.99.083-5.285-1.983-4.92-5.638.325-3.256.831-6.519.834-9.779l.04-177.452.447-58.642c1.332-.097 2.411.058 3.098.66 3.992 3.502 5.553 8.027 5.49 13.277-.051 4.255.314 8.469 2.531 12.606.813-.815 1.201-1.017 1.231-1.261l5.271-43.219c.916-6.685.497-13.109-1.581-19.452-1.086-3.317-3.637-6.139-6.93-4.482-3.93 1.978-7.067 5.531-10.549 8.4-.001-.002.002.001-.339.033-1.115 1.009-1.89 1.986-2.772 3.182-.307.494-.569.681-.893.781z"/><path d="M153.768 674.459c-.255-1.219-.729-2.437-.733-3.656l-.086-47.968c-.034-4.219 1.506-5.952 5.813-5.918 4.772.037 9.547-.553 14.324-.833 3.305-.194 4.767 1.29 4.744 4.715l-.824 139.759c-.013 2.332-.109 4.67.02 6.994.228 4.098-1.711 5.658-5.676 5.487-3.99-.172-8.003-.234-11.988-.015-4.647.256-6.489-1.476-6.444-6.323l.087-61.959v-4.761c-7.81 0-15.254.109-22.694-.024l-40.783-.93c-2.66-.055-3.649 1.292-3.595 4.066.164 8.325.046 16.654-.403 25.354-.792-.149-1.393-.642-1.456-1.196l-2.113-19.215c-.187-1.544-.399-3.748-1.409-4.407-3.339-2.179-7.049-3.791-11.108-5.871l-2.17 18.04c-3.236-11.075-3.049-42.523.361-45.759.178 2.161.121 3.933.504 5.604.723 3.155 2.186 4.477 5.082 1.678 1.779-1.719 3.988-3.018 5.633-4.84 1.333-1.476 2.923-3.411 3.009-5.209.585-12.277.863-24.57 1.101-36.861.075-3.874-.127-7.888-4.916-9.216-5.453-1.512-9.255.136-12.243 4.718-.666 1.022-2.307 1.408-3.5 2.086-.73-11.9-.73-11.89 10.942-11.959 14.125-.083 12.757-1.313 12.723 12.783l-.068 41.945c-.1 5.032 1.596 6.456 6.516 6.389l55.427-.188c1.728-.012 3.447-1.178 5.589-1.667.859 2.598 2.144 5.266 1.595 7.477-2.587 10.406-.213 16.904 9.717 23.315.778-1.565 1.85-2.979 2.201-4.553 2.058-9.216 1.267-18.382-.944-27.463-.323-1.327-1.234-3.64-1.705-3.599-1.652.146-3.224 1.137-4.839 1.778l-5.693 2.201M87.36 691.657c2.316.653 4.609 1.412 6.953 1.942 17.39 3.926 34.673 6.268 52.134-.325 4.373-1.651 5.789-3.697 5.553-7.852-.295-5.188-3.89-2.532-6.235-2.635l-43.103-1.662c-5.544-.086-11.11 1.21-17.062 1.325-.92-.909-1.927-1.746-2.743-2.74-2.598-3.162-4.75-1.363-5.454 1.142-.901 3.205-.976 6.75-.772 10.11.101 1.66 1.932 4.703 2.453 4.594 2.387-.498 4.615-1.837 6.834-3.001.496-.26.722-1.032 1.443-.898z" class="N"/><path fill="#018b49" d="M493.981 456.166c1.075-.052 2.15-.104 3.669.268 3.457 5.884 8.473 3.923 13.145 4.381 3.719.365 8.357 2.159 10.416 4.931 1.421 1.913.162 7.339-1.707 9.849-3.589 4.82-9.022 7.46-15.377 7.404-3.824-.034-7.652.109-11.471-.04-2.729-.106-4.514.721-4.979 3.597-1.113 6.887-2.877 13.742-3.206 20.666-.424 8.913.125 17.888.571 26.821.435 8.717 2.338 10.586 11.154 12.21 1.053-.213 1.912-.679 3.194-1.178 1.834-.019 3.246-.006 4.819.311 2.607 2.714 4.707 1.493 7.211-.342 3.836-.013 7.212-.009 10.586.405.947 2.907 1.807 5.443 2.87 7.89 1.115 2.567 4.105 5.975 3.326 7.391-2.128 3.863-5.519 9.37-8.93 9.768-12.482 1.455-25.179 1.386-37.787 1.234-3.495-.042-7.872-1.385-8.406-6.239-.356-3.234-.115-6.536-.089-9.808l.2-16.763.207-15.692-.129-23.803c-.204-8.604-.964-17.203-.924-25.801.046-9.918 1.209-19.845.982-29.748l-2.127-57.16c-.067-3.051 2.465-6.168 3.832-9.238.962-2.16 1.986-4.292 3.449-6.452l48.586 1.327c4.512 6.307 3.82 12.868 1.486 19.129-1.726 4.629-5.221 7.526-10.927 7.646-8.196.171-16.374 1.18-24.559 1.831-.464.004-.927.008-1.729-.268-.338-.28-.344-.672-.194-.982 3.093-4.522 7.209-5.86 12.219-5.788 4.102.06 8.27-.239 12.306-.956 5.029-.893 10.731-6.995 10.124-10.204-.556-2.943-6.263-5.877-11.764-5.724-5.609.156-11.217.535-16.812.99-4.429.36-8.89.712-13.243 1.551-7.111 1.372-9.266 4.237-8.933 11.581.225 4.978.818 9.939 1.288 14.903.022.235.447.431 1.155 1.07 3.487-1.772 4.918-7.964 10.468-5.735-.731 5.417-.971 10.558-2.196 15.452-2.58 10.313-.569 20.65-.551 30.945.012 7.148 3.495 9.672 8.777 8.371z"/><path fill="#078b4c" d="M389.979 488.836c-3.02.294-6.468-.373-8.291 4.18l-.396 72.982c-3.16-.755-5.144-1.884-6.783-1.507-6.41 1.475-7.487.791-7.501-6.093l-.013-40.287-.12-12.727-.681-15.107c-.077-3.731.048-7.476.303-11.2.405-5.935 1.378-11.853 1.435-17.785.215-22.395.22-44.75-2.597-67.09-.893-7.08 2.062-14.645 3.289-22.192l33.381.395c-.574 4.197 2.386 4.721 4.878 5.401 6.63 1.81 12.436 5.094 15.835 11.065 5.359 9.417 8.989 19.585 10.116 30.45.48 4.628-.231 9.167-3.02 14.388-1.181-4.588-2.169-7.875-2.863-11.222-2.847-13.725-10.06-23.488-24.211-27.088-4.446-1.131-6.825.313-8.252 4.793-2.434-.106-4.413-.304-6.396-.335-3.677-.058-5.315 1.67-5.29 5.493l-.002 51.25c-.025 3.344 1.141 5.33 3.925 6.248-1.461.612-2.529 1.152-3.597 1.693.665 1.005 1.129 2.288 2.042 2.952 1.451 1.054 3.203 1.693 4.894 2.868 3.836 1.802 7.664 3.11 11.352 4.736 2.284 1.007 5.809 2.143 6.224 3.844.921 3.771 1.405 8.302-3.047 10.967-6.063-4.932-13.333-6.197-17.392-2.9l2.777 1.828z"/><path d="M157.645 206.445c10.988 1.3 18.398 7.546 24.756 15.461 2.401 2.989 1.103 5.454-1.365 7.491-1.345 1.11-3.05 1.77-4.527 2.735-8.653 5.657-8.646 5.667-15.852-1.107-3.286-3.089-9.152-2.591-12.259 1.039-2.719 3.177-1.693 7.245 3.056 10.023 7.102 4.156 14.448 7.892 21.616 11.939 8.993 5.077 17.091 10.962 17.915 22.54 1.049 14.737-4.539 25.949-17.469 33.515-21.4 12.522-40.146 2.029-51.457-14.935-2.11-3.164-.439-5.568 2.015-7.488 1.393-1.09 3.066-1.868 4.697-2.597 11.282-5.042 8.58-6.745 17.384 3.361 6.41 7.359 12.657 7.936 18.447 1.632 3.476-3.785 3.857-9.573-.02-12.852-4.542-3.841-9.708-6.975-14.749-10.188-5.169-3.295-10.963-5.756-15.688-9.568-10.489-8.463-12.53-23.924-3.268-37.9 6.367-9.607 16.214-11.666 26.769-13.102z" class="S"/><path fill="#07904f" d="M256.014 504.013l-5.969 2.991c-.653.191-.8.31-.926.454-.221.122-.443.244-1.456.448-1.456.09-2.161-.044-2.78.129-7.935 2.221-15.694.609-23.425-1.119-.899-.201-1.689-1.149-2.401-1.876-2.823-2.879-5.141-6.552-8.468-8.588-13.224-8.094-25.838-16.595-33.767-30.594-3.969-7.007-3.201-9.768 4.733-11.921l15.874-4.189 15.056-3.665c1.056-.356 1.787-.711 2.845-1.078.76-.062 1.194-.112 2.004-.111 1.474-.329 2.571-.71 4.093-1.067l16.702-.656c.711.128 1.296.019 2.316-.088 3.478.304 6.52.606 9.793 1.184 1.42.377 2.61.477 4.206.616 3.434.766 6.463 1.494 9.757 2.41l8.284 8.918s.152.142.184.528c.606 1.076 1.178 1.765 1.751 2.455 0 0 .178.18.226.603.894 1.793 1.741 3.162 2.588 4.531.099.155.197.309.377.885.125.684.276.85.534.92.111.169.222.338.458 1.103.506 1.359.886 2.122 1.267 2.886 1.455 1.303 2.911 2.606 4.498 4.235-3.354 3.4-3.063 4.814 1.587 7.396l-31.093.088c-1.496-.023-3.615-1.287-4.335-2.59-2.579-4.671-6.737-5.638-11.496-6.374-8.514-1.317-16.94-3.195-25.421-4.739-2.409-.439-4.88-.535-8.126-.871 2.199 6.231 7.513 7.804 11.538 10.728.366.266.966.185 1.436.334 6.442 2.037 13.7 2.121 18.041 8.918.996 1.56 4.485 1.527 6.686 2.499-1.342.441-2.542.61-3.743.779 1.438 1.498 2.785 2.196 4.165 2.266.434.022.953-1.643 1.432-2.536 3.664-.053 7.329-.105 11.154.15-1.836.553-3.833.799-5.126.958l4.948 12.65z"/><path d="M552.118 692.994l-18.094 40.071-14.045 31.295c-1.369 3.067-2.432 6.29-4.026 9.23-.752 1.386-2.318 2.912-3.723 3.151-.885.15-2.603-1.77-3.185-3.096l-24.088-55.456c-3.156-7.21-6.628-14.282-9.669-21.824 1.6-1.495 2.913-2.583 4.085-3.554 2.148 2.33 4.755 4.315 6.234 6.936 3.162 5.605 5.93 11.457 8.508 17.361 3.151 7.215 5.943 14.587 8.895 22.235.665 1.448 1.326 2.552 1.992 4.033 1.23 2.85 2.137 5.562 3.765 7.735 1.805 2.409 8.173 1.895 9.407-.738 3.768-8.038 7.782-16.026 10.675-24.388 2.856-8.255 2.129-8.802-5.858-12.342-.666-1.118-1.329-1.881-1.994-2.92-.015-.46-.027-.644-.04-.828l19.643-44.054 22.445-51.723c.45-1.037.731-2.317 1.512-3.004 1.252-1.101 2.858-1.801 4.314-2.67.701 1.559 1.775 3.057 2.043 4.688l5.445 34.716c.72 4.466 1.73 8.885 2.176 13.745-1.655.585-2.878.751-4.1.917l.907-1.181c-1.778-2.113-3.555-4.226-5.334-6.738l-.015-3.991c-.343-2.166-.631-3.944-1.025-5.698-1.07-4.769-4.596-6.161-7.658-2.442-3.036 3.687-4.921 8.321-7.312 12.788-.002.249-.004.746-.293.889-.761 1.049-1.233 1.956-1.848 3.189l-7.272 20.551c-1.163 3.446 3.857 11.968 7.532 13.117z" class="F"/><path d="M62.217 628.461c1.281-1.14 2.921-1.526 3.588-2.547 2.989-4.582 6.791-6.23 12.243-4.718 4.789 1.328 4.991 5.342 4.916 9.216l-1.101 36.861c-.086 1.798-1.676 3.734-3.009 5.209-1.646 1.822-3.855 3.121-5.633 4.84-2.896 2.799-4.359 1.476-5.082-1.678-.383-1.671-.326-3.443-.504-5.604-3.411 3.236-3.598 34.684-.361 45.759l2.17-18.04c4.058 2.081 7.768 3.692 11.108 5.871 1.01.659 1.223 2.863 1.409 4.407l2.113 19.215c.064.554.665 1.047 1.376 1.659.414 2.135.469 4.18.093 6.742-2.749 4.618-3.782 8.64.293 12.35.051 5.025.102 10.049-.272 15.492-1.477.819-3.28 1.023-3.446 1.657-.653 2.483-.79 5.103-1.119 7.672-4.027.055-8.054.111-12.54-.303-.914-2.653-1.368-4.837-1.819-7.003l-4.339 1.479-.17-79.247.087-59.288zm402.088-13.357l14.366 34.503c-2.778.058-5.227-.273-7.92-.77-.416-.719-.587-1.271-.793-2.182-2.163-2.101-4.594-5.489-6.344-5.168-2.167.397-4.512 3.588-5.461 6.075-1.919 5.029-3.172 10.351-4.248 15.645-.506 2.489.035 5.191.101 8.225-.004 2.142-.007 3.855-.4 5.656-4.116 7.876-.174 16.396 7.395 17.288l-.002 2.98c.077 2.295-2.34 5.074 1.779 5.649l-9.829 57.06c-.387 2.24-.778 4.489-1.361 6.682-1.121 4.21-3.371 6.834-8.323 6.323-3.621-.373-7.312-.29-10.959-.123-4.655.213-5.844-2.403-5.256-6.257.856-5.613 1.948-11.191 3.032-16.766l8.162-41.415c.056-.283.393-.51 1.078-1.191.271-1.391.064-2.355-.144-3.318.25-.792.5-1.584 1.167-2.734.487-1.351.557-2.345.627-3.338.014-.431.029-.863.437-1.667.429-1.346.465-2.319.5-3.293.319-2.075.637-4.151 1.42-6.601a35.41 35.41 0 0 1 2.287-1.455l-2.446.076c.24-1.106.48-2.212 1.223-3.708 1.231-1.55 2.337-2.625 2.62-3.885 1.279-5.693 2.247-11.456 3.479-17.161.896-4.147 2.33-8.202 2.903-12.383.211-1.541-1.361-3.326-2.119-5 .213-.4.426-.801 1.097-1.593.506-1.684.553-2.975.601-4.267.678-4.393 1.356-8.786 2.489-13.597l8.486-7.392c.216-.19.243-.593.358-.898z" fill="#030202"/><path d="M402.005 372.01h-33.382c-1.227 7.547-4.181 15.112-3.289 22.192 2.817 22.341 2.812 44.696 2.597 67.09-.057 5.932-1.029 11.85-1.435 17.785-.254 3.724-.379 7.47-.303 11.2.103 5.038.522 10.069.681 15.107.134 4.24.115 8.485.12 12.727l.013 40.287c.015 6.884 1.091 7.568 7.501 6.093 1.639-.377 3.623.751 6.783 1.507l.252-72.633c.313 6.171.354 12.665.44 19.159l.775 56.855c.075 6.215-.378 6.633-6.418 6.647-4.165.01-8.332.024-12.495-.078-5.487-.134-6.704-1.329-6.615-6.783l.792-41.407.04-150.452c0-7.129.143-7.285 7.34-7.277l34.489.093c1.759.015 3.514.583 5.691 1.184.421.289.423.689.023.692l-3.601.011z" class="T"/><path d="M217.182 308.002l.274-93.581c3.912-1.988 5.995-1.284 6.887 2.806.393 1.803 2.161 3.307 3.615 5.392 3.539-4.295 2.692-12.391 10.853-9.607l.105 93.927c.009 3.427-1.401 5.03-4.746 4.717-5.391-.505-10.769-1.152-16.24-2.366-.235-.919-.456-1.14-.748-1.288z" class="S"/><path d="M579.058 664.976l4.849 23.667 6.354 38.028 7.616 40.646c.585 3.256-1.341 5.379-4.573 5.54-5.143.257-10.344.478-15.438-.062-1.728-.183-4.307-2.513-4.617-4.207-1.736-9.462-2.822-19.041-4.279-28.558-1.032-6.74-2.393-13.43-3.432-20.17-.969-6.284-1.707-12.604-2.606-19.56-.184-.934-.383-1.144-.657-1.284-.076-.447-.151-.893.213-1.685 3.456-1.122 6.472-1.9 9.489-2.677l.875 1.166c.976-2.347 2.671-4.67 2.753-7.048.112-3.236-1.008-6.514-1.601-10.203-.331-4.142-.662-7.855-.704-11.688 2.019-.999 4.96 1.827 5.758-1.907z" class="F"/><path fill="#008e55" d="M712.999 478.472l.005-99.36c.001-7.106.008-7.106 7.203-7.11.666 0 1.346.087 1.996-.014 4.477-.689 5.956.947 5.911 5.676L728 453.1v54.954 5.525c-1.102-.16-1.829-.069-1.973-.317-2.017-3.475-3.277-7.265-8.397-8.179-1.056-.189-.866-6.603-1.506-10.1-.547-2.992-1.461-5.916-2.574-8.931-.423-2.42-.484-4.779-.552-7.58z"/><path d="M652.002 424.999c.671 1.596 1.148 3.315 2.061 4.758 1.15 1.818 2.539 4.726 4.031 4.86 4.948.442 6.686 3.42 7.793 7.8-2.42-.157-3.18.883-3.072 3.274.186 4.132.116 8.275-.135 13.072-.142 1.51.005 2.363.153 3.215.055.44.11.879.175 2.105l-.432 69.985c-.784 1.103-1.398 2.078-1.54 3.116-1.067 7.842-1.596 15.795-3.283 23.496-.592 2.704-3.955 4.801-6.053 7.175-1.417-2.023-3.103-3.918-4.155-6.115-.668-1.394-.549-3.242-.519-4.882l.904-48.688-.682-51.338c.413-.722.58-1.278.748-2.25l.001-4.92c-.331-1.113-.661-1.887-.991-2.994 0-.776.001-1.219.394-1.753.795-2.234 1.15-4.387 1.611-6.518l2.991-13.398z" class="J"/><path d="M402.004 372.405c1.068-.398 2.135-.401 4.004-.353l9.059.882s-.058.061.114.297c.77.394 1.367.551 1.965.708 0 0 .432.045.763.325.566.513.849.646 1.179.678 0 0-.09.002-.036.329 4.211 5.455 8.393 10.563 12.515 15.72 1.826 2.284 3.529 4.666 5.288 7.004a3.62 3.62 0 0 0 .167.963 8.55 8.55 0 0 0 .832 2.04c1.359 7.172 3.059 14.302 3.964 21.531.649 5.19.235 10.513-.251 16.192-1.553 3.021-2.69 5.587-3.514 8.249-.472 1.523-.046 3.387-.7 4.781-2.223 4.734-4.889 9.261-7.093 14.004-1.066 2.294-1.477 4.892-2.184 7.353 0 0-.048-.089-.361-.039-.767 1.017-1.22 1.983-1.674 2.949 0 0-.031-.013-.248.101-.498.313-.676.58-.752.916 0 0-.038-.031-.235.057-.472.232-.675.445-.807.727 0 0-.412.186-.921.188-.698-.002-.888-.005-1.25-.345-3.335-4.642-1.854-8.757.277-12.891 1.148-2.226 2.145-4.531 3.025-6.407l-35.13 11.639c-1.625-.815-3.376-1.455-4.828-2.508-.914-.663-1.377-1.946-2.042-2.952 1.068-.54 2.135-1.081 4.052-1.746 4.428-.042 8.007.04 11.92.124.809-.381 1.285-.764 1.838-1.059.078.088-.097-.068.222-.024.799-.3 1.28-.644 1.805-.932.045.057-.069-.032.32.01 3.286-1.891 6.206-3.791 9.075-5.765 5.568-3.831 8.314-10.001 10.045-15.801 2.908-9.744-.39-19.405-5.087-28.013-2.002-3.668-6.418-6.058-9.888-8.841-.456-.365-1.81.39-3.105.597-3.367-.991-6.377-1.954-9.387-2.917.974-4.463 3.354-5.907 7.799-4.776 14.151 3.6 21.363 13.362 24.211 27.088.694 3.347 1.682 6.634 2.863 11.222 2.789-5.221 3.5-9.761 3.02-14.388-1.127-10.865-4.757-21.034-10.116-30.45-3.398-5.972-9.205-9.256-15.835-11.065-2.492-.68-5.453-1.203-4.878-5.401z" class="U"/><path d="M146.001 395.996c-1.547 3.744-2.907 7.58-4.674 11.217-7.248 14.921-10.989 30.842-13.062 47.14-.635 4.995.308 10.242.902 15.33 1.134 9.722 1.867 19.566 4.038 29.069 1.733 7.583 4.677 15.088 8.28 22.004 7.382 14.17 19.156 24.535 31.76 34.003 4.701 3.531 8.979 7.725 13.987 10.716 4.216 2.518 9.278 3.577 13.848 5.553 8.603 3.719 17.792 4.274 26.881 4.616 5.638.212 11.423-.871 16.994-2.065 8.805-1.887 17.485-4.355 26.631-6.577-10.274 5.649-21.874 8.88-33.71 9.662-41.441 2.734-73.641-14.341-97.825-47.506-11.45-15.703-16.971-33.455-19.21-52.663-2.688-23.057 2.105-44.542 11.661-65.239 2.552-5.527 5.899-10.688 9.557-16.141 1.764.212 2.853.548 3.942.884z" class="C"/><path d="M385.126 39.309c11.316-1.41 19.79 5.171 28.554 10.931l20.832 14.005c7.119 4.778 14.398 9.333 21.338 14.358 6.73 4.874 13.078 10.274 19.696 15.308 1.108.843 2.958.703 4.086 1.532 3.213 2.363 5.943 6.466 9.399 7.139 4.235.825 7.732 2.049 11.224 4.471 6.411 4.449 13.109 8.485 20.059 12.932l-.875 2.697c1.257.127 2.251.081 3.154.345 3.091.903 6.508 1.345 9.15 3.001 5.77 3.617 11.394 7.568 16.613 11.937 7.698 6.444 16.259 11.372 25.163 15.822.744.372 1.597.613 2.218 1.132 5.501 4.595 12.245 7.305 17.964 11.312 7.488 5.246 16.209 8.477 22.75 15.579 4.474 4.858 11.663 7.206 17.615 10.716l9.595 5.836 22.983 14.023c2.38 1.469 4.606 3.185 6.958 4.701 4.251 2.739 8.664 5.245 12.76 8.196 1.568 1.13 2.45 3.211 3.635 5.224-9.149-5.267-18.316-10.856-27.425-16.537l-97.137-60.668-88.679-55.804-91.628-58.189z" class="D"/><path d="M554.929 370.935c1.193-.294 2.386-.839 3.58-.843l55.091.016c1.361.005 2.72.683 4.249 1.883.162 7.64-.115 14.458.242 21.243.229 4.347-1.966 5.584-5.514 5.735-9.191.39-18.386.675-27.535.641 1.59-1.436 3.008-3.082 4.709-3.465 3.351-.752 6.928-1.406 10.287-1.017 6.665.771 10.544-3.543 14.375-7.436 3.397-3.453 1.828-8.274-2.643-10.63-1.002-.528-2.146-.999-2.868-1.813-3.954-4.456-7.98-4.557-12.644-.31-.661.602-1.747.894-2.678 1.017-8.003 1.058-16.096 1.658-23.98 3.28-2.477.51-6.173 3.638-6.257 5.691-.286 7.07.758 14.198 1.373 21.296.044.507.722.958 1.147 1.486 5.771-7.272 5.771-7.272 10.14-5.256-.008 2.809-.015 5.175-.388 7.606-.986.797-1.964 1.44-2.173 2.275-2.794 11.197-3.352 22.521-1.089 33.851.356 1.785 2.37 3.24 3.624 5.218.659 1.439 1.311 2.507 1.963 3.575 0 0 .072-.003.16.425 7.06 1.419 14.01 2.654 21.015 3.288 3.009.273 10.981 4.458 12.021 7.33 2.019 5.575-6.229 16.723-12.672 16.939-4.817.161-9.645.029-14.408-.33 2.853-1.448 5.572-2.835 8.458-3.545 2.85-.702 6.041-.209 8.777-1.139 6.757-2.295 8.613-9.565 3.512-13.433-1.513-1.147-3.959-1.368-6.002-1.457-9.369-.408-19.191 1.456-26.693-6.778-1.484-1.628-4.224-2.111-6.807-3.321-.517 2.503-.833 4.442-1.328 6.334-.937 3.584-1.976 7.141-2.973 10.252l.602-9.835c.633-10.932 1.681-21.864 1.72-32.799.024-6.62-1.558-13.242-2.35-19.871-.703-5.882-1.977-11.805-1.723-17.654.164-3.782 1.935-7.973 4.216-11.076 3.692-5.021 3.861-5.506-2.895-7.271l-5.641-.102z" class="O"/><path d="M647.007 445.005c-.001.443-.001.887-.258 1.861.245 1.399.747 2.266 1.248 3.134 0 1.389 0 2.777-.294 4.613-.429 1.094-.565 1.74-.701 2.386l.928 51.171c.006 16.229-.61 32.458-.904 48.688-.03 1.64-.149 3.487.519 4.882 1.052 2.198 2.738 4.092 4.155 6.115 2.098-2.374 5.461-4.471 6.053-7.175 1.687-7.701 2.216-15.654 3.283-23.496.141-1.039.756-2.013 1.552-2.644.401 9.701.619 19.036.291 28.351-.122 3.462-.683 9.217-2.499 9.868-5.023 1.801-10.811 1.501-16.307 1.879-.32.022-.937-1.278-1.066-2.023-.422-2.436-.869-4.892-.97-7.354l-.906-26.667-.253-3.606c.045-.17.09-.34.476-1.081.445-5.889.479-11.209.668-16.523.259-7.291.871-14.576.891-21.866.017-6.375-.88-12.754-.833-19.127.078-10.537.757-21.068.88-31.605l-.041-42.483c-.062-4.103-1.111-8.191-1.708-12.285-.049-1.732-.099-3.465.174-5.932l3.61-12.945c1.711-.038 3.422-.076 5.4.271-.353 1.913-.765 3.574-1.631 4.948-3.572 5.671-3.306 11.798-2.767 18.124.623 7.322.926 14.684 1.046 22.034.155 9.493-.009 18.992-.035 28.488z" class="K"/><path fill="#018b49" d="M390.064 470.361c11.512-4.196 23.09-8.032 35.064-11.999-.881 1.876-1.877 4.181-3.025 6.407-2.131 4.133-3.613 8.249-.274 13.172.188.806.2.993.212 1.18 0 0-.071.476-.356.793-.483.5-.611.723-.667.986 0 0 .002.1-.419.099-1.479 1.331-2.536 2.663-3.746 4.342-.697 2.575-1.971 4.912-1.654 7.01 1.076 7.132 2.572 14.212 4.18 21.249 1.339 5.858 2.958 11.658 4.641 17.429 1.822 6.247 4.074 12.375 5.739 18.66 1.378 5.2 2.553 10.515 3.1 15.852.386 3.768-2.292 4.036-4.934 2.313-1.156-.754-2.197-2.124-2.653-3.436-1.875-5.392-3.588-10.845-5.205-16.322l-6.172-21.705c-2.824-9.656-5.475-19.378-8.808-28.858-.8-2.276-3.996-3.71-6.088-5.533.001-.002-.001 0-.037-.357-.989-5.351-4.678-1.895-7.015-2.617-.441-.016-.881-.031-1.645-.119-1.229-.669-2.135-1.265-3.1-1.9 4.059-3.297 11.328-2.032 17.392 2.9 4.452-2.665 3.968-7.196 3.047-10.967-.415-1.701-3.94-2.837-6.224-3.844-3.688-1.626-7.517-2.934-11.352-4.736z"/><path d="M478.013 371.043l-2.982 6.436c-1.367 3.07-3.899 6.187-3.832 9.238l2.127 57.16c.227 9.902-.936 19.829-.982 29.748-.04 8.599.721 17.198.924 25.801.188 7.931.14 15.869.129 23.803l-.207 15.692-.2 16.763c-.026 3.271-.267 6.574.089 9.808.534 4.854 4.91 6.197 8.406 6.239 12.608.152 25.305.222 37.787-1.234 3.411-.398 6.802-5.905 8.93-9.768.78-1.415-2.211-4.824-3.326-7.391-1.063-2.448-1.923-4.983-2.421-7.902 2.854-.44 5.258-.458 7.662-.476.63 1.495 1.744 2.972 1.803 4.489.215 5.542.078 11.097-.249 17.327-3.588 3.191-6.747 7.692-10.137 7.872-14.922.796-29.911.362-44.875.312-1.082-.004-2.959-.258-3.123-.801-1.926-6.397-5.562-13.062-4.958-19.288 1.737-17.895 1.912-35.668.533-53.538-.443-5.745-.717-11.532-.57-17.286.297-11.578 1.474-23.164 1.114-34.71-.111-3.549 1.653-8.99-3.691-11.818-.01-4.463-.017-8.466.284-12.762a212.34 212.34 0 0 0 .649-16.646c0-.687-1.059-1.374-1.648-2.438.216-2.128.453-3.879.997-5.92.104-5.127-.099-9.963-.299-15.232.01-2.458.017-4.482.38-6.547 1.801-2.351 3.246-4.662 5.127-6.979l6.56.047z" class="K"/><path d="M217.176 175.99l-.033-45.339c.029-2.117 1.494-4.725 3.115-6.211 4.431-4.063 9.3-7.649 14.515-11.215l3.999 1.789-.213 61.56c-3.719 2.751-5.968 2.792-6.943-1.919-.548-2.646-2.054-5.093-3.274-7.971-4.209 3.385-4.433 10.34-11.165 9.306z" class="S"/><path fill="#038c4a" d="M580.062 544.988s.48.029.709.51c-.346 3.426 1.264 4.653 3.854 5.235 8.492 1.908 16.768 1.386 24.744-2.178 2.651 4.593 4.069 5.037 8.627 3.128 1.164-.487 2.539-.468 3.817-.682.057 3.706.115 7.412-.172 11.811-4.086 2.37-8.369 3.189-11.008 7.191-1.455.332-2.544.666-3.967.999-.778 0-1.222 0-1.96-.297-6.098-.099-11.902.099-18.135.297-2.143 0-3.857 0-5.754-.25-1.061-.084-1.939.084-3.246.25l-5.869.021c-.766.338-1.234.657-2.036.976-.778-.001-1.222-.002-1.708-.323-.681-.771-1.32-1.222-2.279-1.698-1.106-.344-1.893-.663-2.68-1.45.137-6.736-.378-13.103.562-19.248 1.42-9.285 1.851-9.218 9.533-3.698 1.792 1.288 3.634 2.947 5.248-.553l1.719-.044z"/><path d="M554.558 371.109c2.106-.146 3.842-.117 6.004.306.149 1.341.018 2.364-.429 3.223-4.548 8.737-5.269 17.762-3.225 27.406 1.603 7.564 2.679 15.348 2.906 23.067.293 9.976-.344 19.991-.864 29.975-.369 7.086-1.229 14.146-1.816 21.221-.123 1.484-.109 2.996.017 4.48.582 6.852 1.698 13.696 1.741 20.548.07 11.052-.52 22.11-.894 33.163-.183 5.4.585 11.149-1.022 16.109-2.355 7.266-2.151 13.625 1.392 20.268 1.482 2.778 2.88 4.262 6.351 4.216l47.466.026c4.542.091 7.598-1.175 9.652-5.09.938 4.454-.509 6.155-5.386 6.089l-57.415-.042c-4.542.037-6.101-1.668-6.094-6.141l.131-193.563c.002-1.696.728-3.391 1.487-5.261z" class="E"/><path d="M647.4 444.914c-.366-9.406-.202-18.904-.357-28.398-.12-7.35-.422-14.712-1.046-22.034-.538-6.326-.805-12.453 2.767-18.124.866-1.375 1.278-3.035 2.053-4.875 1.89-.361 3.626-.412 6.08-.138 6.251-.83 8.275 3.929 10.989 6.926 2.032 2.243 3.303 5.456 4.122 8.453 1.308 4.79.148 10.577 6.078 13.214 0 0-.075.046.025.234.267.487.516.677.848.759l9.904 34.388c3.26 12.226 6.104 24.564 9.178 37.251-5.934 1.334-7.58-3.013-8.739-7.297l-8.615-33.547c-1.165-4.276-3.419-8.252-4.644-12.517l-9.849-35.744c-1.581-5.453-6.544-7.994-11.509-6.418-4.631 1.47-5.809 5.364-5.596 9.476.354 6.855 1.361 13.673 1.918 20.522.462 5.68.671 11.381.993 17.513l-2.991 13.839c-.461 2.131-.816 4.284-1.611 6.518z" class="O"/><path d="M621.91 569.594c-2.127 4.348-5.182 5.613-9.725 5.523-15.817-.315-31.646-.238-47.466-.026-3.471.046-4.869-1.437-6.351-4.216-3.543-6.644-3.747-13.003-1.392-20.268 1.608-4.96.84-10.709 1.022-16.109.374-11.053.964-22.111.894-33.163-.044-6.852-1.159-13.696-1.741-20.548-.126-1.484-.14-2.996-.017-4.48.586-7.076 1.447-14.135 1.816-21.221.52-9.984 1.157-19.999.864-29.975-.227-7.718-1.303-15.503-2.906-23.067-2.044-9.643-1.323-18.668 3.225-27.406.447-.859.578-1.882.863-3.206 6.33 1.371 6.161 1.856 2.469 6.877-2.281 3.103-4.052 7.294-4.216 11.076-.254 5.849 1.02 11.772 1.723 17.654.792 6.629 2.374 13.251 2.35 19.871-.039 10.935-1.087 21.866-1.72 32.799L561 469.876c0 1.235 0 1.68-.294 2.411-.431 1.425-.807 2.594-.669 3.698l3.401 25.844c.13.971.462 1.95.404 2.907l-1.849 28.629c-.581 8.55-1.531 17.092-1.656 25.648-.049 3.314 1.721 6.656 2.662 9.984.787.319 1.574.638 2.721 1.302 1 .796 1.639 1.247 2.279 1.698.444.001.889.002 1.837.231 1.057-.255 1.61-.74 2.163-1.224 1.714-.001 3.429-.002 5.755.247 1.49.084 2.368-.083 3.246-.249 1.714 0 3.429 0 5.865.296 6.526.099 12.331-.099 18.135-.296.444 0 .889 0 1.861.255 1.731-.247 2.935-.75 4.138-1.253 2.273-4.004 6.555-4.823 10.567-6.735.319 1.807.367 3.849.343 6.325zm55.02-96.193c1.474.92 3.74 1.961 4.417 3.641 3.173 7.878 5.885 15.941 8.805 23.922l19.75 53.601c2.93 7.648 6.697 15.028 17.141 11.517 2.283 2.979-1.287 8.272 4.636 9.451-7.216.321-14.714.69-22.171.293-1.794-.095-4.464-2.419-5.018-4.239l-17.425-59.431-9.656-35.439c-.253-.937-.284-1.934-.479-3.317z" class="K"/><path d="M398.998 492.004c2.094 1.821 5.289 3.255 6.089 5.531 3.333 9.48 5.984 19.202 8.808 28.858l6.172 21.705c1.617 5.477 3.33 10.93 5.205 16.322.456 1.312 1.497 2.682 2.653 3.436 2.642 1.724 5.32 1.455 4.934-2.313-.547-5.338-1.722-10.653-3.1-15.852-1.665-6.285-3.918-12.413-5.739-18.66-1.683-5.771-3.302-11.571-4.641-17.429-1.608-7.037-3.104-14.117-4.18-21.249-.317-2.098.957-4.436 1.903-6.848 1.152.391 1.903.966 2.654 1.541 0 0 .196.441.221 1.122.802 6.79 1.547 12.877 2.645 18.967 2.035 11.284 4.404 22.248 9.486 32.554.425.862.942 1.898.824 2.773-.564 4.169 2.045 6.392 4.896 8.529 0 0 .16.441.183.969.285 1.029.546 1.529.808 2.029a4.19 4.19 0 0 0 .181.997c.284 1.023.541 1.513.798 2.004.402 1.39.804 2.78 1.222 4.837.28 1.166.544 1.665.808 2.163 0 0 .155.454.167 1.027.288 1.372.564 2.171.84 2.97a3.8 3.8 0 0 0 .16 1.056c-.661 2.676-1.332 4.743-2.002 6.811-.756.048-1.512.096-2.956-.192-5.605-.336-10.521-.336-14.324-.336l-2.769-9.907c-.651-2.486-1.216-4.994-1.78-7.501-.315-1.396-.407-2.857-.846-4.209l-8.166-24.783c-.151-.461-.028-1.008-.156-1.482l-6.969-25.617c-.991-3.377-2.666-6.554-4.029-9.821z" class="U"/><path d="M217.093 176.403c6.816.621 7.039-6.334 11.249-9.719 1.22 2.879 2.726 5.326 3.274 7.971.976 4.711 3.224 4.67 6.873 2.382.942 2.401 1.544 4.849 2.091 7.828.322 1.528.761 2.507 1.068 3.526 1.079 3.578 2.35 7.123 3.082 10.773.497 2.476.213 5.108.278 7.671-3.466.179-6.219 1.152-6.111 5.793-8.248-2.4-7.4 5.697-10.939 9.992-1.454-2.085-3.222-3.589-3.615-5.392-.891-4.09-2.975-4.794-6.815-3.269-.741-6.405-1.131-6.734-9.168-7.403-2.397-5.509-4.409-10.408.584-15.2 1.39-1.334 1.404-4.103 2.049-6.213 6.216.267 5.853-4.219 6.1-8.739m2.021 14.421c-7.281 3.541-9.053 8.045-3.628 15.171 3.022-1.333 6.248-3.406 8.653 1.224.351.676 2.505.863 3.668.594 6.571-1.517 10.448-10.691 7.079-16.448-5.704-9.746-8.331-9.897-15.772-.541z" class="L"/><path d="M57.854 295.298l1.376-1.114c1.223-1.229 1.998-2.205 2.773-3.181 0 0-.003-.002.39-.008 2.443-.622 4.597-1.012 6.523-1.898 4.694-2.16 6.523-.045 8.441 4.175 3.415 7.514.694 14.298-1.409 21.18-1.976 6.469-4.785 6.929-9.941 2.236-.671-.611-2.035-.46-3.078-.662l-8.483 3.88c-3.569-1.104-7.246-1.755-9.93-3.745-2.446-1.813-2.231-4.958.236-7.423l13.102-13.439z" class="M"/><path d="M197.05 449.823l-15.495 4.115c-7.934 2.153-8.702 4.913-4.733 11.921 7.93 13.999 20.544 22.5 33.767 30.594 3.327 2.036 5.644 5.709 8.468 8.588.713.727 1.503 1.675 2.401 1.876 7.731 1.728 15.49 3.339 23.425 1.119.619-.173 1.323-.038 2.406-.066-8.383 4.082-17.514 3.151-26.246.536-14.194-4.251-27.065-11.246-37.529-21.998-9.045-9.294-15.858-19.959-18.972-32.739-1.234-5.062.006-6.299 5.228-5.256 1.761.352 3.587.374 6.167.776 7.56.331 14.336.432 21.112.534z" class="T"/><path d="M529.867 544.599c-2.156.38-4.56.398-7.412.428a3137.25 3137.25 0 0 1-11.467-.002l-6.941.057-4.99-.039c-1.522.319-2.289.638-3.056.957-8.622-1.371-10.525-3.24-10.959-11.957-.445-8.933-.995-17.909-.571-26.821.33-6.924 2.093-13.778 3.206-20.666.465-2.876 2.249-3.703 4.979-3.597 3.818.148 7.647.005 11.471.04 6.355.057 11.787-2.584 15.377-7.404 1.869-2.51 3.128-7.936 1.707-9.849-2.059-2.772-6.697-4.566-10.416-4.931-4.672-.458-9.688 1.503-12.746-4.308a179.75 179.75 0 0 1 20.56-1.072c3.386 1.792 6.244 3.177 9.101 4.562l.194 18.428c.038 5.513-1.077 6.61-6.592 6.58-9.126-.049-18.259.081-27.376-.247-4.004-.144-5.127 1.117-5.075 5.079l.007 48.352c-.075 4.909 1.759 6.222 6.373 6.123 11.454-.247 22.918-.077 34.625.287z" class="C"/><path d="M465.965 437.98c5.341 2.367 3.578 7.808 3.689 11.358.36 11.546-.817 23.132-1.114 34.71-.148 5.755.126 11.542.57 17.286 1.379 17.87 1.203 35.643-.533 53.538-.604 6.227 3.033 12.892 4.958 19.288.163.543 2.04.798 3.123.801 14.964.05 29.953.484 44.875-.312 3.39-.181 6.549-4.682 10.063-7.407.308 1.282.121 2.838.473 4.261 1.078 4.353-1.609 4.529-4.672 4.526-16.663-.021-33.327.051-49.989-.072-3.694-.027-7.384-.711-11.279-1.867-.47-2.887-.737-4.998-1.004-7.109 0 0-.113-.45-.086-1.153l-.046-17.863.332-44.823c.143-6.245-.021-11.697-.184-17.149-.037-1.065-.075-2.13.171-3.847.131-2.152-.021-3.653-.173-5.154-.037-6.686-.074-13.372.197-20.85.415-6.582.522-12.371.629-18.16z" class="E"/><path d="M504.999 743c-.661-1.104-1.322-2.208-1.735-3.872-.255-2.41-.824-4.246-1.245-6.115l-2.723-12.679c5.802.111 8.34-1.406 5.822-6.569.417-.424.708-.615.998-.806l7.5 9.455 6.592-11.077c.366-.337.792-.339.792-.339.663.763 1.326 1.527 1.692 2.687.034 3.584-2.843 7.078 1.476 10.04 1.158.794.586 5.352-.365 7.708-1.713 4.243-4.522 8.029-6.487 12.188-2.3 4.868-4.519 5.58-8.899 2.243-1.181-.9-2.281-1.906-3.418-2.864z" class="M"/><path fill="#49b25c" d="M215.002 445.019c-.731.355-1.462.71-2.611.725-6.346-5.017-9.357-10.94-8.474-18.653.26-2.269.082-4.587.105-6.883.319-.689.589-1.406.968-2.061 1.146-1.986 1.977-4.417 3.668-5.708.764-.583 3.392.918 4.964 1.834 2.361 1.375 4.537 3.067 7.343 4.967 2.075 1.103 3.598 1.863 5.159 2.818.318.13.599.065 1.261-.014 2.119.332 3.856.678 5.661 1.378 1.483 1.086 3.122 1.576 4.247 2.62 1.141 1.059 1.773 2.665 2.628 4.031-1.132.64-2.209 1.668-3.407 1.835-2.109.296-4.312.255-6.44.025-13.484-1.457-15.094-.09-15.072 13.085z"/><path d="M506.06 712.565c-.235.586-.526.776-1.217 1.395-1.498.79-3.329 1.735-3.577 1.423-2.273-2.866-4.654-5.76-6.263-9.012-2.629-5.313-4.702-10.9-7.044-16.725l-2.003-6.012-3.962-9.015c-.492-1.774-.88-3.211-1.481-4.554l-9.518-21.063 7.716.982c6.342 13.127 12.439 26.209 18.234 39.425 3.277 7.474 6.056 15.167 9.115 23.156z" class="F"/><path fill="#61b756" d="M215.329 445.007c-.349-13.163 1.26-14.531 14.745-13.073 2.128.23 4.331.27 6.44-.025 1.198-.168 2.275-1.195 3.407-1.835-.855-1.366-1.487-2.973-2.628-4.031-1.125-1.044-2.765-1.534-3.806-2.657 8.401.632 16.429 1.653 24.457 2.675 0 0 .052-.053.091.212.214.577.479.76.833.813 0 0 .085-.025.114.229.181.526.401.721.689.839 2.41 3.712 4.82 7.425 7.239 11.84-.986 2.84-1.98 4.977-2.975 7.115-3.029-.727-6.057-1.455-9.564-2.544-1.774-.431-3.068-.5-4.363-.57-3.042-.302-6.085-.604-9.566-1.177-.441-.451-.443-.63-.076-.973 2.323-.394 4.392-.298 6.197-.943 1.92-.686 3.589-2.075 5.368-3.157-1.832-1.251-3.598-3.447-5.508-3.581-6.442-.45-12.935-.185-19.408-.159-7.526.03-8.987 1.924-7.31 8.968-1.15.641-1.949 1.258-2.748 1.875l-1.627.162z"/><path d="M305.604 483.141c4.103.311 3.597 3.137 3.243 5.55-2.127 14.48-9.088 26.076-20.783 34.941-3.688 2.795-6.763 6.397-10.444 9.202-5.734 4.369-11.808 7.874-19.142 9.544-3.86.879-6.977 4.713-11.762 3.443-2.207-.586-4.573-.569-7.314-.829 6.287-2.315 13.215-4.183 19.717-7.026 15.785-6.901 28.237-17.947 36.778-32.864 3.902-6.815 6.289-14.498 9.707-21.962z" class="B"/><path d="M468.977 685.059c-.601-.324-1.202-.649-2.486-.976-5.647-1.434-8.906-5.254-8.407-9.953.554-5.216 1.41-10.448 2.753-15.509.55-2.073 2.721-3.715 4.154-5.554 2.042 1.638 4.195 3.16 6.078 4.964.905.867 1.419 2.22 1.907 3.434l8.229 20.755-12.228 2.839zm92.187 3.306s-.063-.28.211-.765c-.287-1.186-.849-1.887-1.411-2.588-1.757 1.266-3.514 2.532-5.759 3.61-2.98-5.668-6.023-10.933-2.56-17.311 2.114-3.893 2.909-8.546 5.254-12.252 1.265-1.999 4.446-3.108 6.983-3.759.652-.167 2.811 2.803 3.118 4.537.996 5.617 1.03 11.423 2.269 16.97.818 3.661-.284 5.978-2.568 8.366-.742.776-1.143 1.879-2.183 2.836-1.44.12-2.397.238-3.353.355z" class="M"/><path d="M469.081 685.39c3.49-1.165 7.085-2 12.125-3.17l-8.229-20.755c-.489-1.214-1.002-2.566-1.907-3.434-1.883-1.804-4.036-3.326-6.078-4.964-1.433 1.838-3.604 3.481-4.154 5.554-1.343 5.061-2.199 10.293-2.753 15.509-.499 4.699 2.76 8.519 8.14 9.988-.204 2.086-.825 4.135-2.12 5.898-3.116-1.666-6.303-2.507-7.797-4.573-1.601-2.214-1.609-5.581-2.312-8.444.003-1.713.006-3.427.285-5.77.646-1.36 1.36-2.103 1.332-2.817-.312-7.914 2.548-14.853 6.688-21.31.577-.899 2.646-1.114 4.034-1.138 1.213-.021 2.439.671 3.659 1.049.171.553.343 1.105.759 1.824l9.763 21.229c.6 1.343.989 2.78 1.488 4.954 1.753 3.314-.912 7.985 3.992 8.985.644 1.763 1.287 3.526 1.664 5.798-1.055 1.651-1.843 2.792-2.812 4.196l-7.622-5.855-5.038 2.861-3.106-5.616z" class="L"/><path d="M290.985 410.985c.892-.285 1.919-1.008 2.652-.78 3.725 1.157 7.409 2.472 11.04 3.902 3.748 1.476 5.155-.895 6.245-3.656 2.336-5.914.902-11.107-3.49-15.479l-23.27-22.976c-1.937-1.974-5.75-3.202-3.921-7.651.49-.359.672-.37.855-.381 0 0 .468.055.816.327.571.497.84.625 1.156.655 0 0-.073.042-.008.37 1.047.761 2.029 1.193 3.011 1.625 0 0-.071.055-.01.374 1.036.757 2.012 1.195 2.988 1.632 0 0-.044.054.075.26a5.44 5.44 0 0 0 .962.748c0 0-.078.033-.034.366 1.376 1.104 2.708 1.874 4.04 2.645.35.013.619.166.901 1.057 1.411 1.368 2.728 2.14 4.046 2.912 0 0-.019.048-.016.403.892 1.855 1.588 3.521 2.707 4.823 3.535 4.115 7.135 8.184 10.896 12.092 2.307 2.396 4.954 4.464 7.449 6.68 0 0-.049.073.053.267a5.6 5.6 0 0 0 .906.763s-.032.035.044.228c.207.46.404.661.67.795 2.621 3.235 1.034 5.728-1.793 7.369-5.239 3.04-10.783 5.551-16.037 8.567-4.223 2.424-7.258 1.333-9.821-2.395-.65-.945-1.335-1.867-2.153-3.365-.332-.855-.589-1.042-.921-1.128 0 0-.032-.01-.027-.277l-.011-.771z" class="U"/><path d="M398.999 492.002c1.362 3.27 3.037 6.446 4.028 9.823 2.491 8.49 4.678 17.069 6.969 25.617.127.474.004 1.021.156 1.482l8.166 24.783c.439 1.352.532 2.813.846 4.209l1.78 7.501c.762 2.91 1.615 5.796 2.769 9.907 3.802 0 8.719 0 13.95.266-4.676.303-9.668.304-14.658.391-3.181.056-5.205-1.218-6.028-4.429l-16.013-62.129-3.921-14.492c.637-1.474 1.296-2.202 1.955-2.929z" class="B"/><path d="M565.001 688.006c.557-.954.957-2.057 1.7-2.833 2.284-2.389 3.386-4.706 2.568-8.366-1.239-5.547-1.273-11.354-2.269-16.97-.308-1.734-2.467-4.704-3.118-4.537-2.537.651-5.718 1.76-6.983 3.759-2.345 3.706-3.14 8.359-5.254 12.252-3.463 6.378-.42 11.643 2.237 17.458a12.38 12.38 0 0 1-1.459 4.09c-3.98-1.013-9.001-9.535-7.838-12.982 2.286-6.772 4.743-13.487 7.616-20.604.922-1.345 1.357-2.312 1.792-3.278 0 0 .003-.497.361-.784 1.795-2.315 3.693-4.165 4.555-6.413 1.161-3.03 2.82-3.449 5.243-1.993 2.05 1.231 3.906 2.785 5.847 4.195l.005 4.005c1.001 4.541 2.004 8.269 3.007 11.997.331 3.713.661 7.426.714 11.801l-3.757 11.622-4.967-2.419z" class="L"/><path d="M62.965 316.467c1.008-.24 2.372-.391 3.042.22 5.155 4.693 7.964 4.234 9.941-2.236 2.103-6.882 4.824-13.666 1.409-21.18-1.918-4.22-3.747-6.335-8.441-4.175-1.926.886-4.08 1.277-6.522 1.9 3.089-2.863 6.226-6.417 10.156-8.395 3.293-1.657 5.844 1.165 6.93 4.482 2.077 6.342 2.497 12.767 1.581 19.452-1.971 14.377-3.52 28.811-5.271 43.219-.03.245-.418.446-1.231 1.261-2.218-4.138-2.582-8.351-2.531-12.606.063-5.251-1.498-9.775-5.49-13.277-.687-.603-1.766-.758-3.023-1.124-.411-2.369-.463-4.733-.549-7.54zm90.79 358.027l5.705-2.236c1.614-.64 3.187-1.632 4.839-1.778.472-.042 1.382 2.271 1.705 3.599 2.211 9.081 3.002 18.247.944 27.463-.351 1.574-1.423 2.987-2.201 4.553-9.93-6.411-12.304-12.909-9.717-23.315.55-2.212-.736-4.879-1.268-7.796-.092-.459-.019-.455-.007-.49z" class="G"/><path d="M583.997 482.987c4.823.001 9.65.133 14.468-.028 6.443-.216 14.691-11.364 12.672-16.939-1.04-2.872-9.012-7.057-12.021-7.33-7.005-.635-13.955-1.869-21.008-3.253 10.706-.411 21.494-.339 32.28-.495 3.995-.058 5.748 1.452 5.646 5.52-.158 6.303-.207 12.617.001 18.917.138 4.182-1.703 5.536-5.647 5.481-9.292-.128-18.587-.05-27.881.025-1.594.013-3.185.423-5.167.633-.389-.017-.438-.484-.328-.865 2.401-.81 4.693-1.238 6.985-1.667z" class="B"/><path d="M245.466 206.907c-.524-2.635-.241-5.267-.737-7.743-.732-3.651-2.003-7.195-3.082-10.773-.307-1.019-.746-1.999-.875-3.199 5.227-.198 10.207-.127 15.185-.212 3.552-.061 5.105 1.563 5.027 5.081-.092 4.147.413 8.368-.236 12.413-.272 1.698-2.65 3.964-4.408 4.324-3.343.686-6.929.187-10.873.108z" class="R"/><path d="M302.373 546.959a558.4 558.4 0 0 1 9.829-21.59c1.754-3.643 3.752-7.172 5.718-10.709 3.068-5.52 6.355-10.924 9.243-16.535 1.405-2.729 1.883-5.929 3.227-8.699.807-1.663 2.476-2.908 4.098-4.39-2.277 8.931-4.296 18.141-7.648 26.837-5.199 13.488-14.298 24.545-24.468 35.085z" class="C"/><path fill="#b0cf5e" d="M257.917 425.711c-8.002-.673-16.031-1.695-24.5-2.68-2.178-.31-3.915-.657-6.262-1.043-.61-.04-1.071-.125-1.071-.125-1.523-.76-3.046-1.521-4.783-2.512 5.316.899 8.238-1.578 9.223-6.924.296-1.609.889-3.17 1.415-4.73 1.093-3.244 3.282-4.437 5.907-1.972 6.817 6.402 13.38 13.074 20.07 19.987z"/><path d="M262.864 354.611c-5.653-.741-11.455-2.502-17.319-2.745-10.212-.424-21.115-2.034-30.503.846-8.222 2.523-16.707 5.111-24.874 8.228-4.254 1.623-8.637 3.038-12.64 5.154-4.154 2.195-7.849 5.242-11.884 7.686-2.175 1.317-4.641 2.153-7.373 3.193 10.893-11.952 24.835-19.619 40.478-23.795 8.627-2.303 17.701-3.23 26.641-3.993 12.735-1.087 25.169 1.157 37.474 5.426z" class="B"/><path d="M210.531 185.073c-.183 2.18-.197 4.948-1.587 6.283-4.993 4.792-2.981 9.691-.999 15.121-3.441.42-7.026.976-10.373.317-1.741-.343-4.111-2.672-4.364-4.376-.629-4.228-.631-8.677.007-12.902.255-1.689 2.696-4.045 4.421-4.316 4.055-.636 8.278-.199 12.895-.126z" class="N"/><path d="M472.207 691.342c1.624-1.271 3.269-2.205 5.018-3.199l7.622 5.855 2.846-3.843c2.609 5.316 4.682 10.904 7.311 16.217 1.609 3.252 3.99 6.146 6.263 9.012.247.312 2.079-.633 3.451-1.19 2.919 4.735.38 6.252-5.421 6.141l2.723 12.679c.421 1.869.99 3.705 1.241 5.771-3.199-7.089-5.991-14.461-9.142-21.676-2.579-5.904-5.347-11.755-8.508-17.361-1.479-2.621-4.086-4.606-6.234-6.936-1.172.971-2.485 2.059-4.143 3.186-1.232-1.413-2.119-2.865-3.025-4.655z" class="G"/><path d="M174.971 523.999c-2.478-.344-5.728.196-7.304-1.181-7.63-6.663-13.707-14.788-17.408-24.186-1.841-4.674-1.792-10.155-2.158-15.302-.092-1.295 1.51-2.711 2.651-4.254 1.687 4.173 3.012 8.543 4.436 12.881 3.646 11.109 9.695 20.767 17.949 29.802.737.813 1.292 1.012 1.846 1.212 0 0 .025.009.013.269l-.024.759z" class="B"/><path d="M621.889 550.589c-1.353.625-2.729.606-3.892 1.093-4.559 1.909-5.976 1.465-8.627-3.128-7.976 3.564-16.252 4.086-24.744 2.178-2.59-.582-4.2-1.808-3.626-5.158 11.699-.782 23.404-1.067 35.098-1.583 4.617-.204 6.38 1.782 5.792 6.598z" class="O"/><path d="M641.189 538.993l.848 26.268c.101 2.462.548 4.918.97 7.354.129.745.746 2.045 1.066 2.023 5.496-.378 11.284-.078 16.307-1.879 1.816-.651 2.377-6.406 2.499-9.868.328-9.316.11-18.651.097-28.45l.037-70.025c.495 2.897 1.401 6.243 1.427 9.596l.324 82.323c.004 5.111-.188 10.26-.876 15.312-.217 1.594-2.25 4.066-3.616 4.18-5.615.469-11.295.269-16.944.08-.8-.027-1.556-1.349-2.374-2.943l.235-33.972zm-203.296 11.596c-2.916-1.736-5.525-3.959-4.962-8.127.118-.875-.398-1.911-.824-2.773-5.082-10.306-7.451-21.27-9.486-32.554-1.098-6.09-1.843-12.177-2.604-18.729l10.889 35.072c2.569 8.84 4.716 17.802 6.986 27.111zm203.238-160.11c.676 3.633 1.725 7.721 1.787 11.823l.041 42.483c-.122 10.537-.802 21.069-.88 31.605-.047 6.373.85 12.752.833 19.127-.019 7.289-.631 14.575-.891 21.866l-.586 16.273-.406-71.44.102-71.737z" class="C"/><path d="M255.136 384.404c15.159-2.852 32.063 8.964 32.852 23.187-7.235-8.805-17.599-14.07-26.806-20.774-1.609-1.171-3.891-1.418-6.046-2.413zm238.458 71.684c-4.894 1.38-8.377-1.145-8.389-8.292-.017-10.294-2.029-20.631.551-30.945 1.225-4.894 1.464-10.035 2.522-15.46.807-.418 1.242-.44 1.686-.449.009.013.021.041.021.041-.348 1.736-.988 3.469-.997 5.207l-.124 43.904c-.047 3.45 1.099 5.258 4.73 5.995z" class="B"/><path d="M575.971 451.031c-1.247-1.607-3.26-3.062-3.617-4.847-2.262-11.33-1.704-22.654 1.089-33.851.208-.835 1.187-1.477 2.254-2.071.592.406.804.6 1.084.719.048.458.095.917-.159 1.98-.144 2.407.014 4.209.171 6.01.044 3.388.089 6.776-.192 10.943-.427 7.559-.529 14.337-.63 21.115z" class="E"/><path d="M576.902 485.035l.068.7.14 53.042c.021 1.861 1.644 3.703 2.738 5.882-.245.339-.703.349-1.825.317-1.12-.685-1.577-1.327-2.031-2.379-.924-3.846-2.691-7.297-2.631-10.716.259-14.964 1.048-29.92 1.889-45.045.418-.719.591-1.271.987-1.821a38.85 38.85 0 0 1 .666.019z" class="C"/><path d="M576.867 410.551c-.366.312-.578.118-.804-.353-.074-2.57-.067-4.936.244-7.975 3.1-1.2 5.896-1.726 8.692-2.251l27.579-1.003c3.549-.151 5.744-1.388 5.514-5.735-.358-6.785-.081-13.604-.057-20.885l.71 26.403c-.001.857-2.596 2.438-3.998 2.451-11.133.104-22.271-.225-33.401-.032-1.467.025-3.431 1.987-4.189 3.531-.728 1.482-.187 3.586-.29 5.849zm-83.464-9.367c7.848-.874 16.026-1.883 24.221-2.054 5.706-.119 9.201-3.017 10.927-7.646 2.334-6.261 3.026-12.822-1.098-19.139 1.133-.39 1.912-.4 2.691-.409l.462 26.115c-.011.981-2.528 2.725-3.929 2.773-10.973.379-21.957.43-33.275.359z" class="D"/><path d="M256.341 503.9c-1.925-3.971-3.522-8.056-5.275-12.538 1.293-.159 3.29-.404 5.576-.881 3.02-.586 5.743-1.057 8.485-1.233.937-.06 2.484.382 2.75 1.016.392.935.329 2.684-.307 3.325-3.505 3.527-7.244 6.823-11.23 10.311z" class="J"/><path d="M335.426 481.819c-1.038-2.419-2.094-5.03-2.347-7.716-.703-7.445-5.293-10.178-12.332-7.72-4.105 1.434-8.59 1.78-13.341 2.616 7.85-2.983 16.084-6.121 24.446-8.873 3.377-1.111 5.309.802 5.123 4.325a232.83 232.83 0 0 1-1.549 17.368z" class="C"/><path fill="#008e55" d="M286.348 481.812c-5.045-2.64-5.336-4.054-1.627-7.374 3.953-.97 7.683-1.695 12.207-2.429 2.165.991 3.536 1.991 4.907 2.992l-2.734 3.673-12.752 3.138z"/><path d="M678.05 399.53c-5.893-2.227-4.733-8.015-6.041-12.805-.819-2.997-2.09-6.21-4.122-8.453-2.714-2.997-4.737-7.756-10.561-6.849 16.631-.421 12.852-2.681 16.69 12.205l4.034 15.903z" class="K"/><path d="M203.671 420.357c.327 2.146.505 4.465.245 6.733-.883 7.713 2.128 13.636 8.149 18.654-4.691 1.538-9.475 2.735-14.637 4.005-7.155-.028-13.931-.13-21.058-.432 7.574-.579 15.51-.794 23.416-1.401 4.507-.346 6.138-3.183 4.402-7.064-2.995-6.694-2.681-13.475-.518-20.496z" class="I"/><path d="M465.963 437.52l-.57 18.155-1.106-77.591c-.017-1.936.62-3.878 1.311-5.583.363 1.994.367 3.754.372 5.515l-.286 6.826c-.092 5.57.081 10.386.253 15.203l-.75 6.089.752 18.918.024 12.469z" class="H"/><path d="M564.518 688.009c2.104.786 3.724 1.576 5.45 2.416 1.333-4.201 2.406-7.581 3.758-11.193.871 3.027 1.991 6.305 1.879 9.541-.082 2.378-1.777 4.701-2.753 7.048l-.875-1.166-9.425 2.341c-.44-.414-.505-.836-.531-1.937-.258-2.141-.555-3.605-.851-5.068-.048-.411-.097-.821-.075-1.429 1.026-.315 1.983-.433 3.423-.553z" class="G"/><path d="M451.154 643.216c.879 1.308 2.45 3.093 2.239 4.635-.572 4.181-2.007 8.236-2.903 12.383l-3.479 17.161c-.283 1.26-1.39 2.335-2.48 3.552 1.042-7.518 2.457-15.091 3.85-22.668l2.773-15.061z" class="F"/><path d="M428.39 472.971c.392-2.325.803-4.924 1.868-7.218 2.203-4.743 4.87-9.269 7.093-14.004.654-1.393.228-3.257.7-4.781.825-2.662 1.961-5.228 3.319-7.901-1.544 12.151-3.818 24.224-12.98 33.903z" class="E"/><path d="M320.777 614.626c-.809 1.016-1.839 2.234-2.894 2.257-7.997.17-16 .162-23.999.055-1.18-.016-2.35-.841-3.715-1.644 6.902-.912 13.988-1.64 21.092-1.951 3.075-.134 6.189.595 9.517 1.283z" class="M"/><path d="M151.072 476.686c-3.11-1.701-3.97-4.07-3.358-8.008 1.305-8.393 1.407-16.966 2.408-25.417.257-2.171 2.022-4.164 3.489-6.241-3.049 10.931-3.546 22.118-2.552 33.447.17 1.944.097 3.909.013 6.219z" class="B"/><path d="M453.605 677.087c1.093 2.776 1.101 6.143 2.702 8.357 1.494 2.066 4.681 2.907 7.422 4.812.285 1.404.272 2.283-.175 3.452-1.141.291-1.847.292-2.554.293-7.568-.517-11.51-9.037-7.394-16.913z" class="F"/><path d="M529.965 371.564c-.599.382-1.378.391-2.545.411l-48.94-.946-7.445-.043-4.193-.056c1.352-.322 2.703-.919 4.056-.923l54.323.048c1.523.008 3.043.741 4.745 1.51z" class="H"/><path d="M464.163 614.783c.027.624-.001 1.028-.217 1.218-2.661 2.342-5.349 4.654-8.407 6.987a87.86 87.86 0 0 1 2.497-11.592c.352-1.224 1.411-2.245 2.147-3.358.949 1.075 2.046 2.057 2.798 3.256.574.914.71 2.103 1.182 3.49z" class="F"/><path d="M320.031 400.582c-2.452-1.864-5.1-3.932-7.406-6.329-3.761-3.908-7.361-7.977-10.896-12.092-1.119-1.302-1.814-2.968-2.684-4.834 6.994 7.39 13.969 15.147 20.986 23.255z" class="B"/><path d="M436.91 397.618c-1.816-1.961-3.519-4.343-5.345-6.628l-12.473-15.737c8.981 3.317 13.135 11.142 16.879 19.31.396.863.667 1.784.939 3.054z" class="E"/><path d="M264.199 447.294c.729-2.326 1.724-4.463 2.769-6.953 1.917 4.803 3.785 9.958 5.584 15.492-2.741-2.531-5.414-5.441-8.353-8.539z" class="I"/><path d="M573.3 666.883c-1.291-3.609-2.294-7.336-3.293-11.478 1.781 1.699 3.558 3.812 5.336 5.925l-.907 1.181 4.037-.507c.429.735.49 1.479.568 2.598-.781 4.108-3.722 1.282-5.741 2.281z" class="G"/><path d="M729.602 221.413c-2.128.589-4.394.845-6.7 1.105l-6.695-8.349c4.304 2.102 8.781 4.506 13.395 7.244z" class="Q"/><path d="M299.515 478.742c.496-1.291 1.407-2.516 2.319-3.74l-4.486-3.016c1.073-.639 2.518-1.264 4.577-1.6 1.767.394 2.92.499 4.073.605l-.938 7.569c-1.743.345-3.436.297-5.545.182z" class="J"/><path d="M81.388 772.901c-.062-2.647.075-5.266.728-7.75.167-.634 1.97-.838 3.37-1.196.181 3.572 2.41 8.183-4.098 8.946z" class="N"/><path d="M156.644 378.017c-1.768 3.542-3.851 7.226-6.536 10.635l-2.013-1.001 8.549-9.634z" class="B"/><path d="M641.131 538.594l-.257 33.965c-.323-1.253-.854-2.971-.852-4.689.013-10.774.144-21.547.546-32.601.375.788.44 1.857.563 3.326z" class="I"/><path d="M62.211 767.382c1.409-.836 2.729-1.286 4.428-1.865L68 772.443c-4.035 1.114-6.114-.437-5.789-5.061z" class="N"/><path d="M527.794 459.612c-2.941-1-5.798-2.385-8.721-4.103 3.439-.181 8.041-2.434 8.721 4.103zm-61.173-88.608l3.977-.012c-1.027 2.321-2.472 4.632-4.273 6.983-.36-1.72-.365-3.48-.382-5.68.02-.774.176-1.033.677-1.291z" class="E"/><path d="M85.913 747.546c-4.153-3.254-3.12-7.276-.449-11.463.41 3.612.468 7.31.449 11.463z" class="N"/><path d="M690.299 231.301c4.532-.668 8.542.266 10.628 5.439-3.489-1.477-6.992-3.314-10.628-5.439z" class="D"/><path d="M575.978 451.402l.547-21.029c.319 5.948.336 12.221.493 18.49.044 1.77.497 3.53.843 5.704-.572-.658-1.224-1.726-1.883-3.165z" class="B"/><path fill="#078b4c" d="M398.962 491.644c-.623 1.085-1.282 1.812-1.954 2.88-1.581-1.408-3.149-3.156-4.889-5.2 2.165.425 5.854-3.031 6.843 2.32z"/><path d="M644.581 371.065c-.682 4.145-1.778 8.215-3.118 12.593-.299-2.941-.635-6.223-.266-9.423.136-1.18 1.931-2.169 3.384-3.17z" class="C"/><path d="M146.31 395.845c-1.398-.185-2.487-.521-3.939-.873.401-.945 1.165-1.876 2.576-2.902l4.046-1.067-2.683 4.841z" class="B"/><path d="M464.695 548.262c.322 5.422.346 11.142.329 17.334-.236-5.364-.432-11.2-.329-17.334zm.361-61.809c.248 4.991.412 10.443.325 16.222-.304-5.036-.357-10.398-.325-16.222z" class="H"/><path d="M244.734 490.162c-.176.986-.695 2.65-1.128 2.629-1.379-.07-2.727-.768-4.165-2.266l3.979-.508c.588.017.799.035 1.315.145z" class="J"/><path d="M271.934 358.645c-2.826-.776-5.817-1.875-8.846-3.334 2.868.764 5.775 1.887 8.846 3.334z" class="B"/><path d="M419.805 486.713c-.801-.242-1.552-.817-2.551-1.555.809-1.495 1.866-2.827 3.295-4.155.016 1.795-.339 3.586-.744 5.709z" class="C"/><path d="M704.043 239.379c1.869.755 3.874 1.826 5.907 3.261-1.906-.739-3.838-1.842-5.907-3.261z" class="D"/><path d="M462.872 702.585c-4.215-.157-1.797-2.935-1.533-5.229.801-.352 1.256-.347 1.711-.341l-.178 5.57z" class="F"/><path d="M149.102 390.744c-1.242.583-2.376.906-3.869 1.216.542-1.34 1.445-2.667 2.605-4.152.728.084 1.198.326 1.917.88-.016.807-.28 1.302-.653 2.056z" class="C"/><path d="M716.171 247.33c2.136.809 4.423 1.926 6.742 3.399-2.176-.793-4.383-1.942-6.742-3.399z" class="D"/><path d="M441.382 575.916c.281-2.13.952-4.197 1.638-6.638 1.209 2.273 2.477 4.934-1.638 6.638z" class="B"/><path d="M278.372 564.009c1.767-1.281 3.887-2.609 6.372-3.957-1.762 1.29-3.891 2.6-6.372 3.957z" class="C"/><path d="M176.383 400.986c1.156-1.523 2.638-3.125 4.452-4.833-1.154 1.514-2.64 3.134-4.452 4.833z" class="D"/><path d="M414.861 372.597c-2.547.06-5.3-.218-8.454-.548-.402-.053-.404-.453-.408-.654 2.883.155 5.77.51 8.861 1.202z" class="E"/><path d="M154.312 436.784c.135-2.063.572-4.343 1.401-6.674-.105 2.118-.602 4.288-1.401 6.674z" class="C"/><path d="M238.86 114.687c-1.248-.201-2.408-.728-3.737-1.529 1.931-2.331 1.943-2.326 3.737 1.529zm224.495 582.171c-.76.151-1.215.146-2.011.139-.342-.75-.343-1.499-.344-2.622.706-.376 1.413-.377 2.473-.381.298.901.243 1.804-.118 2.864z" class="L"/><path d="M561.09 690.379c.376 1.076.673 2.539.921 4.357-.366-1.087-.683-2.528-.921-4.357z" class="M"/><path d="M185.031 531.662c-1.204-.477-2.553-1.259-3.928-2.409 1.244.456 2.513 1.28 3.928 2.409z" class="H"/><path d="M293.961 372.661c-1.201-.466-2.533-1.236-3.885-2.374 1.238.445 2.496 1.257 3.885 2.374zm4.953 3.97c-1.194-.467-2.511-1.239-3.851-2.377 1.228.446 2.477 1.259 3.851 2.377z" class="B"/><path d="M452.653 637.177c.271 1.104.223 2.396-.155 3.756-.275-1.144-.219-2.357.155-3.756z" class="F"/><path d="M277.314 464.006c-.928-1.046-1.775-2.416-2.612-4.095.904 1.05 1.799 2.411 2.612 4.095z" class="I"/><path d="M287.329 558.903c.784-.903 1.882-1.9 3.376-2.887-.756.937-1.91 1.866-3.376 2.887z" class="C"/><path d="M465.043 567.401c.349 1.69.616 3.801.883 6.337l-.883-6.337z" class="H"/><path d="M306 470.692c-1.156.193-2.309.087-3.724-.247.84-.608 1.941-.987 3.397-1.305.346.458.338.856.327 1.552z" class="C"/><path d="M439.094 704.369c.289.593.497 1.556.388 2.576-.367-.697-.419-1.451-.388-2.576z" class="F"/><path d="M277.91 361.641c-1.157-.12-2.464-.547-3.814-1.342 1.193.1 2.429.568 3.814 1.342z" class="B"/><path d="M441.588 693.111c.284.829.248 1.802-.104 2.834-.283-.858-.249-1.773.104-2.834z" class="F"/><path d="M178.944 526.655c-.908-.442-1.926-1.175-2.93-2.279.949.415 1.885 1.202 2.93 2.279z" class="H"/><path d="M158.346 425.9c.127-1.152.555-2.459 1.351-3.814-.105 1.188-.578 2.423-1.351 3.814z" class="C"/><path d="M576.879 418.555c-.243-1.384-.401-3.186-.325-5.252.292 1.435.351 3.135.325 5.252z" class="D"/><path d="M156.374 429.944c.112-1.166.529-2.487 1.316-3.855-.09 1.202-.551 2.452-1.316 3.855zm5.959-11.949c.145-.865.588-1.869 1.392-2.908-.124.9-.609 1.835-1.392 2.908z" class="C"/><path d="M712.053 244.318c.856.143 1.843.581 2.87 1.374-.886-.123-1.812-.601-2.87-1.374z" class="D"/><path d="M443.096 685.24c.887-.279 1.703-.305 2.518-.33-.607.36-1.215.72-2.135 1.086-.36-.164-.408-.333-.383-.756z" class="F"/><path d="M426.336 475.897c.157-.846.61-1.812 1.42-2.803-.137.878-.63 1.78-1.42 2.803z" class="E"/><path d="M440.653 698.084c.247.835.177 1.828-.19 2.87-.24-.872-.183-1.791.19-2.87z" class="F"/><path d="M465.055 477.402c.236 1.089.388 2.589.313 4.345-.284-1.141-.34-2.537-.313-4.345z" class="H"/><path d="M285.949 366.641c-.86-.133-1.842-.565-2.856-1.353.89.114 1.812.584 2.856 1.353zm2.977 2.007c-.854-.139-1.829-.576-2.838-1.369.883.12 1.8.595 2.838 1.369z" class="B"/><path d="M701.027 237.368c.866.133 1.855.572 2.879 1.37-.896-.115-1.826-.59-2.879-1.37z" class="D"/><path d="M274.489 458.895c-.643-.389-1.215-1.079-1.784-2.058.621.393 1.237 1.075 1.784 2.058z" class="I"/><path d="M559.986 685.336c.54.376 1.102 1.077 1.443 2.13-.621-.367-1.021-1.086-1.443-2.13z" class="G"/><path d="M442.905 567.644c-.346-.456-.622-1.255-.888-2.389.326.459.642 1.252.888 2.389z" class="B"/><path d="M279.933 469.786c-.446-.426-.826-1.189-1.186-2.283.431.429.841 1.187 1.186 2.283z" class="I"/><path fill="#078f4f" d="M662.906 461.613c-.221-.488-.368-1.341-.299-2.386.268.545.32 1.283.299 2.386z"/><path d="M667.113 444.345c.278.153.56.586.856 1.291-.275-.155-.563-.583-.856-1.291z" class="J"/><path d="M441.894 563.68c-.33-.189-.594-.687-.859-1.481.308.194.616.683.859 1.481z" class="B"/><path d="M439.864 556.683c-.324-.185-.581-.675-.842-1.455.3.19.604.67.842 1.455zm-.976-3.006c-.331-.189-.592-.689-.855-1.485.307.194.616.684.855 1.485z" class="C"/><path d="M279.91 362.677c-.447.116-1.013-.052-1.73-.485.436-.11 1.023.046 1.73.485z" class="B"/><path d="M437.911 400.684c-.33-.19-.602-.693-.876-1.497.31.194.622.689.876 1.497zm-20.907-27.034c-.457.131-1.055-.026-1.812-.46.451-.127 1.061.022 1.812.46z" class="E"/><path d="M174.869 522.69c-.442.082-.996-.118-1.679-.596.436-.081 1.002.117 1.679.596zm14.962 12.056c-.509.096-1.025-.125-1.66-.609.472-.078 1.063.107 1.66.609z" class="H"/><path d="M724.076 252.343c.448-.116 1.018.053 1.738.491-.439.111-1.028-.048-1.738-.491zm-9.049-6.065c.266-.188.54-.02.847.482-.19.071-.48-.083-.847-.482zm10.974 7.027c.105-.27.283-.286.73-.307.269.169.269.343.255.778-.313.102-.612-.057-.985-.471z" class="D"/><path d="M291.079 412.28c.275-.161.532.027.804.543-.19.052-.468-.122-.804-.543z" class="B"/><path d="M164.292 415c-.209-.232-.075-.511.346-.877.097.173-.001.48-.346.877z" class="C"/><path d="M722.987 251.298c.206-.075.489.104.87.52-.199.069-.496-.098-.87-.52z" class="D"/><path d="M161.268 420.014c-.195-.212-.064-.495.347-.878.09.161-.01.463-.347.878z" class="C"/><path d="M320.978 401.705c-.213.067-.481-.122-.839-.548.202-.06.493.115.839.548z" class="B"/><path d="M169.318 408.036c-.07-.202.112-.495.539-.888.068.199-.109.498-.539.888zm5.973-6.058c-.066-.206.119-.481.543-.846.062.199-.114.488-.543.846zm-1.009.988c-.065-.197.115-.472.53-.838.062.193-.112.477-.53.838z" class="D"/><path d="M321.782 402.745c-.3.106-.498-.094-.685-.568.287-.151.546.027.685.568z" class="B"/><path d="M173.291 403.988c-.07-.2.107-.479.519-.855.066.194-.102.484-.519.855zm-.991 1.015c-.071-.205.11-.487.53-.866.067.199-.105.493-.53.866z" class="D"/><path d="M678.924 400.681c-.296.169-.546-.022-.794-.549.198-.053.478.123.794.549z" class="K"/><path d="M171.302 406.01c-.07-.206.114-.489.539-.868.066.2-.109.495-.539.868zm-.998 1.008c-.069-.203.115-.49.541-.875.066.199-.112.495-.541.875z" class="D"/><path d="M520.998 710.723c.002.276-.424.278-.637.274-.117-.316-.021-.629.336-1.021.274.103.286.287.301.747z" class="G"/><path d="M165.293 413.046c-.064-.194.124-.493.559-.903.062.192-.122.495-.559.903z" class="C"/><path d="M562.214 699.265c.335-.108.535.103.709.6-.223.026-.497-.163-.709-.6z" class="G"/><path d="M168.314 409.071c-.068-.202.121-.503.562-.909.067.2-.12.504-.562.909zM710.07 243.262c.231-.208.487-.083.818.317.121.181-.373.254-.373.254s-.373-.332-.444-.571z" class="D"/><path d="M288.061 408.277c.204-.059.468.136.826.563-.192.052-.479-.128-.826-.562z" class="B"/><path d="M167.284 410.98c-.203-.229-.07-.501.346-.859.093.17-.004.471-.346.859z" class="C"/><path d="M289.165 410.258c.32-.124.528.075.74.549-.217.041-.502-.127-.74-.549z" class="B"/><path d="M166.291 412.013c-.069-.201.115-.488.539-.877.065.195-.11.494-.539.877z" class="C"/><path d="M290.734 410.991c.256.162.261.33.259.749-.29.088-.572-.075-.933-.479.088-.248.256-.256.674-.27z" class="B"/><path d="M305.466 480.319c.228-.084.36.049.481.368-.215.135-.404.022-.481-.368z" class="J"/><path d="M296.229 552.746c-.099-.265.09-.457.527-.661.163.269 0 .518-.527.661z" class="C"/><path d="M424.251 477.845c-.123-.31.081-.523.569-.736.037.209-.139.486-.569.736z" class="E"/><path d="M297.263 551.903c-.155-.264.025-.514.517-.787.194.268.03.543-.517.787zm1.007-.971c-.158-.267.029-.528.546-.81.051.186-.125.465-.546.81zm1.015-.956c-.062-.207.132-.479.564-.847.056.197-.125.489-.564.847zm1.008-.968c-.066-.206.127-.49.562-.872.061.199-.122.497-.562.872zm1.002-.994c-.065-.204.126-.49.561-.877.061.197-.122.496-.561.877z" class="C"/><path d="M422.297 479.03c-.268-.096-.28-.283-.295-.752.186-.279.375-.276.849-.252.09.318-.103.615-.554 1.004z" class="E"/><path d="M294.284 553.971c-.056-.202.143-.477.583-.848.052.194-.138.484-.583.848zm126.943-73.134c-.153-.2-.026-.423.333-.717.27.219.175.474-.333.717z" class="C"/><path d="M419.005 374.684c-.248.226-.531.094-.895-.341.185-.106.499-.012.895.341z" class="E"/><path d="M249.289 507.506c-.044-.191.102-.31.395-.471.123.197.006.392-.395.471z" class="T"/><path d="M188.034 533.68c-.212.085-.508-.087-.901-.504.207-.081.512.083.901.504zm-1.062-.983c-.253.257-.547.132-.928-.32.184-.113.51-.026.928.32zm-11.743-8.686c-.259-.011-.246-.51-.229-.758.309-.092.601.064.948.474-.117.267-.289.282-.719.285zm5.806 4.669c-.212.082-.509-.092-.899-.515.21-.079.512.09.899.515zm-1.02-.988c-.221.085-.509-.091-.888-.511.213-.079.517.085.888.511z" class="H"/><path d="M281.009 363.713c-.095.262-.277.273-.734.288-.274-.169-.274-.343-.261-.776.311-.094.609.072.995.488z" class="B"/><path d="M160.269 421.974c-.19-.214-.06-.484.344-.844.087.16-.012.453-.344.844z" class="C"/><path d="M217.125 308.27c.35-.12.571.101.774.624-.24.035-.536-.161-.774-.624z" class="L"/><path d="M490.992 400.021l.006.587c-.165.244-.331.293-.755.358-.259.016-.271-.011-.158-.228.325-.467.59-.634.907-.717z" class="B"/><path d="M258.83 426.829c-.317.202-.582.019-.82-.533.219-.068.501.105.82.533zm.859 1.071c-.307.134-.527-.061-.731-.549.215-.045.482.126.731.549z" fill="#b0cf5e"/><path d="M273.985 359.706c-.231.214-.502.086-.86-.323.171-.1.473-.012.86.323z" class="B"/><path d="M666.25 443.338c.233-.148.419-.02.615.351-.224.195-.448.089-.615-.351z" class="J"/><path d="M727.04 254.276c.194-.055.472.138.843.573-.191.053-.475-.136-.843-.573z" class="D"/><path d="M282.986 364.699c-.234.215-.503.088-.853-.326.172-.099.472-.01.853.326zm7.018 5.006c-.2.07-.481-.111-.863-.526.193-.065.487.105.863.526z" class="B"/><path d="M278.243 465.952c-.357.113-.508-.054-.515-.49.385-.198.577-.037.515.49z" class="I"/><path d="M286.24 559.744c-.093-.259.103-.453.553-.659.132.252-.041.497-.553.659z" class="C"/><path d="M425.282 476.96c-.168-.262.011-.529.515-.827.059.185-.106.469-.515.827z" class="E"/><path d="M292.233 555.728c-.09-.256.102-.445.542-.646.136.253-.033.494-.542.646zm1.034-.804c-.157-.277.034-.533.551-.805.051.191-.125.471-.551.805z" class="C"/><path d="M683.885 638.987c-4.132.794-8.225 1.165-12.996 1.606-3.62-1.462-5.8-.27-6.347 2.577-1.13 5.887-1.728 11.876-2.544 17.823-.998-1.992-2.725-3.936-2.857-5.983-.386-6.01-.14-12.062-.138-18.097.002-6.545 3.824-9.744 10.341-8.67 1.614.266 3.225.654 4.85.734 7.218.353 9.114 2.181 9.69 10.01zm-14.04 32.005l.235 3.404-.222 9.569c.107 4.95 1.042 10.078-3.297 13.92-3.211 2.843-5.463 2.435-6.518-1.647-1.104-4.273-1.864-8.753-1.913-13.151-.06-5.316.743-10.647 1.317-15.957.047-.434 1.203-.747 2.237-.752 1.234 4.977 4.679 4.83 8.161 4.615z" class="L"/><path d="M661.998 661.41c.816-6.365 1.413-12.354 2.543-18.241.547-2.847 2.727-4.039 5.995-2.361.038 8.517-.252 16.889-.987 25.733-2.814.135-5.182-.203-7.55-.542l-.002-4.59z" class="R"/><path fill="#050405" d="M662.039 666.371c2.329-.033 4.698.305 7.435.636.42 1.06.47 2.128.445 3.59-3.557.61-7.001.757-7.881-4.226z"/><path fill="#fefefe" d="M344.265 652.734c16.818 15.587 21.212 34.727 16.034 55.888-5.247 21.445-19.127 35.483-40.227 42.539-15.307 5.118-29.353 2.502-43.118-5.081-33.28-18.332-43.753-67.788-7.972-97.585 19.25-16.03 56.522-16.949 75.283 4.239z"/><path d="M342.25 748.252l28.1-29.851c-.646 4.994.029 9.574-1.851 12.531-6.511 10.244-13.87 19.99-25.577 25.031-1.642.707-3.584.716-5.388 1.049l-1.062-1.504 5.778-7.256zm-82.999-7.499c3.67 3.487 7.384 6.465 10.374 10.048 1.607 1.926 1.968 4.89 3.207 8.237-16.473-4.234-34.956-27.35-32.116-38.172l18.535 19.887zm109.38-68.4c-3.492-5.561-6.304-11.206-10.197-15.966-4.863-5.945-10.637-11.142-15.959-16.717-.687-.72-1.027-1.771-1.528-2.669l1.063-1.33c4.004 2.32 8.477 4.1 11.906 7.082 5.568 4.842 10.946 10.088 15.444 15.906 2.779 3.595 4.052 8.481 5.437 12.961.543 1.757-.454 3.991-.749 6.007l-1.366.338-4.05-5.613zM61.663 291.035c-.434.944-1.209 1.92-2.324 2.929.434-.943 1.209-1.92 2.324-2.929z" class="G"/><path fill="#030202" d="M85.996 683c5.556-.666 11.121-1.962 16.666-1.876 14.373.222 28.738 1.029 43.103 1.662 2.345.103 5.94-2.553 6.235 2.635.236 4.155-1.181 6.201-5.553 7.852-17.461 6.594-34.744 4.251-52.134.325-2.344-.529-4.637-1.289-7.146-2.678-.519-3.131-.845-5.526-1.171-7.92z"/><path d="M85.798 682.725l1.184 7.86c-.343.938-.569 1.71-1.065 1.97-2.219 1.164-4.447 2.503-6.834 3.001-.521.109-2.352-2.934-2.453-4.594-.204-3.36-.129-6.906.772-10.11.704-2.505 2.856-4.304 5.454-1.142.816.994 1.824 1.831 2.942 3.015z" class="L"/><path d="M491.142 399.711c-.467.393-.731.56-1.065 1.014-.557.226-.992.248-1.754.278-5.922-1.832-7.352 4.36-10.84 6.132-.707-.638-1.133-.835-1.155-1.07-.47-4.965-1.063-9.926-1.288-14.903-.333-7.344 1.822-10.209 8.933-11.581 4.353-.84 8.813-1.191 13.243-1.551 5.594-.455 11.202-.834 16.812-.99 5.501-.153 11.208 2.781 11.764 5.724.606 3.209-5.095 9.311-10.124 10.204-4.036.717-8.205 1.016-12.306.956-5.01-.073-9.126 1.265-12.219 5.788z" class="P"/><path d="M504.209 545.386c1.856-.324 3.872-.343 6.32-.343-1.613 1.836-3.713 3.057-6.32.343zm-8.013.867c.573-.572 1.34-.891 2.44-1.178-.527.498-1.386.964-2.44 1.178z" class="K"/><path fill="#fdfcf9" d="M394.487 400.193c3.463.946 6.473 1.908 10.026 3.196 6.928 4.967 10.382 11.25 11.583 19.034 2.344 15.185-.918 28.337-13.2 38.449 0 0 .114.089-.251 0-.845.248-1.324.584-1.804.92 0 0 .175.156-.242.06-.889.291-1.361.678-1.833 1.065l-11.193-.193c-3.634-.794-4.799-2.78-4.775-6.124l.002-51.25c-.024-3.823 1.613-5.551 5.29-5.493 1.982.031 3.962.229 6.396.335z"/><path d="M220.055 442.946c-2.028-7.019-.568-8.913 6.959-8.943 6.473-.026 12.966-.291 19.408.159 1.91.133 3.676 2.33 5.508 3.581-1.779 1.082-3.448 2.47-5.368 3.157-1.805.645-3.874.549-6.491.958-1.132.479-1.601.779-2.07 1.079-5.384.305-10.767.611-16.68.7-.733-.438-.979-.596-1.266-.69z" class="I"/><path d="M219.703 442.97c.639.069.885.227 1.193.643-.993.573-2.09.953-3.564 1.283.422-.668 1.22-1.284 2.371-1.926zm30.534 1.298c1.064-.207 2.359-.138 3.727.254-1.117.222-2.307.122-3.727-.254zm-12.11-1.096c.342-.537.811-.837 1.573-1.153.296.164.298.344.304.792-.581.379-1.166.488-1.877.36z" fill="#49b25c"/><path d="M505.004 743.376c1.132.581 2.232 1.588 3.413 2.488 4.38 3.337 6.599 2.625 8.899-2.243 1.965-4.159 4.774-7.945 6.487-12.188.951-2.356 1.523-6.914.365-7.708-4.319-2.961-1.441-6.456-1.473-9.685 8.284 3.143 9.011 3.69 6.155 11.945-2.893 8.362-6.907 16.35-10.675 24.388-1.234 2.633-7.603 3.147-9.407.738-1.628-2.172-2.535-4.884-3.765-7.735zm64.989-92.775c-1.934-1.012-3.791-2.565-5.84-3.796-2.423-1.456-4.081-1.037-5.243 1.993-.862 2.248-2.76 4.099-4.553 6.165 2.033-4.181 3.918-8.815 6.953-12.501 3.062-3.719 6.587-2.326 7.658 2.442.394 1.754.681 3.532 1.025 5.698zm-16.287 5.536c-.146.824-.581 1.79-1.361 2.81.128-.854.6-1.76 1.361-2.81z" class="G"/><path d="M469.958 646.654c-1.186-.019-2.411-.712-3.625-.69-1.388.024-3.457.239-4.034 1.138-4.14 6.457-7 13.396-6.687 21.31.028.714-.686 1.457-1.331 2.389-.342-2.404-.883-5.106-.377-7.595 1.076-5.293 2.329-10.616 4.248-15.645.949-2.487 3.294-5.678 5.461-6.075 1.751-.321 4.181 3.067 6.344 5.168z" class="F"/><path d="M647.997 449.662c-.501-.53-1.002-1.398-1.247-2.464.586.576.917 1.351 1.247 2.464zm-.749 7.17c-.109-.479.027-1.125.455-1.802.125.525-.042 1.08-.455 1.802z" class="O"/><path d="M403.286 460.915c11.893-10.154 15.155-23.306 12.811-38.491-1.202-7.784-4.656-14.068-11.226-19.006.751-.533 2.105-1.288 2.561-.922 3.47 2.783 7.886 5.172 9.888 8.841 4.698 8.608 7.996 18.269 5.087 28.013-1.731 5.8-4.477 11.97-10.045 15.801-2.869 1.974-5.789 3.874-9.075 5.765zm-4.185 2.004c.138-.389.61-.776 1.421-1.155-.137.391-.612.774-1.421 1.155zm2.059-1.083c.161-.38.641-.717 1.44-1.021-.16.376-.641.721-1.44 1.021z" class="C"/><path d="M585.042 399.609c-2.84.887-5.636 1.413-8.734 2.17-4.673-1.343-4.673-1.343-10.444 5.929-.424-.528-1.103-.98-1.147-1.486-.616-7.099-1.659-14.226-1.373-21.296.083-2.053 3.779-5.182 6.257-5.691 7.884-1.622 15.976-2.222 23.98-3.28.931-.123 2.017-.415 2.678-1.017 4.664-4.247 8.69-4.147 12.644.31.722.814 1.866 1.285 2.868 1.813 4.471 2.357 6.04 7.178 2.643 10.63-3.83 3.893-7.71 8.207-14.375 7.436-3.359-.388-6.937.265-10.287 1.017-1.702.382-3.119 2.028-4.709 3.465z" class="P"/><path d="M577.012 484.654c-.11.381-.553.365-1.179.358-6.745-1.046-7.617 4.754-10.763 9.221-.578-2.428-.879-3.447-1.058-4.486L561 472.001l.001-1.667 2.973-11.042c.495-1.892.81-3.831 1.328-6.334 2.583 1.209 5.324 1.692 6.807 3.321 7.502 8.233 17.323 6.369 26.693 6.778 2.043.089 4.489.31 6.002 1.457 5.101 3.868 3.245 11.138-3.512 13.433-2.736.929-5.928.437-8.777 1.139-2.886.711-5.606 2.097-8.458 3.545-2.352.786-4.644 1.215-7.045 2.025z" class="Q"/><path d="M466.247 424.757c-.572-5.733-.836-11.761-1.04-18.247.629.228 1.688.914 1.688 1.601a212.34 212.34 0 0 1-.649 16.646zm-.003-25.003c-.48-4.526-.653-9.342-.564-14.479.465 4.516.668 9.352.564 14.479z" class="E"/><path d="M560.706 472.287c1.294 5.63 2.285 11.547 3.305 17.46.179 1.04.48 2.058 1.058 4.486 3.146-4.467 4.018-10.267 10.541-9.224.23.556.057 1.109-.714 1.864-2.365 3.18-5.386 6.042-5.668 9.153-.898 9.917-.982 19.926-.953 29.899.012 4.158.857 8.367 1.784 12.449.646 2.842 2.338 5.165 5.931 4.633.457.642.913 1.284 1.69 1.981-.951 3.542-2.792 1.883-4.585.596-7.682-5.52-8.112-5.588-9.533 3.698-.94 6.145-.426 12.512-.562 19.248-.941-2.861-2.71-6.202-2.662-9.516.125-8.555 1.075-17.097 1.656-25.648l1.849-28.629c.058-.957-.275-1.936-.404-2.907l-3.401-25.844c-.138-1.104.237-2.273.669-3.698zm44.001 98.418c-5.511.495-11.315.693-17.413.594 5.511-.495 11.315-.693 17.413-.594zm5.926-.702c-.838.504-2.041 1.007-3.439 1.254.895-.589 1.984-.922 3.439-1.254zm-29.816.749c-.695.417-1.573.584-2.634.5.695-.417 1.573-.584 2.634-.5zm-9.115.272c-.255.466-.808.95-1.531 1.205.297-.548.765-.867 1.531-1.205zm-3.744.653c-.598-.13-1.237-.581-1.918-1.352.598.13 1.237.581 1.918 1.352z" class="O"/><path d="M219.442 190.662c7.113-9.194 9.739-9.044 15.443.702 3.369 5.757-.508 14.931-7.079 16.448-1.163.268-3.317.081-3.668-.594-2.405-4.629-5.631-2.556-8.653-1.224-5.425-7.126-3.653-11.63 3.956-15.332z" class="M"/><path fill="#61b756" d="M226.122 422.057c-.038-.195.423-.11.651-.055-.052.12-.333.185-.651.055z"/><path d="M485.956 683.635c-4.867-.631-2.202-5.302-3.949-8.236 1.299 2.356 2.605 5.111 3.949 8.236z" class="G"/><path d="M575.992 542.598c-3.595.942-5.287-1.382-5.933-4.223-.928-4.081-1.772-8.291-1.784-12.449-.029-9.972.055-19.982.953-29.899.282-3.111 3.303-5.973 5.423-8.987l-1.291 44.842c-.059 3.419 1.707 6.87 2.631 10.716z" class="K"/></svg>