<svg xmlns="http://www.w3.org/2000/svg" width="268" height="120" fill="none" xmlns:v="https://vecta.io/nano"><path d="M82.916 44.286c-8.147 0-13.237-4.936-13.237-13.082s5.091-13.948 13.543-13.948c1.425 0 2.85.255 4.021.61V7.124l5.141-.255v35.276c-2.29 1.27-5.751 2.14-9.467 2.14h0zm-.05-4.326c1.78 0 3.411-.41 4.376-.965V22.397c-1.17-.51-2.496-.815-3.766-.815-5.551 0-8.552 3.361-8.552 9.417s3.156 8.962 7.942 8.962zm36.117 2.545c-2.396 1.12-5.446 1.78-8.757 1.78-8.096 0-13.442-4.936-13.442-13.542 0-7.942 4.735-13.492 12.167-13.492 6.721 0 10.692 4.836 10.692 11.302 0 1.325-.1 2.445-.205 3.411H102.08c.51 5.446 3.615 7.941 8.601 7.941 2.546 0 5.141-.61 7.432-1.575l.865 4.176h.005zM102.13 28.658h12.472c.05-.305.05-.51.05-.815 0-3.411-1.78-6.366-5.701-6.366s-6.366 2.801-6.821 7.176v.005zm23.044 15.018V7.124l5.141-.305v36.857h-5.141 0zm43.373 0V27.438c0-3.566-1.58-5.856-5.551-5.856-2.291 0-4.631.815-6.111 1.78.46 1.325.66 2.9.66 4.631v15.678h-5.041V27.433c0-3.566-1.525-5.856-5.496-5.856-1.935 0-3.871.46-5.551 1.325v20.769h-5.141V19.642c3.155-1.475 7.026-2.395 10.892-2.395 3.105 0 5.551.815 7.281 2.34 2.291-1.27 5.296-2.34 8.707-2.34 6.976 0 10.487 3.766 10.487 9.827v16.598h-5.141l.005.005zm19.338.61c-6.671 0-10.026-3.261-10.026-7.736 0-5.296 4.225-7.891 10.026-7.891 1.731 0 3.821.205 5.396.56v-2.14c0-3.566-1.935-5.496-5.956-5.496-2.395 0-4.836.46-6.821 1.27l-1.02-4.126c2.085-.865 5.346-1.475 8.351-1.475 6.972 0 10.487 3.616 10.487 10.082v14.608c-2.14 1.22-5.651 2.34-10.437 2.34v.005zm5.396-4.936v-6.671c-1.425-.355-3.005-.61-4.785-.61-3.156 0-5.496 1.12-5.496 4.276 0 2.696 1.935 4.071 5.345 4.071 2.341 0 3.971-.51 4.936-1.07v.005zm21.214-22.094c1.426 0 2.696.155 3.616.355l-.715 4.326c-.765-.255-1.73-.355-2.546-.355-2.545 0-4.48.56-5.906 1.325v20.769h-5.141V19.697c2.651-1.475 6.772-2.445 10.692-2.445v.005zM233.544 39.4c3.51-6.516 5.856-12.827 6.671-21.534h5.141c-1.22 9.927-3.871 16.903-8.962 25.81h-5.701c-5.191-8.907-7.941-15.883-8.961-25.81h5.191c.915 8.707 3.205 15.018 6.616 21.534h.005zm23.774 4.886c-6.671 0-10.027-3.261-10.027-7.736 0-5.296 4.226-7.891 10.027-7.891 1.731 0 3.816.205 5.396.56v-2.14c0-3.566-1.935-5.496-5.956-5.496-2.39 0-4.836.46-6.821 1.27l-1.02-4.126c2.085-.865 5.346-1.475 8.346-1.475 6.976 0 10.487 3.616 10.487 10.082v14.608c-2.14 1.22-5.651 2.34-10.437 2.34l.005.005zm5.396-4.936v-6.671c-1.425-.355-3.005-.61-4.786-.61-3.155 0-5.496 1.12-5.496 4.276 0 2.696 1.936 4.071 5.346 4.071 2.341 0 3.971-.51 4.941-1.07l-.005.005zM81.486 88.359c-2.29 0-3.816-.46-5.141-1.02v9.927h-5.141V63.665c3.106-1.525 6.871-2.29 10.082-2.29 8.147 0 12.627 5.191 12.627 12.982 0 8.246-4.276 14.002-12.422 14.002h-.005zm-.71-4.276c5.296 0 7.791-3.411 7.791-9.572 0-5.041-2.19-8.807-7.536-8.807-1.83 0-3.361.46-4.686 1.07v16.188c1.17.56 2.445 1.12 4.431 1.12h0zm28.445 4.326c-7.536 0-12.067-5.446-12.067-13.543s4.531-13.492 12.067-13.492 12.117 5.446 12.117 13.493-4.481 13.543-12.117 13.543zm0-4.326c4.631 0 6.821-3.616 6.821-9.217s-2.19-9.162-6.821-9.162-6.821 3.616-6.821 9.162 2.34 9.217 6.821 9.217h0zm40.357-.455c3.206-6.516 5.346-12.932 5.956-21.634h5.091c-1.07 9.927-3.46 16.903-8.246 25.81h-5.191c-2.241-4.431-4.071-8.402-5.446-12.472-1.12 4.021-2.851 8.347-5.041 12.472h-5.041c-5.141-8.907-7.231-15.883-8.246-25.81h5.09c.816 8.707 2.851 15.118 5.957 21.634 2.495-4.936 4.53-11.302 5.296-16.188a78.38 78.38 0 0 1-.766-5.446h4.836c.815 8.707 2.851 15.118 5.751 21.634h0zm35.317 3.001c-2.391 1.12-5.446 1.78-8.757 1.78-8.091 0-13.437-4.936-13.437-13.543 0-7.942 4.736-13.492 12.167-13.492 6.721 0 10.692 4.836 10.692 11.302 0 1.325-.1 2.445-.205 3.411h-17.358c.51 5.446 3.615 7.941 8.601 7.941 2.546 0 5.141-.61 7.432-1.575l.865 4.176zm-16.848-13.848h12.472c.05-.305.05-.51.05-.815 0-3.411-1.78-6.366-5.701-6.366s-6.366 2.8-6.821 7.176v.005zm32.936-11.402c1.425 0 2.7.155 3.615.355l-.715 4.326c-.765-.255-1.73-.355-2.545-.355-2.546 0-4.481.56-5.906 1.325v20.769h-5.141V63.82c2.645-1.475 6.771-2.445 10.692-2.445v.005zm6.636-.945c.355.135.85.285 1.405.285.675 0 1.07-.255 1.07-.78 0-.595-.45-.77-1.19-1.015-.87-.285-1.4-.665-1.4-1.515 0-.92.645-1.435 1.74-1.435.48 0 1.001.115 1.331.25l-.16.65c-.356-.12-.736-.21-1.126-.21-.665 0-.99.25-.99.72 0 .51.335.68.99.9.901.3 1.606.615 1.606 1.645s-.811 1.475-1.836 1.475c-.63 0-1.21-.125-1.585-.29l.15-.68h-.005zm9.572-4.366v5.251h-.735v-3.041c0-.315.015-.605.04-.875-.43.975-.971 1.975-1.666 3.06h-.64c-.705-1.085-1.245-2.09-1.685-3.065a7.92 7.92 0 0 1 .045.885v3.041h-.73v-5.251h.81c.51 1.25 1.11 2.385 1.88 3.616.765-1.23 1.351-2.366 1.861-3.616h.815l.005-.005zM77.225 116.34h-5.311c-.385 1.145-.755 2.3-1.09 3.46h-1.245c1.31-4.236 2.706-8.216 4.351-11.762h1.26c1.645 3.546 3.076 7.476 4.371 11.762h-1.245c-.335-1.16-.705-2.32-1.09-3.46h0zm-4.956-1.061h4.606c-.825-2.4-1.665-4.571-2.3-6.001-.64 1.43-1.48 3.596-2.3 6.001h-.005zm9.817 4.521v-11.762h1.175c2.05 3.666 4.066 6.651 6.536 10.067-.035-.435-.05-.975-.05-1.595v-8.467h1.14v11.762h-1.175c-2.57-3.445-4.686-6.351-6.536-9.762a31.66 31.66 0 0 1 .05 1.881v7.881h-1.145l.005-.005zm24.164 0h-6.856v-11.762h6.856v1.06h-5.646v4.136h4.841v1.06h-4.841v4.456h5.646v1.06-.01zm6.627-5.311c-1.076 1.46-2.321 3.376-3.211 5.311h-1.275c.94-2.135 2.385-4.236 3.915-6.166l-3.68-5.596h1.395l3.211 4.871c1.275-1.58 2.37-3.326 2.99-4.871h1.26c-.79 1.95-2.1 3.866-3.695 5.711l3.965 6.051h-1.38l-3.495-5.311h0zm14.227 5.311h-6.856v-11.762h6.856v1.06h-5.646v4.136h4.841v1.06h-4.841v4.456h5.646v1.06-.01zm2.766-11.762h1.21v10.702h5.581v1.06h-6.791v-11.762h0zM143.237 120c-3.345 0-4.941-2.67-4.941-6.081s1.561-6.081 4.941-6.081 4.956 2.67 4.956 6.081-1.595 6.081-4.956 6.081zm0-1.09c2.606 0 3.696-2.215 3.696-4.991s-1.09-4.991-3.696-4.991-3.68 2.221-3.68 4.991 1.09 4.991 3.68 4.991zm8.057.89v-11.762h1.175c2.05 3.666 4.066 6.651 6.536 10.067-.035-.435-.05-.975-.05-1.595v-8.467h1.14v11.762h-1.175c-2.57-3.445-4.691-6.351-6.536-9.762a31.66 31.66 0 0 1 .05 1.881v7.881h-1.145l.005-.005zm16.703-5.746c0-3.546 1.68-6.216 5.241-6.216.99 0 1.985.22 2.875.59l-.3 1.04c-.79-.285-1.565-.54-2.555-.54-2.856 0-4.001 2.286-4.001 5.126s1.295 4.856 4.081 4.856c1.11 0 1.915-.3 2.605-.605l.25 1.04c-.69.35-1.745.655-2.89.655-3.481 0-5.311-2.37-5.311-5.946h.005zM182.859 120c-3.345 0-4.94-2.67-4.94-6.081s1.565-6.081 4.94-6.081 4.956 2.67 4.956 6.081S186.22 120 182.859 120zm0-1.09c2.606 0 3.696-2.215 3.696-4.991s-1.095-4.991-3.696-4.991-3.68 2.221-3.68 4.991 1.09 4.991 3.68 4.991zm19.734-10.872V119.8h-1.14v-7.831c0-.67.035-1.276.05-1.796-1.075 2.486-2.421 5.006-4.216 7.832h-1.04c-1.8-2.826-3.161-5.376-4.251-7.847.05.52.065 1.141.065 1.816v7.831h-1.145v-11.762h1.26c1.21 2.956 2.741 5.781 4.606 8.772 1.85-2.991 3.361-5.811 4.556-8.772h1.26l-.005-.005zm3.661 0h2.855c2.841 0 4.671 1.14 4.671 3.766s-1.83 3.745-4.671 3.745h-1.645v4.251h-1.21v-11.762h0zm2.84 1.06h-1.63v5.396h1.63c2.066 0 3.446-.62 3.446-2.69s-1.38-2.706-3.446-2.706zm13.413 7.242h-5.311c-.385 1.145-.755 2.3-1.095 3.46h-1.246c1.311-4.236 2.706-8.216 4.351-11.762h1.26c1.646 3.546 3.076 7.476 4.371 11.762h-1.245a81.7 81.7 0 0 0-1.09-3.46h.005zm-4.956-1.061h4.606c-.825-2.4-1.666-4.571-2.301-6.001-.64 1.43-1.48 3.596-2.3 6.001h-.005zm9.817 4.521v-11.762h1.175c2.05 3.666 4.066 6.651 6.536 10.067-.035-.435-.05-.975-.05-1.595v-8.467h1.14v11.762h-1.175c-2.57-3.445-4.686-6.351-6.536-9.762a31.66 31.66 0 0 1 .05 1.881v7.881h-1.145l.005-.005zm15.277-4.956c-1.78-2.37-3.04-4.386-4.03-6.806h1.275c.84 2.05 1.815 3.666 3.376 5.796 1.545-2.115 2.505-3.746 3.345-5.796h1.275c-1.025 2.42-2.25 4.451-4.03 6.771v4.991h-1.211v-4.956z" fill="#fff"/><path d="M53.666 32.409c-.78-2.215-2.045-4.486-3.181-6.411-1.45-2.465-1.865-4.876-1.385-8.071.7-4.656-.53-8.922-3.296-11.412-1.815-1.635-5.141-3.291-10.657-1.86-4.491 1.16-8.637-1.04-11.967-2.811-2.56-1.36-4.586-2.435-6.146-1.73-.905.41-1.53 1.39-1.91 2.996-1 4.241-1.965 7.171-3.041 9.227-.895 1.71-1.85 2.806-3.186 3.651-3.321 2.105-5.761 4.451-7.251 6.966C.321 25.198-.219 27.578.081 29.843c.265 1.985 1.17 3.861 2.61 5.411 1.4 1.51 3.236 2.641 5.306 3.281a7.97 7.97 0 0 1 4.001 2.701c1 1.25 1.775 2.906 2.365 5.056.525 1.92 1.365 3.531 2.495 4.801s2.48 2.115 4.026 2.526a8.19 8.19 0 0 0 2.13.275c1.115 0 2.275-.215 3.456-.65 2.055-.75 4.096-2.125 6.071-4.086 1.92-1.905 3.686-3.111 5.551-3.786 1.65-.6 3.181-.705 4.796-.82 1.84-.13 3.746-.265 6.001-1.125 2.73-1.045 4.476-2.605 5.186-4.636.615-1.76.48-3.846-.41-6.386v.005zm-3.916-.13c-.335 3.636-2.065 6.621-5.136 8.877-1.35.985-2.666 1.635-4.006 2.2a20.6 20.6 0 0 0 2.6-2.35c1.895-2.035 3.336-4.381 4.281-6.976.915-2.506 1.33-5.131 1.235-7.806-.02-.585-.07-1.165-.14-1.74l.27.56c.795 2.61 1.1 5.036.9 7.236h-.005zM28.826 46.742c-.24.01-.48.015-.72.015a19.64 19.64 0 0 1-13.472-5.311c-3.871-3.606-6.101-8.497-6.291-13.783s1.695-10.327 5.296-14.193c3.606-3.871 8.497-6.101 13.783-6.291.24-.01.48-.015.72-.015a19.64 19.64 0 0 1 13.472 5.311c3.871 3.606 6.101 8.497 6.291 13.783s-1.695 10.327-5.296 14.193-8.496 6.101-13.782 6.291h0zm13.342-34.866c-2.035-1.895-4.381-3.336-6.976-4.281a20.52 20.52 0 0 0-4.446-1.075c5.436-.545 9.977 1.83 12.657 6.616a20.98 20.98 0 0 0-1.235-1.26h0zM19.694 8.144a20.42 20.42 0 0 0-6.651 4.766c-.06.065-.115.135-.175.2.23-.51.46-1.055.7-1.64l.745-1.415c1.935-3.591 5.251-3.461 9.447-3.296.075 0 .155.005.23.01-1.475.3-2.911.755-4.296 1.375zM7.527 27.688c.095 2.675.695 5.266 1.785 7.697a20.38 20.38 0 0 0 2.4 4.036c-2.575-1.945-4.341-4.606-5.006-7.591-.68-3.056-.215-6.321 1.335-9.522-.405 1.755-.585 3.556-.52 5.381h.005zM21.05 46.322c2.271.83 4.641 1.245 7.056 1.245.25 0 .5 0 .745-.015a20.7 20.7 0 0 0 3.656-.46c-2.025 1.17-4.151 1.785-6.236 1.785-.435 0-.865-.025-1.29-.08-2.506-.305-4.731-1.485-6.436-3.401a11.59 11.59 0 0 0-.335-.365c.91.5 1.855.93 2.84 1.29h0zm24.66-30.461l-1.165-2.321c-1.35-2.735-3.321-4.901-5.696-6.251-1.395-.79-2.905-1.295-4.516-1.53 2.776-.28 5.251.3 7.221 1.715 1.265.91 2.31 2.135 3.101 3.641.765 1.455 1.255 3.105 1.465 4.901.035.31.08.61.125.91l-.535-1.065h0zM23.785 5.944c-2.105-.085-4.091-.16-5.821.275-1.215.305-2.21.84-3.026 1.635l.42-1.185c.695-1.99 1.71-2.685 3.221-2.685 1.14 0 2.561.4 4.336.935 1.27.385 2.681.815 4.191 1.085-1.125.02-2.23-.02-3.316-.06h-.005zM8.147 20.392c-2.295 3.856-3.071 7.871-2.235 11.612a13.46 13.46 0 0 0 2.686 5.531c-2.55-1.56-4.231-3.956-4.661-6.696-.405-2.601.145-6.691 4.851-11.577-.21.39-.42.77-.635 1.13h-.005zm9.787 25.545c1.84 2.065 4.241 3.336 6.946 3.666a11.74 11.74 0 0 0 1.395.085c1.625 0 3.266-.35 4.871-1.015-2.735 1.885-5.601 2.611-8.196 2.045-2.605-.57-4.751-2.386-6.046-5.111-.31-.655-.705-1.315-1.165-1.965.72.69 1.45 1.455 2.2 2.3l-.005-.005zm24.695-2.62c.815-.415 1.63-.895 2.465-1.51 3.271-2.395 5.111-5.576 5.466-9.457.095-1.05.075-2.15-.045-3.286.615 1.85.94 3.511.96 4.991.02 1.645-.33 3.106-1.045 4.346-.8 1.395-2.085 2.561-3.821 3.471-1.415.745-2.695 1.135-3.981 1.44v.005zm2.636-36.197c2.56 2.305 3.696 6.301 3.036 10.687-.165 1.09-.22 2.085-.18 3.036l-.445-.98c-.33-1.225-.575-2.515-.745-3.941-.22-1.895-.745-3.641-1.555-5.186-.85-1.62-1.975-2.941-3.346-3.921-1.3-.935-2.8-1.53-4.441-1.79 3.841-.445 6.266.825 7.676 2.095h0zM17.379.853c.225-.1.475-.145.745-.145 1.19 0 2.835.875 4.681 1.855 2.055 1.095 4.416 2.34 6.996 2.911-2.381-.04-4.616-.715-6.651-1.335-1.945-.59-3.621-1.1-5.071-.95-1.005.105-1.8.515-2.43 1.26l.28-1.15c.315-1.345.79-2.145 1.455-2.44l-.005-.005zM3.301 34.704c-1.325-1.43-2.155-3.146-2.4-4.966-.285-2.11.205-4.256 1.455-6.371 1.42-2.405 3.771-4.656 6.986-6.691.42-.27.81-.565 1.175-.895l-.145.295c-.54.835-1.085 1.515-1.675 2.095-5.416 5.351-6.016 9.907-5.571 12.787.37 2.396 1.62 4.546 3.526 6.171-1.28-.605-2.425-1.43-3.356-2.436l.005.01zm22.894 17.778c-1.795.655-3.511.775-5.096.35-1.385-.37-2.605-1.14-3.626-2.281-1.045-1.17-1.825-2.675-2.315-4.471-.38-1.385-.845-2.586-1.4-3.626.955 1.055 1.805 2.24 2.405 3.501 1.405 2.96 3.751 4.931 6.611 5.556a9.02 9.02 0 0 0 1.945.21c1.735 0 3.526-.48 5.291-1.41-1.26.975-2.535 1.705-3.811 2.17h-.005zm27.115-13.958c-.64 1.82-2.18 3.176-4.711 4.146-1.43.545-2.721.785-3.956.92.755-.25 1.53-.565 2.345-.995 3.561-1.87 5.346-4.746 5.301-8.552-.015-1.36-.27-2.85-.755-4.486a26.05 26.05 0 0 1 1.365 3.121c.83 2.355.965 4.266.41 5.846h0z" fill="url(#A)"/><defs><linearGradient id="A" x1="16.184" y1="51.217" x2="43.044" y2="4.689" gradientUnits="userSpaceOnUse"><stop offset=".17" stop-color="#ac45ff"/><stop offset=".25" stop-color="#5e24bd"/><stop offset=".46" stop-color="#3d67b4"/><stop offset=".64" stop-color="#239dad"/><stop offset=".8" stop-color="#0fc3a9"/><stop offset=".92" stop-color="#04dba6"/><stop offset="1" stop-color="#00e4a5"/></linearGradient></defs></svg>