<svg xmlns="http://www.w3.org/2000/svg" width="390" height="120" fill="none" xmlns:v="https://vecta.io/nano"><path d="M121.501 114.237h-8.356l-1.715 5.448h-1.959c2.062-6.668 4.257-12.935 6.845-18.518h1.983c2.588 5.583 4.838 11.771 6.876 18.518h-1.959c-.527-1.826-1.109-3.653-1.715-5.448zm-7.797-1.669h7.246c-1.298-3.787-2.62-7.196-3.619-9.44-1.007 2.252-2.329 5.661-3.619 9.44h-.008zm15.444 7.117v-18.518h1.849c3.226 5.772 6.396 10.48 10.283 15.849-.055-.685-.079-1.535-.079-2.511v-13.33h1.802v18.518h-1.849c-4.044-5.424-7.372-9.999-10.283-15.368.055.897.079 1.929.079 2.96v12.408h-1.794l-.008-.008zm38.017 0h-10.787v-18.518h10.787v1.67h-8.883v6.511h7.616v1.669h-7.616v7.015h8.883v1.669-.016zm10.424-8.361c-1.691 2.299-3.65 5.314-5.051 8.361h-2.006c1.479-3.362 3.753-6.668 6.16-9.707l-5.79-8.811h2.195l5.051 7.669c2.006-2.488 3.729-5.236 4.705-7.669h1.982c-1.243 3.071-3.304 6.086-5.814 8.992l6.239 9.526h-2.171l-5.5-8.361h0zm22.384 8.361h-10.787v-18.518h10.787v1.67h-8.883v6.511h7.616v1.669h-7.616v7.015h8.883v1.669-.016zm4.351-18.518h1.903v16.849h8.781v1.669h-10.677v-18.518h-.007zM225.354 120c-5.264 0-7.774-4.204-7.774-9.574s2.463-9.573 7.774-9.573 7.796 4.204 7.796 9.573-2.509 9.574-7.796 9.574zm0-1.716c4.099 0 5.814-3.488 5.814-7.858s-1.723-7.857-5.814-7.857-5.791 3.496-5.791 7.857 1.715 7.858 5.791 7.858zm12.674 1.401v-18.518h1.849c3.226 5.772 6.397 10.48 10.283 15.849-.055-.685-.078-1.535-.078-2.511v-13.33h1.801v18.518h-1.849c-4.043-5.424-7.372-9.999-10.283-15.368.055.897.079 1.929.079 2.96v12.408h-1.794l-.008-.008zm26.278-9.046c0-5.582 2.644-9.786 8.246-9.786 1.557 0 3.115.346 4.516.929l-.472 1.637c-1.243-.449-2.455-.85-4.021-.85-4.492 0-6.294 3.598-6.294 8.07s2.038 7.645 6.42 7.645c1.747 0 3.013-.473 4.099-.953l.394 1.638c-1.086.551-2.754 1.031-4.548 1.031-5.476 0-8.355-3.732-8.355-9.361h.015zM287.689 120c-5.263 0-7.773-4.204-7.773-9.574s2.462-9.573 7.773-9.573 7.797 4.204 7.797 9.573-2.51 9.574-7.797 9.574zm0-1.716c4.099 0 5.814-3.488 5.814-7.858s-1.715-7.857-5.814-7.857-5.791 3.496-5.791 7.857 1.716 7.858 5.791 7.858zm31.046-17.117v18.518h-1.794v-12.329c0-1.063.055-2.008.079-2.835-1.692 3.913-3.808 7.882-6.633 12.33h-1.636c-2.833-4.441-4.973-8.464-6.688-12.353.079.819.102 1.795.102 2.858v12.329h-1.793v-18.518h1.982c1.904 4.654 4.312 9.102 7.246 13.81 2.904-4.708 5.287-9.156 7.16-13.81h1.983-.008zm5.759 0h4.492c4.469 0 7.349 1.796 7.349 5.929s-2.88 5.897-7.349 5.897h-2.588v6.692h-1.904v-18.518zm4.469 1.67h-2.565v8.495h2.565c3.249 0 5.42-.976 5.42-4.236s-2.171-4.259-5.42-4.259zm21.109 11.4h-8.356c-.606 1.795-1.188 3.622-1.715 5.448h-1.959c2.061-6.668 4.256-12.935 6.845-18.518h1.982c2.589 5.583 4.839 11.771 6.877 18.518h-1.959c-.527-1.826-1.11-3.653-1.715-5.448zm-7.797-1.669h7.246c-1.298-3.787-2.62-7.196-3.619-9.44-1.007 2.252-2.329 5.661-3.619 9.44h-.008zm15.444 7.117v-18.518h1.849c3.225 5.772 6.396 10.48 10.283 15.849-.055-.685-.079-1.535-.079-2.511v-13.33h1.794v18.518h-1.849c-4.044-5.424-7.38-9.999-10.283-15.368.055.897.079 1.929.079 2.96v12.408h-1.794v-.008zm24.035-7.802c-2.8-3.732-4.783-6.905-6.341-10.716h2.006c1.322 3.229 2.856 5.772 5.311 9.126 2.431-3.331 3.942-5.897 5.264-9.126H390c-1.613 3.811-3.541 7.016-6.342 10.661v7.857h-1.904v-7.802zM126.316 69.895c-5.366 0-11.534-.724-15.216-2.724V11.389l8.088-.402v18.116c1.762-1.039 4.563-1.764 7.765-1.764 11.857 0 19.866 7.212 19.866 20.596s-7.687 21.958-20.503 21.958h0zm-.236-6.81c8.332 0 12.415-5.606 12.415-14.991s-4.249-13.943-12.171-13.943c-2.801 0-5.445 1.039-7.128 2.086v25.73c1.919.803 3.926 1.126 6.884 1.126v-.008zm42.949 21.155c-5.767 0-9.291-.716-13.375-2.323l1.684-6.574c3.525 1.362 6.971 2 11.211 2 7.128 0 10.889-3.283 10.889-8.818v-3.37c-2.486 1.283-5.444 2.086-8.812 2.086-11.455 0-18.662-6.976-18.662-19.156 0-12.825 8.167-20.762 20.582-20.762 6.003 0 11.455 1.52 14.98 3.204v37.272c0 10.66-7.128 16.431-18.497 16.431v.008zm2.722-23.887c3.203 0 5.689-.803 7.687-2.086v-22.84c-1.762-.638-4.327-1.283-6.884-1.283-7.608 0-12.337 5.047-12.337 13.306s4.249 12.904 11.534 12.904h0zm57.946 6.732c-3.761 1.764-8.568 2.803-13.777 2.803-12.737 0-21.148-7.779-21.148-21.321 0-12.503 7.451-21.242 19.142-21.242 10.574 0 16.821 7.613 16.821 17.793 0 2.086-.157 3.85-.322 5.37h-27.309c.802 8.574 5.688 12.503 13.532 12.503 4.005 0 8.088-.96 11.692-2.488l1.361 6.574.008.008zm-26.506-21.801h19.621c.079-.48.079-.803.079-1.283 0-5.37-2.801-10.015-8.969-10.015s-10.016 4.409-10.731 11.298h0zm29.338-19.439c.559.213 1.337.449 2.211.449 1.062 0 1.683-.401 1.683-1.228 0-.937-.708-1.213-1.872-1.598-1.369-.449-2.203-1.047-2.203-2.386 0-1.449 1.015-2.26 2.738-2.26.755 0 1.574.181 2.093.394l-.252 1.024c-.559-.189-1.157-.331-1.77-.331-1.047 0-1.558.394-1.558 1.134 0 .803.527 1.071 1.558 1.417 1.416.472 2.525.968 2.525 2.59s-1.274 2.323-2.887 2.323c-.991 0-1.904-.197-2.494-.457l.236-1.071h-.008zm15.059-6.873v8.267h-1.157v-4.787c0-.496.024-.953.063-1.378-.677 1.535-1.526 3.11-2.62 4.818h-1.007c-1.109-1.709-1.959-3.291-2.651-4.826.047.417.07.882.07 1.394v4.787h-1.148v-8.267h1.274c.803 1.968 1.747 3.756 2.959 5.692 1.203-1.937 2.124-3.724 2.926-5.692h1.283l.008-.008z" fill="#fff"/><path d="M84.429 51.196c-1.227-3.488-3.218-7.062-5.004-10.093-2.282-3.882-2.935-7.676-2.179-12.707 1.101-7.33-.834-14.046-5.185-17.967-2.856-2.575-8.088-5.181-16.766-2.929-7.065 1.827-13.587-1.638-18.827-4.425C32.439.933 29.253-.759 26.798.351c-1.424.646-2.407 2.189-3.005 4.716-1.573 6.676-3.092 11.29-4.783 14.526-1.408 2.693-2.911 4.417-5.012 5.747-5.224 3.315-9.064 7.007-11.408 10.967C.505 39.843-.345 43.59.127 47.157c.417 3.126 1.841 6.078 4.107 8.519 2.203 2.378 5.09 4.157 8.348 5.165 2.581.795 4.642 2.189 6.294 4.252 1.574 1.968 2.793 4.574 3.721 7.96.826 3.023 2.148 5.558 3.926 7.558 1.77 1.992 3.902 3.33 6.333 3.976 1.086.291 2.203.433 3.352.433 1.755 0 3.58-.339 5.437-1.024 3.234-1.181 6.444-3.346 9.551-6.432 3.021-3 5.798-4.897 8.733-5.96 2.596-.945 5.004-1.11 7.545-1.291 2.895-.205 5.893-.417 9.441-1.772 4.296-1.645 7.041-4.102 8.159-7.298.968-2.771.755-6.054-.645-10.054v.008zm-6.16-.205c-.527 5.724-3.249 10.424-8.08 13.975-2.124 1.551-4.193 2.575-6.302 3.464a32.41 32.41 0 0 0 4.091-3.7 32.21 32.21 0 0 0 6.735-10.983c1.44-3.944 2.093-8.078 1.943-12.29-.032-.921-.11-1.834-.22-2.74.15.299.283.583.425.882 1.251 4.11 1.731 7.928 1.416 11.393h-.008zM45.35 73.761a27.27 27.27 0 0 1-1.133.024c-7.899 0-15.389-2.945-21.195-8.361a30.97 30.97 0 0 1-9.897-21.698c-.299-8.322 2.667-16.258 8.332-22.344a30.93 30.93 0 0 1 21.683-9.904c.378-.016.755-.024 1.133-.024 7.899 0 15.389 2.945 21.195 8.361 6.09 5.676 9.599 13.377 9.898 21.698s-2.667 16.258-8.332 22.344a30.93 30.93 0 0 1-21.683 9.904h0zm20.991-54.892a32.18 32.18 0 0 0-10.975-6.74 32.26 32.26 0 0 0-6.994-1.693c8.552-.858 15.696 2.882 19.913 10.416a32.96 32.96 0 0 0-1.943-1.984h0zm-35.357-5.873a32.13 32.13 0 0 0-10.464 7.503c-.094.102-.181.213-.275.315.362-.803.724-1.661 1.101-2.582l1.172-2.228c3.045-5.653 8.261-5.448 14.862-5.188.118 0 .244.008.362.016a32.19 32.19 0 0 0-6.758 2.165zM11.842 43.764c.149 4.212 1.093 8.29 2.809 12.117a32.08 32.08 0 0 0 3.776 6.354c-4.052-3.063-6.829-7.251-7.875-11.952-1.07-4.811-.338-9.952 2.101-14.991-.637 2.764-.921 5.598-.818 8.472h.008zm21.274 29.335c3.572 1.307 7.301 1.96 11.101 1.96.393 0 .787 0 1.172-.024a32.55 32.55 0 0 0 5.751-.724c-3.186 1.842-6.53 2.811-9.811 2.811a15.79 15.79 0 0 1-2.03-.126c-3.942-.48-7.443-2.338-10.126-5.354a18.17 18.17 0 0 0-.527-.575 32.22 32.22 0 0 0 4.469 2.031h0zm38.795-47.956l-1.833-3.653c-2.124-4.307-5.224-7.716-8.961-9.842-2.195-1.244-4.571-2.039-7.105-2.409 4.367-.441 8.261.472 11.361 2.701 1.99 1.433 3.635 3.362 4.878 5.732 1.204 2.291 1.975 4.889 2.305 7.716a39.42 39.42 0 0 0 .197 1.433l-.842-1.677h0zM37.42 9.531c-3.312-.134-6.436-.252-9.158.433-1.912.48-3.478 1.323-4.76 2.575l.661-1.866c1.094-3.134 2.691-4.228 5.067-4.228 1.794 0 4.028.63 6.821 1.472 1.998.606 4.217 1.283 6.593 1.708-1.77.031-3.509-.031-5.216-.094h-.008zM12.817 32.277c-3.611 6.07-4.831 12.392-3.517 18.282.708 3.181 2.156 6.141 4.225 8.708-4.012-2.456-6.656-6.228-7.333-10.542-.637-4.094.228-10.534 7.632-18.226-.331.614-.661 1.213-.999 1.779h-.008zm15.397 40.216c2.895 3.252 6.672 5.251 10.928 5.771.724.087 1.456.134 2.195.134 2.557 0 5.138-.551 7.663-1.598-4.304 2.968-8.812 4.11-12.895 3.22-4.099-.898-7.474-3.755-9.512-8.046-.488-1.031-1.109-2.071-1.833-3.094 1.133 1.087 2.282 2.291 3.462 3.622l-.008-.008zm38.85-4.126c1.282-.654 2.565-1.409 3.879-2.378 5.145-3.771 8.041-8.779 8.599-14.888.15-1.653.118-3.386-.071-5.173.968 2.913 1.479 5.527 1.511 7.857.032 2.59-.519 4.889-1.644 6.842-1.259 2.197-3.281 4.031-6.011 5.464-2.227 1.173-4.241 1.787-6.263 2.267v.008zm4.146-56.986c4.028 3.63 5.814 9.92 4.776 16.825-.26 1.716-.346 3.283-.283 4.779l-.7-1.543c-.519-1.929-.905-3.96-1.172-6.204-.346-2.984-1.172-5.732-2.447-8.164-1.338-2.551-3.108-4.629-5.264-6.173-2.046-1.472-4.406-2.409-6.986-2.819 6.042-.701 9.858 1.299 12.077 3.299h0zm-43.87-9.865c.354-.157.747-.228 1.172-.228 1.872 0 4.461 1.378 7.364 2.921 3.234 1.724 6.947 3.685 11.007 4.582-3.745-.063-7.262-1.126-10.464-2.102-3.06-.929-5.696-1.732-7.978-1.496-1.581.165-2.832.811-3.824 1.984l.441-1.811c.496-2.118 1.243-3.378 2.29-3.842l-.008-.008zM5.186 54.81c-2.085-2.252-3.391-4.952-3.776-7.818-.448-3.323.323-6.7 2.289-10.031 2.234-3.787 5.932-7.33 10.991-10.534.661-.425 1.275-.89 1.849-1.409l-.228.464c-.85 1.315-1.707 2.386-2.636 3.299C5.154 37.205 4.21 44.378 4.91 48.913c.582 3.771 2.549 7.157 5.547 9.716-2.014-.953-3.816-2.252-5.279-3.834l.008.016zm36.018 27.989c-2.825 1.031-5.523 1.22-8.017.551-2.179-.583-4.099-1.795-5.704-3.59-1.644-1.842-2.872-4.212-3.643-7.039-.598-2.181-1.33-4.07-2.203-5.708 1.503 1.661 2.84 3.527 3.784 5.511 2.211 4.661 5.901 7.763 10.401 8.747a14.18 14.18 0 0 0 3.06.331c2.73 0 5.547-.756 8.324-2.22-1.983 1.535-3.989 2.685-5.995 3.417h-.008zm42.658-21.974c-1.007 2.866-3.43 4.999-7.411 6.527-2.25.858-4.28 1.236-6.223 1.449 1.188-.394 2.407-.89 3.69-1.567 5.602-2.945 8.41-7.472 8.34-13.463-.024-2.142-.425-4.488-1.188-7.062.826 1.622 1.574 3.283 2.148 4.913 1.306 3.708 1.518 6.716.645 9.204z" fill="url(#A)"/><defs><linearGradient id="A" x1="25.461" y1="80.807" x2="67.763" y2="7.581" gradientUnits="userSpaceOnUse"><stop offset=".17" stop-color="#ac45ff"/><stop offset=".25" stop-color="#5e24bd"/><stop offset=".46" stop-color="#3d67b4"/><stop offset=".64" stop-color="#239dad"/><stop offset=".8" stop-color="#0fc3a9"/><stop offset=".92" stop-color="#04dba6"/><stop offset="1" stop-color="#00e4a5"/></linearGradient></defs></svg>