<svg xmlns="http://www.w3.org/2000/svg" width="225.446" height="63.89" xmlns:v="https://vecta.io/nano"><defs><linearGradient id="A" x1="1.934" y1=".801" x2="3.895" y2=".801"><stop offset="0" stop-color="#fbaf1d"/><stop offset="1" stop-color="#005930"/></linearGradient><linearGradient id="B" x1="-.142" y1=".8" x2=".532" y2=".8" href="#A"/><linearGradient id="C" x1=".715" y1=".811" x2="2.224" y2=".811" href="#A"/><path id="D" d="M46.704 61.439l1.352-6.04h.975l-.274 1.234a4.31 4.31 0 0 1 .978-1.035c.283-.212.625-.329.978-.336a2.02 2.02 0 0 1 .81.221l-.451.956a1.1 1.1 0 0 0-.628-.193 1.74 1.74 0 0 0-1.188.6c-.509.622-.84 1.371-.956 2.167l-.548 2.423z"/><path id="E" d="M86.542 61.434l1.864-8.338h1.1l-1.861 8.338z"/><path id="F" d="M133.481 59.237l1.1.108c-.214.667-.625 1.253-1.179 1.681a2.91 2.91 0 0 1-1.739.549 2.23 2.23 0 0 1-2.364-2.417 4.79 4.79 0 0 1 .42-1.945c.244-.594.663-1.101 1.2-1.453a3.26 3.26 0 0 1 1.788-.5c.6-.032 1.19.164 1.651.549a1.86 1.86 0 0 1 .609 1.453l-1.084.068c.015-.337-.114-.664-.356-.9-.254-.223-.585-.34-.923-.324a1.78 1.78 0 0 0-1.151.392 2.56 2.56 0 0 0-.764 1.191c-.178.494-.272 1.014-.277 1.539a1.63 1.63 0 0 0 .365 1.16 1.19 1.19 0 0 0 .9.387 1.65 1.65 0 0 0 1.026-.381 2.49 2.49 0 0 0 .778-1.157z"/><path id="G" d="M141.822 61.434l1.352-6.04h1.1l-1.352 6.04zm1.608-7.172l.262-1.166h1.1l-.262 1.166z"/></defs><path d="M34.961 21.041c-4.384-1.973-8.99-3.413-13.717-4.289-1.747-.222-3.421-.834-4.9-1.789a2.73 2.73 0 0 1-1.064-2.087c-.005-1.05.47-2.044 1.29-2.7 1.105-.817 2.466-1.211 3.836-1.11a7.27 7.27 0 0 1 4.852 1.49c1.308 1.267 2.123 2.957 2.3 4.769l13.765-.828q-.9-7.552-5.657-11.013Q30.909.023 21.853.026c-3.963-.17-7.918.477-11.621 1.9-2.59 1.075-4.8 2.899-6.347 5.237a12.98 12.98 0 0 0-2.112 7.072 12 12 0 0 0 4.126 9.373q4.093 3.676 13.7 5.9 5.867 1.325 7.479 2.815c1.002.839 1.59 2.072 1.612 3.378a4.56 4.56 0 0 1-1.692 3.494 7.01 7.01 0 0 1-4.819 1.507c-2.503.135-4.912-.967-6.447-2.948a11.07 11.07 0 0 1-1.838-5.3L0 33.348a19.05 19.05 0 0 0 5.253 12.12q4.642 4.769 16.7 4.769c3.894.128 7.772-.566 11.38-2.037 5.808-2.523 9.559-8.258 9.542-14.59.033-2.522-.618-5.006-1.886-7.187-1.461-2.327-3.551-4.193-6.028-5.382z" fill="url(#A)"/><path d="M219.041 6.534Q212.659.025 200.86.025q-11.509 0-17.956 6.624-6.447 6.624-6.447 18.516a34.46 34.46 0 0 0 .888 8.081l-11.942-3.709c-.416 2.569-1.488 4.988-3.111 7.022a9.24 9.24 0 0 1-13.039-.576q-2.384-2.994-2.384-11.067 0-6.516 2-9.56c1.603-2.648 4.515-4.217 7.608-4.1 2.775-.054 5.391 1.29 6.963 3.577a11.51 11.51 0 0 1 1.419 3.246l12.89-2.954a21.81 21.81 0 0 0-7.591-11.39q-5.11-3.71-14.039-3.71-11.412 0-17.65 6.471a19.4 19.4 0 0 0-2.144 2.662v-8.3h-27.2c-8.583 13.798-7.756 20.667-7.756 20.667a11.52 11.52 0 0 1 4.385-1.381c-5.808 17.232-5.277 26.259-4.807 29.265h36.087v-7.684c1.825 2.646 4.294 4.784 7.174 6.211 3.979 1.673 8.275 2.458 12.588 2.3a25.14 25.14 0 0 0 10.461-1.888c2.732-1.253 5.1-3.18 6.882-5.6 1.697-2.345 2.946-4.983 3.685-7.782.47 1.521 1.103 2.986 1.889 4.37 1.937 3.55 4.896 6.434 8.494 8.28 4.15 1.882 8.679 2.777 13.233 2.617a26.02 26.02 0 0 0 13.136-3.031 20.18 20.18 0 0 0 8.059-8.479 30.59 30.59 0 0 0 2.789-13.961q0-11.72-6.383-18.228zm-107.216 4.691h23.289a25.63 25.63 0 0 0-2.425 7.717h-20.864zm0 17.62h20.583a26.6 26.6 0 0 0 2.575 9.572h-23.158zm96.418 7.022a9.88 9.88 0 0 1-13.965.5q-.29-.27-.558-.563-2.66-3.212-2.66-10.566 0-7.419 2.676-10.632a8.77 8.77 0 0 1 7.092-3.213 9.09 9.09 0 0 1 7.3 3.163q2.691 3.163 2.692 10.019.001 8.141-2.578 11.288z" fill="url(#B)"/><path d="M96.949 30.836l-3.283 1.762c-.807-7.761-.592-15.595.641-23.3l-4 1.041c.458-2.145 2.079-6.923 2.968-9.48H77.031l-7.354 29.539L62.271.854h-19.2V49.41h11.96V12.383l9.2 37.029h10.818l9.215-37.029V49.41h14.534a61.36 61.36 0 0 1-1.849-18.574z" fill="url(#C)"/><g fill="#005930"><path d="M9.649 58.742l1.17-.1-.012.29a1.7 1.7 0 0 0 .238.885 1.53 1.53 0 0 0 .786.62 3.51 3.51 0 0 0 1.3.219 2.62 2.62 0 0 0 1.636-.438c.338-.223.547-.595.563-1-.003-.269-.111-.526-.3-.717a5.76 5.76 0 0 0-1.663-.864c-.493-.187-.973-.406-1.438-.654a2.77 2.77 0 0 1-.889-.8c-.192-.295-.292-.64-.286-.992a1.92 1.92 0 0 1 .378-1.16 2.33 2.33 0 0 1 1.106-.791 4.64 4.64 0 0 1 1.642-.273c.631-.019 1.258.097 1.84.341a2.34 2.34 0 0 1 1.087.91 2.13 2.13 0 0 1 .338 1.086l-.006.171-1.151.085a1.8 1.8 0 0 0-.067-.552 1.44 1.44 0 0 0-.378-.586 1.85 1.85 0 0 0-.7-.384 3.24 3.24 0 0 0-1-.145 2.47 2.47 0 0 0-1.517.409.99.99 0 0 0-.414.831c-.003.196.057.389.171.549a1.72 1.72 0 0 0 .615.475q.317.165 1.5.654a10.31 10.31 0 0 1 1.328.626 2.23 2.23 0 0 1 .749.731 1.83 1.83 0 0 1 .262.976 2 2 0 0 1-.442 1.248c-.32.4-.742.706-1.221.885a4.77 4.77 0 0 1-1.785.313 4.5 4.5 0 0 1-2.476-.617c-.694-.52-1.061-1.369-.964-2.231zm7.715.405c-.036-1.086.366-2.141 1.115-2.929a3.2 3.2 0 0 1 2.412-.955 2.62 2.62 0 0 1 1.885.682 2.43 2.43 0 0 1 .716 1.843 4.25 4.25 0 0 1-.451 1.937 3.2 3.2 0 0 1-1.282 1.373 3.46 3.46 0 0 1-1.751.478c-.475.007-.945-.096-1.374-.3-.393-.183-.722-.481-.944-.853a2.46 2.46 0 0 1-.326-1.276zm1.1-.1a1.76 1.76 0 0 0 .439 1.294c.295.295.698.455 1.115.441.24-.001.477-.046.7-.134a2.03 2.03 0 0 0 .646-.406 2.78 2.78 0 0 0 .509-.623 3.52 3.52 0 0 0 .338-.754 3.4 3.4 0 0 0 .189-1.081 1.74 1.74 0 0 0-.442-1.271 1.49 1.49 0 0 0-1.112-.452c-.329-.004-.654.075-.944.23a2.47 2.47 0 0 0-.771.674c-.235.307-.407.658-.506 1.032a4.01 4.01 0 0 0-.161 1.05h0zm9.722 1.302a3.33 3.33 0 0 1-2.382 1.229c-.439.021-.869-.122-1.209-.4-.294-.24-.463-.601-.46-.981.028-.442.097-.879.207-1.308l.78-3.486h1.1l-.862 3.857a3.65 3.65 0 0 0-.11.751.66.66 0 0 0 .222.532.98.98 0 0 0 .655.191 2.08 2.08 0 0 0 .9-.21 2.39 2.39 0 0 0 .761-.569c.221-.251.397-.537.521-.847a7.15 7.15 0 0 0 .311-1.1l.585-2.61h1.1l-1.345 6.04h-1.017zm4.763.254l-.183.841a3.22 3.22 0 0 1-.768.1 1.67 1.67 0 0 1-1.048-.3c-.193-.147-.301-.378-.292-.62a5.83 5.83 0 0 1 .158-.915l.786-3.51h-.871l.177-.8h.871l.335-1.485 1.261-.711-.493 2.2h1.084l-.183.8h-1.078l-.749 3.339a5.97 5.97 0 0 0-.14.762c-.007.105.035.208.113.279.108.075.238.111.369.1a2.82 2.82 0 0 0 .651-.08zm.552.831l1.864-8.338h1.1l-.713 3.2c.339-.323.725-.593 1.145-.8a2.6 2.6 0 0 1 1.09-.242 1.82 1.82 0 0 1 1.249.4 1.33 1.33 0 0 1 .445 1.044 6.38 6.38 0 0 1-.195 1.172l-.8 3.566h-1.1l.822-3.657a6.6 6.6 0 0 0 .177-1c.005-.186-.076-.364-.219-.483-.182-.137-.407-.204-.634-.188-.398 0-.79.101-1.139.293-.351.185-.644.461-.85.8-.268.516-.458 1.068-.563 1.64l-.577 2.593zm11.353-2.048l1.072.1c-.487 1.258-1.697 2.087-3.046 2.087a2.83 2.83 0 0 1-1.319-.31 2.1 2.1 0 0 1-.914-.9c-.214-.416-.322-.88-.314-1.348a4.07 4.07 0 0 1 .49-1.92c.283-.572.724-1.052 1.27-1.382a3.31 3.31 0 0 1 1.687-.452 2.54 2.54 0 0 1 1.849.671c.476.487.727 1.151.691 1.831a5.05 5.05 0 0 1-.085.91h-4.762a2.35 2.35 0 0 0-.024.319c-.033.469.117.932.417 1.294a1.34 1.34 0 0 0 1.02.446 2.06 2.06 0 0 0 1.115-.347 2.3 2.3 0 0 0 .853-.999zm-3.2-1.5h3.631l.006-.228a1.6 1.6 0 0 0-.414-1.186 1.45 1.45 0 0 0-1.066-.412 2.04 2.04 0 0 0-1.288.455 2.7 2.7 0 0 0-.868 1.371z"/><use href="#D"/><path d="M50.522 61.439l1.352-6.04h1l-.238 1.052a5.25 5.25 0 0 1 1.218-.9c.358-.185.754-.282 1.157-.284a1.79 1.79 0 0 1 1.234.4 1.35 1.35 0 0 1 .448 1.064c-.019.357-.071.711-.158 1.058l-.822 3.657h-1.1l.859-3.828a4.11 4.11 0 0 0 .128-.824.61.61 0 0 0-.222-.489.97.97 0 0 0-.643-.188c-.556-.003-1.093.199-1.508.569a3.54 3.54 0 0 0-.972 1.951l-.627 2.809zm9.864-.005l1.864-8.338h1.468l.9 5.4c.114.676.191 1.358.231 2.042a21.65 21.65 0 0 1 1.243-2.281l3.131-5.164h1.492l-1.862 8.341h-1.175l.932-4.055a30.96 30.96 0 0 1 .926-3.145 19.6 19.6 0 0 1-.95 1.752l-3.327 5.448h-1.151l-.9-5.346a16.06 16.06 0 0 1-.177-1.712q-.152 1.1-.3 1.74l-1.182 5.318zm14.283-.747a4.42 4.42 0 0 1-1.1.674 3.01 3.01 0 0 1-1.133.213 2.08 2.08 0 0 1-1.444-.492c-.361-.318-.562-.779-.548-1.26a1.64 1.64 0 0 1 .247-.9 1.87 1.87 0 0 1 .655-.626c.311-.171.649-.285 1-.338a11.87 11.87 0 0 1 1.41-.108c.503.002 1.005-.067 1.489-.205a2.5 2.5 0 0 0 .128-.7.66.66 0 0 0-.28-.563 1.87 1.87 0 0 0-1.129-.277 2.05 2.05 0 0 0-1.136.287c-.297.195-.523.481-.643.816l-1.115-.091a2.74 2.74 0 0 1 1.081-1.376 3.38 3.38 0 0 1 1.867-.478 3.06 3.06 0 0 1 1.9.534 1.23 1.23 0 0 1 .536 1.035 4.9 4.9 0 0 1-.152 1.121l-.359 1.5a5.28 5.28 0 0 0-.171 1.166 3.66 3.66 0 0 0 .134.819h-1.109a3.61 3.61 0 0 1-.128-.751zm.408-2.309a2.79 2.79 0 0 1-.5.13q-.265.046-.886.1c-.458.024-.913.09-1.358.2a1.14 1.14 0 0 0-.6.389.96.96 0 0 0-.2.591.9.9 0 0 0 .32.711c.259.201.583.3.911.279a2.21 2.21 0 0 0 1.054-.27c.331-.173.607-.434.8-.754a4.18 4.18 0 0 0 .459-1.375z"/><use href="#D" x="30.205"/><path d="M80.312 63.77l.067-.967c.216.059.44.09.664.091a.94.94 0 0 0 .542-.145 2.4 2.4 0 0 0 .585-.705l.353-.591-1.078-6.054h1.089l.487 3.054q.146.9.25 1.808l2.893-4.862h1.151l-4.124 6.842a4.42 4.42 0 0 1-1.06 1.325 1.81 1.81 0 0 1-1.066.324c-.256 0-.51-.04-.753-.12z"/><use href="#E"/><path d="M93.423 60.687a4.42 4.42 0 0 1-1.1.674 3.01 3.01 0 0 1-1.133.213 2.08 2.08 0 0 1-1.444-.492c-.361-.318-.562-.779-.548-1.26a1.64 1.64 0 0 1 .247-.9 1.87 1.87 0 0 1 .652-.617c.311-.171.649-.285 1-.338a11.87 11.87 0 0 1 1.41-.108c.503.002 1.005-.067 1.489-.205a2.5 2.5 0 0 0 .128-.7.66.66 0 0 0-.28-.563 1.87 1.87 0 0 0-1.121-.284 2.05 2.05 0 0 0-1.136.287c-.297.195-.523.481-.643.816l-1.115-.091a2.74 2.74 0 0 1 1.081-1.376 3.38 3.38 0 0 1 1.867-.478 3.06 3.06 0 0 1 1.9.534 1.23 1.23 0 0 1 .536 1.035 4.9 4.9 0 0 1-.152 1.121l-.359 1.5a5.28 5.28 0 0 0-.171 1.166 3.66 3.66 0 0 0 .134.819h-1.114a3.57 3.57 0 0 1-.128-.753zm.408-2.309a2.79 2.79 0 0 1-.5.13q-.265.046-.886.1a7.32 7.32 0 0 0-1.358.2 1.14 1.14 0 0 0-.6.389.96.96 0 0 0-.2.591.9.9 0 0 0 .32.711c.259.201.583.3.911.279a2.21 2.21 0 0 0 1.054-.27c.331-.173.607-.434.8-.754a4.18 4.18 0 0 0 .46-1.375zm1.832 3.061l1.352-6.04h1l-.238 1.052a5.25 5.25 0 0 1 1.218-.9c.358-.185.754-.282 1.157-.284a1.79 1.79 0 0 1 1.234.4 1.35 1.35 0 0 1 .448 1.064c-.019.357-.071.711-.158 1.058l-.822 3.657h-1.1l.859-3.828a4.11 4.11 0 0 0 .128-.824.61.61 0 0 0-.222-.489.97.97 0 0 0-.643-.188c-.556-.003-1.093.199-1.508.569-.521.532-.861 1.215-.972 1.951l-.627 2.809zm10.964-.877a2.72 2.72 0 0 1-1.974 1.012 2.04 2.04 0 0 1-1.532-.634c-.439-.509-.659-1.17-.612-1.84-.008-.702.158-1.394.484-2.016a3.49 3.49 0 0 1 1.212-1.368c.433-.287.939-.445 1.459-.455.766-.023 1.477.401 1.821 1.086l.731-3.248h1.1l-1.867 8.335h-1.012zm-3.021-1.655a2.97 2.97 0 0 0 .134 1 1.31 1.31 0 0 0 .457.606c.224.164.496.249.774.242a1.76 1.76 0 0 0 1.358-.728c.553-.67.843-1.519.816-2.388a1.52 1.52 0 0 0-.4-1.121 1.37 1.37 0 0 0-1.011-.4c-.25-.003-.498.053-.722.165a2.06 2.06 0 0 0-.646.56c-.234.301-.416.639-.539 1a3.22 3.22 0 0 0-.221 1.064zm8.536 2.527l1.87-8.338h6.445l-.213.95h-5.251l-.585 2.594h5.117l-.213.95h-5.117l-.646 2.9h5.623l-.213.944h-6.817z"/><use href="#E" x="33.352"/><path d="M127.166 59.386l1.072.1c-.487 1.258-1.697 2.087-3.046 2.087a2.83 2.83 0 0 1-1.319-.31 2.1 2.1 0 0 1-.914-.9c-.214-.416-.322-.88-.314-1.348a4.07 4.07 0 0 1 .49-1.92c.283-.572.724-1.052 1.27-1.382.512-.299 1.094-.455 1.687-.452a2.54 2.54 0 0 1 1.849.671c.476.487.727 1.151.691 1.831a5.05 5.05 0 0 1-.085.91h-4.762a2.36 2.36 0 0 0-.024.319c-.033.469.117.932.417 1.294.259.289.631.452 1.02.446.397-.006.785-.126 1.115-.347a2.3 2.3 0 0 0 .853-.999zm-3.2-1.5h3.626l.006-.228a1.6 1.6 0 0 0-.414-1.186 1.45 1.45 0 0 0-1.066-.412c-.469-.001-.924.16-1.288.455a2.7 2.7 0 0 0-.868 1.375z"/><use href="#F"/><path d="M137.494 60.603l-.183.841a3.22 3.22 0 0 1-.768.1 1.67 1.67 0 0 1-1.048-.3c-.193-.147-.301-.378-.292-.62a5.83 5.83 0 0 1 .158-.915l.786-3.51h-.871l.177-.8h.871l.335-1.485 1.261-.711-.493 2.2h1.081l-.183.8h-1.075l-.749 3.339a5.97 5.97 0 0 0-.14.762c-.007.105.035.208.113.279.108.075.238.111.369.1a2.82 2.82 0 0 0 .651-.08zm.553.836l1.352-6.04h.975l-.274 1.234a4.31 4.31 0 0 1 .978-1.035c.283-.212.625-.329.978-.336a2.02 2.02 0 0 1 .81.221l-.451.956a1.1 1.1 0 0 0-.628-.193 1.74 1.74 0 0 0-1.188.6 4.43 4.43 0 0 0-.956 2.167l-.55 2.426z"/><use href="#G"/><use href="#F" x="15.283"/><path d="M160.437 58.504l1.182.153a4.57 4.57 0 0 1-1.633 2.184 4.14 4.14 0 0 1-2.406.739 3.26 3.26 0 0 1-3.533-3.583 5.09 5.09 0 0 1 1.45-3.725 4.32 4.32 0 0 1 3.21-1.314 3.55 3.55 0 0 1 2.3.711c.586.472.954 1.162 1.02 1.911l-1.115.1a2.01 2.01 0 0 0-2.15-1.8 3.15 3.15 0 0 0-2.65 1.359 4.51 4.51 0 0 0-.877 2.781 2.66 2.66 0 0 0 .676 1.962 2.38 2.38 0 0 0 1.76.677 2.72 2.72 0 0 0 1.675-.563 3.18 3.18 0 0 0 1.091-1.592zm1.76.643c-.036-1.086.366-2.141 1.115-2.929a3.2 3.2 0 0 1 2.412-.955 2.62 2.62 0 0 1 1.885.682 2.43 2.43 0 0 1 .716 1.843 4.25 4.25 0 0 1-.451 1.937 3.2 3.2 0 0 1-1.282 1.373 3.46 3.46 0 0 1-1.751.478c-.475.007-.945-.096-1.374-.3-.393-.183-.722-.481-.944-.853a2.46 2.46 0 0 1-.326-1.276zm1.1-.1a1.76 1.76 0 0 0 .439 1.294c.295.295.698.455 1.115.441.24-.001.477-.046.7-.134a2.03 2.03 0 0 0 .646-.406 2.78 2.78 0 0 0 .509-.623 3.52 3.52 0 0 0 .338-.754 3.4 3.4 0 0 0 .189-1.081 1.74 1.74 0 0 0-.442-1.271 1.49 1.49 0 0 0-1.112-.452c-.329-.004-.654.075-.944.23a2.47 2.47 0 0 0-.771.674c-.235.307-.407.658-.506 1.032a4.01 4.01 0 0 0-.161 1.05h0zm5.501.1c-.036-1.086.366-2.141 1.115-2.929a3.2 3.2 0 0 1 2.412-.955 2.62 2.62 0 0 1 1.885.682 2.43 2.43 0 0 1 .716 1.843 4.25 4.25 0 0 1-.451 1.937 3.2 3.2 0 0 1-1.282 1.373 3.46 3.46 0 0 1-1.751.478c-.475.007-.945-.096-1.374-.3-.393-.183-.722-.481-.944-.853a2.46 2.46 0 0 1-.326-1.276zm1.1-.1a1.76 1.76 0 0 0 .439 1.294c.295.295.698.455 1.115.441.24-.001.477-.046.7-.134a2.03 2.03 0 0 0 .646-.406 2.78 2.78 0 0 0 .509-.623 3.52 3.52 0 0 0 .338-.754 3.4 3.4 0 0 0 .189-1.081 1.74 1.74 0 0 0-.442-1.271 1.49 1.49 0 0 0-1.112-.452c-.329-.004-.654.075-.944.23a2.47 2.47 0 0 0-.771.674c-.235.307-.407.658-.506 1.032a4.04 4.04 0 0 0-.159 1.048zm4.764 4.706l1.87-8.355h1.017l-.189.841a4.04 4.04 0 0 1 1.014-.765c.296-.141.619-.214.947-.213a2.05 2.05 0 0 1 1.535.628 2.48 2.48 0 0 1 .609 1.8 4.3 4.3 0 0 1-.335 1.72 3.82 3.82 0 0 1-.822 1.249 3.45 3.45 0 0 1-.987.694 2.49 2.49 0 0 1-1.023.222 1.99 1.99 0 0 1-1.8-1.1l-.731 3.281zm2.181-4.783c-.018.316.015.633.1.938a1.29 1.29 0 0 0 .5.6c.238.153.517.232.8.227a1.74 1.74 0 0 0 1.535-1 3.98 3.98 0 0 0 .585-2.039c.032-.431-.104-.858-.381-1.19-.25-.274-.607-.426-.978-.418a1.53 1.53 0 0 0-.78.208 2.25 2.25 0 0 0-.667.62 3.6 3.6 0 0 0-.509 1.009c-.122.334-.189.686-.2 1.041h0zm9.714.416l1.072.1c-.487 1.258-1.697 2.087-3.046 2.087a2.83 2.83 0 0 1-1.319-.31 2.1 2.1 0 0 1-.914-.9c-.214-.416-.322-.88-.314-1.348a4.07 4.07 0 0 1 .49-1.92c.283-.572.724-1.052 1.27-1.382a3.31 3.31 0 0 1 1.687-.452 2.54 2.54 0 0 1 1.849.671c.476.487.727 1.151.691 1.831a5.05 5.05 0 0 1-.085.91h-4.762a2.35 2.35 0 0 0-.024.319c-.033.469.117.932.417 1.294a1.34 1.34 0 0 0 1.02.446 2.06 2.06 0 0 0 1.115-.347 2.3 2.3 0 0 0 .853-.999zm-3.2-1.5h3.631l.006-.228a1.6 1.6 0 0 0-.414-1.186 1.45 1.45 0 0 0-1.066-.412 2.04 2.04 0 0 0-1.288.455 2.7 2.7 0 0 0-.873 1.375z"/><use href="#D" x="141.703"/><path d="M196.586 60.687a4.42 4.42 0 0 1-1.1.674 3.01 3.01 0 0 1-1.133.213 2.08 2.08 0 0 1-1.444-.492c-.361-.318-.562-.779-.548-1.26a1.64 1.64 0 0 1 .247-.9 1.87 1.87 0 0 1 .655-.626c.311-.171.649-.285 1-.338a11.87 11.87 0 0 1 1.41-.108c.503.002 1.005-.067 1.489-.205a2.5 2.5 0 0 0 .128-.7.66.66 0 0 0-.28-.563 1.87 1.87 0 0 0-1.124-.277 2.05 2.05 0 0 0-1.136.287c-.297.195-.523.481-.643.816l-1.115-.091a2.74 2.74 0 0 1 1.081-1.376 3.38 3.38 0 0 1 1.867-.478 3.06 3.06 0 0 1 1.9.534 1.23 1.23 0 0 1 .536 1.035 4.9 4.9 0 0 1-.152 1.121l-.359 1.5a5.28 5.28 0 0 0-.171 1.166 3.66 3.66 0 0 0 .134.819h-1.115c-.069-.245-.112-.497-.127-.751zm.408-2.309a2.79 2.79 0 0 1-.5.13q-.265.046-.886.1a7.32 7.32 0 0 0-1.358.2 1.14 1.14 0 0 0-.6.389.96.96 0 0 0-.2.591.9.9 0 0 0 .32.711c.259.201.583.3.911.279a2.21 2.21 0 0 0 1.054-.27c.331-.173.607-.434.8-.754a4.19 4.19 0 0 0 .457-1.376h0zm4.409 2.225l-.183.841a3.22 3.22 0 0 1-.768.1 1.67 1.67 0 0 1-1.048-.3c-.193-.147-.301-.378-.292-.62a5.83 5.83 0 0 1 .159-.915l.786-3.51h-.87l.177-.8h.871l.335-1.485 1.261-.711-.493 2.2h1.084l-.183.8h-1.078l-.749 3.339a5.86 5.86 0 0 0-.14.762c-.007.105.035.208.113.279.108.075.238.111.369.1.219-.001.436-.028.649-.08z"/><use href="#G" x="60.09"/><path d="M206.023 61.438l-1.06-6.04h1.072l.554 3.327q.091.546.225 1.78.317-.643.81-1.473l2.162-3.634h1.163l-3.7 6.04zm9.019-2.052l1.072.1c-.487 1.258-1.697 2.087-3.046 2.087a2.83 2.83 0 0 1-1.319-.31 2.1 2.1 0 0 1-.914-.9c-.214-.416-.322-.88-.314-1.348a4.07 4.07 0 0 1 .49-1.92c.283-.572.724-1.052 1.27-1.382a3.31 3.31 0 0 1 1.687-.452 2.54 2.54 0 0 1 1.849.671c.476.487.727 1.151.691 1.831a5.05 5.05 0 0 1-.085.91h-4.763c-.015.106-.023.212-.024.319-.033.469.117.932.417 1.294a1.34 1.34 0 0 0 1.02.446 2.06 2.06 0 0 0 1.115-.347 2.3 2.3 0 0 0 .854-.999zm-3.2-1.5h3.631l.006-.228a1.6 1.6 0 0 0-.414-1.186 1.45 1.45 0 0 0-1.066-.412 2.04 2.04 0 0 0-1.288.455 2.7 2.7 0 0 0-.875 1.375z"/></g></svg>