<svg xmlns="http://www.w3.org/2000/svg" width="391" height="120" fill="none" xmlns:v="https://vecta.io/nano"><path d="M127.295 69.816c-3.603 0-6.003-.716-8.088-1.606v15.628h-8.088v-52.9c4.886-2.401 10.81-3.606 15.862-3.606 12.817 0 19.858 8.172 19.858 20.439 0 12.983-6.727 22.045-19.544 22.045h0zm-1.117-6.732c8.332 0 12.251-5.37 12.251-15.069 0-7.936-3.447-13.865-11.858-13.865-2.887 0-5.287.724-7.372 1.685v25.486c1.841.882 3.848 1.764 6.971 1.764h.008zm60.694 4.008c-3.761 1.764-8.569 2.803-13.777 2.803-12.738 0-21.141-7.771-21.141-21.321 0-12.503 7.451-21.242 19.142-21.242 10.575 0 16.822 7.613 16.822 17.793 0 2.086-.157 3.85-.323 5.37h-27.309c.802 8.574 5.688 12.503 13.533 12.503 4.004 0 8.088-.96 11.691-2.48l1.362 6.566v.008zm-26.515-21.801h19.622c.079-.48.079-.803.079-1.283 0-5.37-2.801-10.023-8.97-10.023s-10.015 4.409-10.731 11.298v.008zm51.063 24.525c-3.604 0-6.004-.716-8.089-1.606v15.628h-8.088v-52.9c4.886-2.401 10.811-3.606 15.862-3.606 12.817 0 19.859 8.172 19.859 20.439 0 12.983-6.727 22.045-19.544 22.045h0zm-1.118-6.732c8.333 0 12.251-5.37 12.251-15.069 0-7.936-3.446-13.865-11.857-13.865-2.888 0-5.288.724-7.373 1.685v25.486c1.842.882 3.848 1.764 6.971 1.764h.008zm57.326-33.343l-1.605 6.488c-3.045-1.283-6.491-2.086-9.614-2.086-7.853 0-12.093 5.692-12.093 14.502 0 9.377 4.484 14.424 12.895 14.424 2.966 0 6.247-.803 9.213-2.244l1.44 6.574c-2.801 1.441-6.884 2.488-11.211 2.488-13.132 0-20.583-7.936-20.583-21.077s7.207-21.478 19.78-21.478c4.563 0 8.812 1.039 11.77 2.409h.008zm22.015 40.153c-11.857 0-18.986-8.574-18.986-21.321s7.129-21.242 18.986-21.242 19.064 8.574 19.064 21.242-7.05 21.321-19.064 21.321zm0-6.81c7.286 0 10.732-5.692 10.732-14.502s-3.446-14.424-10.732-14.424-10.732 5.692-10.732 14.424 3.682 14.502 10.732 14.502zm18.584-37.232c.559.213 1.338.449 2.211.449 1.062 0 1.684-.401 1.684-1.228 0-.929-.708-1.212-1.873-1.59-1.369-.449-2.203-1.047-2.203-2.385 0-1.449 1.015-2.26 2.738-2.26.755 0 1.574.181 2.093.394l-.252 1.031c-.558-.189-1.156-.331-1.77-.331-1.047 0-1.558.394-1.558 1.134 0 .803.527 1.079 1.558 1.417 1.416.472 2.525.968 2.525 2.59s-1.274 2.33-2.887 2.33c-.991 0-1.904-.205-2.494-.457l.236-1.079-.008-.016zm15.059-6.873v8.267h-1.156v-4.779c0-.496.023-.953.063-1.378-.677 1.535-1.527 3.102-2.62 4.818h-1.008c-1.109-1.709-1.959-3.291-2.651-4.826a12.52 12.52 0 0 1 .071 1.394v4.779h-1.149v-8.267h1.275c.802 1.968 1.746 3.756 2.958 5.692 1.204-1.937 2.124-3.716 2.927-5.692h1.282l.008-.008zm-201.758 95.258h-8.356c-.605 1.795-1.188 3.622-1.715 5.448h-1.959c2.061-6.668 4.257-12.936 6.845-18.518h1.983c2.588 5.582 4.839 11.771 6.876 18.518h-1.959c-.527-1.826-1.109-3.653-1.715-5.448zm-7.797-1.669h7.246c-1.298-3.779-2.62-7.196-3.619-9.448-1.007 2.252-2.329 5.661-3.619 9.448h-.008zm15.445 7.117v-18.518h1.849c3.226 5.764 6.396 10.472 10.283 15.841-.055-.685-.079-1.535-.079-2.511v-13.33h1.794v18.518h-1.849c-4.044-5.425-7.372-9.999-10.283-15.368a50.12 50.12 0 0 1 .079 2.968v12.408h-1.802l.008-.008zm38.018 0h-10.787v-18.518h10.787v1.662h-8.883v6.511h7.616v1.669h-7.616v7.015h8.883v1.669-.008zm10.425-8.361c-1.692 2.299-3.651 5.314-5.051 8.361h-2.007c1.479-3.362 3.753-6.668 6.161-9.708l-5.791-8.81h2.195l5.051 7.669c2.007-2.488 3.73-5.236 4.706-7.669h1.982c-1.243 3.071-3.304 6.086-5.814 8.992l6.239 9.526h-2.171l-5.5-8.361h0zm22.384 8.361h-10.787v-18.518h10.787v1.662h-8.883v6.511h7.616v1.669h-7.616v7.015h8.883v1.669-.008zm4.351-18.518h1.904v16.849h8.781v1.669h-10.685v-18.518h0zM225.385 120c-5.263 0-7.773-4.204-7.773-9.574s2.455-9.574 7.773-9.574 7.797 4.205 7.797 9.574-2.509 9.574-7.797 9.574zm0-1.716c4.099 0 5.815-3.488 5.815-7.858s-1.716-7.857-5.815-7.857-5.791 3.495-5.791 7.857 1.716 7.858 5.791 7.858zm12.676 1.401v-18.518h1.848c3.226 5.764 6.397 10.472 10.284 15.841-.055-.685-.079-1.535-.079-2.511v-13.33h1.794v18.518h-1.849c-4.044-5.425-7.38-9.999-10.283-15.368a50.16 50.16 0 0 1 .078 2.968v12.408h-1.801l.008-.008zm26.278-9.046c0-5.582 2.644-9.787 8.246-9.787 1.558 0 3.124.347 4.524.929l-.472 1.638c-1.243-.449-2.463-.85-4.02-.85-4.493 0-6.295 3.598-6.295 8.07s2.038 7.645 6.42 7.645c1.747 0 3.014-.481 4.1-.953l.393 1.638c-1.086.551-2.746 1.031-4.548 1.031-5.476 0-8.355-3.732-8.355-9.361h.007zM287.723 120c-5.264 0-7.773-4.204-7.773-9.574s2.462-9.574 7.773-9.574 7.797 4.205 7.797 9.574-2.51 9.574-7.797 9.574zm0-1.716c4.099 0 5.815-3.488 5.815-7.858s-1.724-7.857-5.815-7.857-5.791 3.495-5.791 7.857 1.715 7.858 5.791 7.858zm31.047-17.117v18.518h-1.794v-12.329c0-1.055.055-2.008.079-2.835-1.692 3.913-3.808 7.881-6.633 12.33h-1.636c-2.833-4.441-4.973-8.464-6.688-12.353.079.819.102 1.803.102 2.858v12.329h-1.802v-18.518h1.983c1.904 4.653 4.312 9.102 7.246 13.81 2.912-4.708 5.288-9.157 7.168-13.81h1.983-.008zm5.759 0h4.493c4.469 0 7.349 1.795 7.349 5.929s-2.88 5.897-7.349 5.897h-2.589v6.692h-1.904v-18.518zm4.469 1.662h-2.565v8.495h2.565c3.25 0 5.421-.977 5.421-4.236s-2.171-4.259-5.421-4.259h0zm21.102 11.4h-8.355c-.606 1.795-1.189 3.622-1.724 5.448h-1.959c2.062-6.668 4.257-12.935 6.845-18.518h1.983c2.589 5.583 4.839 11.771 6.877 18.518h-1.959c-.527-1.826-1.11-3.653-1.716-5.448h.008zm-7.797-1.669h7.246c-1.298-3.779-2.62-7.196-3.619-9.448-1.007 2.252-2.329 5.661-3.619 9.448h-.008zm15.445 7.117v-18.518h1.849c3.226 5.764 6.397 10.472 10.283 15.841-.055-.685-.078-1.535-.078-2.511v-13.33h1.794v18.518h-1.85c-4.044-5.424-7.372-9.999-10.283-15.368.055.897.079 1.937.079 2.968v12.408h-1.802l.008-.008zm24.036-7.802c-2.801-3.732-4.783-6.905-6.341-10.716h2.006c1.322 3.228 2.856 5.764 5.311 9.126 2.431-3.331 3.942-5.898 5.264-9.126h2.006c-1.613 3.811-3.541 7.008-6.342 10.661v7.857h-1.904v-7.802h0z" fill="#fff"/><path d="M84.462 51.196c-1.227-3.488-3.218-7.062-5.004-10.093-2.282-3.882-2.935-7.676-2.179-12.707 1.102-7.33-.834-14.046-5.185-17.967-2.856-2.575-8.088-5.181-16.767-2.929-7.065 1.827-13.588-1.638-18.828-4.425C32.471.933 29.284-.759 26.83.351c-1.424.646-2.407 2.189-3.005 4.716-1.574 6.676-3.092 11.29-4.784 14.526-1.408 2.693-2.911 4.417-5.012 5.747-5.224 3.315-9.064 7.007-11.409 10.967C.535 39.843-.315 43.591.157 47.157c.417 3.126 1.841 6.078 4.107 8.519 2.203 2.378 5.091 4.157 8.348 5.165 2.581.795 4.642 2.189 6.294 4.252 1.574 1.968 2.793 4.574 3.722 7.96.826 3.023 2.148 5.558 3.926 7.558 1.77 1.992 3.903 3.33 6.334 3.976 1.086.291 2.203.433 3.352.433 1.755 0 3.58-.338 5.437-1.023 3.234-1.181 6.444-3.346 9.552-6.432 3.021-3 5.799-4.897 8.734-5.96 2.596-.945 5.004-1.11 7.545-1.291 2.895-.205 5.893-.417 9.442-1.772 4.296-1.645 7.042-4.102 8.159-7.299.968-2.771.755-6.054-.645-10.054v.008zm-6.16-.205c-.527 5.724-3.249 10.424-8.081 13.975-2.124 1.551-4.194 2.575-6.302 3.464a32.42 32.42 0 0 0 4.091-3.7c2.982-3.204 5.248-6.897 6.735-10.983a32.32 32.32 0 0 0 1.943-12.29 31.65 31.65 0 0 0-.22-2.74l.425.882c1.251 4.11 1.731 7.928 1.416 11.393h-.008zm-32.92 22.769a27.1 27.1 0 0 1-1.133.024 30.89 30.89 0 0 1-21.196-8.361 30.97 30.97 0 0 1-9.898-21.699c-.299-8.322 2.667-16.258 8.332-22.344 5.673-6.094 13.368-9.605 21.684-9.904.378-.016.755-.024 1.133-.024a30.89 30.89 0 0 1 21.196 8.361 30.97 30.97 0 0 1 9.898 21.699c.299 8.322-2.667 16.258-8.332 22.344-5.673 6.094-13.368 9.605-21.684 9.904zm20.992-54.892a32.18 32.18 0 0 0-10.976-6.74 32.26 32.26 0 0 0-6.995-1.693c8.553-.858 15.697 2.882 19.914 10.416-.622-.685-1.259-1.346-1.944-1.984zm-35.359-5.873c-3.965 1.771-7.482 4.299-10.464 7.503-.094.102-.181.213-.275.315a82.4 82.4 0 0 0 1.102-2.582l1.172-2.228c3.045-5.653 8.261-5.448 14.863-5.189.118 0 .244.008.362.016-2.321.472-4.579 1.189-6.759 2.165zM11.873 43.764c.149 4.212 1.094 8.291 2.809 12.117a32.09 32.09 0 0 0 3.777 6.354c-4.052-3.063-6.829-7.251-7.876-11.952-1.07-4.81-.338-9.952 2.101-14.991-.637 2.764-.921 5.598-.818 8.472h.008zm21.275 29.336a32.18 32.18 0 0 0 11.102 1.96c.393 0 .787 0 1.172-.024a32.56 32.56 0 0 0 5.752-.724c-3.187 1.842-6.53 2.811-9.811 2.811-.684 0-1.361-.039-2.03-.126-3.942-.48-7.443-2.338-10.126-5.354-.173-.197-.346-.386-.527-.575a32.24 32.24 0 0 0 4.469 2.031zm38.797-47.956l-1.833-3.653c-2.124-4.307-5.224-7.716-8.962-9.842-2.195-1.244-4.571-2.039-7.105-2.409 4.367-.441 8.261.472 11.361 2.701 1.99 1.433 3.635 3.362 4.878 5.732 1.204 2.291 1.975 4.889 2.305 7.716.055.488.126.96.197 1.433l-.842-1.677zM37.451 9.531c-3.312-.134-6.436-.252-9.158.433-1.912.48-3.478 1.323-4.76 2.575l.661-1.866c1.094-3.134 2.691-4.228 5.067-4.228 1.794 0 4.028.63 6.821 1.472 1.998.606 4.217 1.283 6.593 1.708-1.77.032-3.509-.031-5.217-.094h-.008zM12.848 32.277c-3.611 6.07-4.831 12.392-3.517 18.282.708 3.181 2.156 6.141 4.225 8.708C9.544 56.81 6.9 53.038 6.223 48.724c-.637-4.094.228-10.534 7.632-18.226-.33.614-.661 1.213-.999 1.779h-.008zm15.398 40.216c2.895 3.252 6.672 5.252 10.929 5.771.724.087 1.456.134 2.195.134 2.557 0 5.138-.551 7.663-1.598-4.304 2.968-8.812 4.11-12.896 3.22-4.099-.898-7.475-3.755-9.512-8.046-.488-1.031-1.109-2.071-1.833-3.094 1.133 1.087 2.282 2.291 3.462 3.622l-.008-.008zm38.852-4.125c1.282-.654 2.565-1.409 3.879-2.378 5.146-3.771 8.041-8.779 8.6-14.888.149-1.653.118-3.385-.071-5.173.968 2.913 1.479 5.527 1.511 7.857.031 2.59-.519 4.889-1.644 6.842-1.259 2.197-3.281 4.031-6.011 5.464-2.227 1.173-4.241 1.787-6.263 2.267v.008zm4.146-56.986c4.028 3.63 5.814 9.92 4.776 16.825-.26 1.716-.346 3.283-.283 4.779l-.7-1.543c-.519-1.929-.905-3.96-1.172-6.204-.346-2.984-1.172-5.732-2.447-8.164-1.338-2.551-3.108-4.629-5.264-6.173-2.046-1.472-4.406-2.409-6.987-2.819 6.043-.701 9.859 1.299 12.077 3.299zM27.373 1.516c.354-.157.747-.228 1.172-.228 1.873 0 4.461 1.378 7.364 2.921 3.234 1.724 6.947 3.685 11.007 4.582-3.745-.063-7.262-1.126-10.464-2.102-3.061-.929-5.696-1.732-7.978-1.496-1.582.165-2.832.811-3.824 1.984l.44-1.811c.496-2.118 1.243-3.378 2.29-3.842l-.008-.008zM5.216 54.81c-2.085-2.252-3.391-4.952-3.777-7.818-.448-3.323.323-6.7 2.29-10.031 2.234-3.787 5.933-7.33 10.992-10.534.661-.425 1.275-.89 1.849-1.409l-.228.464c-.85 1.315-1.707 2.386-2.636 3.299-8.521 8.424-9.465 15.597-8.765 20.132.582 3.771 2.549 7.157 5.547 9.716-2.014-.953-3.816-2.252-5.28-3.834l.008.016zm36.02 27.989c-2.825 1.031-5.523 1.22-8.017.551-2.179-.583-4.099-1.795-5.704-3.59-1.644-1.842-2.872-4.212-3.643-7.039-.598-2.181-1.33-4.071-2.203-5.708 1.503 1.661 2.84 3.527 3.784 5.511 2.211 4.661 5.901 7.763 10.402 8.747.999.22 2.022.331 3.061.331 2.73 0 5.547-.756 8.324-2.22-1.983 1.535-3.989 2.685-5.995 3.417h-.008zm42.66-21.974c-1.007 2.866-3.43 4.999-7.412 6.527-2.25.858-4.28 1.236-6.224 1.449 1.188-.394 2.408-.89 3.69-1.567 5.602-2.945 8.411-7.472 8.34-13.463-.024-2.142-.425-4.488-1.188-7.062.826 1.622 1.574 3.283 2.148 4.913 1.306 3.708 1.519 6.716.645 9.204z" fill="url(#A)"/><defs><linearGradient id="A" x1="25.484" y1="80.807" x2="67.793" y2="7.579" gradientUnits="userSpaceOnUse"><stop offset=".17" stop-color="#ac45ff"/><stop offset=".25" stop-color="#5e24bd"/><stop offset=".46" stop-color="#3d67b4"/><stop offset=".64" stop-color="#239dad"/><stop offset=".8" stop-color="#0fc3a9"/><stop offset=".92" stop-color="#04dba6"/><stop offset="1" stop-color="#00e4a5"/></linearGradient></defs></svg>